<svg version="1.1" viewBox="0 0 144 144" xmlns="http://www.w3.org/2000/svg">
  <path fill="#FACF00" d="m0 72c0-39.8 32.2-72 72-72h0.011c39.8 0.003 72 32.2 72 72 7e-5 39.3-31.6 71.3-70.7 72h-2.52c-39.2-0.672-70.7-32.6-70.7-72z"/>
  <path fill="#DE411A" d="m42.9 54c1.96-1.85-0.236-9.01-0.236-9.01 7.5e-5 -7.5e-5 4.7 3.68 8.46 1.78 3.75-1.9 2.79-10.3 2.79-10.3s3.94 7.31 8.71 5.98c4.77-1.33 6.06-7.97 6.06-7.97 0-7.5e-5 0.037 7.15 4.99 7.15 4.95 7.5e-4 8.37-7.11 8.37-7.11 7.5e-5 -7.5e-5 -0.185 8.22 3.24 9.33 3.44 1.11 8.53-3.63 8.53-3.63 0-7.5e-5 -1.61 7.46 2.05 9.56 3.65 2.11 9.42-1.02 9.42-1.02 0-1.5e-4 -5.68 6.53-3.6 9.47 2.08 2.96 7.07 1.69 7.07 1.69 1.5e-4 -7.5e-5 -3.2 3.91-2.82 7.82 0.272 2.8 8.15 5 8.15 5 1.5e-4 0-5.35 1.74-6.66 5.78-1.3 4.04 2.6 7.55 2.6 7.55s-3.61-0.464-5.83 2.98c-2.21 3.44 0.733 6.57 0.733 6.57s-4.73-2.28-7.85 0.411c-3.14 2.68-1.76 7.26-1.76 7.26 7.5e-5 -7e-5 -4.56-3.49-7.91-1.8-3.37 1.69-3.99 6.31-3.99 6.31 7.5e-5 8e-5 -2.99-4.93-6.4-4.84-3.4 0.089-4.6 5.53-4.6 5.53 7.5e-5 0-2.01-5.55-5.63-6.06-3.62-0.503-8.01 5.62-8.01 5.62s0.764-6.83-2.31-9.36c-3.07-2.52-10.5 2.08-10.5 2.08s2.8-5.48 0.519-8.42c-2.28-2.95-9.13 0.837-9.13 0.837s2.8-5.69 1.51-9.05c-1.29-3.37-16.5-4.18-16.5-4.18s12.2-4.33 13-8.15c0.699-3.82-4.95-7.48-4.95-7.48s5.98 0.043 7.29-2.6c1.3-2.64-2.74-7.54-2.74-7.54s5.99 1.64 7.95-0.208z"/>
  <path fill="#1F1A17" d="m58.5 58.2c-5.01 0.077-8.67 3.95-8.67 3.95s-1.97 2.67-1.63 3.02c0.34 0.346 2.15-1.53 2.15-1.53 7.5e-5 -7.5e-5 3.07-3.73 8.28-3.22 3.28 0.311 4.48 3.62 4.49 3.73 0 0 1.23 1.39 2.45 0.718 1.22-0.674-0.656-3.57-0.656-3.57 0-7.5e-5 -1.91-2.95-5.93-3.1-0.164-0.005-0.328-0.006-0.489-0.004zm29.5 2.32c-2.24 0.027-4.35 0.684-6.78 2.51 7.5e-5 -7.5e-5 -3.09 2.77-2.46 3.28 0.617 0.503 2.06-1.4 2.06-1.4 7.6e-5 -7.5e-5 4.64-3.8 8.58-2.58 3.93 1.22 4.53 4.79 4.53 4.79s1.53 1.53 2.41 0.686c0.87-0.856 0.017-3.15 0.017-3.15 0.051-0.321-2.48-3.36-5.18-3.83-1.12-0.197-2.17-0.314-3.19-0.302zm-13.9 1.24c-0.668 0.047-1.15 2.34-0.148 7.78 0.415 2.25 1.99 7.87 4.56 7.31 1.4-0.309-1.02-2.33-2.81-8.11-1.18-3.83-0.898-6.62-1.39-6.92-0.071-0.042-0.143-0.062-0.212-0.057zm-18 16.4c-0.003 3e-3 0.032 0.048 0.055 0.082l0.020-0.017c-0.046-0.047-0.072-0.067-0.076-0.064zm0.055 0.082-1.66 1.42 1.88-0.010c-1.34-1.84 9.65 12 22.1 10.1 13.3-2.06 15.1-10.3 15.1-10.3l-0.788 0.196c-0.438 1.03-3.43 6.47-14.7 7.5-13 1.2-21.4-8.05-21.9-8.85zm36.6 1.35c0.092-0.217 0.078-0.253-3e-3 0.001z"/>
  <path fill="#1F1A17" d="m121 86c-0.238-0.003-0.449 0.058-0.633 0.188-0.368 0.259-0.678 0.659-0.93 1.2l-4.05 8.68c-0.308 0.661-0.4 1.26-0.274 1.79 0.126 0.534 0.602 0.995 1.43 1.38l11.9 5.55c0.827 0.385 1.48 0.455 1.98 0.208 0.49-0.247 0.89-0.701 1.2-1.36l4.13-8.86c0.252-0.541 0.359-1.04 0.321-1.48-0.038-0.448-0.35-0.808-0.936-1.08-0.586-0.273-1.06-0.281-1.43-0.022-0.368 0.259-0.678 0.658-0.93 1.2l-3.42 7.33-3.92-1.83 2.92-6.27c0.224-0.481 0.322-0.934 0.292-1.36-0.030-0.426-0.332-0.771-0.903-1.04-0.571-0.266-1.03-0.275-1.37-0.024-0.346 0.251-0.632 0.617-0.856 1.1l-2.92 6.27-3.52-1.64 3.33-7.15c0.252-0.541 0.359-1.04 0.321-1.48-0.038-0.448-0.35-0.808-0.936-1.08-0.293-0.137-0.559-0.207-0.797-0.211zm-98.2 0.287c-0.32 0.034-0.672 0.141-1.06 0.319l-12.9 6c-0.601 0.28-0.975 0.647-1.12 1.1-0.146 0.452-0.089 0.956 0.17 1.51 0.259 0.556 0.609 0.924 1.05 1.1 0.44 0.179 0.961 0.128 1.56-0.152l9.36-4.36 0.020 0.045-7.15 11.2c-0.124 0.204-0.225 0.392-0.3 0.564-0.075 0.172-0.118 0.353-0.13 0.542-0.012 0.189 0.013 0.391 0.077 0.608 0.064 0.217 0.166 0.476 0.306 0.777 0.364 0.782 0.826 1.25 1.38 1.4 0.556 0.152 1.2 0.057 1.94-0.286l12.7-5.94c0.601-0.28 0.975-0.647 1.12-1.1 0.146-0.452 0.089-0.956-0.17-1.51-0.259-0.556-0.609-0.924-1.05-1.1-0.44-0.179-0.961-0.128-1.56 0.152l-9.63 4.49-0.020-0.045 7.42-11.3c0.248-0.372 0.373-0.75 0.377-1.14 3e-3 -0.386-0.086-0.774-0.268-1.16-0.371-0.797-0.814-1.3-1.33-1.52-0.257-0.109-0.545-0.146-0.865-0.111zm91.7 13.1c-0.115 7.43e-4 -0.235 0.016-0.356 0.045-0.486 0.116-0.886 0.355-1.2 0.718-0.239 0.275-0.372 0.561-0.399 0.857-0.026 0.296-0.022 0.613 0.013 0.951l1.12 9.48-4.47-3.88c-0.463-0.403-0.955-0.589-1.48-0.558-0.521 0.030-0.987 0.283-1.4 0.759-0.413 0.476-0.599 0.974-0.557 1.49 0.042 0.52 0.295 0.981 0.758 1.38l10.9 9.5c0.463 0.403 0.956 0.589 1.48 0.558 0.521-0.030 0.987-0.283 1.4-0.759 0.413-0.476 0.599-0.974 0.557-1.49-0.042-0.52-0.294-0.981-0.758-1.38l-3.06-2.66-0.221-3.16 8.57 1.22c0.51 0.070 0.903 0.053 1.18-0.048 0.275-0.102 0.549-0.308 0.821-0.621 0.163-0.188 0.302-0.397 0.415-0.629 0.113-0.231 0.178-0.47 0.196-0.718 0.017-0.248-0.025-0.502-0.132-0.759-0.106-0.257-0.304-0.51-0.592-0.761-0.2-0.174-0.454-0.285-0.763-0.334-0.309-0.048-0.63-0.097-0.963-0.145l-8.94-1.21-0.582-6.04c-0.017-0.257-0.065-0.507-0.141-0.749-0.075-0.242-0.233-0.466-0.47-0.673-0.291-0.253-0.608-0.379-0.954-0.377zm-84.2 1.5c-0.432 0.056-0.904 0.311-1.42 0.762l-9.87 8.67c-0.685 0.602-1.01 1.18-0.983 1.73 0.029 0.548 0.283 1.1 0.765 1.64l6.45 7.34c0.394 0.449 0.802 0.746 1.23 0.891 0.425 0.145 0.881 3e-3 1.37-0.423 0.486-0.427 0.685-0.861 0.596-1.3-0.089-0.441-0.331-0.885-0.725-1.33l-5.34-6.07 3.25-2.86 4.56 5.19c0.35 0.399 0.726 0.67 1.13 0.813 0.402 0.143 0.84 7e-3 1.31-0.409 0.473-0.416 0.665-0.831 0.574-1.25-0.090-0.417-0.311-0.826-0.661-1.23l-4.56-5.19 2.91-2.56 5.2 5.92c0.394 0.448 0.804 0.746 1.23 0.891 0.425 0.145 0.881 4e-3 1.37-0.423 0.486-0.427 0.684-0.861 0.595-1.3-0.089-0.441-0.33-0.885-0.724-1.33l-6.32-7.19c-0.482-0.548-0.993-0.872-1.53-0.972-0.135-0.024-0.275-0.027-0.419-9e-3zm73.5 9.79c-0.36 0.010-0.735 0.139-1.13 0.382-0.52 0.325-0.843 0.716-0.967 1.18-0.124 0.459-0.010 0.97 0.341 1.53l5.63 9.01-0.042 0.026-12.2-5.98c-0.399-0.2-0.789-0.278-1.17-0.234-0.383 0.043-0.758 0.18-1.12 0.409-0.745 0.466-1.19 0.966-1.35 1.5-0.154 0.536-0.007 1.16 0.441 1.88l7.53 12c0.351 0.563 0.76 0.889 1.23 0.979 0.467 0.089 0.961-0.028 1.48-0.353 0.52-0.325 0.842-0.718 0.966-1.18 0.124-0.459 0.010-0.969-0.341-1.53l-5.47-8.76 0.042-0.026 11.9 5.74c0.218 0.098 0.416 0.173 0.596 0.227 0.18 0.053 0.365 0.075 0.554 0.064 0.189-0.010 0.387-0.060 0.595-0.151 0.207-0.090 0.451-0.224 0.733-0.4 0.731-0.457 1.14-0.97 1.22-1.54 0.083-0.57-0.091-1.2-0.522-1.89l-7.45-11.9c-0.352-0.563-0.761-0.888-1.23-0.977-0.117-0.022-0.235-0.032-0.355-0.029zm-62.4 0.378c-0.128-0.010-0.256-7e-3 -0.385 0.011-0.517 0.073-0.961 0.354-1.33 0.841l-8.81 11.5c-0.374 0.487-0.528 0.988-0.466 1.51 0.062 0.518 0.343 0.97 0.843 1.35 0.5 0.384 1.01 0.538 1.53 0.465 0.517-0.073 0.961-0.354 1.33-0.841l8.81-11.5c0.373-0.487 0.528-0.988 0.466-1.51-0.062-0.518-0.343-0.97-0.843-1.35-0.375-0.288-0.756-0.446-1.14-0.476zm3.79 2.93c-0.15 2e-3 -0.292 0.021-0.426 0.057-0.539 0.144-1 0.593-1.38 1.35l-6.45 12.7c-0.301 0.591-0.369 1.11-0.205 1.55 0.163 0.446 0.519 0.809 1.07 1.09 0.547 0.278 1.05 0.353 1.5 0.223 0.457-0.13 0.836-0.49 1.14-1.08l4.69-9.2 0.044 0.022 1.24 13.2c0.027 0.237 0.064 0.447 0.111 0.629 0.046 0.182 0.124 0.352 0.23 0.508 0.106 0.157 0.252 0.3 0.437 0.431 0.184 0.131 0.424 0.273 0.719 0.423 0.768 0.392 1.42 0.476 1.95 0.254 0.532-0.222 0.982-0.696 1.35-1.42l6.38-12.5c0.301-0.591 0.37-1.11 0.207-1.55-0.164-0.446-0.519-0.809-1.07-1.09-0.547-0.279-1.05-0.353-1.51-0.223-0.457 0.13-0.836 0.49-1.14 1.08l-4.82 9.46-0.044-0.022-1.13-13.5c-0.033-0.445-0.168-0.821-0.403-1.13-0.235-0.306-0.545-0.557-0.929-0.753-0.587-0.299-1.11-0.444-1.56-0.438zm41.6 5.01c-0.216 0.014-0.436 0.053-0.659 0.117l-0.932 0.267c-0.478 0.137-0.847 0.339-1.11 0.604-0.261 0.265-0.416 0.645-0.463 1.14l-1.22 14.9c-0.024 0.214-0.039 0.482-0.042 0.802-3e-3 0.32 0.028 0.592 0.092 0.815 0.151 0.526 0.438 0.897 0.862 1.11 0.424 0.215 0.907 0.245 1.45 0.089 0.462-0.133 0.813-0.325 1.05-0.574 0.239-0.25 0.366-0.583 0.384-1l0.207-3.17 6.31-1.81 1.83 2.58c0.253 0.342 0.555 0.552 0.906 0.633 0.351 0.080 0.742 0.059 1.17-0.064 0.51-0.146 0.896-0.439 1.16-0.876 0.263-0.438 0.325-0.896 0.188-1.37-0.064-0.223-0.181-0.469-0.353-0.739-0.172-0.27-0.327-0.49-0.462-0.658l-8.51-11.8c-0.397-0.542-0.804-0.847-1.22-0.917-0.208-0.035-0.42-0.045-0.636-0.030zm-18.6 2.58c-0.73-7e-5 -1.31 0.17-1.74 0.51-0.431 0.34-0.646 0.965-0.646 1.88v13.1c-7.5e-5 0.912 0.215 1.54 0.646 1.88 0.431 0.34 1.01 0.51 1.74 0.51h4.9c1.36-8e-5 2.57-0.2 3.64-0.598 1.07-0.398 1.97-0.983 2.7-1.75 0.73-0.771 1.29-1.71 1.68-2.81 0.39-1.1 0.585-2.37 0.585-3.79 0-1.76-0.237-3.21-0.709-4.37-0.473-1.15-1.1-2.07-1.89-2.75-0.788-0.68-1.7-1.16-2.72-1.43-1.03-0.274-2.1-0.41-3.21-0.41zm18.7 1.93 4.21 6.27-4.59 1.32 0.337-7.57zm-17 1.36h3.41c1.49-7e-5 2.59 0.505 3.28 1.52 0.697 1.01 1.04 2.4 1.04 4.15 0 0.697-0.070 1.38-0.211 2.05-0.141 0.672-0.381 1.28-0.721 1.82s-0.783 0.974-1.33 1.31c-0.547 0.332-1.23 0.498-2.04 0.498h-3.43z"/>
  <path fill="#1F1A17" d="m73.4 4.2c-0.155 0.003-0.319 0.010-0.49 0.021-2.1 0.138-2.43 1.09-2.71 2.54l-1.01 5.15c-0.602 3.4-0.674 3.83-1.07 6.61-1.23-4.53-1.38-4.97-1.97-6.74l-1.76-4.97c-0.435-1.27-0.831-1.97-3.05-1.83-0.549 0.036-1.52 0.125-2.1 0.514-0.908 0.661-0.859 1.79-0.812 2.48l0.848 12.8c0.052 0.798 0.182 2.37 1.95 2.25 1.8-0.119 1.69-1.71 1.64-2.46l-0.324-4.91c-0.258-3.14-0.329-3.84-0.637-6.6 1.13 3.83 1.23 4.15 2.44 7.76l1.45 4.06c0.369 1.03 0.745 1.8 2.57 1.68 1.92-0.127 2.19-0.971 2.42-1.99l0.928-4.55c0.624-3.07 0.828-4.14 1.37-7.71 0.095 4.1 0.101 4.55 0.191 6.3l0.346 5.24c0.049 0.748 0.179 2.34 2.03 2.22 1.72-0.114 1.64-1.71 1.59-2.44l-0.846-12.8c-0.127-1.92-0.666-2.75-2.99-2.7zm10.2 1.29c-0.296 0.004-0.659 0.072-1 0.312-0.692 0.46-0.849 1.19-0.969 1.86l-2.27 12.6c-0.115 0.64-0.257 1.43 0.129 2.11 0.406 0.708 1.17 0.845 1.39 0.885 1.94 0.349 2.25-1.37 2.42-2.31l2.25-12.5c0.102-0.566 0.229-1.28-0.133-1.96-0.397-0.757-1.11-0.908-1.38-0.957-0.111-0.019-0.264-0.041-0.441-0.039zm10.8 3.31c-3.51 0.082-6.37 2.43-7.78 5.93-1.55 3.85-0.67 7.09 0.848 9.07 0.528 0.698 1.46 1.8 3.87 2.77 1.53 0.616 3.57 1.17 5.89 0.354 0.688-0.235 1.45-0.656 1.96-1.18 0.298-0.338 0.442-0.631 0.508-0.793 0.458-1.14-0.362-2.11-1.17-2.44-0.673-0.271-1.17-0.041-1.47 0.162-0.256 0.167-0.475 0.375-0.707 0.551-0.911 0.657-2.26 0.923-3.77 0.316-2.34-0.943-3.59-3.39-2.1-7.1 0.766-1.9 2.77-5.33 6.45-3.84 1.79 0.719 2.19 1.8 2.34 2.29 0.111 0.26 0.176 0.501 0.287 0.762 0.087 0.251 0.308 0.905 1 1.19 0.765 0.308 1.96 0.033 2.38-1.03 0.532-1.32-0.614-3.29-1.74-4.37-0.741-0.703-1.83-1.41-3.11-1.92-1.29-0.518-2.53-0.742-3.7-0.715zm-46.1 0.406c-1.16 0.017-2.39 0.285-3.65 0.838-5.36 2.35-6.26 7.44-4.3 11.9 1.76 4.01 6.1 7.37 11.5 5 5.17-2.27 6.51-7.31 4.45-12-1.57-3.59-4.51-5.8-8-5.74zm-0.443 3.53c0.38 0.008 0.756 0.070 1.12 0.189 2.24 0.739 3.23 3.01 3.54 3.71 1.34 3.04 0.89 5.94-1.86 7.15-3.5 1.54-5.73-1.8-6.53-3.61-1.22-2.77-0.903-5.85 1.87-7.07 0.587-0.257 1.23-0.389 1.86-0.375zm-12.4 2.65c-0.556-0.001-0.996 0.327-1.35 0.605l-8.17 6.43c-0.456 0.391-1.02 0.838-0.93 1.69 0.052 0.309 0.178 0.592 0.379 0.848 0.99 1.26 2.13 0.359 2.62-0.027l2.47-1.95 7.5 9.53c0.387 0.491 0.816 1.08 1.62 1.17 0.386 0.046 0.928-0.032 1.5-0.48 0.884-0.696 0.904-1.6 0.512-2.34-0.146-0.267-0.332-0.502-0.533-0.758l-7.52-9.54 2.49-1.96c0.354-0.278 0.648-0.509 0.83-0.844 0.21-0.42 0.309-1.1-0.201-1.75-0.155-0.196-0.362-0.381-0.635-0.484-0.212-0.087-0.41-0.125-0.596-0.125zm74.7 2.38c-1.4 0.042-2.63 0.671-3.59 1.83-2.31 2.79-0.365 5.54 1.38 7.98 1.43 1.96 1.65 2.28 1.82 2.87 0.136 0.502 0.112 1-0.334 1.54-0.829 1-1.98 0.63-2.19 0.561-0.567-0.177-1.08-0.538-1.52-0.904-1.95-1.61-1.86-2.74-1.75-3.72 0.098-1.02 0.030-1.76-0.605-2.29-0.732-0.606-1.98-0.664-2.76 0.279-0.287 0.347-1.24 1.77-0.039 4.48 0.606 1.35 1.65 2.6 3.05 3.76 1.43 1.18 3.11 2.08 4.94 2.14 1.49 0.036 3.09-0.522 4.26-1.93 1.31-1.58 1.27-3.33 0.885-4.56-0.327-1.02-0.573-1.35-2.89-4.63-0.737-1.03-1.11-1.56-1.2-2.04-0.097-0.47 0.043-0.84 0.299-1.15 0.733-0.886 2.09-0.604 3.46 0.527 1.1 0.908 1.53 1.88 1.49 2.79 4e-3 0.23-0.029 0.428-0.044 0.643-0.041 0.874 0.178 1.32 0.582 1.65 0.713 0.59 1.97 0.755 2.74-0.17 1.13-1.37 0.66-4.68-2.71-7.47-1.86-1.54-3.67-2.25-5.25-2.2zm-89.1 10.7c-0.584 0.031-1.17 0.334-1.84 1.16-1.2 1.47-0.745 2.3 0.213 3.85l6.78 11.1c0.235 0.385 0.485 0.751 0.834 1.04 1.18 0.964 2.35 0.081 2.79-0.461 0.885-1.08 0.278-2-0.311-2.9l-0.943-1.41 3.59-4.4 1.86 0.771c0.868 0.321 1.8 0.599 2.64-0.428 0.759-0.93 0.749-2.07-0.123-2.78-0.387-0.316-0.814-0.503-1.29-0.668l-12.8-4.55c-0.5-0.182-0.956-0.323-1.41-0.299zm101 0.906c-0.874 0.001-1.58 0.261-1.99 0.559-1.01 0.735-0.877 1.94-0.406 2.58 0.368 0.505 0.884 0.748 1.52 0.688 0.366-0.049 0.748-0.205 1.13-0.234 1.02-0.090 1.87 0.709 2.3 1.29 1.01 1.39 0.638 2.66-0.373 3.39-1.03 0.75-2.11 0.454-2.51 0.338-0.274-0.079-0.562-0.177-0.871-0.262-0.667-0.195-1.43-0.351-2.18-0.271-0.436 0.038-0.959 0.171-1.36 0.465-0.91 0.662-0.906 1.77-0.406 2.46 0.147 0.202 0.783 0.947 2 0.619 0.728-0.189 0.803-0.213 1.9 0.068 1.96 0.489 3.68 0.938 5.7-0.533 2.28-1.66 3.06-4.76 0.676-8.04-1.76-2.43-3.68-3.14-5.14-3.13zm-99.4 2.8c0.979 0.54 1.28 0.688 2.49 1.26l4.15 1.71-2.4 2.94-2.74-4.04c-0.481-0.715-0.923-1.2-1.51-1.87zm91.3 8.17c-0.366 0.012-0.73 0.132-1.05 0.363-0.829 0.603-1.02 1.79-0.398 2.64 0.603 0.829 1.79 1.02 2.62 0.412 0.849-0.618 1.04-1.8 0.434-2.63-0.386-0.531-0.996-0.805-1.61-0.783z"/>
</svg>
