<svg version="1.1" viewBox="0 0 1110 468" xmlns="http://www.w3.org/2000/svg">
    <!--
        "If it's boeing I'm not going" (c) Boeing
        Concept (c) Unknown Author
        Idea & SVG (c) justJanne
    -->
    <defs>
        <linearGradient id="blue"><stop stop-color="#85e0ff"/></linearGradient>
        <linearGradient id="white"><stop stop-color="#ffffff"/></linearGradient>
        <linearGradient id="black"><stop stop-color="#000000"/></linearGradient>
        <linearGradient id="linearGradient19" x1="0" x2="1" y1="0.33" y2="0.67">
            <stop stop-color="#f07f00" offset=".08"/>
            <stop stop-color="#ff601f" offset=".45"/>
            <stop stop-color="#f4d257" offset=".87"/>
        </linearGradient>
        <linearGradient id="linearGradient22" x1="0" x2="1" y1="0.33" y2="0.67">
            <stop stop-color="#cacaca" offset="0"/>
            <stop stop-color="#6a573f" offset=".80"/>
        </linearGradient>
        <linearGradient id="linearGradient24" x1="0" x2="1" y1="0.33" y2="0.67">
            <stop stop-color="#96827a" stop-opacity=".75606" offset=".23"/>
            <stop stop-color="#875a4f" stop-opacity=".6803" offset=".45"/>
            <stop stop-color="#a2401f" stop-opacity=".68636" offset=".78"/>
        </linearGradient>
        <linearGradient id="linearGradient33" x1="0" x2="1" y1="0.33" y2="0.67">
            <stop stop-color="#6a5851" stop-opacity="0" offset=".23"/>
            <stop stop-color="#30201b" stop-opacity=".50" offset=".45"/>
            <stop stop-color="#4d2312" stop-opacity=".43" offset=".72"/>
            <stop stop-color="#f08000" stop-opacity=".54" offset=".88"/>
            <stop stop-color="#ffbf0c" stop-opacity=".41" offset=".95"/>
        </linearGradient>
        <linearGradient id="linearGradient34" x1="0" x2="1" y1="0.33" y2="0.67">
            <stop stop-color="#a8a8a8" offset=".23"/>
            <stop stop-color="#d88856" stop-opacity=".55" offset=".77"/>
            <stop stop-color="#fd7411" stop-opacity=".95" offset=".91"/>
        </linearGradient>
        <linearGradient id="linearGradient39" x1="0" x2="1" y1="0.33" y2="0.67">
            <stop stop-color="#5b3d2f" offset=".23"/>
            <stop stop-color="#7f736f" stop-opacity=".52" offset=".75"/>
            <stop stop-color="#ffffff" stop-opacity="0" offset=".99"/>
        </linearGradient>
        <filter id="blurSmoke3"><feGaussianBlur stdDeviation="2.8"/></filter>
        <filter id="blurSmoke2"><feGaussianBlur stdDeviation="1.0"/></filter>
        <filter id="blurSmoke4"><feGaussianBlur stdDeviation="2.0"/></filter>
        <filter id="blurSmoke1"><feGaussianBlur stdDeviation="1.4"/></filter>
    </defs>
    <path fill="url(#black)"
        d="m0 0v468h1110v-468z"/>
    <path fill="url(#white)"
        d="m309.35 30c-14.15 0-27.723 6.8344-27.723 22.717 0 13.861 12.418 16.846 23.295 19.926 11.84 3.369 14.824 4.3311 14.824 7.8926 0 5.1016-5.2945 6.2559-8.7598 6.2559-3.9465 0-8.5673-0.86681-10.107-5.0059-0.48129-1.2513-0.76954-2.7908-0.76953-4.5234h-21.178c0.19251 21.947 22.428 24.738 30.225 24.738 15.305 0 31.766-5.7759 31.766-23.68 0-12.61-9.6257-17.133-19.348-19.828-9.722-2.6952-19.541-3.755-19.926-8.6641 0-3.8503 4.7178-4.6191 7.6055-4.6191 2.1176 0 4.5232 0.48108 6.2559 1.7324 1.7326 1.1551 2.887 2.8874 2.502 5.4863h20.021c-0.57754-16.749-13.764-22.428-28.684-22.428zm179.22 0c-20.888 0-34.844 15.016-34.844 36s13.956 36 34.844 36 34.846-15.016 34.846-36-13.958-36-34.846-36zm254.94 0c-15.497 0-33.881 10.492-33.881 36.674 0 19.54 12.512 35.326 32.822 35.326 7.508 0 14.824-2.5999 19.541-8.6641l0.67382 7.0273h13.379v-37.828h-28.107v14.727h9.3379c-1.0588 5.1016-6.0636 7.6055-10.973 7.6055-12.898 0-15.498-11.264-15.498-17.713 0-4.7166-0.48206-20.021 14.053-20.021 5.0054 0 9.2417 3.563 10.012 8.5684h20.311c-3.0802-16.171-14.151-25.701-31.67-25.701zm-712.5 1.6367v68.727h21.176v-68.727h-21.176zm33.654 0v68.727h21.176v-26.182h27.434v-16.363h-27.434v-8.5664h31.957v-17.615h-53.133zm95.99 0v68.727h21.178v-68.727h-21.178zm30.479 0v17.615h19.25v51.111h21.178v-51.111h19.25v-17.615h-59.678zm191.69 0v68.727h38.984c12.128 0 24.064-7.122 24.064-20.887 0-10.107-5.7751-15.017-11.936-17.135 5.1016-2.7914 8.4707-6.5461 8.4707-13.477 0-7.0268-3.851-17.229-21.947-17.229h-37.637zm151.15 0v68.727h57.947v-17.615h-36.77v-8.5664h32.438v-16.363h-32.438v-8.5664h35.711v-17.615h-56.889zm69.365 0v68.727h21.178v-68.727h-21.178zm33.75 0v68.727h20.021v-37.539h0.19336l21.08 37.539h20.6v-68.727h-20.021v36.77h-0.19336l-20.021-36.77h-21.658zm-372.07 0.48047c-1.9251 0-3.5291 0.57734-4.8125 1.7324-1.2193 1.1551-1.8301 2.6644-1.8301 4.5254 0 2.0535 0.54581 3.6239 1.6367 4.7148 1.1551 1.0267 2.3748 1.5095 3.6582 1.4453-0.12834 1.4759-0.70568 2.6937-1.7324 3.6562-0.96257 0.96257-2.0857 1.733-3.3691 2.3105l3.1758 5.2949c0.83423-0.32086 1.8608-0.80165 3.0801-1.4434 1.2834-0.70588 2.4716-1.6379 3.5625-2.793 1.1551-1.2193 2.1167-2.7266 2.8867-4.5234 0.83422-1.7968 1.252-3.9781 1.252-6.5449 0-2.5027-0.67389-4.5243-2.0215-6.0645-1.3476-1.5401-3.1762-2.3105-5.4863-2.3105zm223.55 15.016c5.3904 0 13.67 3.5623 13.67 18.867s-8.2795 18.867-13.67 18.867c-5.3904 0-13.668-3.5623-13.668-18.867s8.2776-18.867 13.668-18.867zm-84.572 0.86719h11.166c4.3316 0 7.2188 1.2515 7.2188 4.7168 0 4.4278-2.7909 5.6797-7.2188 5.6797h-11.166v-10.396zm0 23.197h13.283c5.0054 0 7.4121 2.215 7.4121 6.2578 0 5.2941-3.8515 6.5449-8.2793 6.5449h-12.416v-12.803z
          m202.61 294.8c-20.888 0-34.846 15.016-34.846 36s13.958 36 34.846 36 34.846-15.016 34.846-36-13.958-36-34.846-36zm176.91 0c-15.497 0-33.883 10.492-33.883 36.674 0 19.54 12.514 35.326 32.824 35.326 7.508 0 14.822-2.5979 19.539-8.6621l0.67383 7.0254h13.381v-37.828h-28.107v14.727h9.3359c-1.0588 5.1016-6.0636 7.6055-10.973 7.6055-12.898 0-15.498-11.264-15.498-17.713 0-4.7166-0.4801-20.021 14.055-20.021 5.0054 0 9.2397 3.563 10.01 8.5684h20.311c-3.0802-16.171-14.149-25.701-31.668-25.701zm77.449 0c-20.888 0-34.844 15.016-34.844 36s13.956 36 34.844 36 34.846-15.016 34.846-36-13.958-36-34.846-36zm185.57 0c-15.497 0-33.883 10.492-33.883 36.674 0 19.54 12.512 35.326 32.822 35.326 7.508 0 14.824-2.5979 19.541-8.6621l0.6739 7.0254h13.379v-37.828h-28.106v14.727h9.3359c-1.0588 5.1016-6.0635 7.6055-10.973 7.6055-12.898 0-15.498-11.264-15.498-17.713 0-4.7166-0.4801-20.021 14.055-20.021 5.0054 0 9.2397 3.563 10.01 8.5684h20.31c-3.0802-16.171-14.149-25.701-31.668-25.701zm-730.35 1.6367v68.727h21.176v-68.727h-21.176zm56.623 0v68.727h20.021v-44.086h0.19141l11.938 44.086h15.785l11.936-44.086h0.19336v44.086h20.021v-68.727h-30.129l-9.8184 40.428h-0.19141l-9.8184-40.428h-30.129zm126.41 0v68.727h20.021v-37.539h0.19336l21.08 37.539h20.6v-68.727h-20.021v36.77h-0.19336l-20.021-36.77h-21.658zm149.61 0v17.615h19.252v51.111h21.176v-51.111h19.252v-17.615h-59.68zm257.54 0v68.727h21.176v-68.727h-21.176zm33.748 0v68.727h20.021v-37.539h0.19336l21.08 37.539h20.6v-68.727h-20.021v36.77h-0.19336l-20.021-36.77h-21.658zm-585.46 0.48047c-1.9251 0-3.5291 0.57734-4.8125 1.7324-1.2193 1.1551-1.8301 2.6644-1.8301 4.5254 0 2.0535 0.54581 3.6259 1.6367 4.7168 1.1551 1.0267 2.3748 1.5075 3.6582 1.4434-0.12834 1.4759-0.70568 2.6956-1.7324 3.6582-0.96257 0.96257-2.0857 1.731-3.3691 2.3086l3.1758 5.2949c0.83423-0.32086 1.8608-0.80165 3.0801-1.4434 1.2834-0.70589 2.4716-1.6379 3.5625-2.793 1.1551-1.2193 2.1167-2.7266 2.8867-4.5234 0.83422-1.7968 1.252-3.9781 1.252-6.5449 0-2.5027-0.67389-4.5244-2.0215-6.0645-1.3476-1.5401-3.1762-2.3105-5.4863-2.3105zm251.95 15.016c5.3904 0 13.668 3.5623 13.668 18.867s-8.2776 18.867-13.668 18.867-13.668-3.5623-13.668-18.867 8.2776-18.867 13.668-18.867zm254.36 0c5.3904 0 13.67 3.5623 13.67 18.867s-8.2795 18.867-13.67 18.867-13.668-3.5623-13.668-18.867 8.2776-18.867 13.668-18.867z"/>
    <path fill="url(#blue)"
        d="m30 132v8h1050v-8zm70 98v8h96v-8zm192 0v8h96v-8zm192 0v8h96v-8zm426 0v8h96v-8zm-880 98v8h1050v-8z"/>
    <path fill="url(#white)"
        d="m30 160v8h192v-8zm852 0v8h192v-8zm-852 14v8h192v-8zm852 0v8h192v-8zm-514.3 11.451v3.0234h-75.68v8.0742h90.826v-8.0742l-3.0234-3.0234zm-337.73 2.5488v8h192v-8zm852 0v8h192v-8zm-852 14v8h192v-8zm852 0v8h192v-8zm-852 14v8h192v-8zm852 0v8h192v-8zm-852 28v8h192v-8zm852 0v8h192v-8zm-852 14v8h192v-8zm852 0v8h192v-8zm-590 3.8652v30.268h55.484v-22.193h16.619l12.822 14.121 11.072 0.17578-6.584-7.25h0.01l-13.746-15.121zm15.121 8.0742h25.244v14.121h-25.244zm-277.12 2.0606v8h192v-8zm852 0v8h192v-8zm-852 14v8h192v-8zm852 0v8h192v-8zm-852 14v8h192v-8zm852 0v8h192v-8z"/>
    <path fill="#9d552b"
        d="m786.9 255.28 0.059 0.49704s-0.4996 3.0191-0.8938 4.49c-0.3941 1.4709-1.471 4.3354-1.471 4.3354l-0.3029 0.40614c0.2463 0.0477 0.4452 0.0789 0.5794 0.0865 2.4734 0.14008 2.6016-8e-3 3.743-4.3251 1.0134-3.8321 1.237-4.5509-1.7137-5.49z"/>
    <path fill="#999999"
        d="m784.3 254.54-0.3238 0.43089s-0.486 2.9714-0.8801 4.4423-1.4846 4.383-1.4846 4.383l0.065 0.53503 2.6167 0.70115 0.3218-0.43141s1.0777-2.8643 1.4718-4.3352 0.893-4.4902 0.893-4.4902l-0.063-0.53451z"/>
    <path fill="url(#linearGradient19)"
        d="m780.4 253.5-0.3238 0.43089s-0.487 2.972-0.8811 4.4429-1.4836 4.3825-1.4836 4.3825l0.046 0.38027c0.8116 0.28766 1.8217 0.61016 2.8491 0.91303l1.0338 0.27701-0.065-0.53503s1.0895-2.9116 1.4836-4.3825c0.3942-1.4709 0.8811-4.4429 0.8811-4.4429l0.3238-0.43089-0.1943-0.0521z"/>
    <path fill="url(#linearGradient22)"
        d="m780.4 253.49-8.1441 7.0079c0.062 0.0166 0.3314 0.19494 0.598 0.39476 0.2664 0.19986 1.0422 0.60436 1.7221 0.90024 0.6797 0.29583 1.6521 0.72002 2.1621 0.94126 0.2723 0.11811 0.6485 0.25732 1.0625 0.40401l-0.046-0.38027s1.0895-2.9116 1.4836-4.3825 0.8811-4.4429 0.8811-4.4429l0.3238-0.43089z"/>
    <path fill="#ca713d"
        d="m784.6 264.59c0.372 0.0782 0.6633 0.12815 0.7828 0.13489 0.6132 0.0347 1.0599 0.0445 1.3579-4e-3 0.298-0.0487 0.4368-0.12059 0.6065-0.3167 0.3392-0.39214 0.6994-1.4775 1.2664-3.6319v-4e-3c0.079-0.29762 0.1545-0.5765 0.2245-0.83764l1e-3 -4e-3c0.1995-0.78314 0.3481-1.3995 0.4129-1.873 0.084-0.63316 0.026-0.95726-0.1569-1.2108-0.1828-0.2535-0.5838-0.51154-1.3441-0.78679-0.2299-0.0834-0.5014-0.16863-0.7926-0.2569-0.01 0.0701-0.5 3.0132-0.8895 4.4669-0.3918 1.4622-1.4536 4.2911-1.4662 4.3245z"/>
    <path fill="#73706c"
        d="m779 254.68-6.0889 5.2393c0.8071 0.27716 1.6814 0.57742 2.1998 0.75525 1.1178 0.38348 4.2444 1.2878 6.8805 2.0317 0.1706-0.47446 0.3747-1.0469 0.5658-1.6136 0.01-0.0202 0.011-0.0402 0.016-0.0604 0.01-0.0201 0.01-0.0384 0.016-0.0584 0.092-0.27289 0.179-0.54427 0.2589-0.8001 0.086-0.27422 0.1632-0.53168 0.2241-0.75888 0.057-0.21324 0.1125-0.45862 0.1732-0.7159 0.023-0.086 0.038-0.17941 0.058-0.26963 0.051-0.23645 0.1019-0.47704 0.1515-0.72374 0.1237-0.62026 0.2375-1.2459 0.3258-1.7446z"/>
    <path fill="url(#white)"
        d="m767.2 155.38-0.8148-0.1738c-1.091-0.23363-1.164-0.0277-0.7678 2.156 0.1762 0.97042 0.2891 1.879 0.2517 2.0187-0.037 0.13956 0 0.67985 0.081 1.2005 0.082 0.52077 0.1168 1.2643 0.077 1.6524-0.041 0.38788-0.049 1.3144-0.02 2.0572 0.05 1.2744 0.098 2.9727 0.2963 10.606 0.046 1.7602 0.107 3.9414 0.1369 4.8471 0.03 0.90554 0.084 2.8924 0.1195 4.4138 0.036 1.5214 0.107 4.2072 0.1597 5.9693 0.1071 3.5923 0.1158 4.9041 0.032 4.9524-0.031 0.018-0.8008-0.0525-1.7109-0.15716-3.5028-0.40294-3.1393 0.6817 0.7024 2.095l1.1338 0.41704 0.057 1.6653c0.2092 5.9678 0.2104 6.864 0.01 6.9096-0.1154 0.0262-0.8338-0.0312-1.5973-0.12873-1.5914-0.20336-1.7065-0.18888-1.8219 0.24178-0.1056 0.3943-0.085 0.40807 1.9696 1.3426l1.6926 0.76896 0.064 2.4941c0.054 2.1054 0.01 2.679-0.2979 3.6852l-0.3597 1.1916-0.9632-0.11048c-1.4813-0.1687-1.6561 0.57931-0.2956 1.2614l0.9129 0.45691-1.0929 4.0788-1.0924 4.0769-12.727-3.5296c-12.396-3.4393-20.156-5.3868-23.886-5.9918-0.8639-0.14018-2.868-0.47869-4.455-0.75292-2.3621-0.40811-10.304-1.3991-12.035-1.502-0.4057-0.024-0.5719-0.34808-2.1062-4.1312-2.6459-6.5255-7.033-17.288-8.6206-21.149-0.8056-1.9585-1.6079-3.6551-1.7935-3.7886-0.5962-0.4289-3.1378-1.0277-3.4444-0.8117-1.3266 0.93553-1.7761 20.701-0.6262 27.512 0.1635 0.96844 0.1983 0.91535-0.5416 0.85173-2.0312-0.1748-4.9501-0.14921-5.2374 0.0464-0.2685 0.18293-0.7069 0.13639-2.6319-0.2826-1.2708-0.27634-2.4349-0.49024-2.5862-0.47461-0.3149 0.0326-0.4585 0.38418-0.2476 0.60701 0.077 0.0825 1.1796 0.50263 2.4475 0.93281 1.9405 0.6586 2.3345 0.83929 2.4859 1.1514 0.1817 0.37474 1.3572 1.1025 3.7174 2.2983 0.7102 0.35985 1.3094 0.6751 1.3322 0.70273 0.023 0.0275-0.2287 0.35398-0.558 0.724-3.2115 3.6098-11.403 17.694-13.234 22.75l-0.4099 1.1297 0.4174 0.30596c0.6395 0.46843 3.4174 1.029 3.6947 0.74532 0.1186-0.12184 1.1131-0.89004 2.2086-1.7073 3.5784-2.6699 5.1226-3.834 10.717-8.0818 3.0353-2.3048 6.3866-4.8474 7.4484-5.6495 1.0619-0.80198 2.432-1.8467 3.0442-2.3204 1.3047-1.0095 1.0571-1.0318 4.1172 0.38335 3.554 1.6436 5.7268 2.6128 6.6591 2.9712 0.4731 0.18155 1.4221 0.55329 2.1086 0.82383 6.9739 2.7483 14.798 5.0881 38.533 11.526l1.809 0.49302-1.0924 4.0769-1.0919 4.075-0.9103-0.12665c-1.4388-0.19992-1.9791 0.52706-0.8158 1.0978 1.4663 0.71937 1.3778 0.52407 0.8888 1.973-0.3136 0.93092-0.7943 1.8439-1.7202 3.2657l-1.2855 1.9748-0.8302-0.10114c-2.8268-0.34204-3.0962-0.338-3.2023 0.0579-0.1316 0.49136-0.079 0.53701 1.3537 1.1513 0.6693 0.28702 1.2848 0.58894 1.3674 0.66971 0.1001 0.0983-0.6083 1.3554-2.1341 3.7836l-2.2875 3.6394-0.6716-0.17996c-0.7101-0.19028-3.0641-0.52353-3.5957-0.51055-1.3547 0.0331-0.1885 1.221 2.0825 2.121l1.0236 0.40572-8.8493 14.122c-4.8666 7.7667-9.0248 14.383-9.2414 14.703-0.2165 0.31989-0.5501 0.80996-0.7408 1.0895-0.1908 0.27961-0.9148 1.2041-1.6098 2.0537-1.4393 1.7599-1.4482 1.9373-0.1098 2.2959 0.6701 0.17954 0.7949 0.13533 3.1652-1.1496 2.4965-1.3532 4.7128-2.4384 6.835-3.345 0.2358-0.10075 1.0977-0.89403 1.9138-1.762 0.8161-0.86794 3.983-4.2318 7.0381-7.4761 3.0553-3.2443 7.6177-8.0914 10.139-10.77 13.747-14.606 16.854-17.681 16.974-17.785l2.0275-1.8084 4.8863 1.3093c0.5351 0.14338 1.0813-0.17199 1.2247-0.70711l0.3897-1.4546c0.1434-0.53511-0.1719-1.0814-0.7071-1.2247l-2.5789-0.69102 2.9019-2.4313 2.3599-2.0307c1.2979-1.1168 2.5693-2.2227 2.8256-2.4559 0.4582-0.41697 2.2742-0.0475 7.2151 1.2357l0.6627-2.4733c0.1434-0.53512 0.6896-0.85049 1.2248-0.7071l1.4544 0.38973c0.5352 0.14338 0.8505 0.68962 0.7072 1.2247l-0.6582 2.4563c2.05 0.54619 2.3054 0.58845 5.5895 1.4693 14.608 3.9225 18.827 4.9488 21.556 5.2624 3.8108 0.43807 5.7078 0.58995 8.3423 0.66623 1.8769 0.0542 3.2535 0.18088 3.8439 0.35461 0.6618 0.19483 0.936 0.21208 0.9764 0.0614 0.034-0.12793 0.8869-0.24133 2.1908-0.29052 5.0951-0.19265 7.834-0.80986 8.2843-2.0305 0.4506-1.2206-1.3893-3.0451-5.4513-5.6523-1.7322-1.1118-2.296-1.5536-2.2975-1.7944 0-0.26994-0.1245-0.33966-0.7968-0.45211-0.5806-0.0969-1.5078-0.52415-3.4324-1.5809-7.5764-4.1602-10.226-5.0735-33.669-11.604l-10.708-2.9825-1.248-3.6283-1.2474-3.6302 3.3804 0.98258c3.7075 1.0781 4.7994 1.206 5.884 0.68692l0.5383-0.25813 0.9219-3.1702c1.3628-4.6785 1.2926-4.9902-1.3818-6.125-2.2886-0.9711-9.3915-2.3837-11.883-2.3631-0.5495 5e-3 -1.0176-0.0277-1.0387-0.0701-0.065-0.13076-3.4031-14.945-7.4504-33.071-4.1381-18.532-3.8237-17.405-5.4194-19.491-0.2272-0.29712-1.3272-2.0032-2.4439-3.791zm32.006 100.66c-0.2469-0.0661-0.5213-0.0371-0.7612 0.10137l-2.3711 1.3705c-0.4798 0.27701-0.643 0.88612-0.366 1.3659l0.7527 1.3037c0.277 0.47976 0.8861 0.64297 1.3659 0.366l2.373-1.37c0.4797-0.27701 0.6429-0.88612 0.366-1.3659l-0.7528-1.3037c-0.1385-0.2399-0.3597-0.4017-0.6065-0.46786z"/>
    <path fill="url(#linearGradient39)" filter="url(#blurSmoke1)"
        d="m747.4 241.06c-3.799 0.35234-7.5694 0.96479-11.356 1.4336 4.2248 2.0544 8.4389 4.1308 12.674 6.1641 0.3039 2.4411 1.2338 5.0831 3.4863 6.3672 1.6744 1.0419 3.7202 1.1965 5.6094 1.3438 0.8014 1.378 2.1295 2.4229 3.6901 2.782 2.6441 0.93698 5.4441 1.2723 8.2024 1.6985 1.3717 1.1466 3.2646 1.0571 4.9378 1.2934 2.2728 0.21659 4.5496-0.0388 6.8025-0.3344 0.2414-2.5857 0.356-5.2646-0.5399-7.7495-0.5321-1.4942-1.2595-3.2662-2.9662-3.6871-1.278-0.38096-2.5963 0.0329-3.8494 0.31356-2.813-1.2345-5.7614-2.7554-8.9355-2.2949-1.6668 0.25545-3.2506 0.92083-4.9024 1.2012-0.5265-0.28436-0.4246-1.026-0.7589-1.4754-1.3038-2.9484-3.6147-5.7166-6.8605-6.5223-1.6947-0.49811-3.4775-0.58933-5.2341-0.5335z"/>
    <path fill="url(#linearGradient33)" filter="url(#blurSmoke2)"
        d="m746.9 250.02c0.9315 5.8715 5.2878 8.0774 9.7491 8.2418 1.1449 2.0441 4.9673 3.5699 12.121 4.4511 0.9722 1.122 7.4739 2.0184 11.767 1.19 4.8046-0.92701 2.6421-9.0824 2.4293-9.8434-0.8395-3.0014-2.7679-7.1631-8.6725-5.4706-7.9765-3.7622-9.931-2.0043-13.043-1.3073-3.5112-8.1183-10.374-9.1621-18.431-7.6882-4.3783-0.93038-7.0274 0.51862-7.0564 2.5276s-1.5941 1.8435 11.136 7.899z"/>
    <path fill="url(#linearGradient24)" filter="url(#blurSmoke3)"
        d="m746.9 250.02c0.9315 5.8715 5.2878 8.0774 9.7491 8.2418 1.1449 2.0441 4.9673 3.5699 12.121 4.4511 0.9722 1.122 7.4739 2.0184 11.767 1.19 4.8046-0.92701 2.6421-9.0824 2.4293-9.8434-0.8395-3.0014-2.7679-7.1631-8.6725-5.4706-7.9765-3.7622-9.931-2.0043-13.043-1.3073-3.5112-8.1183-10.374-9.1621-18.431-7.6882-4.3783-0.93038-7.0274 0.51862-7.0564 2.5276s-1.5941 1.8435 11.136 7.899z"/>
    <path fill="url(#linearGradient34)" filter="url(#blurSmoke4)"
        d="m747.4 243.06c-1.5261 0.13375-3.0462 0.32661-4.5625 0.54297 2.5449 1.2536 5.1017 2.4829 7.6582 3.7129 0.303 2.0601 0.5567 4.4985 2.4003 5.8063 1.7626 1.2172 3.997 1.1521 6.045 1.2738 0.6173 1.146 1.364 2.419 2.748 2.709 2.87 1.1 5.9244 1.3789 8.918 1.8652 0.5411 0.72444 1.4605 0.89594 2.2871 0.94922 2.1882 0.37183 4.4261 0.4001 6.625 0.0976 0.2352-2.4015-0.1125-4.9344-1.325-7.0447-0.4898-0.91607-1.6048-0.83636-2.4594-0.60738-0.7012 0.0745-1.4379 0.44439-2.1193 0.3098-2.6216-1.0635-5.2791-2.7019-8.2213-2.3022-1.7225 0.28043-3.3535 0.98425-5.0703 1.2441-1.2002-1e-3 -2.2205-0.93758-2.441-2.0953-1.0425-2.5156-2.7426-5.0695-5.4819-5.8974-1.6059-0.53541-3.3213-0.62222-5.0009-0.5639z"/>
</svg>
