<svg version="1.1" viewBox="0 0 1110 468" xmlns="http://www.w3.org/2000/svg">
    <!--
        "If it's boeing I'm not going" (c) Boeing
        Concept (c) Unknown Author
        Idea & SVG (c) justJanne
    -->
    <defs>
        <linearGradient id="white"><stop stop-color="#ffffff"/></linearGradient>
        <linearGradient id="darkGray"><stop stop-color="#394957"/></linearGradient>
        <linearGradient id="lightGray"><stop stop-color="#FDFDFE"/></linearGradient>
        <linearGradient id="lightBlue"><stop stop-color="#0D7CB1"/></linearGradient>
        <linearGradient id="darkBlue"><stop stop-color="#1A409F"/></linearGradient>
        <linearGradient id="engine1"><stop stop-color="#9d552b"/></linearGradient>
        <linearGradient id="engine2"><stop stop-color="#999999"/></linearGradient>
        <linearGradient id="engine3" y1=".33" y2=".67">
            <stop stop-color="#f07f00" offset=".08"/>
            <stop stop-color="#ff601f" offset=".45"/>
            <stop stop-color="#f4d257" offset=".87"/>
        </linearGradient>
        <linearGradient id="engine4" y1=".33" y2=".67">
            <stop stop-color="#cacaca" offset="0"/>
            <stop stop-color="#6a573f" offset=".8"/>
        </linearGradient>
        <linearGradient id="engine5"><stop stop-color="#ca713d"/></linearGradient>
        <linearGradient id="engine6"><stop stop-color="#73706c"/></linearGradient>
        <linearGradient id="smoke3" y1=".33" y2=".67">
            <stop stop-color="#96827a" stop-opacity=".756" offset=".23"/>
            <stop stop-color="#875a4f" stop-opacity=".68" offset=".45"/>
            <stop stop-color="#a2401f" stop-opacity=".686" offset=".78"/>
        </linearGradient>
        <linearGradient id="smoke2" y1=".33" y2=".67">
            <stop stop-color="#6a5851" stop-opacity="0" offset=".23"/>
            <stop stop-color="#30201b" stop-opacity=".5" offset=".45"/>
            <stop stop-color="#4d2312" stop-opacity=".43" offset=".72"/>
            <stop stop-color="#f08000" stop-opacity=".54" offset=".88"/>
            <stop stop-color="#ffbf0c" stop-opacity=".41" offset=".95"/>
        </linearGradient>
        <linearGradient id="smoke4" y1=".33" y2=".67">
            <stop stop-color="#a8a8a8" offset=".23"/>
            <stop stop-color="#d88856" stop-opacity=".55" offset=".77"/>
            <stop stop-color="#fd7411" stop-opacity=".95" offset=".91"/>
        </linearGradient>
        <linearGradient id="smoke1" y1=".33" y2=".67">
            <stop stop-color="#5b3d2f" offset=".23"/>
            <stop stop-color="#7f736f" stop-opacity=".52" offset=".75"/>
            <stop stop-color="#fff" stop-opacity="0" offset=".99"/>
        </linearGradient>
        <filter id="blurSmoke1"><feGaussianBlur stdDeviation="1.4"/></filter>
        <filter id="blurSmoke2"><feGaussianBlur stdDeviation="1.0"/></filter>
        <filter id="blurSmoke3"><feGaussianBlur stdDeviation="2.8"/></filter>
        <filter id="blurSmoke4"><feGaussianBlur stdDeviation="2.0"/></filter>
    </defs>
    <path id="background" fill="url(#white)"
        d="m0 0v468h1110v-468z"/>
    <path id="tarmac" fill="url(#darkGray)"
        d="m26 128v212h1058v-212z"/>
    <path id="text" fill="url(#lightBlue)"
        d="m309.35 30c-14.15 0-27.723 6.8342-27.723 22.717 0 13.861 12.418 16.846 23.295 19.926 11.84 3.369 14.824 4.3311 14.824 7.8926 0 5.1016-5.2945 6.2559-8.7598 6.2559-3.9465 0-8.5677-0.86677-10.107-5.0059-0.48129-1.2513-0.76954-2.7908-0.76953-4.5234h-21.178c0.19251 21.947 22.428 24.738 30.225 24.738 15.305 0 31.766-5.7756 31.766-23.68 0-12.61-9.6254-17.133-19.348-19.828-9.722-2.6952-19.541-3.755-19.926-8.6641 0-3.8503 4.7178-4.6191 7.6055-4.6191 2.1176 0 4.5232 0.4811 6.2559 1.7324 1.7326 1.1551 2.887 2.8874 2.502 5.4863h20.021c-0.57754-16.749-13.764-22.428-28.684-22.428zm-278.34 1.6367v68.727h21.176v-68.727h-21.176zm33.654 0v68.727h21.176v-26.182h27.434v-16.363h-27.434v-8.5664h31.957v-17.615h-53.133zm95.99 0v68.727h21.178v-68.727h-21.178zm30.479 0v17.615h19.25v51.111h21.178v-51.111h19.25v-17.615h-59.678zm73.885 0.48047c-1.9251 0-3.5291 0.57736-4.8125 1.7324-1.2193 1.1551-1.8301 2.6644-1.8301 4.5254 0 2.0535 0.54583 3.6239 1.6367 4.7148 1.1551 1.0267 2.3748 1.5095 3.6582 1.4453-0.12834 1.4759-0.7057 2.6938-1.7324 3.6562-0.96257 0.96257-2.0857 1.733-3.3691 2.3105l3.1758 5.2949c0.83423-0.32086 1.8608-0.80161 3.0801-1.4434 1.2834-0.70588 2.4716-1.6379 3.5625-2.793 1.1551-1.2193 2.1167-2.7266 2.8867-4.5234 0.83422-1.7968 1.252-3.9781 1.252-6.5449 0-2.5027-0.67388-4.5243-2.0215-6.0645-1.3476-1.5401-3.1762-2.3105-5.4863-2.3105zm341.59 333.88c-20.888 0-34.846 15.016-34.846 36s13.958 36 34.846 36 34.846-15.016 34.846-36-13.958-36-34.846-36zm176.91 0c-15.497 0-33.883 10.492-33.883 36.674 0 19.54 12.514 35.326 32.824 35.326 7.508 0 14.822-2.5979 19.539-8.6621l0.67383 7.0254h13.381v-37.828h-28.107v14.727h9.3359c-1.0588 5.1016-6.0633 7.6055-10.973 7.6055-12.898 0-15.498-11.264-15.498-17.713 0-4.7166-0.48039-20.021 14.055-20.021 5.0054 0 9.2395 3.563 10.01 8.5684h20.312c-3.0802-16.171-14.149-25.701-31.668-25.701h-0.00196zm77.449 0c-20.888 0-34.844 15.016-34.844 36s13.956 36 34.844 36 34.846-15.016 34.846-36-13.958-36-34.846-36zm185.57 0c-15.497 8.7e-4 -33.881 10.493-33.881 36.674 0 19.54 12.512 35.326 32.822 35.326 7.508 0 14.824-2.5979 19.541-8.6621l0.6739 7.0254h13.379v-37.828h-28.108v14.727h9.336c-1.0588 5.1016-6.0632 7.6055-10.973 7.6055-12.898 0-15.498-11.264-15.498-17.713 0-4.7166-0.4804-20.021 14.055-20.021 5.0054 0 9.2414 3.563 10.012 8.5684h20.309c-3.0801-16.17-14.148-25.7-31.666-25.701h-2e-3zm-730.35 1.6367v68.727h21.176v-68.727h-21.176zm56.623 0v68.727h20.02v-44.086h0.19141l11.939 44.086h15.785l11.936-44.086h0.19336v44.086h20.021v-68.727h-30.129l-9.8184 40.428h-0.19141l-9.8184-40.428h-30.129zm126.41 0v68.727h20.02v-37.539h0.19336l21.08 37.539h20.602v-68.727h-20.021v36.77h-0.19336l-20.021-36.77h-21.658zm149.61 0v17.615h19.252v51.109h21.176v-51.109h19.252v-17.615h-59.68zm257.54 0v68.727h21.178v-68.727h-21.178zm33.748 0v68.727h20.021v-37.539h0.19336l21.08 37.539h20.6v-68.727h-20.02v36.77h-0.19335l-20.021-36.77h-21.658-0.00196zm-585.46 0.48046c-1.9251 0-3.5291 0.57737-4.8125 1.7324-1.2193 1.1551-1.8301 2.6644-1.8301 4.5254 0 2.0535 0.54583 3.6259 1.6367 4.7168 1.1551 1.0267 2.3748 1.5075 3.6582 1.4434-0.12834 1.4759-0.7057 2.6956-1.7324 3.6582-0.96257 0.96257-2.0857 1.731-3.3691 2.3086l3.1758 5.2949c0.83423-0.32086 1.8608-0.80161 3.0801-1.4434 1.2834-0.70589 2.4716-1.6379 3.5625-2.793 1.1551-1.2193 2.1167-2.7266 2.8867-4.5234 0.83422-1.7968 1.252-3.9781 1.252-6.5449 0-2.5027-0.67387-4.5244-2.0215-6.0644-1.3476-1.5401-3.1762-2.3106-5.4863-2.3106zm251.95 15.016c5.3904 0 13.668 3.5625 13.668 18.867 0 15.305-8.2776 18.867-13.668 18.867-5.3904 0-13.668-3.5625-13.668-18.867 0-15.305 8.2776-18.867 13.668-18.867zm254.36 0c5.3904 0 13.67 3.5625 13.67 18.867 0 15.305-8.2794 18.867-13.67 18.867-5.3905 0-13.668-3.5625-13.668-18.867 0-15.305 8.2776-18.867 13.668-18.867z"/>
    <path id="boeing" fill="url(#darkBlue)"
        d="m488.57 30c-20.888 0-34.844 15.016-34.844 36s13.956 36 34.844 36 34.846-15.016 34.846-36-13.958-36-34.846-36zm254.94 0c-15.497 0-33.881 10.492-33.881 36.674 0 19.54 12.512 35.326 32.822 35.326 7.508 0 14.824-2.5999 19.541-8.6641l0.67383 7.0273h13.379v-37.828h-28.107v14.727h9.3379c-1.0588 5.1016-6.0633 7.6055-10.973 7.6055-12.898 0-15.498-11.264-15.498-17.713 0-4.7166-0.48231-20.021 14.053-20.021 5.0054 0 9.2414 3.563 10.012 8.5684h20.312c-3.0802-16.171-14.153-25.699-31.672-25.699v-0.001953zm-360.69 1.6348v0.001953 68.727h38.984c12.128 0 24.064-7.1217 24.064-20.887 0-10.107-5.7746-15.017-11.936-17.135 5.1016-2.7914 8.4707-6.5457 8.4707-13.477 0-7.0268-3.8513-17.23-21.947-17.23h-37.637zm220.52 0.001953v68.727h21.178v-68.727h-21.178zm33.75 0v68.727h20.021v-37.539h0.19335l21.08 37.539h20.6v-68.727h-20.021v36.77h-0.19336l-20.021-36.77h-21.656-0.00195zm-103.12 0.001953v68.725h57.947v-17.615h-36.77v-8.5664h32.438v-16.363h-32.438v-8.5664h35.711v-17.613h-56.889zm-45.404 15.494c5.3904 0 13.67 3.5625 13.67 18.867s-8.2794 18.867-13.67 18.867c-5.3904 0-13.668-3.5625-13.668-18.867s8.2776-18.867 13.668-18.867zm-84.572 0.86719h11.166c4.3316 0 7.2188 1.2515 7.2188 4.7168 0 4.4278-2.7909 5.6797-7.2188 5.6797h-11.166v-10.396zm0 23.197h13.283c5.0054 0 7.4121 2.215 7.4121 6.2578 0 5.2941-3.8515 6.5449-8.2793 6.5449h-12.416v-12.803z"/>
    <path id="marking1" fill="url(#lightBlue)"
        d="m30 132v8h1050v-8zm70 98v8h96v-8zm192 0v8h96v-8zm192 0v8h96v-8zm426 0v8h96v-8zm-880 98v8h1050v-8z"/>
    <path id="marking2" fill="url(#lightGray)"
        d="m30 160v8h192v-8zm852 0v8h192v-8zm-852 14v8h192v-8zm852 0v8h192v-8zm-514.3 11.451v3.0234h-75.68v8.0742h90.826v-8.0742l-3.0234-3.0234zm-337.73 2.5488v8h192v-8zm852 0v8h192v-8zm-852 14v8h192v-8zm852 0v8h192v-8zm-852 14v8h192v-8zm852 0v8h192v-8zm-852 28v8h192v-8zm852 0v8h192v-8zm-852 14v8h192v-8zm852 0v8h192v-8zm-590 3.8652v30.268h55.484v-22.193h16.619l12.822 14.121 11.072 0.17578-6.584-7.25h0.01l-13.746-15.121zm15.121 8.0742h25.244v14.121h-25.244zm-277.12 2.0606v8h192v-8zm852 0v8h192v-8zm-852 14v8h192v-8zm852 0v8h192v-8zm-852 14v8h192v-8zm852 0v8h192v-8z"/>
    <path id="engine1" fill="url(#engine1)"
        d="m786.9 255.28 0.059 0.49704s-0.4996 3.0191-0.8938 4.49c-0.3941 1.4709-1.471 4.3354-1.471 4.3354l-0.3029 0.40614c0.2463 0.0477 0.4452 0.0789 0.5794 0.0865 2.4734 0.14008 2.6016-8e-3 3.743-4.3251 1.0134-3.8321 1.237-4.5509-1.7137-5.49z"/>
    <path id="engine2" fill="url(#engine2)"
        d="m784.3 254.54-0.3238 0.43089s-0.486 2.9714-0.8801 4.4423-1.4846 4.383-1.4846 4.383l0.065 0.53503 2.6167 0.70115 0.3218-0.43141s1.0777-2.8643 1.4718-4.3352 0.893-4.4902 0.893-4.4902l-0.063-0.53451z"/>
    <path id="engine3" fill="url(#engine3)"
        d="m780.4 253.5-0.3238 0.43089s-0.487 2.972-0.8811 4.4429-1.4836 4.3825-1.4836 4.3825l0.046 0.38027c0.8116 0.28766 1.8217 0.61016 2.8491 0.91303l1.0338 0.27701-0.065-0.53503s1.0895-2.9116 1.4836-4.3825c0.3942-1.4709 0.8811-4.4429 0.8811-4.4429l0.3238-0.43089-0.1943-0.0521z"/>
    <path id="engine4" fill="url(#engine4)"
        d="m780.4 253.49-8.1441 7.0079c0.062 0.0166 0.3314 0.19494 0.598 0.39476 0.2664 0.19986 1.0422 0.60436 1.7221 0.90024 0.6797 0.29583 1.6521 0.72002 2.1621 0.94126 0.2723 0.11811 0.6485 0.25732 1.0625 0.40401l-0.046-0.38027s1.0895-2.9116 1.4836-4.3825 0.8811-4.4429 0.8811-4.4429l0.3238-0.43089z"/>
    <path id="engine5" fill="url(#engine5)"
        d="m784.6 264.59c0.372 0.0782 0.6633 0.12815 0.7828 0.13489 0.6132 0.0347 1.0599 0.0445 1.3579-4e-3 0.298-0.0487 0.4368-0.12059 0.6065-0.3167 0.3392-0.39214 0.6994-1.4775 1.2664-3.6319v-4e-3c0.079-0.29762 0.1545-0.5765 0.2245-0.83764l1e-3 -4e-3c0.1995-0.78314 0.3481-1.3995 0.4129-1.873 0.084-0.63316 0.026-0.95726-0.1569-1.2108-0.1828-0.2535-0.5838-0.51154-1.3441-0.78679-0.2299-0.0834-0.5014-0.16863-0.7926-0.2569-0.01 0.0701-0.5 3.0132-0.8895 4.4669-0.3918 1.4622-1.4536 4.2911-1.4662 4.3245z"/>
    <path id="engine6" fill="url(#engine6)"
        d="m779 254.68-6.0889 5.2393c0.8071 0.27716 1.6814 0.57742 2.1998 0.75525 1.1178 0.38348 4.2444 1.2878 6.8805 2.0317 0.1706-0.47446 0.3747-1.0469 0.5658-1.6136 0.01-0.0202 0.011-0.0402 0.016-0.0604 0.01-0.0201 0.01-0.0384 0.016-0.0584 0.092-0.27289 0.179-0.54427 0.2589-0.8001 0.086-0.27422 0.1632-0.53168 0.2241-0.75888 0.057-0.21324 0.1125-0.45862 0.1732-0.7159 0.023-0.086 0.038-0.17941 0.058-0.26963 0.051-0.23645 0.1019-0.47704 0.1515-0.72374 0.1237-0.62026 0.2375-1.2459 0.3258-1.7446z"/>
    <path id="door" fill="url(#lightGray)"
        d="m804.49 258.83c-0.49377-0.13219-1.0426-0.0742-1.5223 0.20273l-4.742 2.7409c-0.95955 0.55399-1.2859 1.7722-0.73196 2.7317l1.5053 2.6073c0.55397 0.95947 1.7721 1.2859 2.7317 0.73196l4.7458-2.7399c0.95935-0.554 1.2857-1.7722 0.73196-2.7317l-1.5055-2.6073c-0.27698-0.47978-0.71936-0.80336-1.2129-0.93568z"/>
    <path id="plane" fill="url(#lightGray)"
        d="m765.75 155.14c-0.46222 0.06171-0.42996 0.58683-0.13281 2.2246 0.1762 0.97042 0.28935 1.8798 0.25195 2.0195-0.037 0.13956-9.2e-4 0.68052 0.08008 1.2012 0.082 0.52077 0.11792 1.2642 0.07812 1.6524-0.041 0.38787-0.04853 1.3138-0.01953 2.0566 0.05 1.2744 0.09662 2.9722 0.29492 10.605 0.046 1.7602 0.10682 3.942 0.13672 4.8477 0.03 0.90554 0.0856 2.8927 0.1211 4.4141 0.036 1.5214 0.1055 4.2066 0.1582 5.9688 0.1071 3.5923 0.117 4.9048 0.0332 4.9531-0.031 0.018-0.80084-0.05355-1.7109-0.1582-3.5028-0.40294-3.1405 0.6824 0.70117 2.0957l1.1348 0.41601 0.05664 1.666c0.2092 5.9678 0.21017 6.8646 0.00977 6.9102-0.1154 0.0262-0.83416-0.03138-1.5977-0.12891-1.5914-0.20336-1.7049-0.18847-1.8203 0.24219-0.1056 0.3943-0.08585 0.40726 1.9688 1.3418l1.6934 0.76954 0.0625 2.4941c0.054 2.1054 0.01102 2.6793-0.29688 3.6855l-0.35937 1.1914-0.96289-0.11133c-1.4813-0.1687-1.6574 0.57963-0.29688 1.2617l0.91407 0.45703-1.0938 4.0781-1.0918 4.0781-12.727-3.5312c-12.396-3.4393-20.157-5.3852-23.887-5.9902-0.8639-0.14018-2.8681-0.47968-4.4551-0.75391-2.3621-0.40811-10.304-1.399-12.035-1.502-0.4057-0.024-0.57117-0.34775-2.1055-4.1309-2.6459-6.5255-7.0335-17.287-8.6211-21.148-0.8056-1.9585-1.6074-3.6556-1.793-3.7891-0.5962-0.4289-3.1387-1.0285-3.4453-0.8125-1.3266 0.93553-1.7768 20.701-0.62695 27.512 0.1635 0.96844 0.19888 0.91713-0.54102 0.85351-2.0312-0.1748-4.949-0.15069-5.2363 0.04492-0.2685 0.18293-0.70781 0.13774-2.6328-0.28125-1.2708-0.27634-2.4346-0.49024-2.5859-0.47461-0.3149 0.0326-0.45894 0.38264-0.24804 0.60547 0.077 0.0825 1.1794 0.50342 2.4473 0.9336 1.9405 0.6586 2.3349 0.84023 2.4863 1.1523 0.1817 0.37474 1.3566 1.1011 3.7168 2.2969 0.7102 0.35985 1.3092 0.67549 1.332 0.70312 0.023 0.0275-0.22734 0.35459-0.55664 0.72461-3.2115 3.6098-11.403 17.694-13.234 22.75l-0.41015 1.1289 0.41797 0.30664c0.63949 0.46843 3.4161 1.0278 3.6934 0.74414 0.1186-0.12184 1.1135-0.88977 2.209-1.707 3.5784-2.6699 5.1224-3.8342 10.717-8.082 3.0353-2.3048 6.3874-4.8463 7.4492-5.6484 1.0619-0.80198 2.4327-1.8466 3.0449-2.3203 1.3047-1.0095 1.0571-1.0323 4.1172 0.38282 3.554 1.6436 5.7259 2.6123 6.6582 2.9707 0.4731 0.18155 1.4229 0.55368 2.1094 0.82422 6.9739 2.7483 14.798 5.0875 38.533 11.525l1.8086 0.49414-1.0938 4.0762-1.0918 4.0762-0.91015-0.12695c-1.4388-0.19992-1.9778 0.52692-0.81446 1.0977 1.4663 0.71937 1.3777 0.52373 0.88867 1.9726-0.31359 0.93092-0.7948 1.8438-1.7207 3.2656l-1.2852 1.9746-0.83008-0.10156c-2.8268-0.34204-3.097-0.33731-3.2031 0.05859-0.1316 0.49136-0.07918 0.53805 1.3535 1.1523 0.6693 0.28702 1.2846 0.5872 1.3672 0.66797 0.1001 0.0983-0.60702 1.357-2.1328 3.7852l-2.2871 3.6387-0.67187-0.17969c-0.7101-0.19028-3.0641-0.5247-3.5957-0.51172-1.3547 0.0331-0.18897 1.2211 2.082 2.1211l1.0234 0.40625-8.8496 14.123c-4.8666 7.7667-9.0236 14.383-9.2402 14.703-0.2165 0.31989-0.55149 0.80835-0.74219 1.0879-0.1908 0.27961-0.91437 1.2051-1.6094 2.0547-1.4393 1.7599-1.4478 1.9363-0.10938 2.2949 0.6701 0.17954 0.79377 0.13649 3.1641-1.1484 2.4965-1.3532 4.7137-2.4391 6.8359-3.3457 0.2358-0.10075 1.098-0.89375 1.9141-1.7617 0.81609-0.86794 3.982-4.2323 7.0371-7.4766 3.0553-3.2443 7.6174-8.0909 10.139-10.77 13.747-14.606 16.855-17.681 16.975-17.785l2.0273-1.8086 4.8867 1.3105c0.5351 0.14338 1.0812-0.17386 1.2246-0.70898l0.39062-1.4531c0.1434-0.53511-0.17183-1.0813-0.70703-1.2246l-2.5801-0.6914 2.9024-2.4316 2.3594-2.0312c1.2979-1.1168 2.5699-2.2219 2.8262-2.4551 0.39933-0.36339 2.2239-0.00143 5.8555 0.91406l1.2168-4.5469c0.14343-0.53506 0.49097-0.96503 0.93359-1.2207 0.44258-0.25545 0.98247-0.33871 1.5176-0.19531l2.9082 0.7793c1.07 0.2869 1.7007 1.3791 1.4141 2.4492l-1.2012 4.4824c0.87817 0.22688 1.4647 0.37408 3.5508 0.93359 14.608 3.9225 18.828 4.9481 21.557 5.2617 3.8108 0.43807 5.7073 0.58974 8.3418 0.66602 1.8769 0.0542 3.2534 0.18174 3.8438 0.35547 0.6618 0.19483 0.93617 0.21122 0.97657 0.06054 0.034-0.12793 0.8875-0.24182 2.1914-0.29101 5.0951-0.19265 7.8329-0.80866 8.2832-2.0293 0.4506-1.2206-1.3892-3.0452-5.4512-5.6523-1.7322-1.1118-2.2954-1.5541-2.2969-1.7949 0-0.26994-0.12458-0.33872-0.79688-0.45117-0.5806-0.0969-1.509-0.52528-3.4336-1.582-7.5764-4.1602-10.225-5.073-33.668-11.604l-10.709-2.9824-1.248-3.6289-1.2461-3.6289 3.3809 0.98242c3.7075 1.0781 4.7982 1.2046 5.8828 0.68555l0.53906-0.25781 0.92188-3.1699c1.3628-4.6785 1.2916-4.9902-1.3828-6.125-2.2886-0.9711-9.3913-2.3839-11.883-2.3633-0.5495 5e-3 -1.018-0.02791-1.0391-0.07031-0.065-0.13076-3.4019-14.944-7.4492-33.07-4.1381-18.532-3.8242-17.406-5.4199-19.492-0.2272-0.29712-1.3267-2.0032-2.4434-3.791l-2.0312-3.248-0.81445-0.17383c-0.27275-0.05841-0.4807-0.09088-0.63477-0.07031z"/>
    <path id="smoke1" fill="url(#smoke1)" filter="url(#blurSmoke1)"
        d="m747.4 241.06c-3.799 0.35234-7.5694 0.96479-11.356 1.4336 4.2248 2.0544 8.4389 4.1308 12.674 6.1641 0.3039 2.4411 1.2338 5.0831 3.4863 6.3672 1.6744 1.0419 3.7202 1.1965 5.6094 1.3438 0.8014 1.378 2.1295 2.4229 3.6901 2.782 2.6441 0.93698 5.4441 1.2723 8.2024 1.6985 1.3717 1.1466 3.2646 1.0571 4.9378 1.2934 2.2728 0.21659 4.5496-0.0388 6.8025-0.3344 0.2414-2.5857 0.356-5.2646-0.5399-7.7495-0.5321-1.4942-1.2595-3.2662-2.9662-3.6871-1.278-0.38096-2.5963 0.0329-3.8494 0.31356-2.813-1.2345-5.7614-2.7554-8.9355-2.2949-1.6668 0.25545-3.2506 0.92083-4.9024 1.2012-0.5265-0.28436-0.4246-1.026-0.7589-1.4754-1.3038-2.9484-3.6147-5.7166-6.8605-6.5223-1.6947-0.49811-3.4775-0.58933-5.2341-0.5335z"/>
    <path id="smoke2" fill="url(#smoke2)" filter="url(#blurSmoke2)"
        d="m746.9 250.02c0.9315 5.8715 5.2878 8.0774 9.7491 8.2418 1.1449 2.0441 4.9673 3.5699 12.121 4.4511 0.9722 1.122 7.4739 2.0184 11.767 1.19 4.8046-0.92701 2.6421-9.0824 2.4293-9.8434-0.8395-3.0014-2.7679-7.1631-8.6725-5.4706-7.9765-3.7622-9.931-2.0043-13.043-1.3073-3.5112-8.1183-10.374-9.1621-18.431-7.6882-4.3783-0.93038-7.0274 0.51862-7.0564 2.5276s-1.5941 1.8435 11.136 7.899z"/>
    <path id="smoke3" fill="url(#smoke3)" filter="url(#blurSmoke3)"
        d="m746.9 250.02c0.9315 5.8715 5.2878 8.0774 9.7491 8.2418 1.1449 2.0441 4.9673 3.5699 12.121 4.4511 0.9722 1.122 7.4739 2.0184 11.767 1.19 4.8046-0.92701 2.6421-9.0824 2.4293-9.8434-0.8395-3.0014-2.7679-7.1631-8.6725-5.4706-7.9765-3.7622-9.931-2.0043-13.043-1.3073-3.5112-8.1183-10.374-9.1621-18.431-7.6882-4.3783-0.93038-7.0274 0.51862-7.0564 2.5276s-1.5941 1.8435 11.136 7.899z"/>
    <path id="smoke4" fill="url(#smoke4)" filter="url(#blurSmoke4)"
        d="m747.4 243.06c-1.5261 0.13375-3.0462 0.32661-4.5625 0.54297 2.5449 1.2536 5.1017 2.4829 7.6582 3.7129 0.303 2.0601 0.5567 4.4985 2.4003 5.8063 1.7626 1.2172 3.997 1.1521 6.045 1.2738 0.6173 1.146 1.364 2.419 2.748 2.709 2.87 1.1 5.9244 1.3789 8.918 1.8652 0.5411 0.72444 1.4605 0.89594 2.2871 0.94922 2.1882 0.37183 4.4261 0.4001 6.625 0.0976 0.2352-2.4015-0.1125-4.9344-1.325-7.0447-0.4898-0.91607-1.6048-0.83636-2.4594-0.60738-0.7012 0.0745-1.4379 0.44439-2.1193 0.3098-2.6216-1.0635-5.2791-2.7019-8.2213-2.3022-1.7225 0.28043-3.3535 0.98425-5.0703 1.2441-1.2002-1e-3 -2.2205-0.93758-2.441-2.0953-1.0425-2.5156-2.7426-5.0695-5.4819-5.8974-1.6059-0.53541-3.3213-0.62222-5.0009-0.5639z"/>
</svg>
