<svg version="1.1" viewBox="0 0 172 40" xmlns="http://www.w3.org/2000/svg">
    <!--
        Logo (c) České dráhy
        Idea & SVG (c) justJanne
    -->
    <defs>
        <linearGradient id="white"><stop stop-color="#ffffff"/></linearGradient>
        <linearGradient id="brightBlue"><stop stop-color="#173a79"/></linearGradient>
        <linearGradient id="darkBlue"><stop stop-color="#00adef"/></linearGradient>
    </defs>
    <path fill="url(#white)"
        d="m26.693 0c-1.2071 5.7363-0.39774 1.8919-1.2479 5.9344h-8.9409c-2.8783 0-8.1814 0.78403-11.933 5.7541-4.8362 6.4062-5.5503 15.179-3.47 20.312 2.0325 5.0147 6.8737 7.9706 12.587 7.9706 8.2748-0.02276 16.549 0.07888 24.824-0.0038 7.4841-0.0694 12.898-3.1276 16.174-13.039 1.6183 3.6156 5.1247 6.341 11.017 6.5891 34.136 0.01517 68.272 0.0076 102.41 0.0076v-9.2288h2.488v-8.0961l1.4012-7.1103c-2.5487-0.83265-5.095-1.6753-7.79-1.7639-3.0946 0.061059-6.4769 1.7518-8.0093 5.0666l-16.263-3.75e-4v-3.5869h-12.923v3.5873h-45.653v-3.5855l-15.807 0.00381c-3.1653 0.091787-6.6225 1.2029-8.9447 3.755-1.0826-10.553-8.9427-12.564-14.777-12.565z"/>
    <path fill="url(#darkBlue)"
        d="m164.13 12.069c-1.9938 0.01517-4.2579 0.81611-4.2579 4.3646v0.6624h-1.7001v2.4596h1.7001v9.221l3.5399 2e-3v-9.221h2.4841v-2.4576h-2.4841v-0.45078c0-1.134 0.32346-1.8029 2.5928-1.4601l0.55117-2.7986c-0.78176-0.28747-1.6063-0.29999-2.4259-0.3216zm-91.004 0.55268v16.155l3.5379-0.0076v-8.2881c0.87441-0.42814 1.7352-0.64283 2.5831-0.64283 1.2674 0 1.5506 0.44209 1.5506 1.8795v7.0436h3.5185v-7.3455c0-2.431-0.1862-4.6801-3.8756-4.6801-1.1857 0-2.4451 0.50478-3.7766 1.515v-5.6287zm58.575 0.04324v4.2842c-0.72338-0.08571-1.2345-0.12932-1.5312-0.12932-2.7241 0-6.2996 1.2973-6.2996 5.9501 0 4.3667 2.1391 6.2068 5.1992 6.2068 1.0382 0.05993 1.8431-0.38778 2.6316-0.98973v0.83492h3.536v-16.155zm-65.297 0.84861c-5.4283 0.02655-8.1413 2.6525-8.1413 7.8766 0 2.5017 0.69823 4.4096 2.096 5.7207 2.979 2.7683 8.6084 2.0602 10.839 1.2268l-0.7627-2.7398c-1.3709 0.36029-5.0704 1.0908-7.1438-0.83488-0.90751-0.83617-1.3624-2.0337-1.3624-3.5924 0-3.6606 2.4162-4.7111 4.6014-4.6664 1.4071 0.02655 2.0148 0.10809 3.666 0.55659l0.95483-2.6281c-1.7814-0.81664-3.6665-0.93406-4.747-0.91915zm25.571 3.3141c-1.6527 5.69e-4 -3.213 0.3144-4.8227 0.94267l0.7006 2.589c1.444-0.34246 2.5952-0.51347 3.4564-0.51347 1.7242 0 2.0979 0.51453 2.0979 1.3229v0.72907h-2.0164c-3.3055 0-4.9585 1.1831-4.9585 3.5512 0 3.0958 2.485 3.5289 3.8795 3.5277 1.1808-9.86e-4 2.2907-0.4438 3.4234-1.3268 0.26499 0.82954 1.3322 1.2445 3.2002 1.2445 0.36766 0 0.64324-0.0076 0.82674-0.02276l0.12615-2.6987c-0.80003-0.03414-1.0383-0.14715-1.0383-0.49193v-5.1975c0-2.0905-0.89661-3.6564-4.8751-3.6551zm13.436 0.0076c-3.5592 0-6.0608 2.2289-6.0608 6.2518 0 3.2785 1.7136 5.9893 5.8726 5.9893 3.1853-0.0033 6.1404-1.7458 6.1404-6.101 0-5.0808-3.2455-6.1402-5.9522-6.1402zm36.765 0c-3.5592 0-6.0608 2.2289-6.0608 6.2518 0 3.2785 1.7136 5.9893 5.8726 5.9893 3.1853-0.0033 6.1404-1.7458 6.1404-6.101 0-5.0808-3.2455-6.1402-5.9522-6.1402zm-24.327 0.0038c-1.8796-9.1e-4 -4.877 0.77496-4.877 3.7021 0.0588 2.321 1.8053 3.1396 3.7728 3.8021 2.0485 0.56785 2.0552 0.83098 2.0552 1.0485 0 0.54252-0.66547 0.81528-1.997 0.81528-0.82142 0-1.9868-0.10733-3.4972-0.3216l-0.38233 2.6987c1.9821 0.56804 4.0993 0.46208 4.254 0.49974 0.5824 0 5.1409-0.11871 5.1409-3.8295 3e-3 -1.7834-1.3393-3.1208-4.3103-3.8981-0.40727-0.1096-1.4866-0.45021-1.4866-0.98579 0-0.64124 1.0264-0.70556 1.44-0.70556 0.88766 0 1.9549 0.14146 3.2002 0.42726l0.59387-2.589c-1.2453-0.44217-2.5487-0.66373-3.9067-0.66437zm38.601 0.06865c-0.55724 0.01897-1.6971 0.13122-2.9751 1.7932v-1.5639h-3.5379v11.639l3.5379 0.04703v-7.9177c0.44933-0.50182 1.4827-1.0054 2.5637-1.0054 0.58227 0 1.0985 0.04171 1.5506 0.12743l0.46576-2.9299c-0.20024-0.06031-0.80815-0.21845-1.605-0.19zm-26.213 2.7438c0 0.0076 0.45354-0.03034 1.4614 0.14904v5.8403c-1.1451 0.46284-1.9291 0.35688-1.9291 0.39393-1.5832 0-2.3735-1.0653-2.3735-3.1926 0-2.1273 0.94663-3.1906 2.8412-3.1906zm-24.886 0.0076c9e-3 0.13994 2.4181-0.59125 2.4181 3.3161 0 2.7725-1.0622 3.2533-2.3774 3.2533-1.3874 0-2.4744-0.57749-2.4744-3.2278 0-2.2276 0.81071-3.3415 2.4336-3.3415zm36.765 0c0.0135 0.13918 2.4181-0.58795 2.4181 3.3161 0 2.7726-1.0622 3.2533-2.3774 3.2533-1.3878 0-2.4744-0.57798-2.4744-3.2278 0-2.2276 0.81074-3.3415 2.4336-3.3415zm-48.71 4.3156v1.8364c-0.95984 0.27078-1.7071 0.40587-2.1522 0.41156-0.91259 0.0076-1.3857-0.40246-1.3857-0.97995 0-0.78755 0.60009-1.1943 1.799-1.2229z"/>
    <path fill="url(#brightBlue)"
        d="m29.732 3.7943-4.4714 21.272h3.8154l3.6854-17.46c2.2953 0 6.6678 0.00191 9.0922 0.00191 0.75914-9.854e-4 1.6296 0.011379 2.4841 0.14487 0.63991 0.098608 1.2617 0.26168 1.8281 0.51347 0.84062 0.38634 1.5315 0.92025 2.0979 1.8776 0.55843 0.96129 0.99364 2.4278 0.99364 4.7056 5e-4 1.3245-0.14984 2.921-0.50458 4.8075-0.6399 3.4117-1.4316 5.9198-2.2862 7.7159-0.63891 1.3546-1.3022 2.2967-1.9679 2.979-0.99265 1.0135-1.9569 1.475-3.0896 1.756-1.1328 0.27306-2.4448 0.30302-3.8756 0.29999h-23.847c-1.57 0.003816-3.1685-0.42626-4.2715-1.3444-0.55743-0.46257-1.0243-1.0434-1.3721-1.8461-0.34678-0.80071-0.57833-1.8358-0.57833-3.2004 0-0.87 0.095465-1.8664 0.31633-3.0103 0.47099-2.4283 0.95505-3.5932 1.6496-4.978 1.0533-2.0871 2.1968-3.1312 3.3594-3.7433 1.1626-0.61112 2.4148-0.79768 3.7164-0.79768h9.1407l0.79375-3.7629h-9.9364c-1.093 0-2.3054 0.10316-3.5573 0.4664-1.878 0.53584-3.8254 1.7152-5.3855 3.7923-1.57 2.0671-2.6542 4.2759-3.4293 8.3097-0.26033 1.3446-0.38521 2.5776-0.3862 3.7316-4.844e-4 1.7962 0.30949 3.361 0.89078 4.7056 0.86546 2.0169 2.3544 3.4533 3.994 4.2862 1.6395 0.84588 3.408 1.1642 5.0574 1.1642h23.847c1.2917-2e-3 2.7039-0.0038 4.1745-0.28216 1.1029-0.20859 2.2447-0.58147 3.3477-1.2347 1.6594-0.97532 3.1602-2.5584 4.3724-4.8662 1.2222-2.3079 2.2158-5.3485 2.9809-9.4425 0.38951-2.0771 0.57057-3.8935 0.57057-5.5091 3.73e-4 -2.4484-0.42124-4.4447-1.2032-6.0402l-0.02704-0.03793c-0.58327-1.1941-1.3707-2.159-2.2551-2.8614-1.3315-1.0737-2.8231-1.5852-4.1745-1.8461-1.3514-0.25675-2.5932-0.26548-3.4875-0.26661h-12.102zm4.1298 5.2053-3.3788 16.055h3.8154l2.5831-12.243-0.03493-0.04096h5.7929c1.4408 0 1.4208 0.79514 1.4109 1.9481-0.01277 1.0737-0.17643 2.6689-0.63849 4.8564-0.45112 2.1474-0.91623 3.7326-1.3624 4.8564-0.33386 0.84289-0.65531 1.424-0.93154 1.7953-0.42627 0.56793-0.66795 0.68637-0.94318 0.79374-0.27821 0.10126-0.70487 0.13729-1.3508 0.13312h-24.446c-1.411 0-1.6981-0.33184-1.6981-1.3444 4.84e-4 -0.64522 0.10452-1.5842 0.36485-2.8084 0.27723-1.3245 0.46093-1.616 0.79182-2.3184 0.50874-1.0636 0.9548-1.4446 1.3701-1.6855 0.41733-0.22869 0.96256-0.33109 1.7505-0.33109h7.5998l0.79375-3.7629h-8.3859c-0.72039 4.93e-4 -1.5007 0.05424-2.3056 0.28633-0.60612 0.17256-1.2227 0.45294-1.799 0.86234-0.86745 0.61408-1.6089 1.5062-2.1852 2.6301-0.58625 1.1339-0.89977 1.8255-1.2614 3.5414-0.29312 1.3948-0.44438 2.5589-0.44636 3.5924 0.00194 0.85794 0.10313 1.635 0.38233 2.3675 0.20768 0.54388 0.52798 1.0548 0.93736 1.4562 0.61705 0.61207 1.3713 0.93705 2.0669 1.0935 0.70052 0.16346 1.3717 0.19304 2.0474 0.19607 3.1598-4.93e-4 21.264-4.93e-4 24.444 0 0.61904-0.0029 1.381-0.0018 2.2454-0.23703 0.64388-0.17446 1.3307-0.50349 1.9368-1.0133 0.9231-0.76461 1.6597-1.8567 2.3056-3.3317 0.64487-1.4851 1.2137-3.4105 1.7602-5.9893 0.49384-2.3581 0.71608-4.1654 0.71807-5.6404-0.0019-1.0737-0.1177-1.976-0.39591-2.7889-0.20866-0.60506-0.52108-1.1535-0.93542-1.6051-0.62003-0.67632-1.4205-1.0335-2.0863-1.1739-0.67468-0.14943-1.2525-0.14677-1.7195-0.14905h-8.8127z"/>
</svg>
