<svg version="1.1" viewBox="0 0 86.8 25.1" xmlns="http://www.w3.org/2000/svg">
    <!--
        Chaosdorf Logo (c) CCC Düsseldorf
        Idea & SVG (c) justJanne
    -->
    <defs>
        <linearGradient id="black"><stop stop-color="#000000"/></linearGradient>
        <linearGradient id="white"><stop stop-color="#ffffff"/></linearGradient>
        <linearGradient id="pridePink"><stop stop-color="#f7bfc8"/></linearGradient>
        <linearGradient id="prideBlue"><stop stop-color="#9ad5e4"/></linearGradient>
        <linearGradient id="prideRed"><stop stop-color="#d73c0f"/></linearGradient>
        <linearGradient id="prideOrange"><stop stop-color="#f8ab15"/></linearGradient>
        <linearGradient id="prideYellow"><stop stop-color="#ffd704"/></linearGradient>
        <linearGradient id="prideGreen"><stop stop-color="#3a9134"/></linearGradient>
        <linearGradient id="prideIndigo"><stop stop-color="#006dac"/></linearGradient>
        <linearGradient id="prideViolet"><stop stop-color="#a7318a"/></linearGradient>
        <linearGradient id="chaosdorfGreen"><stop stop-color="#45ac30"/></linearGradient>
    </defs>
    <path fill="url(#white)"
        d="m80.9 4e-5c-0.798 0.0062-2.51 1.16-2.66 2.46l-15.5-0.0057c-0.124-1.01-1.76-2.42-2.73-2.42h-1.76c-1.32-0.0011-2.6 1.84-2.68 2.45l-37-0.016c-0.118-1.04-1.8-2.46-2.75-2.45h-0.0021c-0.0013-3e-6 -0.0028-3e-6 -0.0041 0l-12.9 0.0465c-0.916-0.0036-2.77 1.43-2.78 2.64-6e-6 2e-3 -6e-6 0.0037 0 0.0057v10.3c-6e-6 2e-3 -6e-6 0.0037 0 0.0057 0.0068 1.22 1.86 2.65 2.78 2.64l54.1-0.0424c-0.0964 0.36-0.0878 0.972-0.0878 1.58-0.635 0.302-1.21 0.715-1.58 1.31-0.191 0.335-0.384 0.668-0.564 1.01-0.448 1.03 0.187 2.22 1.29 2.42l1.69 0.309c0.361 0.066 0.676-0.0895 0.969-0.237 0.245 0.382 0.558 0.545 1.04 0.711-0.0126 0.433 0.145 0.823 0.26 1.23 0.372 1.12 1.74 1.56 2.69 0.861l1.34-0.971c0.338-0.388 0.371-0.687 0.469-1.07 3.38 0.0328 6.6-3.77 5.37-6.66 0.0524-0.161 0.0553-0.326 0.0589-0.492h14.2c0.902-5.45e-4 2.78-1.42 2.77-2.66l0.0155-11.2v-0.0021c3.5e-4 -0.966-0.783-1.75-1.75-1.75h-4.19c-0.0026-1e-5 -0.0052-1e-5 -0.0078 0z"/>
    <path fill="url(#black)"
        d="m80.9 1.5c-0.0614 4.53e-4 -0.12 0.0234-0.166 0.0646-0.331 0.296-0.665 0.59-1 0.885-0.0544 0.0472-0.0859 0.116-0.0863 0.188v1.32l-8.06-0.0041c-0.0604 3.85e-4 -0.119 0.0226-0.164 0.0625-0.301 0.264-0.602 0.529-0.902 0.793l-0.877-0.793c-0.0457-0.0411-0.105-0.0639-0.166-0.0641h-7.34c-0.0611-1.17e-4 -0.12 0.0221-0.166 0.0625-0.259 0.228-0.514 0.458-0.77 0.687v-2.04c1.06e-4 -0.0714-0.0304-0.14-0.0837-0.187l-1-0.883c-0.0458-0.0404-0.105-0.0626-0.166-0.0625h-1.76c-0.0611-1.17e-4 -0.12 0.0221-0.166 0.0625l-1.02 0.902c-0.0535 0.0476-0.084 0.116-0.0837 0.188v1.3h-4.32c-0.0611-1.17e-4 -0.12 0.0221-0.166 0.0625l-0.984 0.869-1.02-0.897c-0.0459-0.0405-0.105-0.0628-0.166-0.0625h-7.33c-0.0605 2.6e-4 -0.119 0.0225-0.164 0.0625l-0.973 0.854-0.968-0.855c-0.0459-0.0405-0.105-0.0628-0.166-0.0625h-7.31c-0.0611-1.17e-4 -0.12 0.0221-0.166 0.0625l-1.02 0.902c-0.0537 0.0476-0.0844 0.116-0.0842 0.188v3.3l-1.06-0.937v-2.38c2.57e-4 -0.0716-0.0302-0.14-0.0837-0.188l-1-0.883c-0.0454-0.04-0.104-0.0623-0.164-0.0625h-5.97c-0.0611-1.17e-4 -0.12 0.0221-0.166 0.0625l-1 0.883c-0.0423 0.0424-0.0679 0.0985-0.0724 0.158-7e-3 -0.0405-0.0238-0.0787-0.0491-0.111l-1.02-0.922c-0.046-0.0416-0.106-0.0647-0.168-0.0646h-4.31l-0.0155-1.31c-8.57e-4 -0.0712-0.0321-0.139-0.0858-0.186l-1.02-0.899c-0.0458-0.0404-0.105-0.0626-0.166-0.0625h-1.74c-0.0604 3.85e-4 -0.119 0.0226-0.164 0.0625l-1.02 0.901c-0.0234 0.0304-0.0395 0.0658-0.047 0.103-6e-3 -0.0199-0.0146-0.039-0.0253-0.0568l-1.02-0.9c-0.0454-0.04-0.104-0.0623-0.164-0.0625h-8.74c-0.0612-2.43e-4 -0.12 0.022-0.166 0.0625l-1.02 0.9c-0.0544 0.0472-0.0859 0.116-0.0863 0.188v10.3c3.98e-4 0.072 0.0318 0.14 0.0863 0.188l1.02 0.9c0.0459 0.0405 0.105 0.0628 0.166 0.0625h8.71c0.0605-2.6e-4 0.119-0.0225 0.164-0.0625l1.02-0.9c0.0331-0.0372 0.0543-0.0834 0.061-0.133 0.0074 0.0308 0.0205 0.0599 0.0388 0.0858l1.02 0.901c0.0453 0.0399 0.103 0.0622 0.164 0.0625h3.12c0.0604-3.85e-4 0.119-0.0226 0.164-0.0625l1.02-0.885c0.0549-0.0475 0.0864-0.117 0.0863-0.189v-4.14c-3.98e-4 -0.072-0.0318-0.14-0.0863-0.188l-1.29-1.14v-0.758h2.67v7.13c-4.9e-5 0.138 0.112 0.25 0.25 0.25h2.42c0.138 4.9e-5 0.25-0.112 0.25-0.25v-0.761l1.05 0.946c0.0458 0.0404 0.105 0.0626 0.166 0.0625h7.31c0.0611 1.17e-4 0.12-0.0221 0.166-0.0625l0.951-0.836 0.942 0.83c0.0458 0.0404 0.105 0.0626 0.166 0.0625h7.31c0.0612 2.43e-4 0.12-0.022 0.166-0.0625l0.976-0.861 0.973 0.855c0.0453 0.0399 0.103 0.0622 0.164 0.0625h7.33c0.0611 1.17e-4 0.12-0.0221 0.166-0.0625l0.996-0.877 1 0.883c0.0459 0.0405 0.105 0.0628 0.166 0.0625h7.33c0.0605-2.6e-4 0.119-0.0225 0.164-0.0625l0.939-0.826 0.941 0.826c0.0454 0.04 0.104 0.0623 0.164 0.0625h7.31c0.0612 2.43e-4 0.12-0.022 0.166-0.0625l0.902-0.795 0.902 0.795c0.0453 0.0399 0.103 0.0622 0.164 0.0625l3.13 0.0057c0.0604-3.85e-4 0.119-0.0226 0.164-0.0625l1.03-0.9c0.0537-0.0476 0.0844-0.116 0.0842-0.188v-4.14c-2.3e-5 -0.0715-0.0307-0.14-0.0842-0.187l-1.3-1.15v-0.756l5.04 0.0041v6.22c-2.01e-4 0.0728 0.0313 0.142 0.0863 0.19l1.02 0.9c0.0457 0.0393 0.104 0.0608 0.164 0.0605h3.12c0.0611 1.17e-4 0.12-0.0221 0.166-0.0625l1.02-0.898c0.0548-0.0478 0.0861-0.117 0.0858-0.19v-4.12c-2.66e-4 -0.072-0.0315-0.14-0.0858-0.188l-1.3-1.15v-0.767l1.14 0.0119c0.139 0.0012 0.252-0.111 0.252-0.25v-4.71c4.9e-5 -0.138-0.112-0.25-0.25-0.25zm-75.1 2.77h4.09v0.991c2.36e-4 0.138 0.112 0.25 0.25 0.25h2.55v4.63h-2.56c-0.138-4.9e-5 -0.25 0.112-0.25 0.25v0.989h-2.71v-4.99c-3.35e-4 -0.0709-0.0308-0.138-0.0837-0.186l-1.3-1.16zm40.1 2.41h2.69v0.949h-2.69zm-9.65 0.0021h2.67v4.64h-1.31v-2.56c-2.66e-4 -0.072-0.0315-0.14-0.0858-0.188l-1.28-1.12zm17.8 0h2.69v0.758l-1.32 1.16c-0.0537 0.0476-0.0844 0.116-0.0842 0.188v2.53h-1.29zm12.1 0h1.44l-0.0021 4.64h-2.32l-0.0176-3.7zm-40.8 0.0036h2.71v0.949h-2.71zm1.29 3.69h1.31v0.953h-1.31zm17.8 0h1.27v0.953h-1.27z"/>
    <path fill="url(#white)"
        d="m2.96 2.31-0.712 0.627v9.8l0.712 0.627h8.33l0.712-0.627v-1.84h-1.38v1.24h-4.21v-5.52l-1.38-1.24 0.0088-1.85h5.59v1.24h1.4v-1.83l-0.712-0.627z"/>
    <path fill="url(#pridePink)"
        d="m14.1 2.26-0.712 0.626v9.81l0.712 0.626h2.75l0.705-0.614v-3.69l-1.38-1.22v-1.85h4.17v7.38h1.43v-7.97l-0.713-0.645h-4.86l-0.0212-1.83-0.712-0.626z"/>
    <path fill="url(#prideBlue)"
        d="m24 4.71-0.691 0.609v1.84h1.38v-1.22h4.21v2.45h-4.88l-0.712 0.627v3.67l0.713 0.633h6.94l0.712-0.627v-3.67l-1.38-1.22v-2.49l-0.691-0.609zm1.98 4.92h2.81v2.45h-2.81z"/>
    <path fill="url(#prideRed)"
        d="m33.5 4.7-0.712 0.627v7.36l0.712 0.626h6.94l0.712-0.626v-7.36l-0.712-0.627zm2.03 1.24h4.17v6.14h-2.81v-3.08l-1.36-1.19z"/>
    <path fill="url(#prideOrange)"
        d="m43.1 4.7-0.712 0.626v3.67l0.712 0.626h3.46v2.45h-2.76v-1.24h-1.4v1.85l0.712 0.626h6.95l0.712-0.626-0.0088-3.67-0.712-0.626h-4.86v-2.45h4.19v1.22h1.38v-1.83l-0.712-0.626z"/>
    <path fill="url(#prideYellow)"
        d="m58.4 2.28-0.713 0.627v1.83h-4.88l-0.712 0.626 0.0046 7.33 0.712 0.626h6.95l0.713-0.626v-9.81l-0.691-0.609zm-4.97 3.66h4.19v1.85l-1.4 1.24v3.06h-2.79z"/>
    <path fill="url(#prideGreen)"
        d="m62.3 4.7-0.712 0.627v7.36l0.712 0.626h6.94l0.712-0.626v-7.36l-0.712-0.627zm3.57 1.24h2.5l-2e-3 6.14h-3.82l-0.0217-4.75z"/>
    <path fill="url(#prideIndigo)"
        d="m71.7 4.7-0.712 0.626v7.36l0.712 0.626 2.75 0.0062 0.712-0.626v-3.69l-1.38-1.22v-1.85h4.19v-1.24z"/>
    <path fill="url(#prideViolet)"
        d="m81.1 2.25-0.691 0.609v1.84h-1.43v1.24h1.43v6.75l0.713 0.626h2.75l0.712-0.626v-3.67l-1.38-1.22v-1.86l1.4 0.0155v-1.24h-2.79v-1.24h2.79v-1.22z"/>
    <path fill="url(#black)"
        d="m62.9 6.71 0.0956 1.87c0.0034 0.071 0.0369 0.137 0.092 0.182l0.918 0.742-0.753-0.0041c-0.144-2.78e-4 -0.258 0.12-0.25 0.264l0.0801 1.45c0.0075 0.135 0.121 0.239 0.256 0.236l1.23-0.0269c0.0342 7-0.0143-3.52 0.0232 4.59-0.0542 0.0648-0.108 0.124-0.141 0.188-0.365-0.12-0.573 0.043-0.805 0.314-0.692-0.0392-1.11 0.14-1.11 1.06-0.0802 0.0567-0.134 0.145-0.197 0.219l-0.787-0.406c-0.375-0.255-0.793-0.233-1.19-0.209v-0.101c-9.56e-4 -0.134-0.107-0.243-0.24-0.248l-1.53-0.0568c-0.137-0.0056-0.254 0.101-0.26 0.238-0.03 0.375-0.0222 0.746 0.0155 1.12-0.931-0.0089-1.64 0.543-2.03 1.37-7e-4 -3e-6 -0.0014-3e-6 -0.0021 0l-0.248 0.576c-0.0643 0.148 0.0266 0.317 0.186 0.346l1.69 0.309c0.136 0.0248 0.266-0.0652 0.291-0.201l0.0548-0.301c0.0417-0.0212 0.072-0.0467 0.162-0.0548 0.119-0.0107 0.322 0.0066 0.582 0.0506 0.478 1.08 1.06 1.18 2.05 1.25-0.0489 0.473-0.0567 0.939 0.0662 1.31l0.213 0.651c0.0534 0.161 0.248 0.223 0.385 0.123l1.34-0.973c0.0728-0.053 0.111-0.141 0.101-0.23l-0.0331-0.291c-0.0516-0.447-1.28e-4 -0.525 0.0977-0.664 0.0531-0.0756 0.228-0.223 0.403-0.377 0.577 0.311 0.92 0.462 1.63 0.0315 0.302 0.0435 0.489-0.0436 0.682-0.26 0.288 0.0166 0.31 8e-3 0.488-0.213 0.449 0.0532 0.654 0.0546 0.855-0.547 0.976-0.34 0.939-0.85 0.861-1.32 0.655-0.537 0.524-0.877 0.342-1.31 0.0104-0.0155 0.0146-0.0104 0.0253-0.0367 7.47e-4 -0.0028 0.0014-0.0055 0.0021-0.0083 0.0912-0.244 0.098-0.488 0.0238-0.701-0.0558-0.16-0.176-0.28-0.291-0.4 0.0264-0.0972 0.0948-0.318 0.0977-0.608l0.0413-4.18 1.14-0.0486c0.134-0.0061 0.24-0.118 0.239-0.252l-0.014-1.42c-0.0022-0.138-0.116-0.248-0.254-0.246l-0.635 0.0078 0.779-0.645c0.0583-0.0486 0.0914-0.121 0.0899-0.197l-0.0372-1.83c-0.0042-0.211-0.251-0.322-0.412-0.186l-2.7 2.28c-0.0944 0.0701-0.114 0.152-0.152 0.233-0.0554-0.126-0.112-0.26-0.248-0.36l-2.9-2.3c-0.167-0.131-0.415-0.0046-0.405 0.209z"/>
    <path fill="url(#chaosdorfGreen)"
        d="m69 7.89-1.94 1.64c-0.271 0.201-0.516 0.456-0.501 0.905l-0.025 5.16c-0.0012 0.251 0.0325 0.734-0.25 1.08 0.0251-0.172 0.0576-0.678 0.051-1.2l-0.0627-5.07c-0.015-0.452-0.233-0.793-0.505-0.991l-2.06-1.63 0.028 0.544 1.82 1.48c0.178 0.144 0.356 0.386 0.357 0.651l0.0148 5.02c2e-3 0.668 0.122 1.37-0.355 1.76 0.158-0.509 0.195-0.773 0.19-1.02l-0.0933-5.1c-0.0082-0.449-0.437-0.862-0.76-0.844l-1.13-0.0063 0.024 0.435 0.989-0.0231c0.229-0.0054 0.524 0.216 0.525 0.48l0.0254 5.31c-0.123-0.058-0.345 0.0163-0.398 0.257-0.291 1.32 0.592 2.82 1.14 3.16 0.42 0.262 0.574-0.0185 0.574-0.0759l-0.0017-0.241c0.715-0.124 0.902-0.545 0.906-0.71 0.0038-0.164-0.177-0.196-0.375-0.0738-0.394 0.244-1.17 0.211-1.17 0.23 0 0-0.0172-0.0523-0.0242-0.0734 1.19-0.173 1.76-0.564 1.92-0.969 0.0243-0.0621 0.0368-0.134 0.0369-0.203 2.67e-4 -0.206-0.112-0.381-0.357-0.164-0.724 0.642-1.24 0.807-1.79 1.04-0.0103-0.0244-0.0194-0.0507-0.0275-0.0788 1.17-0.378 1.88-1.03 2.06-1.47 0.117-0.287-0.198-0.557-0.472-0.217-0.658 0.814-1.54 1.21-1.82 1.24-0.0027-0.0145-0.0051-0.03-0.0077-0.0449 1-0.377 2.07-1.17 2.08-2.42l0.0455-4.53c0.0024-0.264 0.148-0.366 0.378-0.375l0.988-0.0423-0.0048-0.435-1.2 0.018c-0.323 0.0028-0.622 0.413-0.608 0.862l-0.0609 4.5c-0.0083 0.614-0.19 1.04-0.546 1.3 0.196-0.385 0.304-0.837 0.305-1.31l0.0091-5.22c-5.34e-4 -0.264 0.146-0.372 0.322-0.518l1.75-1.45zm-2.93 12.1c-3.57e-4 -0.0633-0.0667-0.143-0.117-0.182-1.14-0.89-1.21-1.73-1.33-2.74-0.0226-0.195-0.37-0.347-0.477-0.0655-0.479 1.26 0.761 2.62 1.47 2.97 0.169 0.0838 0.295 0.138 0.404 0.0853 0.0348-0.0168 0.0483-0.0423 0.0482-0.071zm-0.437 0.152c-0.0011-0.0524-0.026-0.104-0.0655-0.128-1.39-0.839-1.74-1.67-1.72-2.73 0.0038-0.198-0.621-0.193-0.647 0.111-0.134 1.55 0.925 2.26 1.79 2.81 0.133 0.0846 0.471 0.113 0.565 0.0674 0.0558-0.0269 0.0785-0.08 0.0774-0.132zm-0.603 0.27c-0.0022-0.0654-0.0724-0.145-0.154-0.182-1.42-0.65-1.68-1.28-1.77-2.03-0.0298-0.228-0.594 0.0296-0.512 0.458 0.257 1.35 1.05 1.63 1.72 1.87 0.177 0.0613 0.571 0.0185 0.674-0.0413 0.0323-0.0187 0.0454-0.0455 0.0443-0.0752zm-1.72-0.104c-0.155-0.144-0.419-0.306-0.604-0.624-1.02 0.929-2.14 0.773-2.73 0.0282-0.212-0.0319-0.317-0.0415-0.558-0.0832 0.108 0.778 1.1 1.37 2.48 1.23-0.293 0.664-0.197 1.18-0.0347 1.68l0.547-0.398c-0.131-1.14 0.446-1.41 0.895-1.83zm-0.738-0.819c-0.103-0.323-0.115-0.785-0.124-0.85-0.453-0.0667-0.907-0.373-1.31-0.647-0.35-0.237-0.845-0.325-1.14-0.214l0.0516 0.485c0.415-0.074 0.742 0.0828 1.11 0.294 0.294 0.17 0.632 0.407 0.947 0.594-1.31 0.293-2.67-0.361-3.61-0.355-0.729 0.0045-1.25 0.451-1.48 0.984l0.582 0.106c0.0663-0.369 0.886-0.589 1.27-0.463 2.28 0.437 3.15 0.514 3.72 0.0667zm-2.84-0.671c-0.0859-0.431-0.107-0.823-0.11-1.27l-0.555-0.0208c-0.019 0.455 0.0105 0.845 0.0693 1.22z"/>
</svg>
