<svg version="1.1" viewBox="0 0 170 32.2" xmlns="http://www.w3.org/2000/svg">
    <!--
        Logo (c) České dráhy
        Idea & SVG (c) justJanne
    -->
    <defs>
        <linearGradient id="darkBlue"><stop stop-color="#00adef"/></linearGradient>
        <linearGradient id="brightBlue"><stop stop-color="#173a79"/></linearGradient>
    </defs>
    <path fill="url(#brightBlue)"
        d="m26.24 0.0039062-4.5 21.199h3.8398l3.709-17.4c2.31 0 6.7104 0.0019531 9.1504 0.0019531 0.764-1e-3 1.64 0.012631 2.5 0.14453 0.644 0.0981 1.2698 0.26072 1.8398 0.51172 0.846 0.385 1.5413 0.91709 2.1113 1.8711 0.562 0.958 1 2.4195 1 4.6895 5e-4 1.32-0.15081 2.911-0.50781 4.791-0.644 3.4-1.4408 5.8995-2.3008 7.6895-0.643 1.35-1.3105 2.2888-1.9805 2.9688-0.999 1.01-1.9694 1.47-3.1094 1.75-1.14 0.272-2.4604 0.30183-3.9004 0.29883h-24c-1.58 0.0039-3.1888-0.42484-4.2988-1.3398-0.561-0.461-1.0309-1.0398-1.3809-1.8398-0.349-0.798-0.58203-1.8295-0.58203-3.1895 0-0.867 0.09606-1.86 0.31836-3 0.474-2.42 0.96116-3.5809 1.6602-4.9609 1.06-2.08 2.2109-3.1205 3.3809-3.7305 1.17-0.609 2.4302-0.79492 3.7402-0.79492h9.1992l0.79883-3.75h-10c-1.1 0-2.3201 0.10284-3.5801 0.46484-1.89 0.534-3.8499 1.7093-5.4199 3.7793-1.58 2.06-2.6712 4.2613-3.4512 8.2812-0.262 1.34-0.38767 2.5688-0.38867 3.7188-4.88e-4 1.79 0.31148 3.3495 0.89648 4.6895 0.871 2.01 2.3695 3.4415 4.0195 4.2715 1.65 0.843 3.4298 1.1602 5.0898 1.1602h24c1.3-2e-3 2.7212-0.00515 4.2012-0.28125 1.11-0.208 2.2591-0.57947 3.3691-1.2305 1.67-0.972 3.1804-2.5496 4.4004-4.8496 1.23-2.3 2.23-5.3302 3-9.4102 0.392-2.07 0.57422-3.8802 0.57422-5.4902 3.75e-4 -2.44-0.42394-4.4295-1.2109-6.0195l-0.027343-0.037109c-0.587-1.19-1.3795-2.1516-2.2695-2.8516-1.34-1.07-2.8412-1.5798-4.2012-1.8398-1.36-0.256-2.6098-0.26463-3.5098-0.26562h-6.6094-4.0508-1.5195zm4.1562 5.1875-3.4004 16h3.8398l2.5996-12.201-0.035156-0.041016h1.3398 4.4902c1.45 0 1.4299 0.79241 1.4199 1.9414-0.0128 1.07-0.17758 2.6598-0.64258 4.8398-0.454 2.14-0.92209 3.7198-1.3711 4.8398-0.336 0.84-0.6595 1.4191-0.9375 1.7891-0.429 0.566-0.67222 0.68402-0.94922 0.79102-0.28 0.101-0.70938 0.13681-1.3594 0.13281h-24.602c-1.42 0-1.709-0.33084-1.709-1.3398 4.88e-4 -0.643 0.10519-1.5788 0.36719-2.7988 0.279-1.32 0.46388-1.6105 0.79688-2.3105 0.512-1.06 0.96091-1.4397 1.3789-1.6797 0.42-0.228 0.96872-0.33008 1.7617-0.33008h7.6484l0.79883-3.75h-8.4395c-0.725 5e-4 -1.5103 0.053956-2.3203 0.28516-0.61 0.172-1.2305 0.45138-1.8105 0.85938-0.873 0.612-1.6192 1.5011-2.1992 2.6211-0.59 1.13-0.90553 1.8193-1.2695 3.5293-0.295 1.39-0.44722 2.5501-0.44922 3.5801 0.00195 0.855 0.10377 1.6294 0.38477 2.3594 0.209 0.542 0.53136 1.0512 0.94336 1.4512 0.621 0.61 1.3801 0.93384 2.0801 1.0898 0.705 0.163 1.3805 0.19231 2.0605 0.19531 3.18-4.88e-4 21.4-4.88e-4 24.6 0 0.623-0.0029 1.3898-0.001828 2.2598-0.23633 0.648-0.174 1.3392-0.50177 1.9492-1.0098 0.929-0.762 1.6703-1.8503 2.3203-3.3203 0.649-1.48 1.2215-3.3988 1.7715-5.9688 0.497-2.35 0.72066-4.1511 0.72266-5.6211-0.0019-1.07-0.11844-1.9693-0.39844-2.7793-0.21-0.603-0.52441-1.1496-0.94141-1.5996-0.624-0.674-1.4296-1.0299-2.0996-1.1699-0.679-0.149-1.2605-0.14644-1.7305-0.14844h-7.3496-1.5195z"/>
    <path fill="url(#darkBlue)"
        d="m163.64 8.25c-0.527 0-1.0027 0.036322-1.4297 0.10742-0.415 0.071-0.82823 0.2053-1.2402 0.4043-0.417 0.185-0.76483 0.43505-1.0488 0.74805-0.27 0.314-0.49111 0.73377-0.66211 1.2598-0.1707 0.52-0.25586 1.1331-0.25586 1.8301v0.66016h-1.7109v2.4512h1.7109v9.1895l3.5625 0.001953v-9.1895h2.5v-2.4492h-2.5v-0.44922c0-1.028 0.41524-1.5391 1.2402-1.5391 0.531 0 0.98515 0.027084 1.3692 0.083984l0.55468-2.7891c-0.7-0.213-1.3928-0.32031-2.0898-0.32031zm-91.938 0.55078v16.1l3.5605-0.007813v-8.2598c0.88-0.42667 1.7463-0.64062 2.5996-0.64062 0.61333 0 1.0269 0.12128 1.2402 0.36328 0.21333 0.22667 0.32031 0.72977 0.32031 1.5098v7.0195h3.541v-7.3203c0-0.62267-0.021787-1.1258-0.064454-1.5098-0.028-0.39933-0.12068-0.8191-0.27734-1.2598-0.14267-0.438-0.34914-0.77753-0.61914-1.0195-0.26867-0.256-0.65239-0.46247-1.1504-0.61914-0.48-0.17067-1.0757-0.25586-1.7891-0.25586-1.1933 0-2.4608 0.5031-3.8008 1.5098v-5.6094h-3.5605zm58.949 0.042969v4.2695c-0.728-0.085333-1.2424-0.12891-1.541-0.12891-1.8667 0-3.3903 0.51435-4.5703 1.541-1.18 1.0067-1.7695 2.4687-1.7695 4.3887 0 0.96667 0.10698 1.8267 0.32031 2.5801 0.21333 0.738 0.4907 1.3357 0.83203 1.791 0.344 0.442 0.75137 0.80518 1.2207 1.0898 0.48467 0.28467 0.95483 0.47684 1.4102 0.57617 0.45467 0.099333 0.93722 0.14844 1.4492 0.14844l0.00195 0.013672c0.456 0 0.87577-0.063406 1.2598-0.19141 0.384-0.142 0.63958-0.25646 0.76758-0.3418 0.128-0.099333 0.33447-0.25542 0.61914-0.46875v0.83203h3.5586v-16.1h-3.5586zm-65.629 0.8457c-5.52 0-8.2793 2.6163-8.2793 7.8496 0 2.4933 0.70271 4.3945 2.1094 5.7012 1.42 1.3067 3.5033 1.959 6.25 1.959l0.007813-0.009766c1.7933 0 3.3437-0.24128 4.6504-0.72461l-0.76758-2.7305c-1.0933 0.28467-2.26 0.42773-3.5 0.42773-1.5467 0-2.7761-0.41977-3.6895-1.2598-0.91333-0.83333-1.3711-2.0267-1.3711-3.5801 0-1.54 0.41977-2.7067 1.2598-3.5 0.84-0.79513 1.9644-1.1789 3.3711-1.1504 0.77933 0.014 1.3894 0.057573 1.8301 0.12891 0.44667 0.071334 1.066 0.21245 1.8594 0.42578l0.96094-2.6191c-1.3467-0.61133-2.9114-0.91797-4.6914-0.91797zm25.506 3.3027c-1.52 0-3.0909 0.31345-4.7109 0.93945l0.70508 2.5801c1.4533-0.34133 2.6118-0.51172 3.4785-0.51172 0.75267 0 1.2938 0.099495 1.6211 0.29883 0.32733 0.182 0.49023 0.52153 0.49023 1.0195v0.72656h-2.0293c-3.3267 0-4.9902 1.1791-4.9902 3.5391 0 1.1493 0.33953 2.0218 1.0195 2.6191 0.7 0.59733 1.6969 0.89648 2.9902 0.89648l-0.009765-0.001953c1.0933 0 2.2096-0.44031 3.3496-1.3203 0.26667 0.82667 1.3407 1.2402 3.2207 1.2402 0.37 0 0.64736-0.007284 0.83203-0.021484l0.12695-2.6895c-0.35533-0.014467-0.6184-0.050556-0.78906-0.10742-0.17067-0.071334-0.25586-0.19815-0.25586-0.38281v-5.1797c0-1.3053-0.38992-2.2364-1.1699-2.791-0.78-0.56867-2.0722-0.85352-3.8789-0.85352zm13.664 0.007812c-1.8667 0-3.3523 0.56279-4.459 1.6895-1.0933 1.1067-1.6406 2.621-1.6406 4.541 0 1.8467 0.51435 3.3025 1.541 4.3691 1.02 1.0667 2.4758 1.5996 4.3691 1.5996 1.8421-0.001877 3.3327-0.52863 4.4707-1.5801 1.14-1.0667 1.709-2.5667 1.709-4.5 0-1.9467-0.4969-3.4529-1.4902-4.5195-0.98-1.0667-2.48-1.5996-4.5-1.5996zm37 0c-1.8667 0-3.3523 0.56279-4.459 1.6895-1.0933 1.1067-1.6406 2.621-1.6406 4.541 0 1.8467 0.51435 3.3025 1.541 4.3691 1.02 1.0667 2.4758 1.5996 4.3691 1.5996 1.8421-0.001877 3.3327-0.52863 4.4707-1.5801 1.14-1.0667 1.709-2.5667 1.709-4.5 0-1.9467-0.4969-3.4529-1.4902-4.5195-0.98-1.0667-2.48-1.5996-4.5-1.5996zm-24.482 0.003906c-1.3667 0-2.5252 0.32094-3.4785 0.96094-0.95334 0.62667-1.4297 1.5352-1.4297 2.7285 0 0.77933 0.1977 1.4398 0.5957 1.9805 0.41133 0.53733 0.90204 0.93345 1.4707 1.1895 0.58467 0.242 1.1618 0.44847 1.7305 0.61914 0.56867 0.156 1.0512 0.31208 1.4492 0.46875 0.41267 0.15667 0.61914 0.34884 0.61914 0.57617 0 0.54067-0.66976 0.8125-2.0098 0.8125-0.82667 0-1.9995-0.10698-3.5195-0.32031l-0.38477 2.6895c1.1533 0.32733 2.57 0.49024 4.25 0.49024l0.03125 0.005859c0.55267 0 1.1-0.057875 1.6406-0.17188 0.55199-0.114 1.1055-0.30617 1.6602-0.57617 0.552-0.26733 0.99851-0.66345 1.3398-1.1895 0.35533-0.52667 0.5332-1.1522 0.5332-1.8789 0.00133-0.60933-0.14174-1.1504-0.42774-1.6211s-0.64917-0.83384-1.0898-1.0898c-0.428-0.256-0.89816-0.48426-1.4102-0.68359-0.49933-0.21333-0.96949-0.37624-1.4102-0.49024-0.42867-0.114-0.78565-0.25707-1.0703-0.42773-0.28467-0.17067-0.42579-0.35535-0.42579-0.55469 0-0.1 0.02712-0.1995 0.08399-0.29883 0.07133-0.099333 0.22188-0.19201 0.44922-0.27734 0.24133-0.085333 0.54601-0.12695 0.91601-0.12695 0.89333 0 1.9674 0.14112 3.2207 0.42578l0.59765-2.5801c-1.2533-0.44067-2.565-0.66016-3.9316-0.66016zm38.863 0.066406c-1.08 1e-6 -2.0858 0.59906-3.0098 1.7891v-1.5586h-3.5606v11.6l3.5606 0.046875v-7.8906c0.244-0.27 0.60584-0.50413 1.0898-0.70312 0.494-0.1994 0.99224-0.29883 1.4902-0.29883 0.586 0 1.1056 0.041653 1.5606 0.12695l0.46875-2.9199c-0.43-0.128-0.95961-0.19141-1.5996-0.19141zm-26.396 2.7363c0.41133 0 0.90204 0.049104 1.4707 0.14844v5.8203c-0.63933 0.256-1.2874 0.38476-1.9414 0.38476v0.007813c-1.5933 0-2.3887-1.0616-2.3887-3.1816s0.95271-3.1797 2.8594-3.1797zm-25.045 0.007812c0.91133 0 1.545 0.29167 1.9004 0.875 0.35533 0.56667 0.5332 1.3764 0.5332 2.4297 0 1.0793-0.17039 1.891-0.51172 2.4316-0.344 0.54067-0.97153 0.81055-1.8809 0.81055-0.90679 0-1.5512-0.26899-1.9355-0.80664-0.37-0.54-0.55469-1.3435-0.55469-2.4102 0-2.22 0.81588-3.3301 2.4492-3.3301zm37 0c0.91133 0 1.545 0.29167 1.9004 0.875 0.35533 0.56667 0.5332 1.3764 0.5332 2.4297 0 1.0793-0.17039 1.891-0.51172 2.4316-0.344 0.54067-0.97153 0.81055-1.8809 0.81055-0.90679 0-1.5512-0.26899-1.9355-0.80664-0.37-0.54-0.55469-1.3435-0.55469-2.4102 0-2.22 0.81588-3.3301 2.4492-3.3301zm-49.021 4.3008v1.8301c-0.966 0.27-1.7191 0.4043-2.2598 0.4043v0.009766c-0.35533 0-0.66002-0.085193-0.91602-0.25586-0.256-0.17067-0.38477-0.4139-0.38477-0.72656 0-0.78487 0.60388-1.1903 1.8105-1.2188l1.75-0.042969z"/>
</svg>
