<svg version="1.1" viewBox="0 0 282 96" xmlns="http://www.w3.org/2000/svg">
    <!--
        Idee & Design (c) Fnordeingang e.V.
        SVG (c) justJanne
    -->
    <rect fill="#ffbf00" width="282" height="96" rx="4.8" ry="4.8"/>
    <path d="m119.7 16v64h25.09c4.618 0 8.729-1.721 11.99-5.014 3.279-3.318 4.995-7.458 4.995-12.08v-3.378c0-4.368-1.668-8.291-4.675-11.58 3.011-3.258 4.675-7.187 4.675-11.6v-3.241c0-4.651-1.712-8.791-4.995-12.08l-3e-3 -0.0026c-3.254-3.291-7.368-5.01-11.99-5.01zm10.99 11.01h13.92c1.694 0 2.973 0.5394 4.187 1.781l7e-3 0.0052 7e-3 0.0065c1.244 1.246 1.79 2.562 1.79 4.295v3.149c0 1.694-0.5418 2.998-1.785 4.246-1.247 1.221-2.542 1.754-4.204 1.754h-13.92zm0.0911 26.61h13.83c1.694 0 2.973 0.5394 4.187 1.781l7e-3 0.0052 7e-3 0.0065c1.244 1.246 1.79 2.564 1.79 4.296v3.195c0 1.694-0.5418 2.998-1.785 4.246-1.247 1.221-2.542 1.754-4.204 1.754h-13.83z"/>
    <path d="m224.1 16v58.49c0 1.446 0.5603 2.854 1.558 3.896l0.0235 0.02472 0.0247 0.02347c1.04 0.9999 2.445 1.561 3.889 1.561s2.849-0.5613 3.889-1.561v-0.0014c1.07-1.03 1.696-2.464 1.696-3.942v-27.59h2.888l17.51 30.2 1e-3 0.0014 1e-3 0.0028c1.022 1.768 2.887 2.885 4.905 2.885 1.407 0 2.769-0.5699 3.818-1.539l0.013-0.01042 0.0117-0.01299c1.062-1.023 1.696-2.437 1.696-3.897 0-1.133-0.3584-2.244-0.9742-3.246l-14.19-24.39h1.974c3.555 0 6.767-1.339 9.291-3.866l8e-3 -0.0079c2.521-2.56 3.851-5.8 3.851-9.388v-4.382c0-3.564-1.353-6.793-3.901-9.347-2.519-2.555-5.716-3.915-9.249-3.915zm10.99 11.1h17.74c0.6665 0 1.038 0.158 1.487 0.6262l0.0235 0.02474 0.0234 0.02343c0.4675 0.4496 0.6276 0.8222 0.6276 1.489v4.473c0 0.6675-0.1652 1.072-0.6497 1.557-0.4427 0.4434-0.8291 0.6067-1.512 0.6067h-17.74z"/>
    <path d="m171.9 16v64h36.39c1.444 0 2.848-0.5612 3.889-1.561v-0.0014c1.07-1.03 1.696-2.463 1.696-3.941 0-1.456-0.597-2.871-1.64-3.882-1.026-1.021-2.417-1.621-3.853-1.621h-25.49v-15.46h9.999c1.455 0 2.868-0.5998 3.877-1.646 1.034-1.043 1.617-2.474 1.617-3.949 0-1.444-0.6009-2.844-1.628-3.873-1.026-1.028-2.425-1.63-3.866-1.63h-9.999v-15.33h25.4c1.454 0 2.864-0.5914 3.898-1.619 1.055-1.022 1.687-2.429 1.687-3.884 0-1.467-0.6219-2.886-1.677-3.914-1.027-1.057-2.444-1.68-3.908-1.68z"/>
    <path d="m73.47 16c-1.46 0-2.879 0.594-3.913 1.63l-0.02348 0.02346c-1.006 1.049-1.558 2.474-1.558 3.94v8.701l15.4 19.53v24.66c0 1.462 0.593 2.883 1.628 3.919l0.02347 0.02347c1.048 1.008 2.47 1.561 3.934 1.561 1.425 0 2.811-0.5689 3.843-1.561l0.01173-0.01174 0.01299-0.01174c1.035-1.036 1.628-2.457 1.628-3.919v-24.67l15.4-19.62v-8.611c0-1.547-0.605-3.045-1.73-4.055-1.021-0.968-2.37-1.539-3.764-1.539-1.453 0-2.858 0.6329-3.878 1.69-1.026 1.035-1.617 2.447-1.617 3.904v4.759l-9.985 12.62-9.833-12.7v-4.677c0-1.467-0.6219-2.886-1.677-3.914-1.027-1.057-2.444-1.68-3.908-1.68z"/>
    <path d="m37.44 16c-2.073 0-4.136 0.7604-6.126 2.111-1.969 1.306-3.504 2.89-4.501 4.746l-0.0026 0.0065-8.93 16.93c-1.273 2.378-1.884 5.149-1.884 8.229 0 2.841 0.6586 5.631 1.942 8.298l0.01042 0.02085 8.854 17.14 4e-3 0.0091c0.9492 1.787 2.555 3.269 4.677 4.53 2.141 1.273 4.326 1.969 6.501 1.969h14.31c1.444 0 2.848-0.5612 3.889-1.561v-0.0014c1.07-1.03 1.696-2.463 1.696-3.941 0-1.467-0.6303-2.889-1.702-3.892-1.033-1.021-2.435-1.61-3.883-1.61h-13.81c-1.215 0-1.678-0.292-2.228-1.462l-0.01431-0.03-8.131-15.64-4e-3 -0.0078c-0.5868-1.102-0.8979-2.392-0.8979-3.961 0-1.485 0.2851-2.669 0.8041-3.638v-0.0013l8.479-15.89v-0.0026c0.5864-1.104 0.9284-1.259 1.491-1.259h14.58c1.46 0 2.88-0.6012 3.89-1.653l0.0013-0.0013c1.018-1.061 1.603-2.478 1.603-3.94 0-1.438-0.5979-2.831-1.617-3.858-1.009-1.045-2.423-1.644-3.877-1.644z"/>
</svg>
