<svg version="1.1" viewBox="0 0 770 112" xmlns="http://www.w3.org/2000/svg">
    <!--
        Element Logo (c) Element Creations
        Discord Nitro (tm) Discord
        Idea & Design (c) justJanne
    -->
    <defs>
      <linearGradient id="background" x1="0" x2="1" y1="0.6" y2="0.4">
        <stop stop-color="#1f6362" offset="0"/>
        <stop stop-color="#1f6362" offset=".39"/>
        <stop stop-color="#29496a" offset="1"/>
      </linearGradient>
      <linearGradient id="button" x1="0" x2="1" y1="0" y2="0">
        <stop stop-color="#3d9ecc" offset="0"/>
        <stop stop-color="#62c785" offset="1"/>
      </linearGradient>
      <linearGradient id="swoosh" x1="1" x2="0" y1="0" y2="1">
        <stop stop-color="#4cbd7e" offset=".41"/>
        <stop stop-color="#4cbd7e" stop-opacity="0" offset=".84"/>
      </linearGradient>
      <linearGradient id="icon" x1="1" x2="0" y1="0" y2="1">
        <stop stop-color="#286392" offset="0"/>
        <stop stop-color="#359382" offset=".61"/>
        <stop stop-color="#359382" offset="1"/>
      </linearGradient>
    </defs>
    <path fill="url(#background)" d="m16 0h738c8.866 0 16 7.138 16 16v80c0 8.864-7.138 16-16 16h-738c-8.864 0-16-7.131-16-16v-80c0-8.864 7.138-16 16-16z"/>
    <path fill="#4cbd7e" d="m380.9 52.67c1.764 0 3.079-1.239 3.079-3.032 0-1.764-1.315-3.079-3.079-3.079-1.79 0-3.067 1.315-3.067 3.079 0 1.792 1.277 3.032 3.067 3.032z"/>
    <path fill="#fff" d="m118 52.42c4.934 0 7.46-2.538 7.46-6.442 0-2.425-1.413-4.217-3.49-5.014 1.957-0.8655 3.168-2.665 3.168-5.026 0-3.455-2.333-6.247-7.552-6.247h-9.6v22.73zm-0.127-9.382c1.983 0 2.883 1.058 2.883 2.592 0 1.599-0.9008 2.589-2.883 2.589h-5.348v-5.181zm-0.3222-9.149c2.048 0 2.883 1.12 2.883 2.462 0 1.635-1.091 2.46-2.883 2.46h-5.026v-4.923zm21.44 13.05c-0.6068 1.343-1.818 1.95-3.326 1.95-2.27 0-3.749-1.242-4.071-3.547h12.16s0.0658-0.6068 0.0658-1.35c0-4.953-3.363-8.728-8.323-8.728-4.953 0-8.417 3.775-8.417 8.728 0 5.153 3.492 8.801 8.453 8.801 3.869 0 6.432-1.947 7.644-4.897zm-3.518-8.029c2.112 0 3.49 1.277 3.803 3.161h-7.615c0.3857-1.919 1.736-3.161 3.812-3.161zm20.41-5.447c1.597 0 2.754-1.112 2.754-2.719 0-1.599-1.157-2.747-2.754-2.747-1.599 0-2.747 1.148-2.747 2.747 0 1.606 1.148 2.719 2.747 2.719zm-2.27 18.95h4.546v-16.78h-4.546zm12.1-16.78h-4.198v16.78h4.548v-9.6c0-2.244 1.211-3.657 3.427-3.657 2.011 0 2.848 1.35 2.848 3.297v9.96h4.537v-10.47c0-4.005-2.14-6.686-6.174-6.686-2.498 0-4.226 0.9925-4.988 2.425zm26.43 16.52-0.3598 0.8279c-0.8914 2.178-2.011 2.498-3.354 2.498-0.5127 0-0.8631-0.0635-0.8631-0.0635v3.904s0.7361 0.0917 1.369 0.0917c3.041 0 5.282-1.432 6.983-5.63l7.258-18.14h-4.732l-4.059 11.2-4.033-11.2h-4.833zm19.55 0.635c5.374 0 8.801-3.996 8.801-8.766 0-4.767-3.427-8.763-8.801-8.763-5.374 0-8.801 3.996-8.801 8.763 0 4.77 3.427 8.766 8.801 8.766zm-4.254-8.766c0-3.003 1.858-4.767 4.254-4.767 2.399 0 4.254 1.764 4.254 4.767 0 3.006-1.856 4.77-4.254 4.77-2.397 0-4.254-1.764-4.254-4.77zm25.89 1.148c0 2.345-1.119 3.714-3.361 3.714-2.023 0-2.785-1.343-2.785-3.29v-9.958h-4.548v10.46c0 4.005 2.086 6.689 6.12 6.689 2.491 0 4.153-0.9925 4.925-2.425v2.049h4.189v-16.78h-4.539zm17.37-9.664s-0.3857-0.02822-0.5409-0.02822c-2.848 0-4.135 1.343-4.741 2.335v-2.178h-4.189v16.78h4.546v-8.361c0-3.069 1.369-4.382 4.024-4.382 0.4233 0 0.9008 0.1011 0.9008 0.1011zm20.04 11.43c-0.6162 1.343-1.83 1.95-3.335 1.95-2.27 0-3.739-1.242-4.062-3.547h12.15s0.0635-0.6068 0.0635-1.35c0-4.953-3.351-8.728-8.314-8.728-4.96 0-8.415 3.775-8.415 8.728 0 5.153 3.481 8.801 8.443 8.801 3.876 0 6.43-1.947 7.653-4.897zm-3.528-8.029c2.112 0 3.49 1.277 3.812 3.161h-7.618c0.3857-1.919 1.729-3.161 3.805-3.161zm15.17 13.51v-24.01h-4.539v24.01zm14.21-5.478c-0.6068 1.343-1.83 1.95-3.326 1.95-2.279 0-3.749-1.242-4.071-3.547h12.16s0.0635-0.6068 0.0635-1.35c0-4.953-3.361-8.728-8.323-8.728-4.96 0-8.415 3.775-8.415 8.728 0 5.153 3.492 8.801 8.453 8.801 3.866 0 6.43-1.947 7.644-4.897zm-3.518-8.029c2.112 0 3.481 1.277 3.803 3.161h-7.615c0.3857-1.919 1.726-3.161 3.812-3.161zm25.66 3.97c0-2.342 1.119-3.721 3.269-3.721 2.013 0 2.683 1.442 2.683 3.297v9.96h4.548v-10.47c0-3.904-2.048-6.686-6.082-6.686-2.399 0-4.097 0.7338-5.569 2.361-0.9643-1.47-2.589-2.361-4.868-2.361-2.397 0-4.059 0.9925-4.824 2.425v-2.049h-4.198v16.78h4.548v-9.638c0-2.241 1.148-3.62 3.262-3.62 2.02 0 2.691 1.442 2.691 3.297v9.96h4.539zm24.55 4.059c-0.6068 1.343-1.827 1.95-3.326 1.95-2.279 0-3.749-1.242-4.069-3.547h12.16s0.0635-0.6068 0.0635-1.35c0-4.953-3.363-8.728-8.323-8.728s-8.415 3.775-8.415 8.728c0 5.153 3.49 8.801 8.453 8.801 3.866 0 6.43-1.947 7.644-4.897zm-3.518-8.029c2.114 0 3.483 1.277 3.803 3.161h-7.615c0.3857-1.919 1.726-3.161 3.812-3.161zm14.82-3.269h-4.198v16.78h4.546v-9.6c0-2.244 1.214-3.657 3.427-3.657 2.013 0 2.848 1.35 2.848 3.297v9.96h4.539v-10.47c0-4.005-2.14-6.686-6.174-6.686-2.498 0-4.226 0.9925-4.988 2.425zm22.23 12.74s-0.4398 0.1552-1.056 0.1552c-1.176 0-1.691-0.5151-1.691-1.635v-7.681h2.785v-3.582h-2.785v-4.153h-4.546v4.153h-2.27v3.582h2.27v8.168c0 3.224 1.47 5.118 5.153 5.118 1.378 0 2.14-0.1928 2.14-0.1928z"/>
    <path fill="url(#button)" d="m531 35h198c3.325 0 5.999 2.674 5.999 5.999v29.99c0 3.325-2.674 6.008-5.999 6.008h-198c-3.325 0-6.009-2.683-6.009-6.008v-29.99c0-3.325 2.683-5.999 6.009-5.999z"/>
    <path fill="#fff" d="m549.7 47.75c-0.6985 0-1.268 0.5691-1.268 1.268 0 0.7079 0.5691 1.275 1.268 1.275h2.25c0.461 0 0.8281 0.3672 0.8281 0.8281 0 0.4586-0.3672 0.8262-0.8281 0.8262h-5.316c-0.461 0-0.8281 0.3695-0.8281 0.8281 0 0.4492 0.3672 0.8184 0.8281 0.8184h3.746c0.4516 7e-3 0.8281 0.377 0.8281 0.8262 0 0.4586-0.3766 0.8262-0.8281 0.8262h-2.334c-0.4492 0-0.8164 0.3672-0.8164 0.8164 0 0.461 0.3672 0.8281 0.8164 0.8281h1.58c0.4492 4.17 3.977 7.35 8.178 7.359 4.556 0 8.248-3.692 8.248-8.25 0-4.556-3.693-8.25-8.248-8.25h-8.104zm101.9 0.5527c-0.3669 0-0.6796 0.1257-0.9453 0.375-0.2587 0.2376-0.3945 0.5324-0.3945 0.8828 0 0.3481 0.1358 0.6413 0.3945 0.8906 0.2658 0.2375 0.5784 0.3672 0.9453 0.3672 0.3763 0 0.689-0.1296 0.9453-0.3672 0.2658-0.2493 0.3945-0.5425 0.3945-0.8906 0-0.3504-0.1288-0.6453-0.3945-0.8828-0.2564-0.2493-0.569-0.375-0.9453-0.375zm32.62 0c-0.3669 0-0.6796 0.1257-0.9453 0.375-0.2681 0.2376-0.3965 0.5324-0.3965 0.8828 0 0.3481 0.1284 0.6413 0.3965 0.8906 0.2658 0.2375 0.5784 0.3672 0.9453 0.3672 0.3669 0 0.689-0.1296 0.9453-0.3672 0.2681-0.2493 0.3945-0.5425 0.3945-0.8906 0-0.3504-0.1264-0.6453-0.3945-0.8828-0.2564-0.2493-0.5784-0.375-0.9453-0.375zm-104.2 0.457c-0.8537 0-1.653 0.1462-2.377 0.459-0.7267 0.3034-1.359 0.7457-1.902 1.324-0.5409 0.5786-0.9642 1.286-1.268 2.121-0.3034 0.8279-0.4492 1.774-0.4492 2.83 0 1.378 0.2561 2.573 0.7617 3.584 0.515 0.9996 1.221 1.774 2.131 2.314 0.9102 0.5409 1.966 0.8184 3.18 0.8184 1.075 0 2.038-0.2219 2.873-0.6641 0.8373-0.4398 1.489-1.075 1.967-1.891 0.4774-0.8185 0.7168-1.792 0.7168-2.914v-1.57h-5.311v1.857h3.014c-0.01087 0.5994-0.1384 1.122-0.3945 1.578-0.2658 0.4704-0.6421 0.8276-1.129 1.084-0.4868 0.2587-1.066 0.3867-1.727 0.3867-0.7361 0-1.379-0.1738-1.932-0.5312-0.5503-0.3575-0.9919-0.8828-1.293-1.562-0.3128-0.6891-0.4707-1.527-0.4707-2.52 0-0.9808 0.1579-1.809 0.4707-2.488 0.3104-0.6891 0.7426-1.203 1.293-1.561 0.5527-0.3504 1.176-0.5332 1.875-0.5332 0.3951 0 0.7621 0.05511 1.094 0.1562 0.3316 0.1011 0.6245 0.2466 0.8809 0.4395 0.2564 0.1929 0.4787 0.4338 0.6621 0.709 0.1834 0.2752 0.3309 0.5871 0.4414 0.9258h2.416c-0.1011-0.6421-0.3044-1.23-0.6172-1.764-0.3198-0.5315-0.7241-0.9893-1.211-1.375-0.4868-0.3881-1.039-0.6887-1.672-0.9004-0.6256-0.2117-1.297-0.3145-2.023-0.3145zm29.9 0.1738v13.09h2.27v-9.014h0.1289l3.621 8.977h1.699l3.611-8.959h0.127v8.996h2.27v-13.09h-2.902l-3.887 9.49h-0.1465l-3.887-9.49h-2.904zm59.92 0v13.09h2.371v-8.92h0.1113l6.164 8.92h2.111v-13.09h-2.361v8.922h-0.1113l-6.164-8.922h-2.121zm-70.68 0.9199v2.352h-1.396v1.791h1.396v5.459c-0.0094 0.6138 0.1307 1.129 0.3965 1.533 0.2752 0.4139 0.643 0.7173 1.102 0.9102 0.468 0.1929 0.9937 0.2746 1.572 0.2656 0.3222-0.0094 0.6074-0.0448 0.8262-0.0918 0.2305-0.05406 0.4038-0.1011 0.5332-0.1387l-0.3945-1.809c-0.05409 0.0188-0.1554 0.03819-0.2754 0.05469-0.12 0.0192-0.2507 0.02734-0.3965 0.02734-0.1928-1e-6 -0.3659-0.02793-0.5234-0.08203-0.1552-0.0635-0.2856-0.1745-0.3867-0.332-0.09176-0.174-0.1387-0.4114-0.1387-0.7148v-5.082h1.932v-1.791h-1.932v-2.352h-2.314zm37.96 0v2.352h-1.398v1.791h1.398v5.459c-0.0094 0.6138 0.1264 1.129 0.3945 1.533 0.2752 0.4139 0.641 0.7173 1.1 0.9102 0.4704 0.1929 0.9937 0.2746 1.572 0.2656 0.3316-0.0094 0.607-0.0448 0.8281-0.0918 0.2305-0.05406 0.4133-0.1011 0.5332-0.1387l-0.3887-1.809c-0.06349 0.0188-0.1538 0.03819-0.2832 0.05469-0.1176 0.0192-0.2483 0.02734-0.3965 0.02734-0.1929-1e-6 -0.3663-0.02793-0.5215-0.08203-0.1576-0.0635-0.2856-0.1745-0.3867-0.332-0.09176-0.174-0.1387-0.4114-0.1387-0.7148v-5.082h1.939v-1.791h-1.939v-2.352h-2.312zm51.29 0v2.352h-1.395v1.791h1.395v5.459c-0.0094 0.6138 0.1288 1.129 0.3945 1.533 0.2752 0.4139 0.6449 0.7173 1.104 0.9102 0.468 0.1929 0.9918 0.2746 1.57 0.2656 0.3316-0.0094 0.6071-0.0448 0.8281-0.0918 0.2281-0.05406 0.4113-0.1011 0.5312-0.1387l-0.3848-1.809c-0.0635 0.0188-0.1652 0.03819-0.2852 0.05469-0.1199 0.0192-0.2464 0.02734-0.3945 0.02734-0.1928 0-0.3678-0.02793-0.5254-0.08203-0.1552-0.0635-0.2836-0.1745-0.3848-0.332-0.09171-0.174-0.1367-0.4114-0.1367-0.7148v-5.082h1.938v-1.791h-1.938v-2.352h-2.316zm-130.6 1.451c2.589 0 4.686 2.104 4.686 4.695 0 2.582-2.096 4.686-4.686 4.686-2.592 0-4.688-2.103-4.688-4.686 0-2.592 2.096-4.695 4.688-4.695zm-13.95 0.6426c-0.4586 0-0.8281 0.3695-0.8281 0.8281 0 0.4492 0.3695 0.8254 0.8281 0.8184h0.4492c0.4516 0 0.8184-0.3691 0.8184-0.8184 0-0.4586-0.3668-0.8281-0.8184-0.8281h-0.4492zm104.2 0.1191c-0.5692 0-1.066 0.1583-1.508 0.4688-0.4304 0.3034-0.7439 0.7449-0.918 1.305h-0.09961v-1.635h-2.242v9.822h2.305v-5.771c0-0.421 0.1021-0.7895 0.2949-1.109 0.1929-0.3128 0.4477-0.5697 0.7793-0.7461 0.341-0.1835 0.7177-0.2754 1.139-0.2754 0.1928 0 0.3958 0.01868 0.6074 0.04688 0.2117 0.0258 0.3676 0.0542 0.4688 0.0918v-2.131c-0.1082-0.0188-0.2377-0.03788-0.4023-0.04688-0.1576-0.0098-0.3039-0.01953-0.4238-0.01953zm51.28 0c-0.5621 0-1.058 0.1583-1.498 0.4688-0.4327 0.3034-0.7459 0.7449-0.9199 1.305h-0.09961v-1.635h-2.252v9.822h2.316v-5.771c0-0.421 0.1021-0.7895 0.2949-1.109 0.1834-0.3128 0.4496-0.5697 0.7812-0.7461 0.3387-0.1835 0.7134-0.2754 1.137-0.2754 0.1928 0 0.3958 0.01868 0.6074 0.04688 0.2117 0.0258 0.3676 0.0542 0.4688 0.0918v-2.131c-0.1105-0.0188-0.2397-0.03788-0.4043-0.04688-0.1552-0.0098-0.3046-0.01953-0.4316-0.01953zm-107.3 0.009766c-0.9384 0-1.747 0.2219-2.443 0.6523-0.6985 0.4234-1.232 1.021-1.627 1.783-0.3763 0.7714-0.5703 1.653-0.5703 2.664 0 1.03 0.194 1.919 0.5703 2.674 0.3857 0.762 0.937 1.34 1.643 1.754 0.7173 0.4139 1.572 0.6172 2.555 0.6172 0.762 0 1.445-0.1211 2.033-0.3516 0.595-0.2305 1.073-0.5591 1.459-0.9824 0.3763-0.4234 0.6425-0.9171 0.7812-1.498l-2.168-0.2383c-0.1011 0.2752-0.2489 0.5064-0.4512 0.6992-0.2023 0.1834-0.4413 0.3302-0.707 0.4219-0.2775 0.1012-0.577 0.1465-0.918 0.1465-0.4962 0-0.9378-0.1106-1.316-0.3223-0.3763-0.2211-0.6688-0.531-0.8711-0.9355-0.2038-0.3894-0.3125-0.8636-0.3203-1.406h6.844v-0.7168c0-0.8537-0.1195-1.597-0.3594-2.223-0.2376-0.6256-0.5705-1.138-0.9844-1.543-0.4116-0.4045-0.8884-0.7075-1.432-0.9004-0.5339-0.1928-1.112-0.2949-1.717-0.2949zm38.09 0c-0.6891 0-1.314 0.1102-1.883 0.3125-0.5597 0.2023-1.038 0.4962-1.434 0.9102-0.3951 0.3951-0.6693 0.8889-0.8457 1.486l2.158 0.3145c0.1199-0.3387 0.3426-0.6335 0.6719-0.8828 0.3316-0.2375 0.7821-0.3672 1.342-0.3672 0.5409 0 0.9557 0.1307 1.24 0.3965 0.2846 0.2658 0.4219 0.6417 0.4219 1.119v0.03711c0 0.2211-0.08107 0.3856-0.248 0.4961-0.1646 0.1011-0.4214 0.1741-0.7812 0.2305-0.3575 0.04469-0.8254 0.1022-1.395 0.1562-0.4798 0.05645-0.9375 0.1375-1.387 0.248-0.4422 0.1082-0.8472 0.275-1.195 0.4961-0.3575 0.2187-0.6356 0.5038-0.8379 0.873-0.2093 0.3575-0.3106 0.8164-0.3106 1.369 0 0.6421 0.1471 1.185 0.4316 1.625 0.2846 0.4422 0.6795 0.7711 1.176 0.9922 0.4962 0.2305 1.056 0.3379 1.682 0.3379 0.5151 0 0.9538-0.07258 1.33-0.209 0.3881-0.1482 0.7077-0.3398 0.957-0.5703 0.2564-0.2375 0.4495-0.494 0.5977-0.7715h0.07226v1.352h2.223v-6.568c0-0.6538-0.1199-1.195-0.3574-1.637-0.2305-0.4304-0.542-0.771-0.9277-1.027-0.3951-0.2587-0.8167-0.4328-1.287-0.5527-0.468-0.1082-0.946-0.166-1.414-0.166zm75.46 0c-0.9548 0-1.794 0.2114-2.492 0.6348-0.7079 0.421-1.249 1.019-1.635 1.781-0.3857 0.7644-0.5781 1.646-0.5781 2.664 0 1.011 0.1924 1.904 0.5781 2.656 0.3857 0.762 0.9269 1.35 1.635 1.773 0.6985 0.4233 1.537 0.6348 2.492 0.6348 0.9643 0 1.791-0.2114 2.496-0.6348 0.6985-0.4233 1.243-1.011 1.629-1.773 0.3857-0.7526 0.5781-1.645 0.5781-2.656 0-1.018-0.1924-1.9-0.5781-2.664-0.3857-0.762-0.9304-1.36-1.629-1.781-0.7056-0.4233-1.532-0.6348-2.496-0.6348zm-55.16 0.1289v9.822h2.314v-9.822h-2.314zm4.125 0 2.91 4.916-2.986 4.906h2.453l2.059-3.537 2.076 3.537h2.434l-3.002-4.906 2.957-4.916h-2.451l-2.014 3.631-1.982-3.631h-2.453zm28.49 0v9.822h2.312v-9.822h-2.312zm-125.8 0.9473c-0.1752 0.01798-0.3047 0.1679-0.3047 0.3398 0 0.1928 0.149 0.3398 0.3418 0.3398 0.9102 0 1.643 0.7347 1.643 1.643 0 0.1858 0.149 0.3418 0.3418 0.3418s0.3379-0.156 0.3379-0.3418c0-1.286-1.036-2.322-2.322-2.322-0.01206 0-0.02543-0.001199-0.03711 0zm34.79 0.7344c0.4422 0 0.8273 0.1021 1.166 0.2949 0.3316 0.2023 0.5978 0.4781 0.7812 0.8262 0.1929 0.3504 0.2852 0.7457 0.2852 1.186h-4.613c0.02405-0.3883 0.1224-0.7467 0.2949-1.066 0.2023-0.3763 0.4804-0.6699 0.8379-0.9004 0.3575-0.2305 0.78-0.3398 1.248-0.3398zm113.5 0.02734c0.5127 0 0.9547 0.1471 1.303 0.4316 0.3504 0.294 0.6072 0.6795 0.7812 1.176 0.1764 0.4868 0.2578 1.028 0.2578 1.625s-0.08142 1.142-0.2578 1.629c-0.174 0.4868-0.4308 0.872-0.7812 1.166-0.3481 0.2846-0.79 0.4238-1.303 0.4238-0.5339 0-0.9742-0.1392-1.334-0.4238-0.3481-0.294-0.6127-0.6792-0.7891-1.166-0.1646-0.4868-0.248-1.032-0.248-1.629s0.08342-1.138 0.248-1.625c0.1764-0.4962 0.441-0.8818 0.7891-1.176 0.3504-0.2846 0.8001-0.4316 1.334-0.4316zm-148.3 0.2832c-1.286 0-2.334 1.04-2.334 2.326 0 0.1834 0.1548 0.3398 0.3477 0.3398 0.1834 0 0.3418-0.1564 0.3418-0.3398 0-0.9102 0.7344-1.646 1.645-1.646 0.1834 0 0.3379-0.145 0.3379-0.3379 0-0.1834-0.1544-0.3418-0.3379-0.3418zm3.012 0.9297c-0.1834 0-0.3379 0.1548-0.3379 0.3477 0 0.9008-0.736 1.637-1.637 1.637-0.1929 0-0.3496 0.1564-0.3496 0.3398 0 0.1929 0.1568 0.3398 0.3496 0.3398 1.277 0 2.324-1.039 2.324-2.316 0-0.1928-0.1568-0.3477-0.3496-0.3477zm-3.961 1.047c-0.1928 0-0.3477 0.1568-0.3477 0.3496 0 1.277 1.048 2.314 2.334 2.314 0.1834 0 0.3398-0.145 0.3398-0.3379 0-0.1858-0.1564-0.3418-0.3398-0.3418-0.9078 0-1.645-0.734-1.645-1.635 0-0.1928-0.156-0.3496-0.3418-0.3496zm75.44 1.176v1.156c0 0.3598-0.09035 0.6986-0.2832 1.002-0.1834 0.3034-0.4426 0.5532-0.7812 0.7461-0.341 0.1835-0.7468 0.2754-1.215 0.2754-0.4774 0-0.8708-0.111-1.184-0.332-0.3128-0.2211-0.4688-0.5396-0.4688-0.9629 0-0.294 0.08306-0.5427 0.2383-0.7285 0.1576-0.1929 0.3674-0.3387 0.6426-0.4492 0.2752-0.1105 0.5797-0.1835 0.9277-0.2305 0.1576-0.0165 0.3313-0.04407 0.543-0.07227 0.2117-0.03764 0.4235-0.06238 0.6328-0.1094 0.2117-0.0353 0.4041-0.08225 0.5781-0.127 0.1764-0.05645 0.2939-0.1116 0.3691-0.168z"/>
    <path fill="#fff" d="m108 67.91 4.777 8.459v4.631h2.748v-4.631l4.777-8.459h-3.105l-2.986 5.639h-0.1289l-2.986-5.639zm95.88 0v13.09h2.719v-13.09zm59.56 0v4.922h-0.082c-0.3669-0.7996-1.149-1.783-2.793-1.783-2.15 0-3.979 1.682-3.979 5.055 0 3.288 1.745 5.051 3.986 5.051 1.58 0 2.409-0.9061 2.785-1.725h0.1191v1.57h2.684v-13.09zm-83.84 0.916v2.352h-1.35v2.049h1.35v5.109c-0.0188 1.929 1.296 2.885 3.27 2.803 0.6985-0.0282 1.203-0.1755 1.479-0.2578l-0.4297-2.031c-0.1388 0.0282-0.4233 0.0918-0.6797 0.0918-0.5433 0-0.9199-0.2009-0.9199-0.9629v-4.752h1.846v-2.049h-1.846v-2.352zm99.88 0v2.352h-1.342v2.049h1.342v5.109c-9e-3 1.929 1.304 2.885 3.279 2.803 0.6985-0.0282 1.203-0.1755 1.469-0.2578l-0.4219-2.031c-0.1364 0.0282-0.421 0.0918-0.6797 0.0918-0.5409 0-0.918-0.2009-0.918-0.9629v-4.752h1.846v-2.049h-1.846v-2.352zm-88.44 2.217c-1.103 0-2.001 0.6325-2.361 1.855h-0.1016v-1.721h-2.637v9.822h2.719v-5.557c0-1.204 0.8818-2.043 2.086-2.043 0.3763 0 0.8921 0.0662 1.148 0.1484v-2.416c-0.2375-0.0564-0.5784-0.0899-0.8535-0.0899zm60.31 0c-1.094 0-2.104 0.6325-2.664 1.855h-0.1113l0.2949-1.721h-2.646l-1.635 9.822h2.729l0.9082-5.557c0.2211-1.204 1.233-2.043 2.428-2.043 0.3857 0 0.8914 0.0662 1.129 0.1484l0.4141-2.416c-0.2399-0.0658-0.5705-0.0899-0.8457-0.0899zm-127.2 6e-3c-2.977 0-4.834 2.041-4.834 5.082 0 3.022 1.857 5.062 4.834 5.062 2.975 0 4.83-2.04 4.83-5.062 0-3.041-1.855-5.082-4.83-5.082zm26.4 0c-2.984 0-4.822 2.067-4.822 5.082 0 2.985 1.81 5.062 4.832 5.062 2.618 0 4.256-1.535 4.383-3.795h-2.564c-0.1646 1.047-0.8546 1.635-1.781 1.635-1.277 0-2.104-1.065-2.104-2.939 0-1.856 0.8359-2.922 2.104-2.922 0.9925 0 1.635 0.6611 1.781 1.635h2.564c-0.1105-2.27-1.829-3.758-4.393-3.758zm10.58 0c-2.975 0-4.832 2.041-4.832 5.082 0 3.022 1.857 5.062 4.832 5.062 2.977 0 4.834-2.04 4.834-5.062 0-3.041-1.857-5.082-4.834-5.082zm12.27 0c-1.46 0-2.517 0.7175-2.959 1.865h-0.1094v-1.736h-2.6v9.822h2.729v-5.678c0-1.268 0.7524-2.004 1.855-2.004 1.094 0 1.755 0.7173 1.746 1.912v5.77h2.727v-6.256c0-2.288-1.35-3.695-3.389-3.695zm23.85 0c-2.977 0-4.834 2.041-4.834 5.082 0 3.022 1.857 5.062 4.834 5.062 2.984 0 4.83-2.04 4.83-5.062 0-3.041-1.846-5.082-4.83-5.082zm31.14 0c-2.977 0-5.146 2.013-5.633 5.035-0.5056 3.05 1.02 5.109 4.023 5.109 2.949 0 5.119-2.022 5.625-5.027 0.4962-3.06-1.031-5.117-4.016-5.117zm44.14 0c-2.352 0-3.905 1.132-4.281 2.924l2.518 0.2012c0.1834-0.6538 0.7705-1.131 1.744-1.131 0.929 0 1.463 0.4585 1.463 1.268v0.0391c0 0.6327-0.6734 0.7162-2.381 0.8809-1.947 0.1834-3.684 0.8342-3.684 3.021 0 1.947 1.387 2.932 3.252 2.932 1.451 0 2.4-0.6328 2.877-1.543h0.0723v1.359h2.582v-6.623c0-2.345-1.975-3.328-4.162-3.328zm17.44 0c-2.352 0-3.903 1.132-4.279 2.924l2.516 0.2012c0.1834-0.6538 0.7724-1.131 1.746-1.131 0.929 0 1.463 0.4585 1.463 1.268v0.0391c0 0.6327-0.6734 0.7162-2.381 0.8809-1.938 0.1834-3.686 0.8342-3.686 3.021 0 1.947 1.387 2.932 3.252 2.932 1.451 0 2.4-0.6328 2.877-1.543h0.0723v1.359h2.584v-6.623c0-2.345-1.977-3.328-4.164-3.328zm-159.2 0.1289v6.256c0 2.288 1.341 3.695 3.316 3.695 1.479 0 2.544-0.7644 2.986-1.912h0.1016v1.783h2.607v-9.822h-2.719v5.643c9e-3 1.312-0.9013 2.002-1.875 2.002-1.03 0-1.69-0.7179-1.699-1.875v-5.77zm82.21 0 1.846 10.08-0.2461 0.4238c-0.5245 0.9102-1.176 0.9834-2.086 0.6894l-0.9648 2.029c0.3763 0.167 0.9831 0.2852 1.682 0.2852 2.011 0 3.26-1.028 4.088-2.627l5.623-10.88h-2.986l-3.262 7.221h-0.1016l-0.8262-7.221zm22.05 0-1.047 6.256c-0.3669 2.288 0.7334 3.695 2.709 3.695 1.479 0 2.694-0.7644 3.299-1.912h0.0996l-0.293 1.783h2.619l1.635-9.822h-2.729l-0.9375 5.643c-0.2093 1.312-1.222 2.002-2.195 2.002-1.04 0-1.58-0.7179-1.396-1.875l0.9551-5.77zm-110.9 1.947c1.352 0 2.061 1.269 2.061 2.988 0 1.707-0.7082 2.967-2.061 2.967-1.369 0-2.074-1.259-2.074-2.967 0-1.719 0.7054-2.988 2.074-2.988zm36.99 0c1.35 0 2.057 1.269 2.057 2.988 0 1.707-0.7067 2.967-2.057 2.967-1.369 0-2.078-1.259-2.078-2.967 0-1.719 0.7093-2.988 2.078-2.988zm36.13 0c1.352 0 2.049 1.269 2.049 2.988 0 1.707-0.6965 2.967-2.049 2.967-1.378 0-2.074-1.259-2.074-2.967 0-1.719 0.696-2.988 2.074-2.988zm30.85 0c1.341 0 1.809 1.253 1.543 2.941-0.2846 1.738-1.231 3.014-2.609 3.014-1.35 0-1.818-1.241-1.543-2.932 0.2752-1.726 1.222-3.023 2.609-3.023zm33.3 0.0918c1.322 0 2.059 1.122 2.059 2.877 0 1.745-0.7557 2.893-2.059 2.893-1.343 0-2.068-1.183-2.068-2.893 0-1.71 0.716-2.877 2.068-2.877zm12.58 3.234v1.039c0 1.028-0.8541 1.818-2.049 1.818-0.8349 0-1.434-0.3955-1.434-1.139 0-0.7714 0.6326-1.148 1.59-1.277 0.5974-0.0917 1.563-0.2297 1.893-0.4414zm17.44 0v1.039c0 1.028-0.8541 1.818-2.049 1.818-0.8349 0-1.432-0.3955-1.432-1.139 0-0.7714 0.6326-1.148 1.59-1.277 0.5974-0.0917 1.561-0.2297 1.891-0.4414zm6.414 1.654c-0.8443 0-1.543 0.6881-1.533 1.525-9e-3 0.8537 0.6889 1.533 1.533 1.533 0.8184 0 1.524-0.6795 1.533-1.533-9e-3 -0.8373-0.7148-1.525-1.533-1.525z"/>
    <path fill="#b3bcc6" d="m317.3 74.45c0-4.283-2.655-6.726-6.129-6.726-3.49 0-6.127 2.444-6.127 6.726 0 4.271 2.636 6.724 6.127 6.724 3.474 0 6.129-2.434 6.129-6.724zm-2.801 0c0 2.773-1.324 4.28-3.328 4.28-2.011 0-3.326-1.508-3.326-4.28 0-2.775 1.315-4.273 3.326-4.273 2.004 0 3.328 1.498 3.328 4.273zm7.524 0.8726c0-1.268 0.7526-2.004 1.856-2.004 1.094 0 1.754 0.7173 1.745 1.912v5.769h2.728v-6.256c0-2.288-1.35-3.695-3.389-3.695-1.46 0-2.519 0.7173-2.959 1.865h-0.1105v-1.736h-2.599v9.822h2.728zm11.19-7.413h-2.721v13.09h2.721zm3.857 16.77c2.023 0 3.097-1.037 3.657-2.627l3.812-10.88h-2.886l-2.048 7.213h-0.1011l-2.039-7.213h-2.857l3.518 10.11-0.1552 0.4139c-0.3575 0.9172-1.047 0.9643-2.004 0.6703l-0.6138 2.03c0.3951 0.167 1.018 0.2846 1.717 0.2846zm14.97-3.683h2.876l1.691-6.174h0.12l1.679 6.174h2.886l2.665-9.822h-2.747l-1.498 6.559h-0.0823l-1.609-6.559h-2.7l-1.59 6.597h-0.0917l-1.515-6.597h-2.756zm13.37 0h2.719v-9.822h-2.719zm1.369-11.09c0.809 0 1.47-0.6162 1.47-1.378 0-0.7526-0.6609-1.369-1.47-1.369-0.809 0-1.479 0.6162-1.479 1.369 0 0.762 0.6703 1.378 1.479 1.378zm8.747 1.268h-1.846v-2.352h-2.721v2.352h-1.35v2.049h1.35v5.108c-0.0165 1.929 1.296 2.886 3.271 2.803 0.6985-0.0282 1.204-0.1764 1.479-0.2587l-0.4327-2.03c-0.1364 0.0282-0.421 0.0917-0.6797 0.0917-0.5409 0-0.9172-0.2023-0.9172-0.9643v-4.751h1.846zm4.694 4.144c9e-3 -1.268 0.7808-2.004 1.893-2.004 1.11 0 1.764 0.7079 1.754 1.912v5.769h2.719v-6.256c9e-3 -2.298-1.341-3.695-3.389-3.695-1.489 0-2.491 0.7079-2.933 1.865h-0.1176v-5.005h-2.646v13.09h2.719zm23.69-7.413h-2.756v8.232h-0.1105l-5.649-8.232h-2.434v13.09h2.766v-8.241h0.1011l5.694 8.241h2.389zm2.232 13.09h2.721v-9.822h-2.721zm1.369-11.09c0.809 0 1.47-0.6162 1.47-1.378 0-0.7526-0.6609-1.369-1.47-1.369-0.8067 0-1.47 0.6162-1.47 1.369 0 0.762 0.6632 1.378 1.47 1.378zm8.747 1.268h-1.846v-2.352h-2.719v2.352h-1.343v2.049h1.343v5.108c-0.0188 1.929 1.294 2.886 3.269 2.803 0.7079-0.0282 1.204-0.1764 1.479-0.2587l-0.4304-2.03c-0.1388 0.0282-0.4233 0.0917-0.6797 0.0917-0.5433 0-0.9196-0.2023-0.9196-0.9643v-4.751h1.846zm1.773 9.822h2.719v-5.558c0-1.204 0.882-2.041 2.086-2.041 0.3763 0 0.9008 0.0659 1.148 0.1482v-2.415c-0.2375-0.0564-0.5786-0.0917-0.8537-0.0917-1.094 0-2.004 0.6327-2.361 1.856h-0.1011v-1.719h-2.636zm11.34 0.1928c2.977 0 4.833-2.039 4.833-5.061 0-3.041-1.856-5.082-4.833-5.082-2.984 0-4.831 2.041-4.831 5.082 0 3.022 1.846 5.061 4.831 5.061zm9e-3 -2.112c-1.378 0-2.077-1.261-2.077-2.968 0-1.719 0.6985-2.987 2.077-2.987 1.35 0 2.048 1.268 2.048 2.987 0 1.707-0.6985 2.968-2.048 2.968zm8.187 2.084c0.8161 0 1.533-0.6797 1.533-1.533 0-0.8373-0.7173-1.526-1.533-1.526-0.8467 0-1.536 0.6891-1.536 1.526 0 0.8537 0.6891 1.533 1.536 1.533z"/>
    <path fill="url(#swoosh)" d="m249.3 54c-22.55-1.9-40.43 1.122-53.62 5.725-13.19 4.603-21.68 10.7-25.63 15.2-0.5621 0.6256-0.4962 1.58 0.127 2.121 0.6256 0.5527 1.571 0.4868 2.124-0.1363 3.417-3.888 11.58-9.876 24.36-14.34 12.78-4.454 30.23-7.451 52.38-5.586 0.8349 0.0729 1.562-0.5315 1.635-1.369 0.0635-0.8185-0.5503-1.543-1.369-1.609z"/>
    <path fill="url(#icon)" d="m40 24h32c8.863 0 16 7.137 16 16v32c0 8.863-7.14 16-16 16h-32c-8.863 0-16-7.14-16-16v-32c0-8.863 7.137-16 16-16z"/>
    <path fill="#fff" d="m43.94 42.25c-1.176 0-2.121 0.9478-2.131 2.124 0 1.176 0.9549 2.131 2.131 2.131h3.749c0.762 0 1.378 0.6162 1.378 1.369 0 0.762-0.6162 1.378-1.378 1.378h-8.876c-0.762 0-1.376 0.6162-1.376 1.369 0 0.762 0.6138 1.378 1.376 1.378h6.249c0.762 0 1.378 0.6162 1.378 1.378 0 0.762-0.6162 1.378-1.378 1.378h-3.878c-0.762 0-1.369 0.6068-1.369 1.359 0 0.762 0.6068 1.369 1.369 1.369h2.62c0.762 6.964 6.632 12.26 13.63 12.27 7.599 9e-3 13.75-6.155 13.75-13.74 0-7.597-6.155-13.75-13.75-13.75zm13.49 5.936c4.318 0 7.82 3.5 7.82 7.818 0 4.309-3.502 7.808-7.82 7.808-4.309 0-7.808-3.5-7.808-7.808 0-4.318 3.5-7.818 7.808-7.818zm-23.24 1.065c-0.7644 0-1.378 0.6162-1.378 1.378 0 0.7526 0.6138 1.369 1.378 1.369h0.7432c0.762 0 1.378-0.6162 1.378-1.369 0-0.762-0.6162-1.378-1.378-1.378zm22.39 2.001c-0.3128 0-0.5692 0.2587-0.5692 0.5715 0 0.3199 0.2564 0.5786 0.5692 0.5786 1.508 0 2.738 1.221 2.738 2.728 0 0.3128 0.2493 0.5692 0.5692 0.5692 0.3128 0 0.5715-0.2564 0.5715-0.5692 0-2.14-1.738-3.878-3.878-3.878zm-9e-3 1.757c-2.14 0-3.876 1.726-3.876 3.867 0 0.3128 0.2564 0.5692 0.5692 0.5692 0.3222 0 0.5786-0.2564 0.5786-0.5692 0-1.508 1.223-2.728 2.728-2.728 0.3222 0 0.5692-0.2564 0.5692-0.5692 0-0.3222-0.247-0.5692-0.5692-0.5692zm5.035 1.543c-0.3128 0-0.5692 0.2564-0.5692 0.5786 0 1.508-1.223 2.728-2.738 2.728-0.3128 0-0.5715 0.2493-0.5715 0.5692 0 0.3128 0.2587 0.5692 0.5715 0.5692 2.14 0 3.885-1.736 3.885-3.867 0-0.3222-0.2564-0.5786-0.5786-0.5786zm-6.606 1.755c-0.3198 0-0.5786 0.247-0.5786 0.5692 0 2.131 1.736 3.869 3.878 3.869 0.3198 0 0.5786-0.2587 0.5786-0.5715 0-0.3198-0.2587-0.5692-0.5786-0.5692-1.508 0-2.73-1.221-2.73-2.728 0-0.3222-0.2564-0.5692-0.5692-0.5692z"/>
</svg>
