<svg version="1.1" viewBox="0 0 51 60" xmlns="http://www.w3.org/2000/svg">
    <!--
        Easter-Llama (c) proliecan
        SVG (c) justJanne
    -->
    <defs>
        <linearGradient id="black"><stop stop-color="#000000"/></linearGradient>
        <linearGradient id="white"><stop stop-color="#ffffff"/></linearGradient>
        <linearGradient id="shade"><stop stop-color="#9a9a9a"/></linearGradient>
    </defs>
    <path fill="url(#white)"
        d="m30.656 0.0049393c-0.45554 0.013556-0.8945 0.074561-1.2675 0.24183-1.3845 0.62089-1.9393 2.162-2.1774 2.9589-0.23632 0.79092-0.40376 2.4196-0.44127 3.8342-0.01921 0.72449-0.0023 1.6606 0.03669 2.5036 0.03267 0.70542 0.08231 1.2217 0.14468 1.6422l-1.3765 0.01395-1.4044 0.0155c0.20987-1.6529 0.29101-4.8897 0.11522-6.2986-0.12393-0.9933-0.37541-2.0089-0.6893-2.7046-0.3361-0.74497-1.0214-1.5108-1.7227-1.8964-0.37226-0.20466-0.69371-0.28036-1.3336-0.30694-0.47537-0.019747-0.8857-0.010079-1.2205 0.080095-1.3524 0.36426-2.7166 1.5281-4.1988 3.3945-1.0648 1.3408-1.8359 2.9884-2.4317 5.1405-0.29267 1.0572-0.4009 1.9721-0.43559 3.6363-9e-3 0.43362-0.02137 0.8345-0.03307 1.127-0.0041 0.10162-0.0081 0.16879-0.01189 0.24028-8e-3 0.0042-0.01313 0.0078-0.02119 0.01189-0.64909 0.3294-2.1137 1.3406-2.9432 2.0019-0.92498 0.7374-2.5774 2.3775-3.3121 3.287-1.3851 1.7147-2.6271 3.6031-3.4429 5.2439-1.0222 2.056-1.6041 4.0936-1.7811 4.7571-0.26824 1.0056-0.57523 2.8538-0.65416 3.9319-0.096487 1.3179-0.05764 4.3695 0.081641 5.449v0.0057c0.21191 1.5358 0.80688 4.788 2.365 7.8415 3.619e-4 7.64e-4 0.00171 0.0013 0.00207 0.0021 0.5972 1.2605 1.4005 2.5452 2.3418 3.7691 1.0527 1.3688 2.2754 2.6613 3.572 3.7521 2.1545 1.8124 4.9175 3.3807 7.8954 4.49 0.49547 0.18456 0.75641 0.28964 0.90425 0.37102 0.14784 0.08138 0.21246 0.14025 0.39839 0.32813 0.56398 0.5699 1.3256 0.99279 2.0607 1.0934 0.62787 0.08596 1.2815 0.02224 1.8514-0.19119 0.22593-0.08461 0.28691-0.1061 0.48985-0.11317 0.20294-0.0071 0.55524 0.01776 1.205 0.07596 1.4086 0.12617 3.3327 0.11474 4.8163-0.02739 0.33551-0.03214 0.64397-0.06363 0.87273-0.08992 0.11438-0.01315 0.20711-0.0251 0.27903-0.03514 0.0037-5.15e-4 0.0062-0.0015 0.0098-0.0021 0.07178 0.02858 0.1786 0.0748 0.29298 0.12918 0.43102 0.20492 0.73295 0.26348 1.422 0.26354 1.1081 8.6e-5 1.7473-0.25748 2.4957-1.0097 0.52749-0.53014 0.38463-0.439 1.2949-0.76943 1.6796-0.6097 4.1313-1.8575 5.6849-2.8906 2.8914-1.9228 5.7655-4.9704 7.4583-7.9154 1.3239-2.3035 2.2579-4.996 2.8104-8.0896 0.22796-1.2763 0.24848-1.4631 0.31261-2.9196 0.11474-2.6057-0.10394-5.0735-0.64641-7.1853-1.1409-4.4416-3.217-8.2042-6.275-11.363-1.5604-1.6117-2.6836-2.5439-4.4722-3.7149-0.24313-0.15917-0.46628-0.30585-0.63091-0.41391-0.02706-0.01776-0.04092-0.02786-0.06459-0.04341-8.11e-4 -0.04101-0.0014-0.06652-0.0021-0.11678-0.0028-0.23122-0.0037-0.55162-0.0016-0.90223 0.01436-2.172-0.21748-3.6367-0.87108-5.4589-1.1659-3.2503-3.6014-6.1858-6.0445-7.0153-0.39453-0.13396-0.85063-0.17375-1.3063-0.16019zm-1.0763 59.415c2.23e-4 -2.25e-4 -0.11348 0.08647-0.11316 0.0863 2.9e-5 -1.5e-5 -0.0065 0.0031-0.0078 0.0036 0.01078-0.0078 0.1207-0.08971 0.12091-0.08992z"/>
    <path fill="url(#shade)"
        d="m20.119 57.984c-1.1284-0.13204-2.2208-0.47982-2.5278-0.80482-0.10137-0.1073-0.29599-0.24085-0.4325-0.29677-0.13651-0.05592-0.53461-0.25705-0.88467-0.44697-0.35006-0.18991-0.736-0.39925-0.85765-0.4652-0.12164-0.06596-0.50316-0.24468-0.84781-0.39719-0.34465-0.15251-0.69299-0.333-0.77409-0.40111-0.08109-0.06811-0.46261-0.26755-0.84781-0.44322-0.95225-0.43428-1.576-0.784-1.8395-1.0314-0.12116-0.11374-0.45448-0.36763-0.74072-0.56419-0.92031-0.63197-1.1013-3.0024-0.24172-3.1651 0.11263-0.02132 0.43653-0.12756 0.71977-0.2361 0.28324-0.10854 1.0131-0.34815 1.6219-0.53248 0.6088-0.18432 1.223-0.38468 1.3649-0.44523 0.73367-0.31303 1.485-0.72169 1.9148-1.0415 0.17674-0.13151 0.42907-0.27484 0.56072-0.31851 0.21582-0.07158 0.24431-0.11558 0.28973-0.44744 0.04366-0.31898 0.30922-0.68001 0.339-0.46086 0.0043 0.032 0.05251-0.31133 0.107-0.76296 0.10148-0.84092 0.30329-1.5091 0.53525-1.7721 0.39751-0.45076 0.71963-0.34254 0.62226 0.20907-0.18485 1.0472-0.0319 1.8255 0.51386 2.6146l0.36437 0.52682 0.49128-0.03526c0.4505-0.03233 0.52189-0.01637 0.8599 0.1921 0.34673 0.21386 1.2761 0.53146 2.8015 0.95736 0.80234 0.22402 3.0429 0.32171 3.9191 0.17088 1.6642-0.28652 3.3341-0.85341 3.8645-1.3119 0.07068-0.06111 0.29391-0.10062 0.56848-0.10062 0.508 0 0.57495-0.04693 1.0042-0.70388 0.40297-0.6168 0.43989-0.88984 0.3397-2.5125-0.01095-0.17735 0.13757-0.27594 0.3304-0.2193 0.4305 0.12644 0.75649 0.86602 0.86936 1.9723 0.06776 0.6643 0.10182 0.79649 0.20517 0.79649 0.0834 0 0.17603 0.14006 0.28334 0.42842 0.26219 0.70462 1.5825 1.4873 3.5815 2.1231 2.5736 0.81861 2.6909 0.84894 2.6909 0.69615 0-0.03396 0.06229-0.06175 0.13842-0.06175 0.5155 0 0.60345 2.304 0.10804 2.8305-0.6786 0.72116-1.7806 1.5766-2.4872 1.9306-0.87409 0.43799-1.0974 0.55674-1.4454 0.76878-0.14192 0.08647-0.39073 0.199-0.55292 0.25008-0.16219 0.05108-0.47735 0.18618-0.70037 0.30022-0.46916 0.23992-1.2138 0.58799-1.7064 0.79765-0.18842 0.0802-0.66316 0.36578-1.055 0.63465-0.39183 0.26887-0.80165 0.51026-0.91071 0.53641-0.10906 0.02616-0.23565 0.07695-0.28131 0.11288-0.17066 0.1343-1.2519 0.2433-1.5506 0.15632-0.15576-0.04537-0.5929-0.1525-0.9714-0.23806-2.4149-0.54588-3.2947-1.3539-2.8746-2.64 0.21781-0.66683 0.47652-0.72604 0.95974-0.21964 0.26007 0.27255 0.79757 0.60771 1.661 1.0357 0.6169 0.30581 0.60996 0.30429 0.61144 0.13426 8.19e-4 -0.09408 0.01742-0.10387 0.06047-0.0357 0.25903 0.41014 2.1052 0.28515 2.7172-0.18396 0.35958-0.22632 0.90322-0.63714 0.90495-1.0629-0.11494-0.21584 0.39879-0.88461 0.67953-0.88461 0.16142 0 0.87104-0.40316 0.87104-0.49486 0-0.05139-0.09953-0.16739-0.22117-0.25778-0.25321-0.18815-0.25826-0.20534-0.11724-0.39917 0.10136-0.13931 0.10767-0.13944 0.25528-0.0051 0.30784 0.27999 0.44325 0.05118 0.25754-0.4352-0.04149-0.10862-0.0069-0.118 0.27708-0.0752 0.33332 0.05024 0.80801-0.1264 1.3363-0.49725 0.26369-0.18511 0.25781-0.22368-0.09216-0.60525-0.16219-0.17684-0.29489-0.35426-0.29489-0.39427 0-0.11438-1.0961-1.0146-1.5885-1.3046-1.0738-0.63247-2.9516-0.80401-4.9934-0.45617-1.1258 0.1918-2.3269 1.0563-3.8313 2.7578-0.43047 0.48685-0.37978 0.49666-0.94426-0.18285-1.1761-1.4158-2.2141-2.1623-3.4197-2.4595-0.20044-0.04941-0.49902-0.15004-0.6635-0.22361-0.35486-0.15873-1.1184-0.25944-1.1821-0.1559-0.02628 0.04273-0.27961 0.05342-0.6273 0.02648-0.68305-0.05293-1.012 0.02022-1.9363 0.43063-0.35484 0.15756-0.68719 0.28648-0.73854 0.28648-0.05136 0-0.20973 0.07946-0.35195 0.17659-0.14222 0.09713-0.3081 0.18882-0.36862 0.20375-0.06052 0.01494-0.45209 0.38599-0.87016 0.82456l-0.76013 0.7974 0.19726 0.23989c0.39533 0.48078 1.1245 0.78291 1.3478 0.55849 0.0637-0.06403 0.1109-0.06637 0.16861-0.0083 0.05771 0.05801 0.05771 0.09448 0 0.13033-0.08211 0.051-0.11527 0.55968-0.03649 0.55968 0.02402 0 0.12709-0.06596 0.22905-0.14656 0.33785-0.26708 0.54806-0.05828 0.25121 0.24953-0.3428 0.35546-0.23149 0.56314 0.43447 0.81061 0.35218 0.13087 0.83998 0.53519 0.77438 0.64186-0.15106 0.24565 0.52593 1.3338 0.83024 1.3344 0.07031 1.52e-4 0.22738 0.06066 0.34902 0.13445 0.58414 0.35438 2.2864 0.43968 2.5147 0.12601 0.02044-0.02809 0.90735-0.42832 1.152-0.44325 0.31604-0.01929 0.91499-0.41141 1.1886-0.77814 0.36071-0.48351 0.53334-0.52949 0.81759-0.21776 0.46911 0.51446 0.31259 1.6942-0.27972 2.1082-1.5954 1.1153-2.4982 1.3882-4.008 1.2115zm4.7708-18.526c-4.001-0.33264-6.8283-2.17-7.9649-5.1761-0.05392-0.14263-0.17487-0.37542-0.26876-0.51732-0.29436-0.44487-0.22171-1.0386 0.12709-1.0386 0.17857 0 0.30637 0.12619 0.89521 0.88392 0.7738 0.99574 1.215 1.301 1.4417 0.99752 0.14118-0.18903 0.42951-0.76363 0.49796-0.99234 0.12145-0.40585 0.37617-0.44772 0.53653-0.0882 0.1075 0.24102 0.70372 0.90847 1.0199 1.1418 0.12592 0.09291 0.23518 0.19332 0.2428 0.22315 0.34414 1.3462 1.3582 1.8717 3.8592 1.9996l1.5295 0.07823 0.71907-0.20172c0.97453-0.27338 2.1567-1.1056 2.1567-1.5184 0-0.06996 0.28473-0.44132 0.63274-0.82525 0.34801-0.38394 0.68691-0.78976 0.75312-0.90182 0.16166-0.27363 0.4572-0.28406 0.4572-0.01614 0 0.10319 0.05423 0.31157 0.1205 0.46308 0.06627 0.15151 0.12721 0.33551 0.1354 0.4089 0.02324 0.20818 0.1966 0.33704 0.52347 0.38914l0.30017 0.04784 0.72128-0.81986c0.76251-0.86672 0.94053-0.99114 1.1364-0.79426 0.10117 0.10167 0.10461 0.14368 0.02259 0.27567-0.0532 0.08565-0.2143 0.49354-0.35795 0.90643-1.0601 3.047-3.8918 4.8106-8.2048 5.11-0.18246 0.01267-0.64691-0.0031-1.0321-0.03519zm9.0433-18.859c-0.02703-0.02717-0.04915-0.09466-0.04915-0.14997 0-0.09176-0.24544-0.49319-0.68062-1.1132-0.50947-0.72582-2.581-1.8495-3.8482-2.0874-0.44749-0.08402-0.43395-0.06247-0.50824-0.80933-0.09851-0.99034-0.09136-1.6465 0.01866-1.7148 0.15302-0.09505 0.53529-0.03391 0.60835 0.09729 0.03703 0.06651 0.3063 0.31159 0.59838 0.54463 0.29208 0.23305 0.57949 0.47125 0.6387 0.52933 0.13783 0.13521 0.54635 0.3073 0.72949 0.3073 0.29374 0 0.65524-1.2104 0.71919-2.408 0.01958-0.36676 0.06722-0.91097 0.10588-1.2094 0.03865-0.29839 0.07027-0.73608 0.07027-0.97265 0-0.48804 0.10911-0.64078 0.40452-0.56626 0.11645 0.02937 0.18526 0.09897 0.18526 0.18733 0 0.07733 0.02762 0.15171 0.06136 0.1653 0.27499 0.11068 0.50879 2.3145 0.52337 4.9333 0.0048 0.86636 0.01199 0.90763 0.15742 0.90763 0.16061 0 0.62867-0.31752 0.79178-0.53713 0.27439-0.36942 0.65906 0.01503 0.87103 0.87054 0.07067 0.28526 0.17222 0.5627 0.22564 0.61655 0.27042 0.27255-0.15551 1.1831-1.0348 2.2121-0.19527 0.22852-0.46646 0.31924-0.58829 0.19681zm-17.612-0.56577c-0.23232-0.2558-0.50612-0.63047-0.60846-0.8326l-0.18607-0.3675 0.15842-0.70388c0.33586-1.4923 0.92176-2.2157 1.2101-1.4941 0.09121 0.22827 0.48857 0.60496 0.63815 0.60496 0.11446 0 0.20336-0.85152 0.24367-2.3339 0.05063-1.8618 0.12794-2.6215 0.3334-3.2756 0.07948-0.25302 0.14452-0.50918 0.14452-0.56922 0-0.14178 0.27425-0.22861 0.39746-0.12584 0.06725 0.0561 0.11018 0.44689 0.14514 1.3213 0.0273 0.68288 0.09871 1.4417 0.15868 1.6862 0.05996 0.2445 0.17502 0.76947 0.25566 1.1666 0.15216 0.74933 0.3197 1.2422 0.42159 1.2403 0.23962-0.0045 0.64051-0.23704 0.83552-0.4846 0.40872-0.51883 1.4387-1.0801 1.6926-0.92243 0.11956 0.07427 0.15726 0.96834 0.06439 1.5271-0.10782 0.64876-0.77412 1.3218-1.3738 1.3877-0.21368 0.02348-0.47908 0.09201-0.58978 0.15231-0.1107 0.0603-0.48976 0.24462-0.84236 0.40962-0.4545 0.21268-0.80848 0.45129-1.2162 0.81984-0.31631 0.28592-0.59726 0.51985-0.62434 0.51985-0.02707 0-0.17099 0.16671-0.31982 0.37046-0.34635 0.47419-0.42775 0.46582-0.93845-0.09652z"/>
    <path fill="url(#black)"
        d="m19.742 59.468c-0.57295-0.07844-1.2917-0.46365-1.7735-0.95056-0.38591-0.38996-0.487-0.44563-1.4829-0.81658-2.9281-1.0907-5.6459-2.6354-7.7478-4.4035-1.2661-1.0651-2.4662-2.3334-3.4976-3.6744-0.92276-1.1998-1.7104-2.4577-2.2894-3.6803-1.5209-2.9744-2.1123-6.1901-2.3202-7.6965-0.12353-0.95746-0.16989-4.1052-0.078799-5.3495 0.074804-1.0217 0.38576-2.8921 0.63807-3.8379 0.1721-0.64514 0.74881-2.6596 1.7458-4.665 0.7935-1.5961 2.0203-3.4638 3.3843-5.1523 0.68456-0.84745 2.371-2.5204 3.2355-3.2096 0.79383-0.63285 2.3277-1.6777 2.8579-1.9468 0.13244-0.06721 0.25544-0.14602 0.27334-0.17513 0.01791-0.02911 0.04744-0.76691 0.06563-1.6395 0.03434-1.6474 0.13489-2.495 0.4167-3.513 0.58373-2.1086 1.3288-3.6871 2.3429-4.9642 1.4499-1.8258 2.7718-2.9071 3.9376-3.2211 0.21356-0.057521 0.62472-0.081939 1.069-0.063485 0.62592 0.026 0.77409 0.058663 1.1141 0.24559 0.54144 0.29768 1.2385 1.0669 1.5078 1.6638 0.27733 0.6147 0.52948 1.6112 0.64795 2.5607 0.16892 1.3539 0.10112 5.0463-0.11904 6.4831l-0.03974 0.25932 1.9487-0.02086 1.9487-0.02085-0.05773-0.27552c-0.13186-0.6294-0.23903-2.9414-0.20166-4.3506 0.03658-1.3794 0.22716-3.053 0.42184-3.7046 0.22195-0.74284 0.77602-2.1402 1.9023-2.6453 0.53283-0.23895 1.6053-0.27086 2.2094-0.065746 2.1809 0.74048 4.6127 3.5873 5.7336 6.712 0.63829 1.7795 0.85657 3.1487 0.84256 5.2853-0.0046 0.7064 0.0026 1.2922 0.01605 1.3018 0.01347 0.0095 0.42258 0.27809 0.90914 0.59664 1.7677 1.1573 2.8418 2.05 4.3865 3.6454 2.9989 3.0974 5.0279 6.7728 6.1495 11.139 0.52713 2.0521 0.74458 4.4751 0.63169 7.0388-0.06405 1.4547-0.07729 1.5785-0.30486 2.8525-0.54424 3.047-1.4613 5.6822-2.752 7.9279-1.6444 2.8609-4.4874 5.8785-7.3017 7.7501-1.5044 1.0005-3.9593 2.2488-5.5778 2.8363-0.91273 0.33133-0.94801 0.35247-1.4787 0.88584-0.71217 0.71574-1.0799 0.8641-2.1414 0.86402-0.67867-5.4e-5 -0.7977-0.02137-1.2074-0.21618-0.25-0.11886-0.46625-0.20436-0.48054-0.18999-0.0143 0.01437-0.5707 0.07831-1.2365 0.14208-1.4443 0.13836-3.3607 0.14937-4.7252 0.02714-1.3036-0.11677-1.4355-0.11217-1.9131 0.06668-0.47884 0.17932-1.0647 0.23932-1.609 0.1648zm1.4473-2.0987c0.44772-0.23269 0.35009-1.0381-0.27988-2.309-0.24368-0.49159-0.44306-0.96154-0.44306-1.0443 0-0.21057 0.24962-0.42021 0.43132-0.36225 0.53189 0.16966 1.3278 1.731 1.454 2.8523l0.04889 0.43431 0.40419-0.13976c0.8078-0.27932 1.1779-0.61537 1.3057-1.1857 0.08217-0.36665 0.07528-0.40485-0.16399-0.91086-0.13736-0.29049-0.37943-0.70177-0.53793-0.91396-0.39174-0.52445-0.37059-0.91081 0.04987-0.91081 0.17209 0 0.95664 0.78657 1.1119 1.1147 0.15233 0.32615 0.29978 0.65457 0.44811 0.98257l0.0311-0.26779c0.07469-0.64304-0.252-1.5389-0.82851-2.2719-0.88087-1.12-1.9748-1.8376-3.349-2.197-0.59584-0.15583-2.1848-0.15201-2.8595 0.0068-0.93834 0.22095-2.0142 0.86148-2.6086 1.553-0.53579 0.62342-0.97963 1.729-1.0877 2.7095l-0.04492 0.40751 1.2188 0.53883 0.13316-0.46473 0.0701 0.27937c0.07472 0.29777 0.12302 0.3369 0.69605 0.5639l0.36795 0.14576-0.03323-0.53156c-0.02901-0.46398-0.01281-0.55747 0.12736-0.73532 0.12542-0.15912 0.22286-0.20375 0.44478-0.20375 0.37817 0 0.61833 0.29415 1.0286 1.2599 0.52453 1.2346 0.77925 1.5374 1.4411 1.7132 0.32234 0.08564 1.1705 0.0182 1.4233-0.11317zm10.256 0.10542c0.52902-0.15248 0.79036-0.41938 1.1522-1.1766 0.18773-0.39294 0.37156-0.77233 0.4085-0.84309 0.03694-0.07076 0.06716-0.17255 0.06716-0.2262 0-0.05364 0.1024-0.23748 0.22755-0.40851 0.19685-0.26901 0.26474-0.31096 0.50321-0.31096 0.20114 0 0.32398 0.05175 0.45439 0.1914 0.15362 0.16451 0.17868 0.26329 0.17837 0.7031-4.12e-4 0.58847-0.02981 0.57958 0.73759 0.22318 0.24328-0.11299 0.64138-0.29266 0.88467-0.39926 0.90021-0.39446 0.84513-0.34481 0.79683-0.71833-0.27065-2.0929-1.4404-3.4855-3.5157-4.1857-1.1458-0.38656-3.0566-0.23167-4.1915 0.33974-0.97412 0.49048-1.8743 1.2239-2.3236 1.8931-0.13374 0.19923-0.46445 0.91563-0.54227 1.1747-0.09755 0.32478-0.09874 0.99681-0.0019 1.0941 0.06223 0.06255 0.08352 0.03596 0.08352-0.10426 0-0.47672 0.95159-1.8419 1.2839-1.8419 0.16629 0 0.41174 0.23255 0.41174 0.39011 0 0.0742-0.13122 0.30957-0.29161 0.52306-0.60685 0.8078-0.87476 1.7229-0.63871 2.1816 0.1652 0.32106 0.55024 0.59713 1.1255 0.807 0.26846 0.09792 0.49518 0.16865 0.50382 0.15715 0.0086-0.0115 0.05288-0.2543 0.09834-0.53956 0.15989-1.0037 0.94368-2.7044 1.3873-2.7044 0.54594 0 0.60792 0.36256 0.18166 1.0625-0.48905 0.80302-0.72966 1.6325-0.68323 2.3553 0.01228 0.19125 0.16799 0.29733 0.56543 0.38522 0.2791 0.06172 0.88611 0.04966 1.1368-0.02258zm-18.535-3.8935c0.04348-0.66257 0.20394-1.2005 0.57409-1.9244 0.23958-0.46859 0.46593-0.75712 1.0807-1.3776l0.77765-0.78486-0.08799-0.25244c-0.20695-0.59372-0.06882-1.5987 0.31558-2.296 0.01303-0.02366-0.12354-0.24038-0.30352-0.4816-0.38635-0.5178-0.61513-1.1366-0.6757-1.8278-0.02558-0.29183-0.07775-0.499-0.12529-0.49743-0.04481 0.0015-0.44805 0.12727-0.89611 0.27954-1.8121 0.61581-3.1926 1.6997-3.7739 2.9629-0.18577 0.40372-0.23906 1.0092-0.10932 1.2422 0.055895 0.10038 0.08543 0.08768 0.19815-0.08521 0.072853-0.11174 0.26506-0.34775 0.42713-0.52445 0.23447-0.25565 0.34494-0.32128 0.54072-0.32128 0.2502 0 0.39868 0.15089 0.39868 0.40516 0 0.0652-0.16241 0.35912-0.36092 0.65318-0.61722 0.91432-0.76586 1.3464-0.75784 2.2031 0.0049 0.52057 0.18611 1.11 0.34131 1.11 0.05017 0 0.16342-0.24975 0.25167-0.555 0.1895-0.65545 0.50703-1.075 0.81356-1.075 0.41575 0 0.46601 0.23342 0.19144 0.88905-0.20538 0.4904-0.32888 1.2263-0.27652 1.6478 0.03186 0.25638 0.08071 0.30555 0.65599 0.66011 0.34187 0.2107 0.64018 0.41334 0.66292 0.45031 0.07409 0.12049 0.10393 0.01197 0.13755-0.5003zm26.406-0.15867c0.28728-0.18423 0.38787-0.29578 0.40547-0.44969 0.04258-0.37221-0.07945-1.1291-0.23936-1.4846-0.25944-0.57684-0.28776-0.72804-0.16839-0.89931 0.30786-0.44173 0.93375 0.16568 1.2019 1.1664 0.07112 0.26546 0.10373 0.30493 0.19147 0.23175 0.24834-0.20714 0.34583-1.2322 0.17708-1.862-0.10419-0.38888-0.4375-1.0612-0.79244-1.5985-0.25226-0.38183-0.26046-0.41323-0.15674-0.5998 0.24252-0.43624 0.713-0.2363 1.1742 0.499 0.19439 0.30989 0.20674 0.31715 0.25885 0.15214 0.0301-0.0953 0.05311-0.35255 0.05117-0.57166-0.01205-1.3477-1.9931-3.0824-4.1972-3.6752l-0.66404-0.1786-0.04378 0.5248c-0.0609 0.73007-0.3066 1.3811-0.6855 1.8164-0.17365 0.1995-0.28792 0.39204-0.25444 0.42869 0.03344 0.0366 0.13123 0.2595 0.21734 0.49535 0.1689 0.46265 0.21856 1.5093 0.08798 1.8544-0.06217 0.16433-0.0015 0.24954 0.64931 0.91245 1.0935 1.1138 1.5739 2.0684 1.6809 3.34l0.04554 0.54137 0.33931-0.19926c0.18662-0.10959 0.51124-0.30951 0.72137-0.44426zm-12.816-2.9391c1.0148-1.0471 1.9638-1.6065 3.2808-1.934 0.45241-0.11248 0.76366-0.23101 0.82652-0.31475 0.2314-0.30834 0.6226-1.2175 0.6226-1.4469 0-0.31903 0.18119-0.57675 0.40547-0.57675 0.28824 0 0.40548 0.25821 0.40548 0.89304 0 0.44092-0.03686 0.63686-0.16923 0.89965l-0.16923 0.33595 0.63 0.04539c0.3465 0.02497 0.8935 0.11497 1.2156 0.20001 0.32206 0.08505 0.61688 0.16081 0.65514 0.16838 0.13952 0.02759 0.16848-0.37117 0.07164-0.98648-0.05451-0.34638-0.11722-0.74648-0.13935-0.88911-0.03431-0.2211 4e-3 -0.31778 0.25978-0.65595 0.37247-0.49242 0.5411-1.0548 0.53274-1.7767-0.0059-0.50792-0.03699-0.61632-0.37855-1.3191-0.31552-0.64922-0.47705-0.8758-1.0617-1.4892-0.37924-0.39789-0.71184-0.79519-0.7391-0.88289-0.03487-0.11216 0.0035-0.22148 0.21604-0.41702 0.21252-0.19555 0.45059-0.04966 0.45059-0.04966 0.49064 0.15226 0.6423 0.11316 0.79298-0.20441 0.11249-0.23708 0.12684-0.5516 0.12542-2.7498-0.0016-2.536-0.05233-3.6911-0.1651-3.7611-0.03489-0.02167-0.0634 0.01424-0.0634 0.07981 0 0.31788-0.82268 1.3327-1.2681 1.5643-0.41366 0.21505-0.94362 0.0478-0.94362-0.29781 0-0.11901 0.11545-0.2578 0.38172-0.45887 0.70693-0.53384 1.0568-1.4767 0.93172-2.511-0.11803-0.9764-0.11441-1.017 0.10174-1.1414 0.18718-0.10775 0.20963-0.10416 0.38519 0.0616 0.15593 0.14722 0.32718 0.50565 0.45395 0.9501 0.01992 0.06987 0.09203 0.06108 0.29425-0.03584 0.44786-0.21464 0.63608-0.69111 0.65795-1.6656 0.0098-0.43952-0.0093-0.79912-0.04266-0.79912-0.03333 0-0.09265-0.11674-0.13186-0.25943-0.19917-0.72494-1.1216-2.1173-2.1776-3.287-0.46128-0.51096-0.55955-0.66311-0.55955-0.86638 0-0.17081 0.05035-0.28202 0.16385-0.36192 0.23594-0.16608 0.31703-0.14689 0.64759 0.15324 0.30321 0.2753 0.59768 0.34551 0.76069 0.18136 0.04765-0.04798 0.08559-0.27748 0.08434-0.51002-0.0019-0.35413-0.0461-0.49488-0.27202-0.86671-0.2807-0.46195-0.93953-1.1494-1.3845-1.4446-0.38905-0.25815-0.73723-0.60692-0.73723-0.73849 0-0.19226 0.21846-0.4465 0.38366-0.4465 0.08477 0 0.35262 0.07275 0.59523 0.16164 0.4159 0.1524 0.44644 0.1543 0.5346 0.03313 0.07653-0.10519 0.07168-0.18492-0.02679-0.43948-0.32098-0.82983-1.896-1.7442-3.7324-2.1668-0.73042-0.16809-2.4493-0.16343-3.0582 0.0082-0.4021 0.11339-0.46883 0.11565-0.56483 0.01916-0.25783-0.25912 0.30887-0.87459 0.94693-1.0284 0.27922-0.06732 0.3964-0.14129 0.50305-0.31756 0.11921-0.19701 0.12503-0.25122 0.04078-0.38002-0.17262-0.26389-0.55126-0.3401-1.1081-0.22301-0.84788 0.17829-1.357 0.52962-1.8379 1.2683-0.1284 0.19721-0.29378 0.37024-0.36751 0.38452-0.2312 0.04475-0.41798-0.19904-0.41798-0.54558 0-0.37035-0.14824-0.44893-0.57983-0.30734-0.20444 0.06707-0.30684 0.16535-0.4319 0.41452l-0.16392 0.32661 0.25608 0.28487c0.47116 0.52413 0.31807 0.68029-0.60312 0.61525-0.87382-0.0617-1.5472 0.0488-2.1897 0.35931-0.82176 0.39713-1.1338 0.66305-1.3719 1.169-0.21995 0.46741-0.22508 0.78304-0.01125 0.69125 0.90538-0.3886 1.262-0.34618 1.262 0.15013 0 0.26679-0.08605 0.35946-0.81095 0.87338-0.57586 0.40825-0.82438 0.68583-1.1574 1.2927-0.46348 0.84457-0.30289 1.7841 0.25243 1.4769 0.08225-0.0455 0.23953-0.19109 0.34952-0.32353 0.22194-0.26723 0.36872-0.29728 0.61281-0.12546 0.24187 0.17026 0.22641 0.61576-0.02962 0.85347-0.64023 0.59442-1.7313 2.0917-2.1872 3.0015-0.71024 1.4175-0.66451 2.9752 0.09884 3.3666 0.32417 0.16621 0.35835 0.14063 0.5386-0.40321 0.14552-0.43902 0.30937-0.63592 0.52918-0.63592 0.31047 0 0.35871 0.1619 0.28239 0.94762-0.03844 0.3957-0.04324 0.91723-0.01066 1.159 0.08044 0.59688 0.43421 1.2049 0.92825 1.5954 0.32095 0.25368 0.38733 0.34474 0.36861 0.5056-0.03129 0.26888-0.32101 0.42283-0.67142 0.35676-0.38845-0.07324-1.0901-0.74713-1.3755-1.321-0.12347-0.24832-0.22449-0.49619-0.22449-0.5508 0-0.05462-0.02787-0.09931-0.06193-0.09931-0.18815 0-0.16067 6.5559 0.02876 6.8618 0.13052 0.21075 0.52346 0.28506 0.74299 0.1405 0.21974-0.1447 0.38862-0.14139 0.55607 0.01091 0.27298 0.24828 0.17511 0.46682-0.54711 1.2215-0.75314 0.78703-1.0606 1.2495-1.3476 2.027-0.1711 0.46356-0.18648 0.58554-0.14489 1.1484 0.05371 0.72676 0.20213 1.1154 0.59132 1.5484l0.2766 0.3077-0.11873 0.57234c-0.06531 0.31479-0.14109 0.81949-0.16842 1.1216-0.04697 0.51912-0.04203 0.54619 0.09003 0.49379 0.41486-0.16459 1.3274-0.34958 1.9207-0.38939l0.67519-0.0453-0.15228-0.29363c-0.35344-0.68149-0.21981-1.9077 0.2079-1.9077 0.19884 0 0.40021 0.28532 0.40021 0.56706 0 0.47556 0.66223 1.6557 0.92909 1.6557 0.05816 0 0.46459 0.11659 0.90317 0.25908 1.3397 0.43526 2.3503 1.1349 3.3324 2.3071l0.52299 0.62417 0.18549-0.28002c0.10202-0.15401 0.40641-0.50796 0.67642-0.78657zm-3.0309-2.5194c-0.26498-0.2445-0.34857-0.37421-0.34857-0.54087 0-0.51596 0.35086-0.52171 0.82313-0.0135 0.38615 0.41555 0.42982 0.56401 0.22161 0.75338-0.20312 0.18474-0.3149 0.15278-0.69617-0.19901zm3.5403 0.2416c-0.21275-0.12454-0.14815-0.35031 0.21048-0.73564 0.40267-0.43264 0.57568-0.50618 0.77163-0.32796 0.22621 0.20574 0.16932 0.40364-0.22621 0.78678-0.37184 0.36021-0.52046 0.41463-0.7559 0.27681zm-1.5297-5.306c-0.23138-0.0831-0.29489-0.27381-0.29489-0.88541 0-0.58695 0.10469-1.0249 0.34723-1.0039 0.24255 0.02099 0.29231 0.03767 0.35313 0.08841 0.0851 0.07098 0.11058 0.26678 0.11058 0.84965 0 0.63967-0.02096 0.77647-0.13482 0.88003-0.14013 0.12745-0.19573 0.13784-0.38124 0.0712zm-0.99525-5.2122c-0.57952-0.09062-1.3842-0.33775-1.8165-0.55787-0.70827-0.36071-1.5379-1.2982-1.5379-1.7379 0-0.23604 0.13599-0.44263 0.29136-0.44263 0.07631 0 0.48153 0.16614 0.90051 0.3692 0.92265 0.44716 1.4023 0.5774 2.439 0.6623 1.7852 0.1462 3.5109-0.19043 4.7537-0.92732 0.3234-0.19175 0.49117-0.085 0.52184 0.33207 0.02914 0.39629-0.14697 0.68914-0.73732 1.2261-0.76984 0.70016-1.9284 1.0678-3.5245 1.1184-0.4663 0.01478-1.0469-0.0042-1.2901-0.04228zm-0.79267-3.8073c-0.40251-0.14436-0.76201-0.44563-0.98205-0.82297-0.21229-0.36407-0.32658-0.92362-0.14217-1.1118 0.18441-0.1882 0.48966-0.07146 0.58535 0.11411 0.05251 0.10188 0.16338 0.3186 0.24633 0.4816 0.14999 0.29472 0.59331 0.62614 0.84081 0.62857 0.06832 6.69e-4 0.21761-0.03447 0.33175-0.07809 0.11414-0.04361 0.21524-0.07755 0.22465-0.0754 0.0094 0.0021 0.09244-0.07053 0.18448-0.1615 0.14935-0.1476 0.16992-0.24964 0.1911-0.94817l0.02372-0.78277-0.22664-0.24384c-0.12465-0.13411-0.22664-0.28835-0.22664-0.34276 0-0.15464-0.14526-0.20835-0.51736-0.19129-0.47443 0.02176-0.68144-0.1515-0.67575-0.56556 0.0048-0.34765 0.24252-0.73506 0.51598-0.84078 0.09388-0.0363 0.32217-0.06599 0.50733-0.06599 0.30011 0 0.37224 0.03578 0.66454 0.32953l0.32789 0.32953 0.31923-0.29573c0.17558-0.16265 0.42113-0.3251 0.54567-0.361 0.55632-0.16035 1.1877 0.32729 1.1877 0.91732 0 0.45925-0.12847 0.53589-0.93499 0.55781-0.09382 0.0025-0.18047 0.06633-0.20783 0.15296-0.02581 0.08172-0.13301 0.25141-0.23824 0.37709-0.1797 0.21464-0.19115 0.27547-0.18857 1.0021 0.0031 0.88425 0.04972 0.97911 0.58087 1.183 0.31176 0.11966 0.32944 0.11826 0.67199-0.05291 0.34434-0.17207 0.40955-0.25752 0.69956-0.91672 0.09581-0.21775 0.42816-0.36214 0.50836-0.28209 0.08021 0.08006 0.21468 0.33293 0.21468 0.55904 0 0.28542-0.35972 0.92638-0.66945 1.1928-0.64505 0.55491-1.5938 0.55889-2.1991 0.0092l-0.27787-0.2523-0.21156 0.22193c-0.22241 0.23331-0.78373 0.44303-1.1709 0.43747-0.12442-0.0018-0.35069-0.0479-0.50283-0.10246zm-3.2644-4.5544c-0.1976-0.08579-0.686-0.63303-0.77505-0.86844-0.10863-0.28716-0.08354-0.82505 0.05072-1.0878 0.1317-0.25775 0.47194-0.61404 0.56078-0.58723 0.03041 0.0091 0.0553-0.0126 0.0553-0.04841 0-0.13121 0.44965-0.24941 0.8147-0.21416 0.45103 0.04356 0.83142 0.32492 1.0866 0.80374 0.33502 0.62858 0.10772 1.3995-0.54315 1.8422-0.28648 0.19485-0.96861 0.28222-1.2499 0.16009zm0.79706-1.7091c0.11137-0.42803-0.20287-0.75172-0.56762-0.5847-0.3113 0.14255-0.32325 0.64755-0.01856 0.78489 0.20744 0.09351 0.53925-0.01981 0.58619-0.20019zm8.3 1.5682c-1.0913-0.57215-0.98942-2.079 0.17352-2.5672 0.55022-0.23099 1.0307-0.10439 1.4729 0.38805 0.86403 0.96234 0.2348 2.3833-1.0566 2.3861-0.10688 2.26e-4 -0.37228-0.0929-0.58978-0.20693zm0.73705-1.4601c0.12656-0.12051 0.15473-0.56412 0.04311-0.67898-0.1603-0.16496-0.50129-0.14763-0.67801 0.03446-0.45417 0.46798 0.16266 1.0942 0.63489 0.64452zm-4.8832-1.7443c-0.44154-0.11149-0.98068-0.4092-1.4126-0.78005-0.38024-0.32648-0.40225-0.33493-0.67438-0.25898-0.15472 0.04318-0.51532 0.0787-0.80133 0.07892-1.1305 8.98e-4 -2.0389-0.81694-2.3204-2.089-0.15587-0.70449 0.09841-1.6152 0.45098-1.6152 0.35127 0 0.43579 0.12346 0.43579 0.63663 0 0.26578 0.03663 0.62941 0.08138 0.80807 0.09625 0.38417 0.51681 0.90639 0.83884 1.0416 0.21798 0.09154 1.1451 0.23108 1.1431 0.17205-5.22e-4 -0.01545-0.06687-0.23945-0.14744-0.49777-0.19073-0.61151-0.19611-1.2775-0.01168-1.4452 0.15919-0.14478 0.48016-0.16129 0.58362-0.03001 0.04015 0.05094 0.131 0.27599 0.2019 0.50012 0.39676 1.2543 1.3811 2.0312 2.8504 2.2498 0.72606 0.10802 0.87582 0.20449 0.87141 0.5613-0.0028 0.22338-0.1069 0.37391-0.38416 0.55526-0.24027 0.15717-1.2616 0.2245-1.7054 0.11243zm2.9875-1.1093c-0.4897-0.22332-0.8894-0.57673-1.202-1.0628-0.29519-0.45901-0.35019-0.74211-0.1876-0.96558 0.17678-0.24297 0.49015-0.12567 0.82216 0.30774 0.36528 0.47684 0.55451 0.61258 1.025 0.73523 0.31401 0.08186 0.42984 0.07765 0.8328-0.03026 0.25744-0.06895 0.46806-0.15172 0.46806-0.18395 0-0.07727 0.30518-0.07326 0.42898 0.0056 0.12376 0.07887 0.1998 0.67669 0.08607 0.67669-0.04478 0-0.06365 0.02889-0.04195 0.06419 0.05665 0.09214-0.16633 0.27469-0.54815 0.44876-0.44742 0.20397-1.2411 0.206-1.6834 0.0043zm-19.671 25.066c0.024854-0.040419-0.049672-0.20354-0.16561-0.36249-0.42268-0.57949-0.55608-1.5067-0.33789-2.3485 0.13387-0.51654 0.51971-1.3032 0.66707-1.36 0.059299-0.02287 0.10782-0.08466 0.10782-0.13729 0-0.05264 0.2346-0.34817 0.52133-0.65674 1.3311-1.4325 2.5923-2.115 4.6647-2.5243 0.60921-0.12033 0.8308-0.19506 0.89044-0.30028 0.11263-0.19874 0.53734-0.86068 0.67012-1.0444 0.10257-0.14194 0.09633-0.17769-0.07521-0.43176-0.5528-0.81868-0.74137-1.4885-0.67251-2.3888 0.05465-0.71459 0.23071-1.2373 0.54632-1.6222l0.22211-0.27081-0.20571-0.30728c-0.5919-0.88416-0.58808-2.1553 0.01003-3.3225 0.04956-0.09675-0.03766-0.24113-0.37956-0.62822-0.33205-0.37594-0.50111-0.65162-0.67081-1.0939-0.21869-0.56993-0.22597-0.62613-0.20159-1.5575 0.01391-0.53142 0.05552-1.0134 0.09244-1.071 0.03693-0.05765 0.07483-0.20312 0.08424-0.32328 0.03488-0.44554 0.60137-1.4262 1.1826-2.0471l0.55758-0.59569-0.11639-0.40237c-0.24467-0.84585-0.10964-1.7674 0.35911-2.4509 0.29072-0.42392 0.34047-0.2978-0.50146-1.2714-1.4783-1.6512-2.2808-3.7071-2.9455-5.7835l-0.96017 0.65096c-1.2811 0.86853-2.1486 1.5964-3.2933 2.7634-3.225 3.2878-5.4009 7.3986-6.2589 11.824-0.31187 1.6088-0.41338 4.6099-0.22679 6.7053 0.35105 3.9424 1.8729 7.8527 4.3085 11.07 0.78991 1.0435 1.4949 1.8495 1.7599 2.0119l0.23315 0.14292 0.044451-0.39672c0.024448-0.2182 0.064786-0.42979 0.089641-0.47021zm36.991-3.223c0.998-1.651 1.5-2.9008 2.0219-4.3503 0.3482-0.96701 0.8936-3.2986 0.96322-4.1179 0.22444-1.73 0.23728-3.4842 0.10824-5.2235-0.31394-3.3752-1.228-6.2537-2.9764-9.3727-0.87066-1.5532-2.1131-3.1499-3.6609-4.7049-1.201-1.2065-1.9206-1.803-3.3506-2.7774l-0.73032-0.49764-0.09264 0.35943c-0.1855 0.71967-0.63796 1.9343-1.0201 2.7387-0.53098 1.1175-1.1336 2.0158-1.8635 2.7777-0.33577 0.35054-0.61049 0.67512-0.61049 0.72129 0 0.04617 0.09915 0.24588 0.22033 0.44382 0.12118 0.19794 0.27047 0.5027 0.33175 0.67726 0.13586 0.387 0.13982 1.4855 0.0067 1.8547l-0.09349 0.25932 0.48616 0.5315c0.9371 1.0245 1.3971 2.0912 1.4626 3.3917 0.06029 1.1975-0.22605 2.0679-0.94807 2.8817l-0.38409 0.43291 0.21053 0.41915c0.18699 0.3723 0.21387 0.51462 0.24045 1.2732 0.02756 0.78682 0.01484 0.89134-0.16161 1.3278-0.10534 0.26054-0.24268 0.53052-0.30521 0.59996-0.10333 0.11475-0.09648 0.1468 0.07513 0.35178 0.4209 0.50272 0.51762 0.85862 0.51762 1.9047 0 0.89922-0.01338 0.99057-0.20138 1.3753-0.11076 0.22666-0.31234 0.54112-0.44796 0.69879l-0.24658 0.28668 0.3935 0.5512c0.21642 0.30316 0.41201 0.62532 0.43463 0.7159 0.03617 0.1448 0.12732 0.17893 0.75483 0.2826 0.95338 0.1575 1.8277 0.44144 2.6204 0.85096 0.84946 0.43884 1.3464 0.82019 2.1208 1.6276 0.98091 1.0226 1.4528 2.1443 1.3694 3.2553-0.03903 0.5204-0.24176 1.1186-0.46195 1.3631-0.08587 0.09536-0.09879 0.23506-0.06025 0.65165l0.04904 0.53027c0.58347-0.38031 2.4164-2.6194 3.2281-4.0917zm-10.704-27.872c1.0513-1.7518 1.7467-3.9547 1.8971-6.0101 0.07501-1.0247-0.08515-2.9267-0.32756-3.8899-0.44814-1.7808-1.1997-3.2801-2.3188-4.626-0.5577-0.67071-0.82542-0.8782-0.49147-0.3809 0.33814 0.50355 0.7138 1.3657 1.0729 2.4626 1.1111 3.3936 1.1295 7.0973 0.05018 10.102-0.37363 1.04-0.55009 1.4155-0.93493 1.9894-0.1462 0.21804-0.26581 0.42774-0.26581 0.466 0 0.03826 0.11611 0.24285 0.25803 0.45464 0.14192 0.21179 0.25922 0.43553 0.26068 0.4972 4e-3 0.16797 0.28211-0.20237 0.79958-1.0646 1e-6 -1e-6 3e-6 1e-6 4e-6 0zm-17.94 0.83513c0.02716-0.086 0.16344-0.28325 0.30284-0.43833 0.14346-0.15959 0.2213-0.30192 0.17937-0.32797-0.20582-0.12784-0.9267-1.6088-1.2188-2.5039-0.46406-1.422-0.64077-2.3505-0.69448-3.6492-0.13424-3.246 0.28742-5.6247 1.4548-8.207 0.19451-0.43026 0.20681-0.4907 0.08675-0.42612-0.5236 0.28163-1.8144 2.4858-2.2788 3.8912-0.70468 2.1327-0.7905 4.8894-0.22094 7.0974 0.3765 1.4595 1.1364 3.2119 1.8498 4.266 0.33463 0.4944 0.45623 0.56155 0.53948 0.29793zm1.8265-1.6774 0.45718-0.27785-0.16831-0.4816c-0.58603-1.6769-0.85909-3.5499-0.80832-5.5443 0.03053-1.1993 0.0611-1.4769 0.22974-2.0872 0.10029-0.36291 0.57658-1.9877 1.1443-2.293 0.19654-0.10571 0.48905-0.098294 0.57852 0.014671 0.04545 0.057373 0.08997 1.6574 0.11703 4.2047 0.03864 3.6379 0.07496 4.4722 0.23814 5.4685 0.03766 0.22994 0.05643 0.24362 0.30499 0.22228 0.1727-0.01483 0.29305-0.07432 0.34587-0.17093 0.04455-0.0815 0.14988-0.24821 0.23406-0.37046 0.08418-0.12225 0.17623-0.28528 0.20456-0.36228 0.02833-0.077 0.08439-1.5274 0.12459-3.223 0.08102-3.4176 0.0015-6.9037-0.17542-7.6943-0.46525-2.0786-1.3692-2.6859-2.65-1.7806-0.44962 0.3178-1.183 1.5288-1.6277 2.6879-0.61833 1.6115-0.86362 3.1371-0.86355 5.371 6.5e-5 2.0661 0.25704 3.5481 0.86826 5.0074 0.26631 0.63578 0.81437 1.5868 0.91444 1.5868 0.04098 0 0.28024-0.12503 0.53169-0.27784zm14.458-0.36052c0.85127-1.6083 1.1947-3.0068 1.3111-5.3384 0.07251-1.4532 0.06703-1.7561-0.04746-2.6303-0.07116-0.54336-0.2314-1.0783-0.35064-1.84-0.11924-0.76168-0.90691-2.5806-1.0513-2.8535-0.58131-1.0988-1.3529-1.7526-2.0684-1.7526-0.77545 0-1.2788 0.64206-1.5887 2.0264-0.22805 1.0189-0.31517 4.392-0.21673 8.3911 0.04207 1.7089 0.08417 3.1117 0.09355 3.1174 0.0472 0.02846 1.1988 0.3175 1.2123 0.30428 0.04932-0.04842 0.16802-5.0412 0.1683-7.0796 3.19e-4 -2.3652 0.0029-2.4059 0.16062-2.5747 0.22776-0.24365 0.44934-0.21566 0.71687 0.090575 0.45382 0.51947 0.88159 1.6195 1.0819 2.7821 0.09483 0.55037 0.11284 1.0256 0.08539 2.2534-0.03906 1.7471-0.16745 2.6072-0.61058 4.0904-0.14359 0.48061-0.27839 0.93218-0.29954 1.0035-0.02116 0.07131-0.0017 0.12966 0.04314 0.12966 0.04488 0 0.25402 0.11669 0.46475 0.25932 0.21073 0.14263 0.42235 0.25932 0.47026 0.25932 0.04791 0 0.23916-0.28727 0.42501-0.63837zm-8.8129-2.0944c0.66674-0.50314 1.1864-0.63839 2.4529-0.63839 0.93701 0 1.0724-0.01473 1.0216-0.11114-0.03224-0.06113-0.11766-0.3979-0.18988-0.74838l-0.1313-0.63724-1.1114-0.04317c-1.0506-0.04081-3.0235 0.0286-3.1036 0.10919-0.02034 0.02044-0.11833 0.50329-0.21777 1.073-0.09943 0.56971-0.2021 1.0916-0.22814 1.1599-0.03966 0.10386 0.0049 0.12487 0.27385 0.12923 0.17666 0.0028 0.38756 0.03202 0.46865 0.06479 0.17315 0.06997 0.2394 0.03899 0.76515-0.35776z"/>
</svg>
