<svg version="1.1" viewBox="0 0 65 50" xmlns="http://www.w3.org/2000/svg">
    <!--
        Matrix Logo (c) Matrix Foundation
        Gematik Logo (c) Gematik
        SVG (c) justJanne
    -->
    <defs>
        <linearGradient id="black"><stop stop-color="#000000"/></linearGradient>
        <linearGradient id="white"><stop stop-color="#ffffff"/></linearGradient>
        <linearGradient id="red"><stop stop-color="#e10000"/></linearGradient>
        <linearGradient id="gold"><stop stop-color="#ffcc00"/></linearGradient>
    </defs>
    <path fill="url(#white)"
        d="m43.3 0-21.7 12.5v25l21.7 12.5 21.7-12.5v-25z"/>
    <path fill="url(#black)"
        d="m63 36.3-19.6 11.3-19.6-11.3v-22.7l19.6-11.3 19.6 11.3z"/>
    <path fill="url(#white)"
        d="m25.4 17.3v15.4h1.46v-0.352h-1.05v-14.7h1.05v-0.352zm34.5 0v0.352h1.06v14.7h-1.06v0.352h1.46v-15.4zm-8.59 2.91v1.24h1.5v-1.24zm-7.49 0.446v1.64h-0.912v1.01h0.912v3.24c0 0.276 0.046 0.499 0.138 0.669 0.0918 0.17 0.217 0.3 0.376 0.392 0.159 0.0921 0.343 0.154 0.551 0.186 0.208 0.0319 0.429 0.0481 0.662 0.0481 0.148 0 0.3-0.0035 0.456-0.0103 0.155-0.0072 0.297-0.0211 0.424-0.0424v-1.17c-0.0706 0.0141-0.145 0.0246-0.222 0.0315-0.0778 0.0071-0.159 0.0108-0.244 0.0108-0.254 0-0.424-0.0427-0.508-0.128-0.0848-0.0848-0.127-0.254-0.127-0.509v-2.72h1.1v-1.01h-1.1v-1.64zm-12.3 1.5c-0.36 0-0.68 0.0782-0.959 0.234-0.279 0.156-0.518 0.375-0.716 0.658h-0.0207v-0.743h-1.42v5.49h1.5v-3.18c0-0.269 0.0385-0.486 0.116-0.653 0.0777-0.166 0.171-0.293 0.281-0.382 0.109-0.0883 0.222-0.149 0.339-0.18 0.116-0.0319 0.21-0.0481 0.281-0.0481 0.24 0 0.422 0.0409 0.546 0.122 0.124 0.0815 0.212 0.19 0.265 0.324 0.0531 0.135 0.0827 0.281 0.0899 0.44 0.0068 0.159 0.0108 0.32 0.0108 0.483v3.08h1.5v-3.06c0-0.17 0.0124-0.338 0.0372-0.504 0.0247-0.166 0.0742-0.314 0.148-0.445 0.0741-0.131 0.177-0.237 0.307-0.319 0.131-0.0811 0.302-0.122 0.514-0.122s0.38 0.036 0.504 0.106c0.123 0.0708 0.217 0.166 0.281 0.286 0.0636 0.12 0.102 0.262 0.116 0.424 0.0142 0.163 0.0217 0.337 0.0217 0.52v3.11h1.5v-3.67c0-0.354-0.05-0.657-0.149-0.908-0.0991-0.251-0.236-0.454-0.413-0.61s-0.389-0.269-0.636-0.34c-0.247-0.0707-0.515-0.106-0.805-0.106-0.382 0-0.712 0.0921-0.991 0.276-0.279 0.184-0.5 0.396-0.662 0.637-0.148-0.34-0.365-0.577-0.652-0.711-0.286-0.134-0.603-0.202-0.949-0.202zm8.53 0c-0.304 0-0.606 0.0304-0.906 0.0904-0.3 0.0602-0.57 0.161-0.81 0.302-0.24 0.142-0.438 0.329-0.594 0.563-0.156 0.233-0.244 0.527-0.265 0.881h1.5c0.0281-0.297 0.127-0.509 0.297-0.637 0.17-0.127 0.402-0.191 0.699-0.191 0.134 0 0.26 0.0089 0.376 0.0264 0.116 0.0178 0.219 0.0534 0.307 0.106 0.0882 0.053 0.159 0.127 0.212 0.223 0.053 0.0955 0.0796 0.225 0.0796 0.388 0.0069 0.156-0.0392 0.274-0.138 0.356-0.099 0.0814-0.233 0.143-0.403 0.186-0.17 0.0424-0.364 0.0743-0.583 0.0956-0.219 0.0212-0.442 0.0495-0.668 0.0848-0.226 0.0356-0.45 0.0831-0.673 0.143-0.223 0.0601-0.42 0.151-0.593 0.271s-0.315 0.281-0.424 0.483c-0.11 0.201-0.164 0.458-0.164 0.769 0 0.283 0.0478 0.527 0.143 0.732 0.0954 0.205 0.228 0.375 0.397 0.509 0.17 0.135 0.367 0.234 0.593 0.298 0.226 0.0636 0.47 0.0951 0.732 0.0951 0.339 0 0.671-0.0495 0.996-0.148 0.325-0.0991 0.608-0.272 0.848-0.52 0.0069 0.092 0.0189 0.182 0.0367 0.27 0.0176 0.0885 0.0409 0.175 0.0692 0.26h1.53c-0.0707-0.113-0.12-0.282-0.148-0.509-0.0283-0.226-0.0424-0.463-0.0424-0.711v-2.85c0-0.333-0.0738-0.6-0.222-0.801-0.148-0.202-0.339-0.359-0.573-0.472-0.233-0.113-0.491-0.189-0.774-0.228-0.283-0.0388-0.562-0.0584-0.837-0.0584zm10.3 0c-0.191 0-0.374 0.0282-0.551 0.0848-0.177 0.0568-0.343 0.136-0.498 0.239s-0.293 0.227-0.413 0.372-0.215 0.302-0.286 0.472h-0.0212v-1.02h-1.43v5.49h1.5v-2.47c0-0.248 0.025-0.478 0.0744-0.69s0.133-0.398 0.249-0.557c0.117-0.159 0.27-0.285 0.461-0.377 0.191-0.0919 0.424-0.138 0.699-0.138 0.0918 0 0.187 0.0054 0.286 0.016 0.0988 0.0105 0.184 0.023 0.254 0.0372v-1.4c-0.12-0.0353-0.23-0.0532-0.329-0.0532zm0.964 0.149v5.49h1.5v-5.49zm2.29 0 1.8 2.6-1.97 2.89h1.68l1.14-1.73 1.14 1.73h1.72l-2.02-2.92 1.8-2.57h-1.66l-0.954 1.43-0.964-1.43zm-12.6 2.8v0.563c0 0.0849-0.0094 0.198-0.0269 0.34-0.0177 0.142-0.065 0.281-0.143 0.419-0.0778 0.138-0.198 0.257-0.361 0.356-0.163 0.0992-0.392 0.148-0.689 0.148-0.12 0-0.236-0.0108-0.349-0.032-0.113-0.0211-0.212-0.0581-0.297-0.111-0.0847-0.053-0.152-0.125-0.202-0.218-0.0495-0.0918-0.0744-0.205-0.0744-0.34 0-0.141 0.0249-0.258 0.0744-0.35 0.0494-0.0918 0.114-0.168 0.196-0.228 0.0811-0.0601 0.177-0.108 0.286-0.144 0.109-0.0352 0.221-0.0637 0.334-0.0848 0.12-0.0212 0.24-0.0389 0.36-0.0532 0.12-0.0141 0.235-0.0315 0.345-0.0527 0.109-0.0213 0.212-0.0478 0.307-0.0796 0.0954-0.0319 0.175-0.076 0.239-0.133z"/>
    <path fill="url(#black)"
        d="m23.8 20.1v9.62h0.385v-1.35c0.111 0.01 0.215 0.0407 0.328 0.041 0.92 0.0276 1.82-0.277 2.53-0.861 0.335-0.274 0.414-0.763 0.188-1.13l-0.00195-0.00195-0.268-0.428c0.272-0.134 0.588-0.254 0.609-0.57 0.0078-0.117 0.0195-0.273 0.0195-0.443v-0.00195c-2.48e-4 -0.916-0.299-1.75-0.867-2.35l-0.00195-0.00195c-0.569-0.601-1.38-0.928-2.26-0.928-0.0965 0-0.183 0.0294-0.277 0.0371v-1.63h-0.379z"/>
    <path fill="url(#white)"
        d="m6.3 20.6c-0.995 0-2.18 0.717-2.32 2.08-1.02 0.162-1.87 0.925-1.98 2.05-2.9 0.459-2.46 4.64 0.335 4.64h12.6c0.74 1.72 2.91 1.9 3.81 1.9 2.18 0 3.33-0.937 3.92-2.06h1.02v-1.41c0.267 0.0708 0.549 0.108 0.841 0.108 0.801 0.025 1.58-0.241 2.2-0.75 0.143-0.117 0.176-0.322 0.0787-0.479l-0.518-0.827c-0.0511-0.0627-0.122-0.107-0.2-0.125h0.617c0.194-5.5e-5 0.354-0.151 0.367-0.344 0.0079-0.118 0.0182-0.264 0.0182-0.411v-7.86e-4c-2.19e-4 -0.809-0.26-1.51-0.731-2.01-0.47-0.496-1.14-0.772-1.9-0.772-0.271 0-0.532 0.036-0.778 0.102v-1.7z"/>
    <path fill="url(#black)"
        d="m24.5 22.6c-1.41 0-2.44 0.986-2.44 2.45 0 1.58 1.08 2.53 2.51 2.53 0.713 0.0231 1.41-0.214 1.96-0.667l-0.518-0.827c-0.362 0.378-0.861 0.594-1.38 0.598-0.697 0-1.41-0.348-1.5-1.29h3.62c0.0079-0.118 0.017-0.257 0.017-0.387l4.9e-4 9.41e-4c0-1.46-0.926-2.41-2.26-2.41zm-5.27 9.42e-4c-1.72 0-2.74 0.997-2.74 2.5 0 1.43 0.967 2.38 2.35 2.38 0.398 0 0.617-0.189 0.617-0.508 0-0.299-0.219-0.469-0.617-0.469-0.767 0-1.31-0.548-1.31-1.41 0-0.926 0.588-1.52 1.63-1.52 0.339 0 0.827 0.0898 1.11 0.359l-0.0106 3.49c0 0.737-0.667 1.08-1.49 1.08-0.479-0.0039-0.947-0.138-1.36-0.389-0.408-0.2-0.807-0.0106-0.807 0.378 0 0.658 1.19 0.986 2.17 0.986 1.45 0 2.58-0.637 2.58-2.05v-4.03c-0.617-0.627-1.53-0.787-2.13-0.787zm5.25 0.907c0.667 0 1.1 0.388 1.21 1.11h-2.54c0.0916-0.654 0.665-1.13 1.33-1.11z"/>
    <path fill="url(#black)"
        d="m11.9 23.5h-5.66a0.496 0.496 0 0 1 0-0.993h5.66a0.496 0.496 0 0 1 0 0.993z"/>
    <path fill="url(#red)"
        d="m11.9 25.5h-7.65a0.496 0.496 0 0 1 0-0.993h7.65a0.496 0.496 0 0 1 0 0.993z"/>
    <path fill="url(#gold)"
        d="m11.9 27.6h-9.63a0.496 0.496 0 0 1 0-0.993h9.63a0.496 0.496 0 0 1 0 0.993z"/>
</svg>
