<svg version="1.1" viewBox="0 0 52 26.2" xmlns="http://www.w3.org/2000/svg">
    <!--
        Git Logo (c) Software Freedom Conservancy
        Chaotic Branch Pattern (c) Scott Chacon
        Idea & SVG (c) justJanne
    -->
    <defs>
        <linearGradient id="white"><stop stop-color="#ffffff"/></linearGradient>
        <linearGradient id="gitBrown"><stop stop-color="#362701"/></linearGradient>
        <linearGradient id="gitOrange"><stop stop-color="#f03c2e"/></linearGradient>
    </defs>
    <path fill="url(#white)"
        d="m35.68 0c-0.6863 0-1.373 0.1999-1.871 0.6816-0.498 0.4817-0.723 1.179-0.723 1.877 1e-6 0.6983 0.2201 1.394 0.7111 1.885l1e-3 0.1292h-12.56c-0.1489 0-0.1416-0.01198-0.1163-0.00207-0.0093-0.00887-0.0044-0.00418-0.02842-0.02739l-1.004-0.9705c-0.0019-0.00138-0.0038-0.00276-0.0057-0.00413-0.5875-0.5582-1.548-1.174-2.834-1.375-0.9712-0.152-2.099 0.1164-3.201 0.709l-2.244-2.244c-0.4246-0.4247-0.9926-0.6429-1.552-0.6429-0.5597 0-1.126 0.2181-1.551 0.6429l-8.065 8.063c-0.8495 0.849-0.8495 2.256 0 3.105l8.102 8.1c0.5551 0.5553 1.311 0.6107 2.029 0.4392 0.4684 0.4696 1.041 1.041 1.041 1.041v0.0016c0.09232 0.09186 0.3551 0.261 0.5095 0.3147 0.1544 0.05375 0.2707 0.07909 0.4728 0.1287 0.3936 0.09653 1.052 0.2485 1.641 0.3731 0.1777 0.03758 0.3229 0.08154 0.5741 0.08992 0.2513 0.0084 0.6887-0.1115 0.9317-0.3318 0.2723-0.2467 0.413-0.6733 0.4217-0.9379 0.0086-0.2638-0.03313-0.4363-0.07028-0.6191v-0.0016c-0.1188-0.587-0.2653-1.152-0.4062-1.7v-0.002067c-0.05272-0.2034-0.07186-0.3009-0.1271-0.4548-0.05526-0.1538-0.2364-0.4108-0.2749-0.4532-0.0058-0.0066-0.01163-0.01317-0.01757-0.01964-3.7e-5 -3.8e-5 -0.4014-0.3966-0.7483-0.7421l1.252-1.25h1.391l1.928 1.914c-0.0072 0.0634-0.03063 0.0593-0.03101 0.1328-3e-6 0.0014-3e-6 0.0028 0 0.0041v0.0015c-2.65e-4 1.339 1.104 2.444 2.443 2.444h0.0021c0.0012 2e-6 0.0024 2e-6 0.0036 0 0.0793-3.89e-4 0.0769-0.02539 0.1447-0.03359l1.295 1.285c-0.3057 0.521-0.647 0.9809-0.8144 1.74-0.01607 0.07247-0.02264 0.1447-0.02274 0.216h6.824l0.0098-3.4e-5c0.9965-0.1504 1.967-0.7231 2.856-1.576l1.074-1.029 2.623 2.625c-5e-3 0.06306-0.03513 0.1177-0.03514 0.1819-2.63e-4 1.339 1.102 2.441 2.441 2.441 1.339-8.1e-5 2.444-1.102 2.443-2.441-8.1e-5 -1.339-1.104-2.443-2.443-2.443-0.07883 5e-6 -0.1455 0.039-0.2227 0.04651-0.8671-0.8675-1.734-1.731-2.596-2.598l2.916-2.912h3.879c2.242 0 3.796-0.709 4.053-0.9648l1.015 1.018c-0.0052 0.06393-0.03515 0.1182-0.03514 0.1835 8.1e-5 1.339 1.104 2.444 2.443 2.444 1.339-8.1e-5 2.442-1.106 2.442-2.444 2.63e-4 -1.338-1.103-2.443-2.442-2.443-0.06603 4e-6 -0.1209 0.0298-0.1855 0.03514l-0.5173-0.5173-1.75-1.754-0.0021-0.0021c-0.0012-0.0014-0.0024-0.0028-0.0036-0.0041-1.03-1.019-2.385-1.46-3.762-1.599v-1.601h1.64c0.5524 1.961e-4 1-0.4475 1-0.9999v-1.771c2.52e-4 -0.5526-0.4478-1.001-1-1h-1.64v-1.693c-8.9e-5 -0.5524-0.448-1-1-0.9999h-4.175c-0.1157-0.3792-0.3035-0.7313-0.5922-1.008-0.5022-0.4817-1.193-0.6795-1.885-0.6795z"/>
    <path fill="url(#gitBrown)"
        d="m35.68 0.9999c-1.01 0-1.595 0.5499-1.595 1.559 0 1.011 0.5847 1.595 1.595 1.595 1.028 0 1.613-0.5839 1.613-1.595 0-1.009-0.5847-1.559-1.613-1.559zm4.969 1.687c-0.1948 1.931-0.8142 2.711-2.375 2.889v1.577h1.24c0.1425 0 0.1426 0.07005 0.1426 0.1767v4.642c0 2.003 0.7969 2.853 2.905 2.853 1.011 0 2.126-0.3369 2.888-0.7085l-0.4785-1.559c-0.4249 0.159-0.9384 0.2827-1.435 0.2827-0.9569 0-1.205-0.407-1.205-1.453v-4.234h2.64v-1.773h-2.498c-0.1415 0-0.1416-0.05275-0.1416-0.1767v-2.517h-1.684zm-13.17 2.88c-2.182 0-3.479 0.9071-3.903 2.323-0.1026 0.3432-0.1545 0.7157-0.1545 1.113 0 1.311 0.6557 2.233 1.523 2.658-0.4255 0.3897-0.7793 0.7267-1.098 1.063-0.02825 0.0298-0.05438 0.05984-0.08062 0.08992-0.2706 0.3103-0.433 0.6359-0.433 0.9912 0 0.4788 0.194 0.9219 0.7793 1.168-0.6203 0.5859-0.9746 1.01-0.9746 1.808 0 1.4 1.223 2.215 4.429 2.215 3.083 0 4.873-1.151 4.873-3.189 0-2.355-1.807-2.445-4.873-2.64l-1.736-0.1059 0.154-0.247 0.4305-0.6925c0.2452 0.06838 0.6062 0.1253 1.018 0.1483 0.1239 0.0069 0.2515 0.01188 0.3829 0.01188 2.232 0 3.774-1.152 3.774-3.118 0-0.8152-0.3376-1.382-0.6558-1.79l1.63-0.124v-1.505h-3.456c-0.408-0.1075-0.8686-0.1778-1.63-0.1778zm6.112 0.005168-0.1948 1.435 0.9565 0.3369c0.1773 0.05253 0.2305 0.1775 0.2305 0.3716v5.208c0 0.2665-0.03553 0.3199-0.2837 0.3555l-0.9033 0.1235v1.4h2.565 2.485v-1.399l-0.9033-0.1235c-0.2665-0.03583-0.2837-0.07072-0.2837-0.3555v-0.8351-6.517h-3.668zm-5.953 1.749c1.01 0 1.613 0.5492 1.613 1.594 0 0.9224-0.6739 1.506-1.666 1.506-0.05267 0-0.102-0.002768-0.1519-0.005168-1.058-0.05118-1.496-0.6366-1.496-1.465 0-0.4552 0.1148-0.804 0.3121-1.061 0.3019-0.3931 0.7989-0.5695 1.388-0.5695zm-1.948 8.133 2.586 0.1762c0.851 0.05334 1.524 0.08819 1.524 0.6568 0 0.955-1.399 1.027-2.428 1.027-1.24 0-2.143-0.2129-2.143-0.9214 0-0.3546 0.2298-0.6555 0.4604-0.9384z"/>
    <path fill="url(#gitOrange)"
        d="m10.25 1.015c-0.3058 0-0.6116 0.1165-0.8449 0.3498l-1.698 1.698-0.0031-0.0031-0.1984 0.2052-0.00207 0.00155 1.658 1.612c1.37 1.149 3.357 0.8127 4.589-0.3467 2.337-2.035 4.64-0.7931 5.444-0.02894l0.6677 0.6341 0.04031 0.03979-0.1835 0.184-0.1835 0.1835-0.7431-0.7142c-1.357-1.269-3.479-1.02-4.779 0.1809-1.057 0.8935-2.321 1.332-3.707 1.028l10.82 10.81c0.1723-0.09809 0.3671-0.1499 0.5653-0.1509 0.6374 3.8e-5 1.154 0.5166 1.154 1.154-8.08e-4 0.1981-0.05254 0.3926-0.1504 0.5648l1.94 1.939c0.1554 0.1553 0.3029 0.3189 0.4878 0.4403l2.416-2.416 2.416-2.416-8.205-8.205 0.1804-0.1809 0.1809-0.1804 0.7292 0.694c0.658 0.6264 0.7673 0.7144 1.127 0.8971 0.7475 0.3798 1.749 0.4772 2.511 0.2449 0.9164-0.2792 1.797-1.11 2.043-1.357 1.526-1.526 3.737-0.8716 4.852 0.2439 1.289 1.289 1.679 3.407 0.1059 5.022l-2.749 2.822 2.329 2.329 6.179-6.083c1.816-1.788 5.107-1.76 6.944 0.05788l2.564 2.57c-0.1587 0.1063-0.2954 0.2427-0.4015 0.4015l-2.617-2.623c-0.855-0.8499-2.05-1.197-3.204-1.161-1.154 0.03666-2.265 0.4573-2.954 1.146l-6.106 6.1 0.7906 0.8113c1.001 1.008 2.007 2.011 3.011 3.016-0.1458 0.103-0.2723 0.2313-0.3716 0.3798l-3.007-3.006c-0.4298-0.4298-0.8043-0.7809-0.831-0.7813l-1.959 1.878c-1.478 1.417-3.369 1.358-4.883 0.987l1.519 1.519h0.4077l-1.182-1.182c1.418 0.211 3.018 0.1527 4.339-1.115l1.77-1.698c0.02051 0.01896 0.03203 0.02878 0.05529 0.05064 0.1475 0.1386 0.3471 0.3321 0.5602 0.5452l3.07 3.071c-0.0655 0.1643-0.1023 0.3428-0.1023 0.5297-1.56e-4 0.7935 0.6493 1.443 1.443 1.443 0.7935-4.8e-5 1.443-0.6493 1.443-1.443-4.8e-5 -0.7933-0.6495-1.443-1.443-1.443-0.201 1.2e-5 -0.3926 0.04213-0.5669 0.1173-1.022-1.024-2.046-2.044-3.065-3.069l-0.0021-0.0026-0.5907-0.6051 5.904-5.898c0.6207-0.6202 1.671-1.027 2.761-1.061 1.089-0.03461 2.204 0.2946 2.992 1.077l2.68 2.687c-0.06526 0.1641-0.1024 0.342-0.1023 0.5286 4.8e-5 0.7933 0.6495 1.443 1.443 1.443 0.7933-4.8e-5 1.442-0.6495 1.442-1.443 1.56e-4 -0.7935-0.6483-1.443-1.442-1.443-0.1872 1.1e-5 -0.3657 0.03772-0.5302 0.1034l-0.879-0.88-1.75-1.753-1e-3 -1e-3c-1.958-1.938-5.407-1.97-7.349-0.05893l-5.975 5.883-0.9627-0.9612-0.9622-0.9627 2.55-2.618c0.8387-0.861 1.168-1.885 1.101-2.854-0.06724-0.9696-0.52-1.883-1.21-2.573-0.6052-0.6052-1.485-1.073-2.439-1.195-0.9545-0.1215-1.994 0.1238-2.822 0.9508-0.2333 0.2333-1.11 1.038-1.923 1.285-0.6734 0.2051-1.624 0.1153-2.297-0.2263-0.3476-0.1766-0.4032-0.2244-1.059-0.849l-0.9333-0.8878-0.3788 0.3798-0.3845 0.384 4.307 4.307 3.898 3.899-4.435 4.436c-0.08789-0.07932-0.1714-0.1482-0.2713-0.248l-1.831-1.829c0.05526-0.1538 0.1243-0.3051 0.1251-0.4697v-0.0016c-4.9e-5 -0.7933-0.6495-1.443-1.443-1.443h-1e-3c-0.1644 8.66e-4 -0.3151 0.07138-0.4687 0.1266l-3.707-3.704 1.679-1.679c0.4668-0.4669 0.4668-1.224 0-1.691l-4.569-4.568c1.2-0.8123 2.868-0.8861 3.968 0.1426l0.9446 0.9069 0.3834-0.3829 0.3891-0.3896-0.2496-0.2449-0.6697-0.6367c-0.4454-0.423-1.26-0.9476-2.301-1.111-0.965-0.151-2.121 0.04183-3.261 0.9193l-2.737-2.737c-0.2333-0.2334-0.5391-0.3498-0.8449-0.3498zm-3.009 2.513-0.2031 0.2046 0.2041-0.2036v-5.167e-4zm-0.2031 0.2046-0.05581 0.05581-5.64 5.64c-0.4669 0.4666-0.4669 1.224 0 1.69l8.101 8.101c0.4666 0.4667 1.223 0.4667 1.69 0l0.6522-0.6516 1.208 1.208-0.1468 0.1468c-0.09912 0.09912-0.1867 0.1914-0.2522 0.2636-0.03276 0.0361-0.06014 0.06619-0.08372 0.09612-0.01179 0.01496-0.02156 0.02765-0.03721 0.05374-0.0078 0.01305-0.01768 0.02725-0.03049 0.06666-0.0032 0.0099-7e-3 0.022-0.0098 0.03721-0.0029 0.01521-0.0047 0.05705-0.0047 0.05736 4e-6 4.07e-4 0.01541 0.09226 0.0155 0.0925 8e-5 2.03e-4 0.06909 0.1089 0.06925 0.109 2.03e-4 2.04e-4 0.03975 0.03438 0.05168 0.04186 0.01193 0.0075 0.01988 0.01257 0.02687 0.01602 0.01397 0.0069 0.02266 0.0089 0.03049 0.01188 0.01566 0.0061 0.02745 0.01094 0.04031 0.01499 0.02572 0.0081 0.0553 0.01634 0.09043 0.02584 0.07027 0.01899 0.1637 0.04248 0.2749 0.06976 0.2224 0.05455 0.5138 0.1231 0.8051 0.1897 0.2913 0.06652 0.5821 0.1307 0.8046 0.1778 0.1113 0.02353 0.2044 0.04216 0.2749 0.05529 0.03527 0.0066 0.06492 0.01225 0.09147 0.01602 0.01327 0.0018 0.02493 0.0028 0.04289 0.0041 9e-3 6.35e-4 0.01956 0.0022 0.03824 0.0015 0.0093-4.07e-4 0.01987-0.0016 0.03824-0.0047 0.0092-0.0016 0.03492-0.0082 0.03514-0.0083 2.04e-4 -6.3e-5 0.05225-0.02138 0.05426-0.02222 4.07e-4 -1.91e-4 0.1041-0.09413 0.1044-0.09457 2.04e-4 -4.06e-4 0.02904-0.05079 0.03514-0.06873 0.01222-0.03589 0.01348-0.05647 0.01499-0.07235 3e-3 -0.03175 0.0015-0.04754 5.17e-4 -0.06408-2e-3 -0.03307-0.0056-0.06217-0.01085-0.09715-0.01054-0.06995-0.02804-0.1594-0.05013-0.2682-0.04418-0.2176-0.1089-0.5096-0.1866-0.8284-0.07719-0.3169-0.1511-0.6071-0.2067-0.8217-0.0278-0.1073-0.05074-0.196-0.06873-0.2604-9e-3 -0.03221-0.01674-0.05772-0.02377-0.0801-0.0035-0.0112-0.0059-0.02031-0.01085-0.03359-0.0025-0.0066-0.0054-0.01475-0.01137-0.02739-0.0029-0.0063-0.0069-0.0138-0.01395-0.02584-0.0035-6e-3 -0.01435-0.02205-0.01447-0.02222-1.2e-4 -1.67e-4 -0.03142-0.03606-0.03152-0.03617-2.02e-4 -2.02e-4 -0.09119-0.06189-0.09147-0.06201-2.04e-4 -1.2e-4 -0.08181-0.02269-0.08216-0.02274-4.07e-4 -3.9e-5 -0.04339-0.0014-0.05943 0s-0.02829 0.0041-0.03927 0.0067c-0.04393 0.01014-0.06159 0.02036-0.077 0.02842-0.03083 0.01612-0.04603 0.02784-0.06304 0.04031-0.03404 0.02494-0.06767 0.05247-0.107 0.08682-0.07861 0.0687-0.1766 0.1616-0.2822 0.2672l-0.1659 0.1659-1.208-1.209 4.092-4.092 3.719 3.696c-0.05332 0.1512-0.1206 0.2995-0.1214 0.461v1e-3c-1.57e-4 0.7935 0.6488 1.443 1.442 1.443h0.0015c0.1647-8.08e-4 0.3159-0.0697 0.4697-0.1251l2.154 2.14c-0.3786 0.4578-0.8006 1.214-1.016 2.194h0.2853c0.2445-1.055 0.7643-1.897 1.101-2.233l-2.429-2.414c-0.1722 0.09794-0.3667 0.1499-0.5648 0.1509-0.6375-3.9e-5 -1.155-0.517-1.154-1.154 1e-3 -0.1956 0.05218-0.3875 0.1478-0.5581zm13.7 1.321c-0.04062 0.00197-0.106-2.528e-4 -0.1964 0.05064-0.09081 0.05117-0.1545 0.1577-0.1747 0.23-0.04035 0.1446-0.02795 0.2459-0.02687 0.4542 4.08e-4 0.08379-0.0032 0.1525-0.0067 0.2196-0.0671 0.00338-0.1355 0.00716-0.2191 0.00672-0.1563-8.137e-4 -0.2583-0.00245-0.3545 0.00827-0.04811 0.00536-0.09744 0.01282-0.1581 0.03927-0.06069 0.02645-0.1343 0.0864-0.1726 0.1545-0.04916 0.08774-0.04872 0.1551-0.05064 0.1959-0.0031 0.06202 0.0018 0.1189 0.01395 0.1762 0.01207 0.05735 6e-3 0.1119 0.1059 0.2119 0.07698 0.07692 0.1088 0.07169 0.1359 0.0801 0.02707 0.0084 0.04809 0.01175 0.06925 0.0155 0.04232 0.00751 0.08434 0.01199 0.1338 0.01602 0.09901 0.00807 0.2205 0.01308 0.3493 0.0124l0.1535-0.00155v0.1679c0.0012 0.2416-0.0043 0.3981 0.08578 0.5772 0.04504 0.08959 0.1533 0.1937 0.277 0.2186 0.1237 0.02494 0.2171-0.00797 0.292-0.04134 0.1081-0.04812 0.1547-0.1298 0.1814-0.1886 0.02664-0.05878 0.03806-0.11 0.04754-0.1654 0.01895-0.1106 0.02511-0.2376 0.02584-0.4015l1e-3 -0.1669 0.1545 0.00155c0.2347 0.00121 0.3821 0.01096 0.5571-0.0677 0.08748-0.03933 0.1884-0.1343 0.2243-0.2434 0.0359-0.1091 0.02028-0.1974 0.0041-0.2687-0.01378-0.0603-0.05572-0.1497-0.124-0.2083-0.0683-0.05851-0.1398-0.08109-0.2015-0.09457-0.1234-0.02696-0.2437-0.02652-0.4418-0.02739l-0.1747-0.00103 1e-3 -0.1519c6.34e-4 -0.1288-0.0028-0.2509-0.01085-0.3498-4e-3 -0.04949-0.0085-0.09255-0.01602-0.1349-0.0038-0.02116-0.0087-0.04165-0.01705-0.06873-0.0084-0.02708-0.0033-0.05843-0.0801-0.1354-0.1003-0.1004-0.1534-0.09382-0.2108-0.1059-0.05376-0.01134-0.1076-0.01446-0.1654-0.0124-0.0035 1.265e-4 -0.0068-0.0012-0.01034-0.00103-3.87e-4 1.98e-5 -6.42e-4 -2.04e-5 -1e-3 0zm0.0155 0.2878c0.06986-0.0036 0.1456 0.01221 0.1685 0.03514 0.02291 0.02294 0.04043 0.2404 0.03927 0.4832l-0.0021 0.4413 0.4635 0.00207c0.3878 0.00169 0.4669 0.01893 0.4868 0.1065 0.04234 0.1862-0.05165 0.2282-0.5028 0.2258l-0.4434-0.00207-0.0021 0.4558c-0.0014 0.3118-0.02802 0.468-0.08423 0.493-0.1873 0.08347-0.2457-0.03361-0.248-0.4925l-0.0026-0.4563-0.4413 0.00207c-0.2428 0.00126-0.4603-0.01638-0.4832-0.03927-0.02297-0.02298-0.0386-0.09844-0.03514-0.1685 0.0014-0.02981 0.0039-0.05242 0.01395-0.06976 0.02942-0.05233 0.1222-0.05639 0.432-0.05478 0.2418 0.00126 0.4575-0.01562 0.479-0.03721 0.02158-0.02155 0.03785-0.2368 0.03669-0.4785-0.0021-0.4131 0.0057-0.44 0.1251-0.446zm9.813 2.215c-0.5786 0.0227-1.165 0.2291-1.664 0.7276-0.5536 0.5047-1.123 1.024-1.817 1.324-0.5742 0.2496-1.409 0.3629-2.029 0.2749-0.2075-0.02944-0.4062-0.05603-0.4418-0.05891-0.03571-0.00306 1.236 1.296 2.827 2.887l2.892 2.892 2.751-2.791c1.191-1.209 1.02-3.19-0.1349-4.344-0.4771-0.4771-1.419-0.9489-2.384-0.9111zm0.01085 0.2878h5.17e-4c0.863-0.03367 1.758 0.4174 2.168 0.8273 1.048 1.048 1.204 2.85 0.1328 3.937l-2.546 2.585-2.686-2.688c-0.7948-0.7948-1.511-1.516-2.022-2.039-0.1398-0.1428-0.2199-0.2267-0.3266-0.3369 0.6323 0.03794 1.346-0.01608 1.902-0.2579 0.7519-0.3253 1.343-0.8707 1.896-1.375l0.0057-0.00465 0.0047-0.00465c0.4464-0.4465 0.9529-0.6235 1.471-0.6439zm-24.77 2.78c0.6374 9e-6 1.154 0.5171 1.154 1.154 1.08e-5 0.2216-0.06352 0.4385-0.1835 0.6248l7.001 7.003 0.37-0.37c0.2033-0.2033 0.3809-0.3575 0.3938-0.3447 0.01338 0.01338 0.15 0.541 0.3039 1.173 0.1538 0.6315 0.2607 1.158 0.2377 1.17-0.03877 0.02089-2.322-0.5006-2.36-0.539-0.0102-0.0102 0.1407-0.1753 0.3338-0.3685l0.3514-0.3509-7.009-7.009c-0.1788 0.108-0.3838 0.1662-0.5927 0.1664-0.6375 4.93e-4 -1.154-0.517-1.154-1.154 1.089e-4 -0.5961 0.485-1.154 1.154-1.154zm43.75 4.55c0.4815 2.9e-5 0.8646 0.384 0.8645 0.8656-2.9e-5 0.4815-0.3831 0.8656-0.8645 0.8656-0.4815-3e-5 -0.8656-0.3841-0.8656-0.8656-9.5e-5 -0.4815 0.384-0.8656 0.8656-0.8656zm-19.22 1.213c-0.04015 0-1.213 1.158-2.375 2.324-1.161 1.166-2.311 2.34-2.303 2.373 0.05525 0.2178 3.067 1.468 5.032-0.4527l1.972-1.928-1.138-1.159c-0.6265-0.6367-1.161-1.158-1.189-1.158zm0 0.385c0.0516 0.04887 0.0983 0.09233 0.169 0.1612 0.2132 0.2079 0.5028 0.4967 0.8149 0.8139l0.9353 0.9514-1.766 1.727c-0.9074 0.8867-2.052 1.041-3.003 0.9472-0.4753-0.04705-0.8967-0.1583-1.195-0.2677-0.0839-0.03079-0.1299-0.05591-0.1917-0.08423 0.121-0.1283 0.279-0.2916 0.478-0.4961 0.4303-0.4421 1.008-1.027 1.588-1.609 0.58-0.5825 1.163-1.163 1.605-1.597 0.2211-0.217 0.4076-0.3974 0.539-0.5219 0.01112-0.01054 0.01551-0.01403 0.02584-0.02377zm-5.282 4.921c-0.4286 0.4286-0.7666 1.077-0.9338 1.814h0.3142c0.1438-0.5361 0.3835-1.011 0.6718-1.37 0.0742 0.07141 0.1417 0.135 0.2506 0.2413 0.2699 0.2634 0.6914 0.6791 1.147 1.129h0.4108c-1.147-1.135-1.851-1.823-1.86-1.814zm13.05 1.15c0.4815 2.9e-5 0.8656 0.3841 0.8656 0.8656 9.5e-5 0.4815-0.384 0.8656-0.8656 0.8656-0.4815-2.9e-5 -0.8662-0.384-0.8661-0.8656 2.9e-5 -0.4815 0.3846-0.8656 0.8661-0.8656z"/>
    <path fill="url(#white)"
        d="m7.507 3.266-0.4661 0.4661 13.65 13.57c-0.09561 0.1706-0.1463 0.3625-0.1473 0.5581-1.26e-4 0.6375 0.5169 1.154 1.154 1.154 0.1981-9.82e-4 0.3926-0.05295 0.5648-0.1509l2.429 2.414c-0.3364 0.3364-0.8562 1.179-1.101 2.233h0.523c0.1672-0.7369 0.5052-1.386 0.9338-1.814 0.0091-0.0091 0.7138 0.6794 1.86 1.814l0.832-1.53e-4 -1.519-1.519c1.515 0.371 3.405 0.4302 4.883-0.987l1.959-1.878c0.02666 4.04e-4 0.4012 0.3516 0.831 0.7813l3.215 3.215c-0.1028 0.1726-0.1628 0.3737-0.1628 0.5891-1.25e-4 0.6375 0.5164 1.154 1.154 1.154 0.6375-3.9e-5 1.155-0.5164 1.154-1.154-3.9e-5 -0.6374-0.5171-1.154-1.154-1.154-0.2294 1.4e-5 -0.4425 0.06755-0.6222 0.1829-1.072-1.074-2.147-2.145-3.216-3.222l-0.7906-0.8113 6.106-6.1c0.6889-0.6883 1.801-1.109 2.954-1.146 1.154-0.03666 2.349 0.3108 3.204 1.161l2.825 2.832c-0.1026 0.1725-0.1623 0.3738-0.1623 0.5891 3.8e-5 0.6374 0.5165 1.154 1.154 1.154 0.6374-3.9e-5 1.154-0.5166 1.154-1.154 1.25e-4 -0.6375-0.5164-1.154-1.154-1.154-0.216 1.3e-5 -0.4173 0.06004-0.5901 0.1633l-2.772-2.778c-1.837-1.818-5.127-1.846-6.944-0.05788l-6.179 6.083-2.329-2.329 2.749-2.822c1.573-1.615 1.184-3.732-0.1059-5.022-1.116-1.116-3.326-1.77-4.852-0.2439-0.2467 0.2467-1.127 1.078-2.043 1.357-0.7623 0.2322-1.764 0.1348-2.511-0.2449-0.3598-0.1828-0.469-0.2707-1.127-0.8971l-0.7292-0.694-0.1809 0.1804-0.1804 0.1809 8.205 8.205-4.832 4.832c-0.1849-0.1214-0.3324-0.2849-0.4878-0.4403l-1.94-1.939c0.09784-0.1722 0.1495-0.3667 0.1504-0.5648-3.9e-5 -0.6374-0.5166-1.154-1.154-1.154-0.1982 1e-3 -0.3931 0.0528-0.5653 0.1509l-10.82-10.81c1.385 0.3046 2.65-0.1343 3.707-1.028 1.3-1.201 3.422-1.45 4.779-0.1809l0.7431 0.7142 0.1835-0.1835 0.1835-0.184-0.04031-0.03979-0.6677-0.6341c-0.8045-0.7642-3.107-2.006-5.444 0.02894-1.232 1.159-3.219 1.496-4.589 0.3467zm13.24 2.075c-0.1194 0.00596-0.1272 0.03288-0.1251 0.446 0.0012 0.2417-0.01511 0.457-0.03669 0.4785-0.02158 0.02159-0.2373 0.03848-0.479 0.03721-0.3098-0.00162-0.4026 0.00244-0.432 0.05478-0.01 0.01734-0.0125 0.03995-0.01395 0.06976-0.0035 0.07002 0.01217 0.1455 0.03514 0.1685 0.02291 0.02289 0.2404 0.04054 0.4832 0.03927l0.4413-0.00207 0.0026 0.4563c0.0023 0.4589 0.06078 0.5759 0.248 0.4925 0.05621-0.02502 0.08284-0.1812 0.08423-0.493l0.0026-0.4558 0.4429 0.00207c0.4512 0.00237 0.5452-0.03965 0.5028-0.2258-0.01985-0.08753-0.09896-0.1048-0.4868-0.1065l-0.4635-0.00207 0.0026-0.4413c0.0012-0.2427-0.01688-0.4602-0.03979-0.4832-0.02291-0.02293-0.0986-0.03874-0.1685-0.03514zm9.813 2.215c0.9644-0.03784 1.907 0.434 2.384 0.9111 1.154 1.154 1.326 3.135 0.1349 4.344l-2.751 2.791-2.892-2.892c-1.591-1.591-2.863-2.89-2.827-2.887 0.03561 0.00289 0.2344 0.02947 0.4418 0.05891 0.6196 0.08795 1.455-0.02536 2.029-0.2749 0.6941-0.2999 1.263-0.8192 1.817-1.324 0.4985-0.4985 1.085-0.7049 1.664-0.7276zm-24.76 3.068c-0.6374 3.9e-5 -1.154 0.5171-1.154 1.154-1.26e-4 0.6375 0.5164 1.154 1.154 1.154 0.2089-6.92e-4 0.4139-0.05842 0.5927-0.1664l7.009 7.009-0.3514 0.3509c-0.1931 0.1931-0.3435 0.3583-0.3333 0.3685 0.03843 0.03843 2.321 0.5599 2.36 0.539 0.02303-0.01229-0.08388-0.5389-0.2377-1.17-0.1538-0.6316-0.2905-1.159-0.3039-1.173-0.01287-0.01287-0.1905 0.1414-0.3938 0.3447l-0.37 0.37-7.001-7.003c0.1199-0.1863 0.1835-0.4032 0.1835-0.6248-3.9e-5 -0.6374-0.5165-1.154-1.154-1.154zm24.53 5.763h5.17e-4c0.02799-3.23e-4 0.5621 0.5214 1.189 1.158l1.138 1.159-1.972 1.928c-1.965 1.92-4.977 0.6705-5.032 0.4527-0.0078-0.03272 1.141-1.207 2.303-2.373 1.161-1.166 2.334-2.324 2.375-2.324z"/>
    <path fill="url(#gitBrown)"
        d="m27.48 5.567c-2.182 0-3.479 0.9071-3.903 2.323h2.674c0.3019-0.3931 0.7989-0.5695 1.388-0.5695 1.01 0 1.613 0.5492 1.613 1.594 0 0.9224-0.6739 1.506-1.666 1.506-0.05267 0-0.102-0.002768-0.1519-0.005168v1.854c0.1239 0.0069 0.2515 0.01188 0.3829 0.01188 2.232 0 3.774-1.152 3.774-3.118 0-0.8152-0.3376-1.382-0.6558-1.79l1.63-0.124v-1.505h-3.456c-0.408-0.1075-0.8686-0.1778-1.63-0.1778zm8.482 6.522v2.714h2.485v-1.399l-0.9033-0.1235c-0.2665-0.03583-0.2837-0.07071-0.2837-0.3555v-0.8351h-1.298zm-12.19 0.7255c-0.2706 0.3103-0.433 0.6359-0.433 0.9912 0 0.4788 0.194 0.9219 0.7793 1.168-0.6203 0.5859-0.9746 1.01-0.9746 1.808 0 1.4 1.223 2.215 4.429 2.215 3.083 0 4.873-1.151 4.873-3.189 0-2.355-1.807-2.445-4.873-2.64l-1.736-0.1059 0.154-0.247h-2.219zm1.923 2.64 2.586 0.1762c0.851 0.05334 1.524 0.08819 1.524 0.6568 0 0.955-1.399 1.027-2.428 1.027-1.24 0-2.143-0.2129-2.143-0.9214 0-0.3546 0.2298-0.6555 0.4604-0.9384z"/>
</svg>
