<svg version="1.1" viewBox="0 0 40 21.9" xmlns="http://www.w3.org/2000/svg">
    <!--
        Original Gopher Design (c) Renee French
        Vector Gopher (c) Takuya Ueda
        Ferris the Rustacean (c) Karen Rustad Tölva
        Idea (c) Unknown Author
        SVG (c) justJanne
    -->
    <defs>
        <linearGradient id="black"><stop stop-color="#000000"/></linearGradient>
        <linearGradient id="white"><stop stop-color="#ffffff"/></linearGradient>
        <linearGradient id="gopherSkin"><stop stop-color="#f6d2a2"/></linearGradient>
        <linearGradient id="gopher"><stop stop-color="#6ad7e5"/></linearGradient>
        <linearGradient id="gopherShade"><stop stop-color="#187e8b"/></linearGradient>
    </defs>
    <path fill="url(#white)"
        d="m20.2 0c-0.506 0-0.97 0.275-1.22 0.699l-0.224 0.379-0.285-0.318a1 1 0 0 0-0.0021 0c-0.33-0.369-0.843-0.546-1.34-0.445a1 1 0 0 0-0.0036 0.00155c-0.493 0.103-0.89 0.464-1.05 0.924v-0.00413l-0.154 0.434-0.336-0.252c-0.398-0.299-0.945-0.368-1.41-0.168-0.464 0.2-0.775 0.62-0.85 1.1h0.0021l-0.0744 0.476-0.383-0.182c-0.454-0.216-1-0.167-1.41 0.119-0.411 0.286-0.635 0.754-0.617 1.24l0.0176 0.502-0.422-0.103a1 1 0 0 0-0.0021-0.00207c-0.489-0.119-1.01 0.0418-1.36 0.398-0.343 0.358-0.474 0.856-0.369 1.33a1 1 0 0 0 0 0.00207l0.115 0.508-0.45-0.0155a1 1 0 0 0-0.00775 0c-0.497-0.0149-0.971 0.239-1.24 0.654-0.0534 0.0828 0.0133 0.184-0.0217 0.273-0.09-0.307-0.162-0.615-0.344-0.916-0.533-0.884-1.45-1.67-2.84-2.32a1 1 0 0 0-1.3 0.789 1 1 0 0 0-1.01 0.0723s-1.21 0.787-1.59 2.26c-0.191 0.735-0.103 1.68 0.451 2.52 0.503 0.766 1.38 1.45 2.62 2.1 0.0914 0.169 0.209 0.364 0.398 0.594 0.235 0.284 0.825 0.643 1.26 0.977l-0.393 0.416 0.111-0.102s-0.409 0.372-0.486 0.857c-0.0776 0.486 0.108 1.03 0.486 1.51 0.353 0.447 1.03 1.12 1.86 1.94 0.82 0.816 1.73 1.7 2.37 2.32 0.258 0.299 0.482 0.555 0.66 0.741 0.094 0.098 0.173 0.177 0.269 0.259 0.0483 0.0414 0.0912 0.082 0.205 0.148 0.057 0.0332 0.127 0.0781 0.295 0.117 0.0841 0.0196 0.198 0.0396 0.358 0.0196 0.0797-0.01 0.265-0.07 0.266-0.0703 7.64e-4 -3.2e-4 0.273-0.169 0.273-0.17a1 1 0 0 0 0.0021-0.0021c4.76e-4 -4.17e-4 0.0935-0.0934 0.129-0.138 0.0352-0.0451 0.0634-0.0872 0.0858-0.127 0.0447-0.0798 0.0692-0.147 0.0863-0.203 0.0341-0.112 0.0412-0.184 0.045-0.242 0.0074-0.116-0.0023-0.178-0.0098-0.237-0.015-0.117-0.0368-0.205-0.0646-0.304-0.029-0.103-0.0898-0.241-0.135-0.362 0.0483-0.0052 0.105-0.0113 0.105-0.0114 5.05e-4 -1.32e-4 0.326-0.15 0.326-0.15 4.07e-4 -2.87e-4 0.246-0.25 0.246-0.25a1 1 0 0 0 0.0015-0.0021c2.42e-4 -3.51e-4 0.0658-0.106 0.0863-0.15 0.0205-0.0446 0.0341-0.0829 0.045-0.117 0.0218-0.0689 0.0306-0.12 0.0367-0.162 0.0122-0.0844 0.0106-0.135 0.0098-0.176-0.0017-0.0824-0.0088-0.127-0.0155-0.169-0.0134-0.0859-0.0284-0.153-0.0486-0.229-0.0403-0.152-0.0975-0.329-0.178-0.537-0.101-0.263-0.313-0.627-0.494-0.965 0.42 0.144 0.432 0.235 0.984 0.381 1.99 0.525 4.82 0.99 8.59 0.987 3.87-0.0039 6.7-0.614 8.63-1.28 0.423-0.146 0.384-0.221 0.717-0.361-0.248 0.487-0.459 0.96-0.576 1.32-0.069 0.209-0.118 0.385-0.152 0.533-0.0169 0.0741-0.0307 0.139-0.0413 0.217-0.0053 0.0393-0.0099 0.0806-0.0114 0.152-7.47e-4 0.0359-0.0011 0.0784 0.0078 0.152 0.0044 0.0368 0.0108 0.0807 0.0274 0.143 0.0166 0.0619 0.105 0.254 0.105 0.254a1 1 0 0 0 0.0021 0.0015c2.66e-4 4.46e-4 0.232 0.267 0.232 0.268 3.53e-4 2.85e-4 0.355 0.184 0.356 0.184 4.4e-4 1.25e-4 0.34 0.0367 0.34 0.0367 5.12e-4 -3.3e-5 0.219-0.0406 0.23-0.0429-0.0447 0.199-0.0861 0.392-0.102 0.547-0.01 0.0984-0.015 0.185-0.0098 0.301 0.0026 0.058 0.0043 0.122 0.0315 0.235 0.0136 0.0565 0.0322 0.125 0.0858 0.23 0.0268 0.0527 0.0619 0.116 0.121 0.188 0.0295 0.0358 0.0661 0.0745 0.11 0.113 0.0434 0.0386 0.154 0.113 0.155 0.113 0.0052 0.0022 0.3 0.117 0.301 0.117 7.59e-4 1.65e-4 0.195 0.0265 0.275 0.0217 0.161-0.0096 0.269-0.0498 0.347-0.0842 0.157-0.0689 0.216-0.126 0.266-0.168 0.0984-0.0844 0.133-0.13 0.172-0.178 0.0776-0.0955 0.137-0.183 0.209-0.291 0.14-0.211 0.313-0.491 0.512-0.828 0.492-0.686 1.18-1.65 1.8-2.54 0.635-0.911 1.16-1.65 1.41-2.14 0.277-0.517 0.366-1.07 0.209-1.53-0.158-0.458-0.627-0.752-0.627-0.752l0.129 0.0801-0.615-0.453c0.372-0.453 0.921-1.03 0.963-1.1 2.46-1.56 3.42-3.37 3.45-4.82 0.0337-1.52-0.779-2.58-0.779-2.58a1 1 0 0 0-1.71 0.352 1 1 0 0 0-1.29-1.22c-1.49 0.656-2.46 1.43-3.04 2.31-0.221 0.336-0.322 0.687-0.42 1.03-0.227-0.133-0.398-0.364-0.672-0.353h-0.0021l-0.449 0.0155 0.115-0.508c0.107-0.473-0.0253-0.971-0.367-1.33-0.343-0.357-0.866-0.519-1.36-0.398a1 1 0 0 0 0 0.00207l-0.422 0.103 0.0176-0.502c0.0174-0.486-0.204-0.954-0.615-1.24-5.62e-4 -3.92e-4 -0.0015 3.91e-4 -0.0021 0-0.409-0.285-0.961-0.333-1.41-0.119l-0.382 0.182-0.0744-0.476c-0.0748-0.478-0.384-0.901-0.847-1.1-0.464-0.2-1.01-0.132-1.41 0.168l-0.336 0.252-0.155-0.431c-0.163-0.457-0.558-0.821-1.05-0.923a1 1 0 0 0-0.0021 0c-0.493-0.101-1.01 0.0772-1.34 0.445a1 1 0 0 0-0.0021 0l-0.283 0.317-0.224-0.377c-0.25-0.422-0.714-0.699-1.22-0.699z"/>
    <path fill="url(#gopherShade)"
        d="m33.3 14.3-0.392-0.812c0.0021-0.0307 0.0036-0.0616 0.0036-0.0926 0-0.92-0.957-1.77-2.57-2.45v0.565c-0.157-0.0623-0.32-0.123-0.491-0.182v-0.263c-2.3-0.83-5.73-1.36-9.55-1.36-3.34 0-6.38 0.402-8.63 1.06v0.917h-6.4e-5v-1.11c-2.3 0.732-3.73 1.75-3.73 2.87 0 0.177 0.0357 0.352 0.104 0.523l-0.235 0.418s-0.188 0.244 0.143 0.758c0.292 0.454 1.75 2.23 2.53 3.16 0.332 0.477 0.556 0.77 0.576 0.742 0.031-0.045-0.206-0.94-0.865-1.96-0.307-0.548-0.674-1.28-0.894-1.81 0.615 0.389 4.23 2.21 11.6 2.2 7.53-0.0075 10.9-2.36 11.2-2.69-0.128 0.516-0.567 1.56-0.917 2.29-0.575 1.05-0.783 1.96-0.756 2.01 0.017 0.0285 0.213-0.274 0.502-0.764 0.673-0.959 1.95-2.79 2.2-3.26 0.289-0.529 0.126-0.773 0.126-0.773"/>
    <path fill="url(#gopher)"
        d="m20.2 1c-0.147 0-0.284 0.0794-0.361 0.21l-0.765 1.29c-0.12 0.0104-0.24 0.023-0.36 0.0367l-0.99-1.11c-0.1-0.112-0.249-0.162-0.394-0.132-0.145 0.0302-0.264 0.136-0.315 0.28l-0.507 1.41c-0.118 0.0353-0.234 0.0724-0.35 0.111l-1.18-0.882c-0.12-0.09-0.275-0.109-0.411-0.0498-0.136 0.0586-0.233 0.187-0.257 0.338l-0.233 1.49c-0.108 0.0584-0.215 0.118-0.321 0.18l-1.32-0.627c-0.134-0.0638-0.29-0.0507-0.412 0.0349-0.122 0.0851-0.194 0.231-0.189 0.384l0.0507 1.51c-0.0939 0.0783-0.187 0.158-0.279 0.239l-1.41-0.348c-0.144-0.0349-0.294 0.00974-0.398 0.118-0.105 0.109-0.147 0.266-0.113 0.415l0.333 1.47c-0.0772 0.0956-0.154 0.192-0.229 0.29l-1.45-0.0527c-0.146-0.00438-0.286 0.0689-0.368 0.197-0.082 0.127-0.0945 0.29-0.0334 0.43l0.601 1.38c-0.0584 0.11-0.116 0.222-0.172 0.335l-1.43 0.243c-0.145 0.0245-0.268 0.126-0.324 0.268-0.0561 0.142-0.0379 0.304 0.0479 0.429l0.846 1.23c-0.00652 0.0216-0.0125 0.0435-0.019 0.0652l-0.265 0.281c-0.801-0.309-1.58-0.723-1.91-1.24 0 0 3.22-3.66-1.81-6.01l0.586 4.05s-1.55-1.04-1.89-3.29c0 0-3.78 2.74 1.67 5.37 0 0 0.275 1.03 2.36 2.16l-1.14 1.21s-0.367 0.287 0.167 0.963c0.471 0.596 2.89 2.96 4.16 4.19 0.539 0.628 0.908 1.02 0.947 0.983 0.0609-0.0534-0.259-1.2-1.32-2.54-0.819-1.2-1.88-3.05-1.63-3.27 0 0 0.283-0.36 0.852-0.618l-6.32e-5 -6.7e-5c-0.00529-0.0041-0.0105-0.0083 2.53e-4 -6.4e-5 0 0 11.8 5.46 22.9 0.192 0.204-0.0326 0.402-0.0784 0.596-0.137 1.04-0.0485 1.66 0.492 1.66 0.492 0.265 0.154-0.422 2.06-0.987 3.32-0.769 1.43-0.881 2.55-0.816 2.58 0.0412 0.0246 0.321-0.401 0.72-1.08 0.984-1.37 2.85-3.99 3.19-4.62 0.386-0.72 0-0.922 0-0.922l-1.48-1.09c1.06-0.922 1.69-1.92 1.69-1.92 5.02-2.98 2.61-6.15 2.61-6.15-0.484 2.67-2.13 3.24-2.13 3.24-0.141-3.02 0.338-3.81 0.338-3.81-5.47 2.42-1.95 5.92-1.95 5.92l-0.321 0.714c-0.472 0.48-0.919 0.859-1.33 1.16-0.0211-0.0735-0.0421-0.147-0.0639-0.22l0.846-1.23c0.0864-0.125 0.104-0.287 0.0477-0.429-0.0562-0.141-0.179-0.243-0.324-0.268l-1.43-0.243c-0.0555-0.113-0.114-0.224-0.172-0.335l0.601-1.38c0.0618-0.14 0.0489-0.303-0.0332-0.43-0.0817-0.128-0.22-0.202-0.368-0.197l-1.45 0.0527c-0.0751-0.0979-0.151-0.195-0.229-0.29l0.334-1.47c0.0338-0.15-0.0089-0.307-0.113-0.415-0.104-0.108-0.254-0.153-0.398-0.118l-1.41 0.348c-0.0915-0.0809-0.185-0.161-0.279-0.239l0.0508-1.51c0.0055-0.153-0.066-0.299-0.189-0.384-0.123-0.0856-0.278-0.0984-0.412-0.0349l-1.32 0.627c-0.106-0.061-0.213-0.121-0.321-0.18l-0.233-1.49c-0.0236-0.151-0.121-0.28-0.257-0.338-0.136-0.059-0.291-0.0399-0.411 0.0498l-1.18 0.882c-0.116-0.0385-0.232-0.0753-0.35-0.111l-0.507-1.41c-0.0515-0.144-0.17-0.25-0.315-0.28-0.144-0.0295-0.293 0.0205-0.393 0.132l-0.99 1.11c-0.12-0.0137-0.239-0.0263-0.36-0.0367l-0.764-1.29c-0.0774-0.13-0.214-0.21-0.362-0.21zm-11.9 13.4c-7.57e-5 3.6e-5 -1.14e-4 9.5e-5 -1.9e-4 1.31e-4 0.00526 0.0041 0.0105 0.0081 1.9e-4 -1.31e-4z"/>
    <path fill="url(#white)"
        d="m23.7 7.19c-1.53 0.0281-3.1 1.13-2.97 3.01 0.621 3.61 6.5 2.65 5.66-0.984-0.331-1.42-1.5-2.05-2.69-2.03zm-7.22 0.221c-1.62 0.0138-3.28 1.19-2.85 3.29 0.803 3.14 5.82 2.33 5.62-0.811-0.103-1.71-1.43-2.49-2.77-2.48z"/>
    <path fill="url(#black)"
        d="m22.1 9.08a0.835 0.92 0 0 0-0.834 0.92 0.835 0.92 0 0 0 0.834 0.92 0.835 0.92 0 0 0 0.836-0.92 0.835 0.92 0 0 0-0.836-0.92zm-7.1 0.301a0.848 0.92 0 0 0-0.848 0.92 0.848 0.92 0 0 0 0.848 0.92 0.848 0.92 0 0 0 0.848-0.92 0.848 0.92 0 0 0-0.848-0.92zm7.5 0.586a0.197 0.233 0 0 1 0.197 0.232 0.197 0.233 0 0 1-0.197 0.234 0.197 0.233 0 0 1-0.197-0.234 0.197 0.233 0 0 1 0.197-0.232zm-7.1 0.301a0.2 0.233 0 0 1 0.199 0.232 0.2 0.233 0 0 1-0.199 0.232 0.2 0.233 0 0 1-0.201-0.232 0.2 0.233 0 0 1 0.201-0.232z"/>
    <path fill="url(#white)"
        d="m20.2 14.1-1.25 0.32c-0.37 0.897 0.205 2.69 1.21 1.37-0.0718-0.569 0.0269-1.12 0.0449-1.69zm0.125 0.0723c-0.018 0.57-0.117 1.12-0.0449 1.69 0.113 0.26 0.347 0.442 0.627 0.486 0.202-0.091 0.437-0.114 0.557-0.34 0.0882-0.496-0.015-1.02-0.0176-1.49l-1.12-0.348z"/>
    <path fill="url(#gopherSkin)"
        d="m19.1 12.7c-0.689 0.0588-1.25 0.878-0.894 1.53 0.474 0.858 1.53-0.076 2.19 0.0116 0.76 0.0156 1.38 0.803 1.99 0.142 0.679-0.734-0.292-1.45-1.05-1.77z"/>
    <path fill="url(#black)"
        d="m23.7 7.1c-0.174 0.00314-0.349 0.0208-0.521 0.0508-0.69 0.12-1.35 0.451-1.82 0.969-0.475 0.518-0.763 1.23-0.707 2.08a0.0805 0.0805 0 0 0 0.00391 0.00391 0.0805 0.0805 0 0 0-0.00195 0.00391c0.159 0.924 0.659 1.57 1.3 1.94 0.644 0.372 1.43 0.478 2.17 0.354 0.738-0.124 1.43-0.48 1.89-1.04 0.457-0.563 0.672-1.33 0.457-2.26-0.194-0.833-0.672-1.41-1.27-1.74-0.451-0.249-0.97-0.363-1.49-0.354zm0.00195 0.164c0.497-0.00936 0.989 0.0967 1.41 0.33 0.565 0.311 1.01 0.843 1.2 1.63 0.205 0.888 0.0023 1.6-0.426 2.13-0.428 0.527-1.09 0.868-1.79 0.986-0.704 0.119-1.45 0.0141-2.06-0.336-0.605-0.349-1.07-0.94-1.22-1.82-0.053-0.815 0.217-1.47 0.664-1.96 0.448-0.488 1.07-0.804 1.73-0.918 0.164-0.0286 0.33-0.0438 0.496-0.0469zm-7.23 0.0586c-0.142 0.00118-0.284 0.0108-0.426 0.0293-0.754 0.0986-1.48 0.441-1.96 1.01-0.488 0.569-0.734 1.37-0.535 2.35a0.0805 0.0805 0 0 0 0 0.00391c0.206 0.805 0.687 1.36 1.29 1.69 0.598 0.326 1.31 0.422 1.99 0.318 0.68-0.104 1.33-0.407 1.8-0.891 0.469-0.483 0.754-1.15 0.703-1.96-0.0581-0.964-0.501-1.65-1.12-2.07-0.502-0.337-1.12-0.495-1.73-0.49zm0.00195 0.162c0.588-0.00496 1.17 0.145 1.64 0.461 0.579 0.389 0.991 1.02 1.05 1.94a0.0805 0.0805 0 0 0 0.00195 0c0.0486 0.764-0.22 1.38-0.66 1.83-0.441 0.454-1.06 0.745-1.71 0.844-0.649 0.099-1.33 6e-3 -1.89-0.301-0.561-0.306-1.01-0.824-1.2-1.59v-0.00195c-0.19-0.941 0.0411-1.68 0.498-2.21 0.457-0.533 1.15-0.861 1.87-0.955 0.135-0.0176 0.27-0.0262 0.406-0.0273zm3.91 4.2c-0.649-0.00801-1.33 0.309-1.36 0.936-0.338 0.0593-0.634 0.281-0.812 0.57-0.195 0.315-0.251 0.718-0.0566 1.07 0.128 0.232 0.31 0.356 0.508 0.395 0.0305 0.00597 0.0609 0.00919 0.0918 0.0117-0.0806 0.435-0.0091 0.94 0.184 1.28 0.12 0.213 0.304 0.369 0.533 0.365 0.221-0.0042 0.454-0.152 0.703-0.469 1e-3 0.0074 0.00296 0.0146 0.00586 0.0215 0.124 0.286 0.382 0.491 0.691 0.539 0.0165 0.0028 0.0335 8.44e-4 0.0488-0.00586 0.0922-0.0416 0.202-0.0711 0.311-0.121 0.108-0.05 0.217-0.125 0.287-0.258 0.0039-8e-3 0.00651-0.0166 0.00781-0.0254 0.0808-0.454 0.0106-0.921-0.00976-1.34 0.145 0.0463 0.293 0.0768 0.443 0.0586 0.176-0.0213 0.35-0.11 0.514-0.287 0.181-0.196 0.26-0.404 0.252-0.604-0.0084-0.2-0.1-0.384-0.234-0.549-0.237-0.291-0.608-0.527-0.959-0.691 0.017-0.0748 0.0154-0.156-0.00781-0.242-0.118-0.44-0.62-0.658-1.14-0.664zm1.08 1.07c0.334 0.157 0.686 0.384 0.895 0.641 0.119 0.146 0.189 0.296 0.195 0.447 0.0064 0.151-0.049 0.31-0.207 0.48-0.142 0.154-0.273 0.214-0.408 0.23-0.136 0.0164-0.28-0.0162-0.438-0.0723-0.314-0.112-0.667-0.316-1.07-0.326-0.374-0.0469-0.803 0.172-1.2 0.283-0.197 0.056-0.381 0.0848-0.535 0.0547s-0.282-0.112-0.391-0.309c-0.16-0.296-0.116-0.629 0.0527-0.9 0.154-0.248 0.41-0.438 0.691-0.49 0.249 0.647 2.01 0.572 2.41-0.0391zm-1.08 1.57c0.00917 7.24e-4 0.0185 7.73e-4 0.0273 0.00195a0.086 0.086 0 0 0 0.00976 0.00195c0.316 0.00648 0.618 0.163 0.922 0.281 0.0143 0.444 0.0906 0.913 0.0176 1.35-0.0492 0.0865-0.113 0.136-0.199 0.176-0.0787 0.0364-0.175 0.0659-0.271 0.105-0.241-0.0429-0.442-0.199-0.543-0.424-0.0589-0.492 0.0092-0.981 0.0371-1.49zm-0.301 0.0332c-0.0294 0.451-0.0802 0.902-0.0293 1.37-0.236 0.303-0.438 0.421-0.584 0.424-0.15 0.0028-0.276-0.0954-0.379-0.277-0.17-0.3-0.223-0.8-0.141-1.2 0.109-0.0112 0.219-0.0369 0.33-0.0684 0.278-0.0789 0.561-0.193 0.803-0.25z"/>
</svg>
