<svg version="1.1" viewBox="0 0 97 20" xmlns="http://www.w3.org/2000/svg">
  <!--
        Logo (c) Home Assistant
        Idea & SVG (c) justJanne
  -->
  <path fill="#e83134" d="m0 0v9.785l16.95-9.785z"/>
  <path fill="#f28e2c" d="m6.98 0-6.98 4.029v11.52l26.93-15.54z"/>
  <path fill="#feba15" d="m16.95 0-16.95 9.785v10.21h2.268l34.64-20z"/>
  <path fill="#8dba19" d="m26.93 0-26.93 15.54v4.455h12.24l34.64-20z"/>
  <path fill="#405d9f" d="m36.91 0-34.64 20h19.95l34.64-20z"/>
  <path fill="#815596" d="m46.88 0-34.64 20h19.95l34.64-20z"/>
  <path fill="#e83134" d="m56.86 0-34.64 20h19.94l34.64-20z"/>
  <path fill="#f28e2c" d="m66.83 0-34.64 20h19.95l34.64-20z"/>
  <path fill="#feba15" d="m76.8 0-34.64 20h19.94l34.64-20z"/>
  <path fill="#8dba19" d="m86.78 0-34.64 20h19.95l24.91-14.31v-5.687z"/>
  <path fill="#405d9f" d="m96.75 0-34.63 20h19.94l14.94-8.626v-11.37z"/>
  <path fill="#815596" d="m97 5.615-24.91 14.38h19.94l4.967-2.867z"/>
  <path fill="#e83134" d="m97 11.37-14.94 8.629h14.94v-8.629z"/>
  <path fill="#f28e2c" d="m97 17.13-4.967 2.867h4.967v-2.867z"/>
  <path fill="#f9f9f9" d="m11.97 4.296c-0.1918 0-0.3833 0.07269-0.5286 0.2181l-4.927 4.927c-0.2908 0.2908-0.5292 0.866-0.5292 1.277v4.489c0 0.4115 0.3363 0.7483 0.7478 0.7483h4.602l-2.026-2.027c-0.1042 0.03591-0.2155 0.05633-0.3312 0.05633-0.5635 0-1.022-0.4586-1.022-1.022s0.4586-1.023 1.022-1.023c0.5635 0 1.023 0.4591 1.023 1.023 0 0.1162-0.02042 0.2275-0.05633 0.3318l1.577 1.577v-5.779c-0.3391-0.1666-0.5736-0.5148-0.5736-0.9173 0-0.5636 0.4591-1.022 1.023-1.022 0.5635 0 1.022 0.4586 1.022 1.022 0 0.4025-0.2345 0.7507-0.5736 0.9173v4.054l1.569-1.569c-0.03092-0.09775-0.04754-0.2018-0.04754-0.3095 0-0.5636 0.4586-1.022 1.022-1.022 0.5635 0 1.023 0.4586 1.023 1.022s-0.4591 1.023-1.023 1.023c-0.1247 0-0.2433-0.02371-0.3535-0.0646l-2.19 2.19v1.54l4.788 5.17e-4c0.4114 0 0.7483-0.3368 0.7483-0.7483v-4.489c0-0.4115-0.2379-0.9862-0.5292-1.277v-5.17e-4l-4.926-4.927c-0.1454-0.1454-0.3374-0.2181-0.5292-0.2181zm55.86 1.934c-0.09825-0.00135-0.1955 0.0171-0.2868 0.05426-0.09127 0.03716-0.1741 0.09197-0.2439 0.1617-0.06932 0.06978-0.1243 0.1531-0.1612 0.2444-0.03641 0.09137-0.05421 0.1889-0.05271 0.2873-9.98e-4 0.0978 0.01791 0.195 0.05581 0.2853 0.0374 0.09027 0.09296 0.1721 0.1628 0.2403 0.06782 0.07127 0.149 0.1277 0.2398 0.1659 0.09077 0.0382 0.188 0.05711 0.2863 0.05581 0.09775 0.0014 0.195-0.01761 0.2853-0.05581 0.09027-0.0382 0.1714-0.09456 0.2387-0.1659 0.1391-0.1401 0.2176-0.3301 0.2176-0.5276s-0.07841-0.387-0.2176-0.5271c-0.06733-0.07052-0.149-0.1262-0.2387-0.1638-0.09027-0.03766-0.1875-0.05627-0.2853-0.05478zm-45.89 0.08837-0.0021 7.283h1.237v-3.142l3.21 0.0098v3.131h1.247v-7.282h-1.247v3.053l-3.21-0.0098v-3.043h-1.235zm31.74 0.00103-2.629 7.282h1.276l0.5984-1.696h2.771l0.5901 1.696h1.305l-2.634-7.282h-1.276zm20.64 0.8279v1.535h-0.755v0.9974h0.755v2.406c0 0.5387 0.1387 0.9445 0.4165 1.217 0.2778 0.273 0.6644 0.4098 1.161 0.4098 0.2888-0.0069 0.5765-0.04493 0.8573-0.1127l-0.1488-1.031c-0.1596 0.06055-0.3286 0.09467-0.4992 0.1018-0.4124 0-0.6181-0.2659-0.6181-0.7979v-2.194h1.134v-0.9979h-1.134v-1.534h-1.169zm14.42 0v1.535h-0.755v0.9974h0.755v2.405c0 0.5387 0.1387 0.9445 0.4165 1.217 0.2778 0.273 0.6644 0.4098 1.161 0.4098 0.2888-0.0065 0.576-0.04398 0.8568-0.1111l-0.1483-1.031c-0.1596 0.06055-0.3281 0.09467-0.4987 0.1018-0.4124 0-0.6191-0.2659-0.6191-0.7979v-2.194h1.135v-0.9979h-1.135v-1.534h-1.168zm-34.42 0.7984 1.018 2.912h-2.046zm-17.11 0.5793c-0.645 0-1.11 0.2094-1.396 0.6284l-0.03876-0.4723h-1.098v4.919h1.179v-2.843c0-0.3767 0.09713-0.6695 0.292-0.879 0.1948-0.2095 0.4529-0.3142 0.7741-0.3142 0.3019 3.49e-4 0.5379 0.0958 0.7085 0.2873s0.2563 0.458 0.2563 0.7984v2.951h1.157v-2.843c-3.49e-4 -0.3767 0.09495-0.6695 0.2868-0.879 0.1919-0.2095 0.4488-0.3142 0.77-0.3142 0.3022 3.49e-4 0.5405 0.0958 0.7157 0.2873s0.263 0.458 0.263 0.7984v2.952h1.147v-3.132c9.97e-4 -0.6078-0.1626-1.084-0.4904-1.428-0.3278-0.3441-0.7711-0.5162-1.33-0.5162-0.3834 0-0.7134 0.08132-0.9906 0.2439-0.2687 0.1511-0.4798 0.3875-0.5989 0.6718-0.1326-0.2875-0.3522-0.5259-0.6279-0.6816-0.2759-0.1559-0.6021-0.2341-0.9788-0.2341zm22.69 0.01034c-0.5551-2.993e-4 -0.9973 0.1425-1.325 0.4284-0.3277 0.286-0.4914 0.6542-0.4914 1.105 0 0.7046 0.4652 1.184 1.396 1.437l0.6775 0.1798c0.3536 0.08813 0.5302 0.2634 0.5302 0.5261 5e-3 0.08334-0.01219 0.1667-0.04909 0.2413-0.0374 0.07471-0.09346 0.1386-0.1628 0.185-0.1411 0.09576-0.3333 0.1437-0.5767 0.1437-0.2563 0-0.462-0.05404-0.6196-0.1623-0.07481-0.05142-0.137-0.1191-0.1824-0.1979-0.04489-0.0788-0.07207-0.1667-0.07855-0.2573l-1.076 0.1902c0.02544 0.2003 0.09214 0.3932 0.1964 0.5664 0.1037 0.1732 0.2426 0.3225 0.4072 0.4392 0.3406 0.2484 0.794 0.3726 1.359 0.3726 0.6104-6.48e-4 1.09-0.137 1.437-0.4093s0.5209-0.6392 0.5209-1.101c0.0045-0.1658-0.02388-0.3311-0.08372-0.4858-0.06034-0.1547-0.1499-0.2955-0.2651-0.415-0.2339-0.2434-0.5732-0.4253-1.018-0.5457l-0.6671-0.1659c-0.204-0.05516-0.3555-0.1278-0.4532-0.2186-0.04738-0.04314-0.08464-0.09618-0.1101-0.155-0.02494-0.0588-0.03716-0.1226-0.03566-0.1866-2e-3 -0.07905 0.01415-0.1575 0.04806-0.2289 0.03391-0.07147 0.08442-0.1339 0.1468-0.1824 0.1297-0.1057 0.3001-0.1586 0.5111-0.1586 0.187-0.0062 0.3704 0.04905 0.5235 0.1566 0.06832 0.04928 0.1261 0.112 0.1685 0.185 0.04239 0.07297 0.06854 0.1543 0.07752 0.2382l1.057-0.2496c-0.03293-0.1898-0.1041-0.3708-0.2103-0.5318-0.1057-0.1609-0.2441-0.2979-0.4057-0.4031-0.3346-0.2271-0.7497-0.3405-1.246-0.3405zm4.469 0c-0.5551-2.993e-4 -0.9973 0.1425-1.325 0.4284-0.3277 0.286-0.4914 0.6542-0.4914 1.105 0 0.7046 0.4652 1.184 1.396 1.437l0.677 0.1798c0.3536 0.08813 0.5302 0.2634 0.5302 0.5261 0.0045 0.08324-0.01219 0.1667-0.04909 0.2413-0.0369 0.07466-0.09294 0.1385-0.1623 0.185-0.1416 0.09377-0.3334 0.1437-0.5772 0.1437-0.2563 0-0.462-0.05404-0.6186-0.1623-0.07481-0.05142-0.137-0.1191-0.1819-0.1979-0.04538-0.07885-0.07207-0.1667-0.07855-0.2573l-1.076 0.1902c0.02543 0.2003 0.09214 0.3932 0.1964 0.5664 0.1037 0.1732 0.2426 0.3225 0.4072 0.4392 0.3406 0.2484 0.794 0.3726 1.359 0.3726 0.6104-6.48e-4 1.09-0.137 1.437-0.4093s0.5209-0.6392 0.5209-1.101c0.0045-0.1658-0.02438-0.3311-0.08423-0.4858s-0.1499-0.2954-0.2646-0.415c-0.2344-0.2434-0.5737-0.4253-1.018-0.5457l-0.6671-0.1659c-0.204-0.05536-0.354-0.1278-0.4537-0.2186-0.04738-0.04314-0.08462-0.09618-0.1096-0.155-0.02543-0.0588-0.03767-0.1226-0.03617-0.1866-2e-3 -0.07905 0.01465-0.1575 0.04806-0.2289 0.03391-0.07142 0.08442-0.1338 0.1468-0.1824 0.1297-0.1057 0.3001-0.1586 0.5111-0.1586 0.187-0.0062 0.3709 0.04905 0.524 0.1566 0.06832 0.04928 0.1256 0.112 0.1679 0.185 0.04239 0.07297 0.06854 0.1543 0.07751 0.2382l1.057-0.2496c-0.03292-0.1898-0.1046-0.3709-0.2108-0.5318-0.1057-0.1608-0.2441-0.2979-0.4057-0.4031-0.3346-0.2271-0.7497-0.3405-1.246-0.3405zm6.901 0c-0.5556-2.993e-4 -0.9973 0.1425-1.325 0.4284-0.3277 0.286-0.492 0.6542-0.492 1.105 0 0.7046 0.4657 1.184 1.397 1.437l0.6764 0.1798c0.3541 0.08813 0.5312 0.2634 0.5312 0.5261 0.0045 0.08329-0.01218 0.1667-0.04909 0.2413-0.0374 0.07466-0.09346 0.1385-0.1628 0.185-0.1411 0.09576-0.3339 0.1437-0.5772 0.1437-0.2568 0-0.462-0.05404-0.6186-0.1623-0.07481-0.05142-0.1375-0.1191-0.1824-0.1979-0.04538-0.07885-0.07155-0.1667-0.07803-0.2573l-1.076 0.1902c0.02543 0.2004 0.09264 0.3932 0.1964 0.5664 0.1042 0.1732 0.2427 0.3226 0.4077 0.4392 0.3406 0.2484 0.7935 0.3726 1.359 0.3726 0.6104-6.48e-4 1.089-0.137 1.437-0.4093 0.3476-0.2723 0.5214-0.6392 0.5214-1.101 0.0045-0.1658-0.02388-0.3311-0.08372-0.4858-0.06034-0.1547-0.1504-0.2955-0.2656-0.415-0.2339-0.2434-0.5727-0.4253-1.018-0.5457l-0.6677-0.1659c-0.2045-0.05516-0.3554-0.1278-0.4527-0.2186-0.04738-0.04314-0.08464-0.09618-0.1101-0.155-0.02494-0.0588-0.03767-0.1226-0.03617-0.1866-2e-3 -0.079 0.01467-0.1569 0.04858-0.2284 0.03391-0.07147 0.08391-0.1343 0.1462-0.1829 0.1302-0.1057 0.3006-0.1586 0.5116-0.1586 0.187-0.0061 0.3704 0.04915 0.5235 0.1566 0.06832 0.04928 0.1256 0.112 0.1679 0.185 0.04239 0.07297 0.06905 0.1543 0.07803 0.2382l1.057-0.2496c-0.03292-0.1898-0.1046-0.3703-0.2103-0.5312-0.1062-0.1609-0.2446-0.2983-0.4057-0.4036-0.3346-0.2271-0.7502-0.3405-1.247-0.3405zm8.358 0c-1.023 0-1.742 0.3907-2.157 1.173l0.8568 0.5018c0.2504-0.4804 0.6626-0.7204 1.237-0.7204 0.3247 0 0.577 0.07631 0.7571 0.2289s0.2703 0.3829 0.2703 0.6914v0.1897h-1.478c-0.5551 3.49e-4 -0.9924 0.1362-1.312 0.4072-0.3197 0.271-0.4796 0.6468-0.4796 1.128-4.99e-4 0.4905 0.1611 0.8791 0.4863 1.166s0.758 0.431 1.297 0.431c0.3132 0.0064 0.6232-0.05771 0.908-0.1876 0.2439-0.1104 0.4531-0.2842 0.6062-0.5038 0.01247 0.1886 0.04081 0.3755 0.0832 0.5597h1.135c-0.05835-0.1626-0.08733-0.5209-0.08733-1.076v-1.959c-0.0025-0.7175-0.2019-1.235-0.5984-1.553-0.3965-0.3182-0.904-0.477-1.524-0.477zm5.791 0c-0.3002-0.00299-0.598 0.05913-0.8718 0.1824-0.2454 0.1046-0.4561 0.2756-0.6087 0.494l-0.03876-0.5307h-1.105v4.919h1.179v-2.743c4.98e-4 -0.4026 0.1136-0.7127 0.3405-0.9302 0.1132-0.108 0.2471-0.1926 0.3933-0.2486 0.1461-0.05596 0.3023-0.08214 0.4589-0.07752 0.2698-0.0046 0.5321 0.08674 0.7405 0.2579 0.2209 0.1719 0.3312 0.4918 0.3312 0.9596v2.782h1.174v-3.034c0-0.6497-0.1732-1.15-0.5188-1.502-0.3456-0.3521-0.8369-0.5281-1.473-0.5281zm-54.16 0.0093c-0.7597 2e-3 -1.377 0.243-1.851 0.7235-0.4741 0.4805-0.7111 1.103-0.7111 1.868 3.49e-4 0.7565 0.2373 1.377 0.7111 1.86 0.4738 0.4838 1.091 0.7255 1.851 0.7255 0.7531 0 1.367-0.2417 1.841-0.7255 0.4741-0.4838 0.7111-1.104 0.7111-1.86 0-0.7601-0.2369-1.382-0.7111-1.866-0.4741-0.4838-1.088-0.7255-1.841-0.7255zm14.36 0c-0.7597 2e-3 -1.376 0.243-1.851 0.7235-0.4741 0.4805-0.7111 1.103-0.7111 1.868 3.49e-4 0.7565 0.2373 1.377 0.7111 1.86 0.4738 0.4838 1.09 0.7255 1.851 0.7255 0.7531 0 1.367-0.2417 1.841-0.7255 0.4741-0.4838 0.7111-1.104 0.7111-1.86 0-0.7601-0.2369-1.382-0.7111-1.866-0.4741-0.4838-1.088-0.7255-1.841-0.7255zm21.63 0.1364v4.921h1.179v-4.919l-1.179-0.00155zm-35.98 0.9209c0.403-6.48e-4 0.73 0.1399 0.9813 0.4212 0.2514 0.2813 0.3767 0.6486 0.3767 1.103 3.49e-4 0.4549-0.125 0.8245-0.3767 1.108-0.2517 0.284-0.5787 0.4258-0.9813 0.4258-0.4116 0-0.744-0.1418-0.9974-0.4258-0.2533-0.2839-0.3803-0.6536-0.3803-1.108 6.49e-4 -0.4549 0.1276-0.8221 0.3803-1.103 0.2527-0.2806 0.5851-0.4212 0.9974-0.4212zm14.36 0c0.403-6.48e-4 0.73 0.1399 0.9813 0.4212 0.2514 0.2813 0.3772 0.6486 0.3772 1.103 3.49e-4 0.4549-0.1255 0.8245-0.3772 1.108-0.2517 0.284-0.5787 0.4258-0.9813 0.4258-0.4116 0-0.744-0.1418-0.9974-0.4258-0.2533-0.2839-0.3798-0.6536-0.3798-1.108 6.48e-4 -0.4549 0.1271-0.8221 0.3798-1.103 0.2527-0.2806 0.5851-0.4212 0.9974-0.4212zm33.78 1.811h1.213v0.1121c4.99e-4 0.4319-0.1103 0.7576-0.3312 0.9767-0.2209 0.2192-0.5056 0.3287-0.8527 0.3287-0.2893 0-0.511-0.05964-0.6671-0.1798-0.1561-0.1204-0.2336-0.2956-0.2336-0.5261-0.0045-0.0986 0.01333-0.1975 0.05323-0.2878 0.0399-0.09042 0.0999-0.1702 0.1757-0.2336 0.1531-0.1267 0.3671-0.1902 0.6429-0.1902z"/>
</svg>
