<svg version="1.1" viewBox="0 0 24.5 29.33" xmlns="http://www.w3.org/2000/svg">
    <!--
        Idea & SVG (c) justJanne
    -->
    <path fill="#ffffff" d="m7.248-1.149e-7 -0.8728 0.5658s-0.9705 0.6141-1.723 1.685c-0.7523 1.071-1.288 2.85-0.2625 4.596l0.01757 0.02997 0.3519 0.5142c-2.893 2.243-4.759 5.751-4.759 9.686 0 6.754 5.496 12.25 12.25 12.25 6.754 0 12.25-5.496 12.25-12.25 0-3.041-1.114-5.827-2.956-7.972l1.602-1.782-5.263-1.123c-0.1174-0.06103-0.236-0.1205-0.3555-0.1778 0.2943-0.37 0.5923-0.7277 0.8625-1.185l0.5287-0.895-0.9142-0.4935s-2.237-1.24-4.923-1.292c-1.458-0.02802-3.107 0.3733-4.502 1.497-0.006429-0.8427-0.2178-1.776-0.801-2.759zm-2.497 7.343c0.00749 0.01163 0.01566 0.02334 0.02429 0.03514-0.00359 0.00277-0.00727 0.00549-0.01085 0.00827z"/>
    <path fill="#306e2b" d="m6.918 1.405s-3.307 2.143-1.667 4.935c0.05292-0.2646 0.1057-0.5029 0.1718-0.741 0.1323-0.4895 0.3043-0.9788 0.516-1.429 0.0926-0.2381 0.2249-0.4497 0.3307-0.6746 0.1191-0.2249 0.2514-0.4366 0.3837-0.6483-0.1058 0.2249-0.2117 0.4497-0.3176 0.6878-0.0926 0.2381-0.1984 0.4631-0.2646 0.7012-0.1588 0.4762-0.2779 0.9525-0.3705 1.442-0.06615 0.3836-0.09245 0.7804-0.1057 1.164 0 0-5.16e-5 0.01318 0.01318 0.01318 0 0 3.493-1.773 1.31-5.45zm6.143 1.752c-1.853-0.03561-3.885 0.5822-5.257 2.892 0.4498-0.1455 0.8865-0.2778 1.35-0.3969 0.9393-0.2117 1.905-0.3703 2.857-0.4364 0.4762-0.05292 0.9658-0.03974 1.442-0.05297 0.4762 0 0.9523 0.0263 1.429 0.03953-0.4762 0.02646-0.9523 0.05307-1.429 0.09276-0.3175 0.03969-0.6483 0.07943-0.9658 0.1191-0.1984 0.02646-0.3837 0.05281-0.5821 0.0925-0.8864 0.1455-1.799 0.3837-2.804 0.7144h-0.01318c-0.3836 0.1323-0.7807 0.3041-1.217 0.5025-1.521 0.635-2.844 1.588-3.956 2.818-2.011 2.236-3.043 5.106-2.884 8.109 0.1588 3.003 1.468 5.768 3.691 7.778 2.09 1.879 4.736 2.897 7.527 2.897 0.1984 0 0.3837 5.3e-5 0.5821-0.01318 3.003-0.1587 5.768-1.468 7.779-3.691 2.011-2.249 3.029-5.133 2.884-8.136-0.1455-2.765-1.257-5.318-3.175-7.276l-0.0925-0.0925c-0.2514-0.2117-0.516-0.4102-0.7806-0.5689-0.1323-0.0926-0.2778-0.1455-0.4101-0.2116-0.1323-0.06614-0.2777-0.1192-0.4232-0.1721 0.1455 0.03969 0.2909 0.06625 0.4232 0.1059 0.1455 0.05292 0.2909 0.0925 0.4232 0.1586 0.2778 0.1191 0.5557 0.2778 0.8335 0.463 0.01323 0.01323 0.03974 0.02656 0.05297 0.03979l0.8994-0.9922-3.783-0.8069 1.191 3.691 1.032-1.138c1.826 1.839 2.897 4.247 3.03 6.853 0.1455 2.791-0.8071 5.477-2.686 7.554-1.879 2.077-4.445 3.294-7.236 3.44-2.791 0.1455-5.477-0.8071-7.554-2.686-2.077-1.879-3.294-4.445-3.44-7.236-0.1455-2.791 0.8071-5.477 2.686-7.554 0.9922-1.098 2.17-1.945 3.506-2.54 1.746 0.8599 6.271 2.342 9.538-3.188 0 0-2.084-1.126-4.466-1.172z"/>
    <path fill="#306e2b" d="m18.69 12.05-3.717 5.225h0.6348l3.717-5.225zm-3.096 0.03953c-0.6218 0-1.124 0.5027-1.124 1.124s0.5027 1.124 1.124 1.124c0.6085 0 1.124-0.5027 1.124-1.124 0-0.635-0.5159-1.138-1.124-1.124zm-6.866 0.05297c-0.4762 0-0.873 0.1852-1.151 0.5292-0.3572 0.4366-0.4896 1.085-0.4896 1.984 0 0.807 0.1058 1.402 0.463 1.865 0.3043 0.3836 0.6749 0.5426 1.204 0.5426 1.098 0 1.627-0.8072 1.627-2.461 0-1.64-0.5424-2.461-1.654-2.461zm3.665 0c-0.4762 0-0.8733 0.1852-1.151 0.5292-0.3572 0.4366-0.4894 1.085-0.4894 1.984 0 0.807 0.1058 1.402 0.463 1.865 0.3043 0.3836 0.6746 0.5426 1.204 0.5426 1.098 0 1.627-0.8072 1.627-2.461 0-1.64-0.5424-2.461-1.654-2.461zm-7.078 0.1191-0.516 0.8467h0.9656v3.85h0.8997v-4.696zm10.28 0.41c0.3043 0 0.5423 0.2381 0.5423 0.5423s-0.2381 0.5426-0.5423 0.5426-0.5423-0.2383-0.5423-0.5426 0.2381-0.5423 0.5423-0.5423zm-6.853 0.3175c0.5027 0 0.7542 0.5425 0.7542 1.627s-0.2515 1.627-0.7542 1.627c-0.5159 0-0.754-0.5292-0.754-1.574 0-1.111 0.1851-1.68 0.754-1.68zm3.665 0c0.5027 0 0.754 0.5425 0.754 1.627s-0.2513 1.627-0.754 1.627c-0.5159 0-0.7542-0.5292-0.7542-1.574 0-1.111 0.1854-1.68 0.7542-1.68zm6.337 1.852c-0.6218 0-1.124 0.5027-1.124 1.124s0.5027 1.124 1.124 1.124c0.6085 0 1.124-0.5027 1.124-1.124s-0.5159-1.138-1.124-1.124zm0 0.5821c0.3043 0 0.5423 0.2381 0.5423 0.5423s-0.2381 0.5423-0.5423 0.5423-0.5426-0.2381-0.5426-0.5423 0.2383-0.5423 0.5426-0.5423z"/>
    <path fill="#306e2b" d="m11.04 17.63c-0.09961 0-0.1847 0.03538-0.2553 0.1059-0.07056 0.07056-0.1059 0.1557-0.1059 0.2553 0 0.1038 0.03538 0.1923 0.1059 0.2656 0.07194 0.07194 0.1584 0.1075 0.2594 0.1075 0.09823 0 0.1827-0.03486 0.2532-0.1054 0.07056-0.07194 0.1059-0.1584 0.1059-0.2594 0-0.1024-0.03606-0.1895-0.108-0.2615-0.07056-0.07194-0.1557-0.108-0.2553-0.108zm0.679 0.05788v3.13h0.5664v-1.04l0.9586 1.04h1.244v-0.9131l-0.0021-0.1101c0-0.3154 0.02991-0.5272 0.0894-0.6351 0.06087-0.1079 0.1345-0.1617 0.2217-0.1617 0.04289 0 0.09741 0.01693 0.1638 0.05013l0.1767-0.4878c-0.08024-0.03874-0.1572-0.0584-0.2305-0.0584-0.1038 0-0.1991 0.02923-0.2863 0.08733-0.08716 0.0581-0.1572 0.1432-0.2098 0.2553v-0.2842h-0.4852v2.234l-1.067-1.151 0.971-1.083h-0.7095l-0.8346 0.9317v-1.804zm-3.5 0.8134c-0.1397 0-0.2691 0.0265-0.3881 0.07906-0.1176 0.05257-0.2251 0.1322-0.3219 0.2387v-0.2594h-0.5684v2.258h0.5684v-1.005c0-0.2172 0.01897-0.376 0.05633-0.477 0.03874-0.101 0.09599-0.1793 0.1721-0.2346 0.07747-0.05672 0.1633-0.08526 0.2573-0.08526 0.08439 0 0.156 0.02238 0.2155 0.06666 0.05949 0.04427 0.1038 0.1118 0.1328 0.2031 0.03044 0.08992 0.04599 0.2362 0.04599 0.4382v1.093h0.5705v-1.019c0-0.2158 0.01897-0.3719 0.05633-0.4687 0.03735-0.09822 0.09392-0.1751 0.17-0.2305 0.07747-0.05534 0.1646-0.0832 0.2615-0.0832 0.1273 0 0.2226 0.04563 0.2863 0.1369 0.06364 0.08992 0.0956 0.2629 0.0956 0.5188v1.146h0.5705v-1.324c0-0.2712-0.02718-0.4672-0.08113-0.5876-0.05257-0.1204-0.1397-0.2178-0.2615-0.2925-0.1217-0.07471-0.2627-0.1121-0.4232-0.1121-0.1549 0-0.298 0.0347-0.4294 0.1039-0.13 0.06917-0.2403 0.17-0.3302 0.3028-0.06917-0.1328-0.1604-0.2337-0.2739-0.3028-0.1134-0.06917-0.2403-0.1039-0.3814-0.1039zm8.136 0c-0.2947 0-0.5555 0.1027-0.7824 0.3075-0.2587 0.2352-0.3881 0.5288-0.3881 0.8816 0 0.3293 0.1143 0.6097 0.3426 0.8408 0.2297 0.2297 0.5062 0.3442 0.8299 0.3442 0.22 0 0.4215-0.05179 0.6041-0.1555 0.1826-0.1051 0.3264-0.2502 0.4315-0.4356 0.1065-0.1854 0.1597-0.3848 0.1597-0.5979 0-0.2117-0.05247-0.4086-0.1576-0.5912-0.1051-0.1826-0.2516-0.327-0.4398-0.4336-0.1868-0.1065-0.3869-0.1602-0.6-0.1602zm-5.6 0.0584v2.258h0.5684v-2.258zm5.608 0.4749c0.1798 0 0.327 0.06119 0.4418 0.1829 0.1162 0.1204 0.1747 0.2771 0.1747 0.4708 0 0.1937-0.05914 0.3523-0.1767 0.4754-0.1176 0.1231-0.2648 0.1845-0.4418 0.1845-0.1771 0-0.3236-0.06067-0.4398-0.1824-0.1148-0.1217-0.1726-0.281-0.1726-0.4775 0-0.1909 0.05846-0.347 0.1747-0.4687 0.1176-0.1231 0.2641-0.185 0.4398-0.185zm-1.343 2.088c-0.05737 0-0.1068 0.0205-0.1483 0.06201-0.0415 0.0415-0.06201 0.09178-0.06201 0.1504 0 0.05737 0.02051 0.1068 0.06201 0.1483 0.0415 0.0415 0.09094 0.06201 0.1483 0.06201 0.05859 0 0.1089-0.0205 0.1504-0.06201 0.0415-0.04151 0.06201-0.09094 0.06201-0.1483 0-0.0586-0.02051-0.1089-0.06201-0.1504-0.0415-0.0415-0.09178-0.06201-0.1504-0.06201zm-5.679 0.05116v2.761h0.2563v-2.761zm6.217 0v2.761h0.2579v-0.895l0.9999 0.895h0.3623l-1.157-1.042 1.093-0.9503h-0.3767l-0.9214 0.802v-1.571zm-1.552 0.02946v0.7395h-0.3498v0.2196h0.3498v1.773h0.2579v-1.773h0.4067v-0.2196h-0.4067v-0.7395zm-6.013 0.6883c-0.1624 0-0.3095 0.03481-0.4413 0.1044-0.1318 0.06958-0.2485 0.174-0.3498 0.3132v-0.3664h-0.2542v2.721h0.2542v-1.071c0.1074 0.1306 0.2276 0.2286 0.3607 0.2946 0.1331 0.06592 0.279 0.0987 0.4377 0.0987 0.282 0 0.5224-0.1015 0.7214-0.3054 0.2002-0.2051 0.3002-0.4543 0.3002-0.7472 0-0.2869-0.1009-0.532-0.3023-0.7359-0.2014-0.2039-0.4434-0.3059-0.7266-0.3059zm2.955 0c-0.2832 0-0.5257 0.1021-0.7271 0.3059-0.2014 0.2039-0.3018 0.449-0.3018 0.7359 0 0.293 0.0992 0.5422 0.2982 0.7472 0.2002 0.2039 0.4415 0.3054 0.7235 0.3054 0.1587 0 0.3046-0.03278 0.4377-0.0987 0.1343-0.06592 0.2548-0.1639 0.3623-0.2946v0.3421h0.2527v-1.992h-0.2527v0.3664c-0.1001-0.1392-0.2168-0.2436-0.3498-0.3132-0.1318-0.06958-0.2793-0.1044-0.4429-0.1044zm1.949 0c-0.1575 0-0.2879 0.04977-0.3917 0.1499-0.1025 0.1001-0.1535 0.2259-0.1535 0.3772 0 0.116 0.03194 0.2192 0.09663 0.3095 0.0647 0.09033 0.1869 0.1821 0.3664 0.2749 0.1672 0.08545 0.2749 0.1562 0.3225 0.2124 0.04761 0.05737 0.07131 0.1226 0.07131 0.1959 0 0.08911-0.03598 0.1666-0.108 0.2325-0.07202 0.06592-0.1595 0.0987-0.262 0.0987-0.1465 0-0.2849-0.07399-0.4155-0.2217l-0.1612 0.1835c0.06836 0.08789 0.1546 0.1567 0.2584 0.2067 0.105 0.05005 0.2144 0.07493 0.3292 0.07493 0.1721 0 0.3157-0.05649 0.4305-0.17 0.1147-0.1135 0.1721-0.2519 0.1721-0.4155 0-0.116-0.03363-0.2204-0.1008-0.3132-0.06836-0.09155-0.1977-0.1869-0.3881-0.2858-0.1562-0.08057-0.2586-0.151-0.3075-0.2108-0.04883-0.05859-0.07338-0.1198-0.07338-0.1845 0-0.07324 0.02926-0.1378 0.08785-0.1928 0.05981-0.05493 0.1314-0.08217 0.2145-0.08217 0.1306 0 0.2643 0.06642 0.401 0.1995l0.1648-0.17c-0.1855-0.1794-0.3704-0.2692-0.5535-0.2692zm1.996 0.05116v1.992h0.2584v-1.992zm-6.919 0.1959c0.1428 0 0.2745 0.03565 0.3953 0.1065 0.1208 0.06958 0.2165 0.1676 0.2873 0.2946 0.07202 0.127 0.108 0.2615 0.108 0.4031 0 0.1404-0.03598 0.2744-0.108 0.4026-0.07202 0.1282-0.1689 0.2282-0.2909 0.3002-0.1208 0.0708-0.2502 0.1065-0.3881 0.1065-0.1404 0-0.2741-0.03566-0.401-0.1065-0.1257-0.0708-0.2231-0.1665-0.2915-0.2873-0.06714-0.1208-0.1003-0.2569-0.1003-0.4082 0-0.2307 0.07549-0.4237 0.2269-0.5788 0.1526-0.155 0.3401-0.2325 0.5622-0.2325zm2.995 0c0.2222 0 0.4088 0.07752 0.5602 0.2325 0.1526 0.155 0.2289 0.3481 0.2289 0.5788 0 0.1514-0.03396 0.2874-0.1023 0.4082-0.06714 0.1209-0.1637 0.2165-0.2894 0.2873s-0.2591 0.1065-0.3995 0.1065c-0.1392 0-0.2696-0.03566-0.3917-0.1065-0.1208-0.07202-0.2174-0.1721-0.2894-0.3002-0.07202-0.1282-0.108-0.2622-0.108-0.4026 0-0.1416 0.03565-0.2761 0.1065-0.4031 0.07202-0.127 0.1685-0.225 0.2894-0.2946 0.1208-0.0708 0.2525-0.1065 0.3953-0.1065z"/>
</svg>
