<svg version="1.1" viewBox="0 0 613 103" xmlns="http://www.w3.org/2000/svg">
    <!--
        Original Design (c) Pretix
        Idea & SVG (c) justJanne
    -->
    <defs>
        <linearGradient id="background"><stop stop-color="#f3dbdb"/></linearGradient>
        <linearGradient id="foreground"><stop stop-color="#b21010"/></linearGradient>
        <linearGradient id="text"><stop stop-color="#670909"/></linearGradient>
        <linearGradient id="white"><stop stop-color="#ffffff"/></linearGradient>
    </defs>
    <rect x="1.5" y="1.5" width="610" height="100" fill="url(#background)" stroke="url(#foreground)" stroke-width="3"/>
    <rect x="1.5" y="1.5" width="100" height="100" fill="url(#foreground)"/>
    <path fill="url(#white)" d="m38.57 22.99h24.84l17.58 17.58v22.49l-17.58 17.58h-24.84l-17.58-17.6v-22.47zm26.88 38.36c0-0.5974-0.2347-1.195-0.6615-1.622l-6.977-6.977 6.977-6.977a2.315 2.315 0 0 0 0-3.243l-3.222-3.201a2.315 2.315 0 0 0-3.243 0l-6.977 6.956-6.977-6.977a2.315 2.315 0 0 0-3.243 0l-3.201 3.222a2.315 2.315 0 0 0 0 3.243l6.956 6.977-6.977 6.977a2.315 2.315 0 0 0 0 3.243l3.222 3.222a2.315 2.315 0 0 0 3.243 0l6.977-6.977 6.977 6.977a2.315 2.315 0 0 0 3.243 0l3.222-3.222c0.4267-0.4267 0.6615-1.024 0.6615-1.622z"/>
    <path  fill="url(#text)" d="m133.8 43.04h-10.33v-18.56h10.33v1.904h-8.176v6.005h7.706v1.879h-7.706v6.868h8.176zm5.903-13.91v13.91h-2.107v-13.91zm-1.028-5.205q0.5205 0 0.8887 0.3428 0.3809 0.3301 0.3809 1.041 0 0.6982-0.3809 1.041-0.3682 0.3428-0.8887 0.3428-0.5459 0-0.9141-0.3428-0.3555-0.3428-0.3555-1.041 0-0.7109 0.3555-1.041 0.3682-0.3428 0.9141-0.3428zm12.07 4.951q2.476 0 3.745 1.219 1.27 1.206 1.27 3.885v9.064h-2.082v-8.925q0-1.739-0.7998-2.603-0.7871-0.8633-2.425-0.8633-2.311 0-3.25 1.308-0.9394 1.308-0.9394 3.796v7.287h-2.107v-13.91h1.701l0.3174 2.006h0.1143q0.4443-0.7363 1.13-1.231 0.6856-0.5078 1.536-0.7617 0.8506-0.2666 1.79-0.2666zm11.46 0.2539v13.91h-2.107v-13.91zm-1.028-5.205q0.5205 0 0.8887 0.3428 0.3809 0.3301 0.3809 1.041 0 0.6982-0.3809 1.041-0.3682 0.3428-0.8887 0.3428-0.5459 0-0.9141-0.3428-0.3555-0.3428-0.3555-1.041 0-0.7109 0.3555-1.041 0.3682-0.3428 0.9141-0.3428zm9.369 25.37q-2.742 0-4.228-1.028-1.485-1.016-1.485-2.856 0-1.308 0.8252-2.234 0.8379-0.9268 2.311-1.231-0.5459-0.2539-0.9394-0.7617-0.3809-0.5078-0.3809-1.168 0-0.7617 0.419-1.333 0.4316-0.584 1.308-1.117-1.092-0.4443-1.777-1.498-0.6728-1.066-0.6728-2.476 0-1.498 0.6221-2.552 0.6221-1.066 1.803-1.625 1.181-0.5586 2.856-0.5586 0.3682 0 0.7363 0.03809 0.3809 0.02539 0.7236 0.08887 0.3428 0.05078 0.5967 0.127h4.773v1.358l-2.564 0.3174q0.3809 0.4951 0.6348 1.193 0.2539 0.6982 0.2539 1.549 0 2.082-1.409 3.313-1.409 1.219-3.872 1.219-0.584 0-1.193-0.1016-0.6221 0.3428-0.9522 0.7617-0.3174 0.4189-0.3174 0.9648 0 0.4062 0.2412 0.6475 0.2539 0.2412 0.7236 0.3555 0.4697 0.1016 1.13 0.1016h2.45q2.272 0 3.479 0.9521 1.219 0.9521 1.219 2.78 0 2.311-1.879 3.542-1.879 1.231-5.434 1.231zm0.0635-1.65q1.727 0 2.856-0.3555 1.143-0.3428 1.701-1.003 0.5713-0.6475 0.5713-1.549 0-0.8379-0.3809-1.27-0.3808-0.4189-1.117-0.5586-0.7363-0.1523-1.803-0.1523h-2.412q-0.9394 0-1.638 0.292t-1.079 0.8633q-0.3682 0.5713-0.3682 1.422 0 1.13 0.9522 1.714 0.9522 0.5967 2.717 0.5967zm0.5459-11.12q1.511 0 2.272-0.7617t0.7617-2.222q0-1.562-0.7744-2.336-0.7744-0.7871-2.285-0.7871-1.447 0-2.234 0.8125-0.7744 0.7998-0.7744 2.349 0 1.422 0.7871 2.184t2.247 0.7617zm14.98-7.643q1.777 0 3.047 0.7871t1.942 2.209q0.6728 1.409 0.6728 3.301v1.308h-9.61q0.0381 2.45 1.219 3.732 1.181 1.282 3.326 1.282 1.32 0 2.336-0.2412 1.016-0.2412 2.107-0.7109v1.854q-1.054 0.4697-2.095 0.6855-1.028 0.2158-2.438 0.2158-2.006 0-3.504-0.8125-1.485-0.8252-2.311-2.412-0.8252-1.587-0.8252-3.885 0-2.247 0.749-3.885 0.7617-1.65 2.133-2.539 1.384-0.8887 3.25-0.8887zm-0.0254 1.727q-1.688 0-2.691 1.104t-1.193 3.085h7.363q-0.0127-1.244-0.3936-2.184-0.3682-0.9521-1.13-1.473-0.7617-0.5332-1.955-0.5332zm20.97 12.7q-2.641 0-4.189-1.803-1.536-1.803-1.536-5.357 0-3.593 1.574-5.421 1.574-1.841 4.189-1.841 1.104 0 1.93 0.292 0.8252 0.292 1.422 0.7871 0.5967 0.4824 1.003 1.104h0.1523q-0.0508-0.3936-0.1016-1.079-0.0508-0.6855-0.0508-1.117v-5.573h2.107v19.75h-1.701l-0.3174-1.98h-0.0889q-0.3936 0.6221-1.003 1.13-0.5967 0.5078-1.435 0.8125-0.8252 0.292-1.955 0.292zm0.3301-1.752q2.234 0 3.161-1.27t0.9268-3.771v-0.3809q0-2.653-0.8887-4.075-0.876-1.422-3.199-1.422-1.942 0-2.907 1.498-0.9648 1.485-0.9648 4.062 0 2.564 0.9522 3.961 0.9648 1.396 2.92 1.396zm15.98-12.67q1.777 0 3.047 0.7871t1.942 2.209q0.6728 1.409 0.6728 3.301v1.308h-9.61q0.0381 2.45 1.219 3.732 1.181 1.282 3.326 1.282 1.32 0 2.336-0.2412 1.016-0.2412 2.107-0.7109v1.854q-1.054 0.4697-2.095 0.6855-1.028 0.2158-2.438 0.2158-2.006 0-3.504-0.8125-1.485-0.8252-2.311-2.412-0.8252-1.587-0.8252-3.885 0-2.247 0.749-3.885 0.7617-1.65 2.133-2.539 1.384-0.8887 3.25-0.8887zm-0.0254 1.727q-1.688 0-2.691 1.104t-1.193 3.085h7.363q-0.0127-1.244-0.3936-2.184-0.3682-0.9521-1.13-1.473-0.7617-0.5332-1.955-0.5332zm15.59-1.727q0.419 0 0.876 0.05078 0.457 0.03809 0.8125 0.1143l-0.2666 1.955q-0.3428-0.08887-0.7617-0.1396-0.419-0.05078-0.7871-0.05078-0.8379 0-1.587 0.3428-0.7363 0.3301-1.295 0.9648-0.5586 0.6221-0.876 1.511-0.3174 0.876-0.3174 1.955v7.465h-2.12v-13.91h1.752l0.2285 2.564h0.0889q0.4316-0.7744 1.041-1.409 0.6094-0.6475 1.409-1.028 0.8125-0.3809 1.803-0.3809zm16.26 0.02539q2.488 0 3.694 1.117 1.206 1.117 1.206 3.567v9.458h-1.536l-0.4062-2.057h-0.1016q-0.584 0.7617-1.219 1.282-0.6348 0.5078-1.473 0.7744-0.8252 0.2539-2.031 0.2539-1.27 0-2.26-0.4443-0.9775-0.4443-1.549-1.346-0.5586-0.9014-0.5586-2.285 0-2.082 1.65-3.199 1.65-1.117 5.027-1.219l2.399-0.1016v-0.8506q0-1.803-0.7744-2.526-0.7744-0.7236-2.184-0.7236-1.092 0-2.082 0.3174-0.9902 0.3174-1.879 0.749l-0.6475-1.6q0.9394-0.4824 2.158-0.8252 1.219-0.3428 2.564-0.3428zm2.818 7.287-2.12 0.08887q-2.603 0.1016-3.669 0.8506-1.066 0.749-1.066 2.12 0 1.193 0.7236 1.765t1.917 0.5713q1.854 0 3.034-1.028 1.181-1.028 1.181-3.085zm17.91-7.059v13.91h-1.727l-0.3047-1.955h-0.1143q-0.4316 0.7236-1.117 1.219-0.6856 0.4951-1.549 0.7363-0.8506 0.2539-1.815 0.2539-1.65 0-2.768-0.5332-1.117-0.5332-1.688-1.65-0.5586-1.117-0.5586-2.869v-9.115h2.133v8.963q0 1.739 0.7871 2.603 0.7871 0.8506 2.399 0.8506 1.549 0 2.463-0.584 0.9268-0.584 1.333-1.714 0.4062-1.143 0.4062-2.793v-7.325zm13.46 10.11q0 1.333-0.6728 2.247-0.6602 0.9014-1.904 1.358-1.231 0.457-2.945 0.457-1.46 0-2.526-0.2285-1.066-0.2285-1.866-0.6475v-1.942q0.8506 0.4189 2.031 0.7617 1.181 0.3428 2.412 0.3428 1.803 0 2.615-0.584t0.8125-1.587q0-0.5713-0.3301-1.003-0.3174-0.4443-1.079-0.8506-0.7617-0.4189-2.107-0.9141-1.333-0.5078-2.311-1.003-0.9648-0.5078-1.498-1.231-0.5205-0.7236-0.5205-1.879 0-1.765 1.422-2.704 1.435-0.9521 3.758-0.9521 1.257 0 2.349 0.2539 1.104 0.2412 2.057 0.6602l-0.7109 1.688q-0.8633-0.3682-1.841-0.6221-0.9775-0.2539-1.993-0.2539-1.46 0-2.247 0.4824-0.7744 0.4824-0.7744 1.32 0 0.6475 0.3555 1.066 0.3682 0.4189 1.168 0.7871 0.7998 0.3682 2.107 0.8633 1.308 0.4824 2.26 1.003 0.9522 0.5078 1.46 1.244 0.5205 0.7236 0.5205 1.866zm7.274 10.05q-2.742 0-4.228-1.028-1.485-1.016-1.485-2.856 0-1.308 0.8252-2.234 0.8379-0.9268 2.311-1.231-0.5459-0.2539-0.9395-0.7617-0.3808-0.5078-0.3808-1.168 0-0.7617 0.4189-1.333 0.4316-0.584 1.308-1.117-1.092-0.4443-1.777-1.498-0.6728-1.066-0.6728-2.476 0-1.498 0.6221-2.552 0.6221-1.066 1.803-1.625 1.181-0.5586 2.856-0.5586 0.3682 0 0.7363 0.03809 0.3809 0.02539 0.7236 0.08887 0.3428 0.05078 0.5967 0.127h4.773v1.358l-2.564 0.3174q0.3809 0.4951 0.6348 1.193 0.2539 0.6982 0.2539 1.549 0 2.082-1.409 3.313-1.409 1.219-3.872 1.219-0.584 0-1.193-0.1016-0.6221 0.3428-0.9522 0.7617-0.3174 0.4189-0.3174 0.9648 0 0.4062 0.2412 0.6475 0.2539 0.2412 0.7236 0.3555 0.4697 0.1016 1.13 0.1016h2.45q2.272 0 3.479 0.9521 1.219 0.9521 1.219 2.78 0 2.311-1.879 3.542-1.879 1.231-5.434 1.231zm0.0635-1.65q1.727 0 2.856-0.3555 1.143-0.3428 1.701-1.003 0.5713-0.6475 0.5713-1.549 0-0.8379-0.3809-1.27-0.3809-0.4189-1.117-0.5586-0.7363-0.1523-1.803-0.1523h-2.412q-0.9394 0-1.638 0.292-0.6982 0.292-1.079 0.8633-0.3682 0.5713-0.3682 1.422 0 1.13 0.9522 1.714 0.9521 0.5967 2.717 0.5967zm0.5459-11.12q1.511 0 2.272-0.7617t0.7617-2.222q0-1.562-0.7744-2.336-0.7744-0.7871-2.285-0.7871-1.447 0-2.234 0.8125-0.7744 0.7998-0.7744 2.349 0 1.422 0.7871 2.184t2.247 0.7617zm14.98-7.643q1.777 0 3.047 0.7871 1.27 0.7871 1.942 2.209 0.6728 1.409 0.6728 3.301v1.308h-9.61q0.0381 2.45 1.219 3.732 1.181 1.282 3.326 1.282 1.32 0 2.336-0.2412 1.016-0.2412 2.107-0.7109v1.854q-1.054 0.4697-2.095 0.6855-1.028 0.2158-2.438 0.2158-2.006 0-3.504-0.8125-1.485-0.8252-2.311-2.412-0.8252-1.587-0.8252-3.885 0-2.247 0.749-3.885 0.7617-1.65 2.133-2.539 1.384-0.8887 3.25-0.8887zm-0.0254 1.727q-1.688 0-2.691 1.104t-1.193 3.085h7.363q-0.0127-1.244-0.3936-2.184-0.3682-0.9521-1.13-1.473-0.7617-0.5332-1.955-0.5332zm20.59 12.42-2.476-8.1q-0.165-0.5205-0.3174-1.016-0.1396-0.5078-0.2666-0.9648-0.1143-0.4697-0.2158-0.8633-0.0889-0.4062-0.1524-0.6982h-0.0889q-0.0508 0.292-0.1396 0.6982-0.0889 0.3936-0.2158 0.8633-0.1143 0.4697-0.2539 0.9902-0.1396 0.5078-0.3174 1.028l-2.59 8.062h-2.374l-3.834-13.91h2.184l2.006 7.681q0.2031 0.7617 0.3809 1.511 0.1904 0.7363 0.3174 1.396 0.1396 0.6475 0.2031 1.13h0.1016q0.0762-0.3174 0.165-0.7617 0.1016-0.4443 0.2158-0.9395 0.127-0.5078 0.2666-1.003 0.1396-0.5078 0.2793-0.9521l2.564-8.062h2.272l2.476 8.049q0.1904 0.6094 0.3682 1.27 0.1904 0.6602 0.3428 1.282 0.1524 0.6094 0.2158 1.092h0.1016q0.0508-0.4316 0.1904-1.066 0.1396-0.6348 0.3174-1.396 0.1904-0.7617 0.3936-1.549l2.031-7.681h2.146l-3.847 13.91zm14.03-14.12q2.488 0 3.694 1.117 1.206 1.117 1.206 3.567v9.458h-1.536l-0.4062-2.057h-0.1016q-0.584 0.7617-1.219 1.282-0.6348 0.5078-1.473 0.7744-0.8252 0.2539-2.031 0.2539-1.27 0-2.26-0.4443-0.9775-0.4443-1.549-1.346-0.5586-0.9014-0.5586-2.285 0-2.082 1.65-3.199 1.65-1.117 5.027-1.219l2.399-0.1016v-0.8506q0-1.803-0.7744-2.526-0.7744-0.7236-2.184-0.7236-1.092 0-2.082 0.3174-0.9902 0.3174-1.879 0.749l-0.6475-1.6q0.9394-0.4824 2.158-0.8252 1.219-0.3428 2.564-0.3428zm2.818 7.287-2.12 0.08887q-2.603 0.1016-3.669 0.8506-1.066 0.749-1.066 2.12 0 1.193 0.7236 1.765t1.917 0.5713q1.854 0 3.034-1.028 1.181-1.028 1.181-3.085zm-6.614-10.84q0-0.6348 0.3301-0.9268 0.3301-0.292 0.8125-0.292 0.4951 0 0.8252 0.292 0.3428 0.292 0.3428 0.9268 0 0.6221-0.3428 0.9395-0.3301 0.3047-0.8252 0.3047-0.4824 0-0.8125-0.3047-0.3301-0.3174-0.3301-0.9395zm4.875 0q0-0.6348 0.3301-0.9268 0.3301-0.292 0.7998-0.292 0.4824 0 0.8252 0.292 0.3428 0.292 0.3428 0.9268 0 0.6221-0.3428 0.9395-0.3428 0.3047-0.8252 0.3047-0.4697 0-0.7998-0.3047-0.3301-0.3174-0.3301-0.9395zm10.27-2.057v5.903q0 0.5078-0.0254 1.028-0.0254 0.5078-0.0889 0.9395h0.1396q0.4316-0.7363 1.092-1.231 0.6729-0.5078 1.523-0.7617 0.8506-0.2666 1.803-0.2666 1.676 0 2.793 0.5332 1.13 0.5332 1.688 1.65 0.5713 1.117 0.5713 2.895v9.064h-2.082v-8.925q0-1.739-0.7998-2.603-0.7871-0.8633-2.425-0.8633-1.549 0-2.476 0.5967-0.9141 0.584-1.32 1.727-0.3936 1.143-0.3936 2.793v7.274h-2.107v-19.75zm15.96 19.75h-2.12v-19.75h2.12zm8.938-1.473q0.5205 0 1.066-0.08887t0.8887-0.2158v1.638q-0.3682 0.165-1.028 0.2793-0.6475 0.1143-1.27 0.1143-1.104 0-2.006-0.3809-0.9014-0.3936-1.447-1.32-0.5332-0.9268-0.5332-2.564v-8.252h-1.98v-1.028l1.993-0.8252 0.8379-3.021h1.27v3.225h4.075v1.65h-4.075v8.188q0 1.308 0.5967 1.955 0.6094 0.6475 1.612 0.6475zm10.13-12.7q1.777 0 3.047 0.7871t1.942 2.209q0.6728 1.409 0.6728 3.301v1.308h-9.61q0.0381 2.45 1.219 3.732 1.181 1.282 3.326 1.282 1.32 0 2.336-0.2412 1.016-0.2412 2.107-0.7109v1.854q-1.054 0.4697-2.095 0.6855-1.028 0.2158-2.438 0.2158-2.006 0-3.504-0.8125-1.485-0.8252-2.311-2.412-0.8252-1.587-0.8252-3.885 0-2.247 0.749-3.885 0.7617-1.65 2.133-2.539 1.384-0.8887 3.25-0.8887zm-0.0254 1.727q-1.688 0-2.691 1.104t-1.193 3.085h7.363q-0.0127-1.244-0.3936-2.184-0.3682-0.9521-1.13-1.473-0.7617-0.5332-1.955-0.5332zm15.86-1.727q2.476 0 3.745 1.219 1.27 1.206 1.27 3.885v9.064h-2.082v-8.925q0-1.739-0.7998-2.603-0.7871-0.8633-2.425-0.8633-2.311 0-3.25 1.308-0.9395 1.308-0.9395 3.796v7.287h-2.107v-13.91h1.701l0.3174 2.006h0.1142q0.4443-0.7363 1.13-1.231 0.6855-0.5078 1.536-0.7617 0.8506-0.2666 1.79-0.2666zm21.28-4.393q3.593 0 5.243 1.409 1.663 1.396 1.663 4.012 0 1.181-0.3936 2.247-0.3809 1.054-1.244 1.866-0.8633 0.7998-2.272 1.27-1.396 0.457-3.428 0.457h-2.26v7.3h-2.158v-18.56zm-0.2031 1.841h-2.488v7.566h2.019q1.777 0 2.958-0.3809 1.193-0.3809 1.79-1.231 0.5967-0.8633 0.5967-2.285 0-1.854-1.181-2.755-1.181-0.9141-3.694-0.9141zm17 2.552q0.419 0 0.876 0.05078 0.457 0.03809 0.8125 0.1143l-0.2666 1.955q-0.3428-0.08887-0.7617-0.1396-0.419-0.05078-0.7871-0.05078-0.8379 0-1.587 0.3428-0.7363 0.3301-1.295 0.9648-0.5586 0.6221-0.876 1.511-0.3174 0.876-0.3174 1.955v7.465h-2.12v-13.91h1.752l0.2285 2.564h0.0889q0.4316-0.7744 1.041-1.409 0.6094-0.6475 1.409-1.028 0.8125-0.3809 1.803-0.3809zm16.3 7.186q0 1.714-0.4443 3.06-0.4443 1.346-1.282 2.272-0.8379 0.9268-2.031 1.422-1.181 0.4824-2.679 0.4824-1.396 0-2.564-0.4824-1.155-0.4951-2.006-1.422-0.8379-0.9268-1.308-2.272-0.457-1.346-0.457-3.06 0-2.285 0.7744-3.885 0.7744-1.612 2.209-2.45 1.447-0.8506 3.44-0.8506 1.904 0 3.326 0.8506 1.435 0.8506 2.222 2.463 0.7998 1.6 0.7998 3.872zm-10.59 0q0 1.676 0.4443 2.907 0.4443 1.231 1.371 1.904 0.9268 0.6729 2.387 0.6729 1.447 0 2.374-0.6729 0.9395-0.6729 1.384-1.904 0.4443-1.231 0.4443-2.907 0-1.663-0.4443-2.869-0.4443-1.219-1.371-1.879-0.9268-0.6602-2.399-0.6602-2.171 0-3.187 1.435-1.003 1.435-1.003 3.974zm19.18 7.236q-2.641 0-4.189-1.803-1.536-1.803-1.536-5.357 0-3.593 1.574-5.421 1.574-1.841 4.189-1.841 1.104 0 1.93 0.292 0.8252 0.292 1.422 0.7871 0.5967 0.4824 1.003 1.104h0.1523q-0.0508-0.3936-0.1016-1.079-0.0508-0.6855-0.0508-1.117v-5.573h2.107v19.75h-1.701l-0.3174-1.98h-0.0889q-0.3936 0.6221-1.003 1.13-0.5967 0.5078-1.435 0.8125-0.8252 0.292-1.955 0.292zm0.3301-1.752q2.234 0 3.161-1.27t0.9268-3.771v-0.3809q0-2.653-0.8887-4.075-0.876-1.422-3.199-1.422-1.942 0-2.907 1.498-0.9648 1.485-0.9648 4.062 0 2.564 0.9521 3.961 0.9648 1.396 2.92 1.396zm22.12-12.42v13.91h-1.727l-0.3047-1.955h-0.1143q-0.4316 0.7236-1.117 1.219-0.6856 0.4951-1.549 0.7363-0.8506 0.2539-1.815 0.2539-1.65 0-2.768-0.5332-1.117-0.5332-1.688-1.65-0.5586-1.117-0.5586-2.869v-9.115h2.133v8.963q0 1.739 0.7871 2.603 0.7871 0.8506 2.399 0.8506 1.549 0 2.463-0.584 0.9268-0.584 1.333-1.714 0.4062-1.143 0.4062-2.793v-7.325zm6.551-5.84v10.26q0 0.5078-0.0381 1.244-0.0381 0.7236-0.0635 1.282h0.0889q0.2666-0.3301 0.7744-0.9775 0.5205-0.6475 0.876-1.041l4.621-4.926h2.476l-5.599 5.941 6.005 7.973h-2.539l-4.913-6.589-1.688 1.549v5.04h-2.095v-19.75zm16.06 18.28q0.5205 0 1.066-0.08887t0.8887-0.2158v1.638q-0.3682 0.165-1.028 0.2793-0.6475 0.1143-1.27 0.1143-1.104 0-2.006-0.3809-0.9014-0.3936-1.447-1.32-0.5332-0.9268-0.5332-2.564v-8.252h-1.98v-1.028l1.993-0.8252 0.8379-3.021h1.27v3.225h4.075v1.65h-4.075v8.188q0 1.308 0.5967 1.955 0.6094 0.6475 1.612 0.6475zm10.13-12.7q1.777 0 3.047 0.7871t1.942 2.209q0.6728 1.409 0.6728 3.301v1.308h-9.61q0.0381 2.45 1.219 3.732 1.181 1.282 3.326 1.282 1.32 0 2.336-0.2412 1.016-0.2412 2.107-0.7109v1.854q-1.054 0.4697-2.095 0.6855-1.028 0.2158-2.438 0.2158-2.006 0-3.504-0.8125-1.485-0.8252-2.311-2.412-0.8252-1.587-0.8252-3.885 0-2.247 0.749-3.885 0.7617-1.65 2.133-2.539 1.384-0.8887 3.25-0.8887zm-0.0254 1.727q-1.688 0-2.691 1.104t-1.193 3.085h7.363q-0.0127-1.244-0.3936-2.184-0.3682-0.9521-1.13-1.473-0.7617-0.5332-1.955-0.5332zm25.02 8.633q0 1.333-0.6728 2.247-0.6602 0.9014-1.904 1.358-1.231 0.457-2.945 0.457-1.46 0-2.526-0.2285-1.066-0.2285-1.866-0.6475v-1.942q0.8506 0.4189 2.031 0.7617 1.181 0.3428 2.412 0.3428 1.803 0 2.615-0.584t0.8125-1.587q0-0.5713-0.3301-1.003-0.3174-0.4443-1.079-0.8506-0.7617-0.4189-2.107-0.9141-1.333-0.5078-2.311-1.003-0.9648-0.5078-1.498-1.231-0.5205-0.7236-0.5205-1.879 0-1.765 1.422-2.704 1.435-0.9521 3.758-0.9521 1.257 0 2.349 0.2539 1.104 0.2412 2.057 0.6602l-0.7109 1.688q-0.8633-0.3682-1.841-0.6221-0.9775-0.2539-1.993-0.2539-1.46 0-2.247 0.4824-0.7744 0.4824-0.7744 1.32 0 0.6475 0.3555 1.066 0.3682 0.4189 1.168 0.7871 0.7998 0.3682 2.107 0.8633 1.308 0.4824 2.26 1.003 0.9522 0.5078 1.46 1.244 0.5205 0.7236 0.5205 1.866zm5.497-10.11v13.91h-2.107v-13.91zm-1.028-5.205q0.5205 0 0.8887 0.3428 0.3809 0.3301 0.3809 1.041 0 0.6982-0.3809 1.041-0.3682 0.3428-0.8887 0.3428-0.5459 0-0.9141-0.3428-0.3555-0.3428-0.3555-1.041 0-0.7109 0.3555-1.041 0.3682-0.3428 0.9141-0.3428zm12.07 4.951q2.476 0 3.745 1.219 1.27 1.206 1.27 3.885v9.064h-2.082v-8.925q0-1.739-0.7998-2.603-0.7871-0.8633-2.425-0.8633-2.311 0-3.25 1.308-0.9394 1.308-0.9394 3.796v7.287h-2.107v-13.91h1.701l0.3174 2.006h0.1143q0.4443-0.7363 1.13-1.231 0.6856-0.5078 1.536-0.7617 0.8506-0.2666 1.79-0.2666zm14.31 14.42q-2.641 0-4.189-1.803-1.536-1.803-1.536-5.357 0-3.593 1.574-5.421 1.574-1.841 4.189-1.841 1.104 0 1.93 0.292 0.8252 0.292 1.422 0.7871 0.5967 0.4824 1.003 1.104h0.1523q-0.0508-0.3936-0.1016-1.079-0.0508-0.6855-0.0508-1.117v-5.573h2.107v19.75h-1.701l-0.3174-1.98h-0.0889q-0.3936 0.6221-1.003 1.13-0.5967 0.5078-1.435 0.8125-0.8252 0.292-1.955 0.292zm0.3301-1.752q2.234 0 3.161-1.27t0.9268-3.771v-0.3809q0-2.653-0.8887-4.075-0.876-1.422-3.199-1.422-1.942 0-2.907 1.498-0.9648 1.485-0.9648 4.062 0 2.564 0.9522 3.961 0.9648 1.396 2.92 1.396z"/>
    <path fill="url(#text)" d="m132.1 79.44h-10.14v-1.396l7.63-10.87h-7.147v-1.65h9.496v1.562l-7.528 10.71h7.693zm14.57-0.0254-2.476-8.1q-0.165-0.5205-0.3174-1.016-0.1396-0.5078-0.2666-0.9648-0.1142-0.4697-0.2158-0.8633-0.0889-0.4062-0.1523-0.6982h-0.0889q-0.0508 0.292-0.1396 0.6982-0.0889 0.3936-0.2158 0.8633-0.1142 0.4697-0.2539 0.9902-0.1396 0.5078-0.3174 1.028l-2.59 8.062h-2.374l-3.834-13.91h2.184l2.006 7.681q0.2031 0.7617 0.3808 1.511 0.1904 0.7363 0.3174 1.396 0.1396 0.6475 0.2031 1.13h0.1016q0.0762-0.3174 0.165-0.7617 0.1016-0.4443 0.2158-0.9394 0.127-0.5078 0.2666-1.003 0.1396-0.5078 0.2793-0.9522l2.564-8.062h2.272l2.476 8.049q0.1904 0.6094 0.3682 1.27 0.1904 0.6602 0.3428 1.282 0.1523 0.6094 0.2158 1.092h0.1016q0.0508-0.4316 0.1904-1.066 0.1396-0.6348 0.3174-1.396 0.1904-0.7617 0.3936-1.549l2.031-7.681h2.146l-3.847 13.91zm10.93-13.89v13.91h-2.107v-13.91zm-1.028-5.205q0.5205 0 0.8887 0.3428 0.3809 0.3301 0.3809 1.041 0 0.6982-0.3809 1.041-0.3682 0.3428-0.8887 0.3428-0.5459 0-0.9141-0.3428-0.3555-0.3428-0.3555-1.041 0-0.7109 0.3555-1.041 0.3682-0.3428 0.9141-0.3428zm14.49 15.31q0 1.333-0.6728 2.247-0.6602 0.9014-1.904 1.358-1.231 0.457-2.945 0.457-1.46 0-2.526-0.2285-1.066-0.2285-1.866-0.6475v-1.942q0.8506 0.4189 2.031 0.7617 1.181 0.3428 2.412 0.3428 1.803 0 2.615-0.584 0.8125-0.584 0.8125-1.587 0-0.5713-0.3301-1.003-0.3174-0.4443-1.079-0.8506-0.7617-0.4189-2.107-0.9141-1.333-0.5078-2.311-1.003-0.9648-0.5078-1.498-1.231-0.5205-0.7236-0.5205-1.879 0-1.765 1.422-2.704 1.435-0.9522 3.758-0.9522 1.257 0 2.349 0.2539 1.104 0.2412 2.057 0.6602l-0.7109 1.688q-0.8633-0.3682-1.841-0.6221-0.9775-0.2539-1.993-0.2539-1.46 0-2.247 0.4824-0.7744 0.4824-0.7744 1.32 0 0.6475 0.3555 1.066 0.3682 0.419 1.168 0.7871 0.7998 0.3682 2.107 0.8633 1.308 0.4824 2.26 1.003 0.9522 0.5078 1.46 1.244 0.5205 0.7236 0.5205 1.866zm8.963 4.062q-1.879 0-3.313-0.7744t-2.234-2.361q-0.7998-1.587-0.7998-3.999 0-2.526 0.8379-4.126 0.8506-1.612 2.336-2.387 1.485-0.7744 3.377-0.7744 1.041 0 2.006 0.2158 0.9775 0.2031 1.6 0.5205l-0.6348 1.765q-0.6348-0.2539-1.473-0.457-0.8252-0.2031-1.549-0.2031-1.447 0-2.412 0.6221-0.9521 0.6221-1.435 1.828-0.4697 1.206-0.4697 2.971 0 1.688 0.457 2.882 0.4697 1.193 1.384 1.828 0.9268 0.6221 2.311 0.6221 1.104 0 1.993-0.2285 0.8887-0.2412 1.612-0.5586v1.879q-0.6982 0.3555-1.562 0.5459-0.8506 0.1904-2.031 0.1904zm8.988-20.01v5.903q0 0.5078-0.0254 1.028-0.0254 0.5078-0.0889 0.9395h0.1396q0.4316-0.7363 1.092-1.231 0.6728-0.5078 1.523-0.7617 0.8506-0.2666 1.803-0.2666 1.676 0 2.793 0.5332 1.13 0.5332 1.688 1.65 0.5713 1.117 0.5713 2.895v9.064h-2.082v-8.925q0-1.739-0.7998-2.603-0.7871-0.8633-2.425-0.8633-1.549 0-2.476 0.5967-0.9141 0.584-1.32 1.727-0.3936 1.143-0.3936 2.793v7.274h-2.107v-19.75zm19.2 5.586q1.777 0 3.047 0.7871t1.942 2.209q0.6728 1.409 0.6728 3.301v1.308h-9.61q0.0381 2.45 1.219 3.732 1.181 1.282 3.326 1.282 1.32 0 2.336-0.2412 1.016-0.2412 2.107-0.7109v1.854q-1.054 0.4697-2.095 0.6855-1.028 0.2158-2.438 0.2158-2.006 0-3.504-0.8125-1.485-0.8252-2.311-2.412-0.8252-1.587-0.8252-3.885 0-2.247 0.749-3.885 0.7617-1.65 2.133-2.539 1.384-0.8887 3.25-0.8887zm-0.0254 1.727q-1.688 0-2.691 1.104-1.003 1.104-1.193 3.085h7.363q-0.0127-1.244-0.3936-2.184-0.3682-0.9522-1.13-1.473-0.7617-0.5332-1.955-0.5332zm15.86-1.727q2.476 0 3.745 1.219 1.27 1.206 1.27 3.885v9.064h-2.082v-8.925q0-1.739-0.7998-2.603-0.7871-0.8633-2.425-0.8633-2.311 0-3.25 1.308-0.9395 1.308-0.9395 3.796v7.287h-2.107v-13.91h1.701l0.3174 2.006h0.1142q0.4443-0.7363 1.13-1.231 0.6855-0.5078 1.536-0.7617 0.8506-0.2666 1.79-0.2666zm18.29 14.17h-10.14v-1.396l7.63-10.87h-7.147v-1.65h9.496v1.562l-7.528 10.71h7.693zm8.607-14.17q1.777 0 3.047 0.7871t1.942 2.209q0.6728 1.409 0.6728 3.301v1.308h-9.61q0.0381 2.45 1.219 3.732 1.181 1.282 3.326 1.282 1.32 0 2.336-0.2412 1.016-0.2412 2.107-0.7109v1.854q-1.054 0.4697-2.095 0.6855-1.028 0.2158-2.438 0.2158-2.006 0-3.504-0.8125-1.485-0.8252-2.311-2.412-0.8252-1.587-0.8252-3.885 0-2.247 0.749-3.885 0.7617-1.65 2.133-2.539 1.384-0.8887 3.25-0.8887zm-0.0254 1.727q-1.688 0-2.691 1.104-1.003 1.104-1.193 3.085h7.363q-0.0127-1.244-0.3936-2.184-0.3682-0.9522-1.13-1.473-0.7617-0.5332-1.955-0.5332zm11.38-1.473v13.91h-2.107v-13.91zm-1.028-5.205q0.5205 0 0.8887 0.3428 0.3809 0.3301 0.3809 1.041 0 0.6982-0.3809 1.041-0.3682 0.3428-0.8887 0.3428-0.5459 0-0.9141-0.3428-0.3555-0.3428-0.3555-1.041 0-0.7109 0.3555-1.041 0.3682-0.3428 0.9141-0.3428zm9.979 17.65q0.5205 0 1.066-0.0889 0.5459-0.0889 0.8887-0.2158v1.638q-0.3682 0.165-1.028 0.2793-0.6475 0.1142-1.27 0.1142-1.104 0-2.006-0.3808-0.9014-0.3936-1.447-1.32-0.5332-0.9268-0.5332-2.564v-8.252h-1.98v-1.028l1.993-0.8252 0.8379-3.021h1.27v3.225h4.075v1.65h-4.075v8.188q0 1.308 0.5967 1.955 0.6094 0.6475 1.612 0.6475zm6.894 1.473h-2.12v-19.75h2.12zm6.551-13.91v13.91h-2.107v-13.91zm-1.028-5.205q0.5205 0 0.8887 0.3428 0.3809 0.3301 0.3809 1.041 0 0.6982-0.3809 1.041-0.3682 0.3428-0.8887 0.3428-0.5459 0-0.9141-0.3428-0.3555-0.3428-0.3555-1.041 0-0.7109 0.3555-1.041 0.3682-0.3428 0.9141-0.3428zm11.06 19.37q-1.879 0-3.313-0.7744t-2.234-2.361q-0.7998-1.587-0.7998-3.999 0-2.526 0.8379-4.126 0.8506-1.612 2.336-2.387 1.485-0.7744 3.377-0.7744 1.041 0 2.006 0.2158 0.9775 0.2031 1.6 0.5205l-0.6348 1.765q-0.6348-0.2539-1.473-0.457-0.8252-0.2031-1.549-0.2031-1.447 0-2.412 0.6221-0.9522 0.6221-1.435 1.828-0.4697 1.206-0.4697 2.971 0 1.688 0.457 2.882 0.4697 1.193 1.384 1.828 0.9268 0.6221 2.311 0.6221 1.104 0 1.993-0.2285 0.8887-0.2412 1.612-0.5586v1.879q-0.6982 0.3555-1.562 0.5459-0.8506 0.1904-2.031 0.1904zm8.988-20.01v5.903q0 0.5078-0.0254 1.028-0.0254 0.5078-0.0889 0.9395h0.1396q0.4316-0.7363 1.092-1.231 0.6728-0.5078 1.523-0.7617 0.8506-0.2666 1.803-0.2666 1.676 0 2.793 0.5332 1.13 0.5332 1.688 1.65 0.5713 1.117 0.5713 2.895v9.064h-2.082v-8.925q0-1.739-0.7998-2.603-0.7871-0.8633-2.425-0.8633-1.549 0-2.476 0.5967-0.9141 0.584-1.32 1.727-0.3936 1.143-0.3936 2.793v7.274h-2.107v-19.75zm27.18 5.586q2.476 0 3.745 1.219 1.27 1.206 1.27 3.885v9.064h-2.082v-8.925q0-1.739-0.7998-2.603-0.7871-0.8633-2.425-0.8633-2.311 0-3.25 1.308-0.9395 1.308-0.9395 3.796v7.287h-2.107v-13.91h1.701l0.3174 2.006h0.1142q0.4443-0.7363 1.13-1.231 0.6855-0.5078 1.536-0.7617 0.8506-0.2666 1.79-0.2666zm11.46 0.2539v13.91h-2.107v-13.91zm-1.028-5.205q0.5205 0 0.8887 0.3428 0.3809 0.3301 0.3809 1.041 0 0.6982-0.3809 1.041-0.3682 0.3428-0.8887 0.3428-0.5459 0-0.9141-0.3428-0.3555-0.3428-0.3555-1.041 0-0.7109 0.3555-1.041 0.3682-0.3428 0.9141-0.3428zm11.06 19.37q-1.879 0-3.313-0.7744-1.435-0.7744-2.234-2.361-0.7998-1.587-0.7998-3.999 0-2.526 0.8379-4.126 0.8506-1.612 2.336-2.387 1.485-0.7744 3.377-0.7744 1.041 0 2.006 0.2158 0.9775 0.2031 1.6 0.5205l-0.6348 1.765q-0.6348-0.2539-1.473-0.457-0.8252-0.2031-1.549-0.2031-1.447 0-2.412 0.6221-0.9522 0.6221-1.435 1.828-0.4697 1.206-0.4697 2.971 0 1.688 0.457 2.882 0.4697 1.193 1.384 1.828 0.9268 0.6221 2.311 0.6221 1.104 0 1.993-0.2285 0.8887-0.2412 1.612-0.5586v1.879q-0.6982 0.3555-1.562 0.5459-0.8506 0.1904-2.031 0.1904zm8.988-20.01v5.903q0 0.5078-0.0254 1.028-0.0254 0.5078-0.0889 0.9395h0.1396q0.4316-0.7363 1.092-1.231 0.6728-0.5078 1.523-0.7617 0.8506-0.2666 1.803-0.2666 1.676 0 2.793 0.5332 1.13 0.5332 1.688 1.65 0.5713 1.117 0.5713 2.895v9.064h-2.082v-8.925q0-1.739-0.7998-2.603-0.7871-0.8633-2.425-0.8633-1.549 0-2.476 0.5967-0.9141 0.584-1.32 1.727-0.3936 1.143-0.3936 2.793v7.274h-2.107v-19.75zm18.33 18.28q0.5205 0 1.066-0.0889t0.8887-0.2158v1.638q-0.3682 0.165-1.028 0.2793-0.6475 0.1142-1.27 0.1142-1.104 0-2.006-0.3808-0.9014-0.3936-1.447-1.32-0.5332-0.9268-0.5332-2.564v-8.252h-1.98v-1.028l1.993-0.8252 0.8379-3.021h1.27v3.225h4.075v1.65h-4.075v8.188q0 1.308 0.5967 1.955 0.6094 0.6475 1.612 0.6475zm26.63-12.7q2.298 0 3.466 1.206 1.168 1.193 1.168 3.847v9.115h-2.082v-9.014q0-1.688-0.7363-2.526-0.7236-0.8506-2.158-0.8506-2.019 0-2.933 1.168t-0.9141 3.44v7.782h-2.095v-9.014q0-1.13-0.3301-1.879-0.3174-0.749-0.9648-1.117-0.6348-0.3809-1.612-0.3809-1.384 0-2.222 0.5713t-1.219 1.701q-0.3682 1.117-0.3682 2.755v7.363h-2.107v-13.91h1.701l0.3174 1.968h0.1143q0.419-0.7236 1.054-1.219 0.6348-0.4951 1.422-0.749 0.7871-0.2539 1.676-0.2539 1.587 0 2.653 0.5967 1.079 0.584 1.562 1.79h0.1143q0.6856-1.206 1.879-1.79 1.193-0.5967 2.615-0.5967zm14.32 0q1.777 0 3.047 0.7871t1.942 2.209q0.6728 1.409 0.6728 3.301v1.308h-9.61q0.0381 2.45 1.219 3.732 1.181 1.282 3.326 1.282 1.32 0 2.336-0.2412 1.016-0.2412 2.107-0.7109v1.854q-1.054 0.4697-2.095 0.6855-1.028 0.2158-2.438 0.2158-2.006 0-3.504-0.8125-1.485-0.8252-2.311-2.412-0.8252-1.587-0.8252-3.885 0-2.247 0.749-3.885 0.7617-1.65 2.133-2.539 1.384-0.8887 3.25-0.8887zm-0.0254 1.727q-1.688 0-2.691 1.104-1.003 1.104-1.193 3.085h7.363q-0.0127-1.244-0.3936-2.184-0.3682-0.9522-1.13-1.473-0.7617-0.5332-1.955-0.5332zm11.38-7.312v5.903q0 0.5078-0.0254 1.028-0.0254 0.5078-0.0889 0.9395h0.1396q0.4316-0.7363 1.092-1.231 0.6728-0.5078 1.523-0.7617 0.8506-0.2666 1.803-0.2666 1.676 0 2.793 0.5332 1.13 0.5332 1.688 1.65 0.5713 1.117 0.5713 2.895v9.064h-2.082v-8.925q0-1.739-0.7998-2.603-0.7871-0.8633-2.425-0.8633-1.549 0-2.476 0.5967-0.9141 0.584-1.32 1.727-0.3936 1.143-0.3936 2.793v7.274h-2.107v-19.75zm20.16 5.586q0.4189 0 0.876 0.0508 0.457 0.0381 0.8125 0.1143l-0.2666 1.955q-0.3428-0.0889-0.7617-0.1396-0.4189-0.0508-0.7871-0.0508-0.8379 0-1.587 0.3428-0.7363 0.3301-1.295 0.9648-0.5586 0.6221-0.876 1.511-0.3174 0.876-0.3174 1.955v7.465h-2.12v-13.91h1.752l0.2285 2.564h0.0889q0.4316-0.7744 1.041-1.409 0.6094-0.6475 1.409-1.028 0.8125-0.3809 1.803-0.3809zm14.12 14.17-5.281-13.91h2.26l3.06 8.417q0.3174 0.8633 0.6475 1.904 0.3301 1.041 0.457 1.676h0.0889q0.1523-0.6348 0.5078-1.676 0.3555-1.054 0.6475-1.904l3.06-8.417h2.26l-5.294 13.91zm15.29-14.17q1.777 0 3.047 0.7871t1.942 2.209q0.6728 1.409 0.6728 3.301v1.308h-9.61q0.0381 2.45 1.219 3.732 1.181 1.282 3.326 1.282 1.32 0 2.336-0.2412 1.016-0.2412 2.107-0.7109v1.854q-1.054 0.4697-2.095 0.6855-1.028 0.2158-2.438 0.2158-2.006 0-3.504-0.8125-1.485-0.8252-2.311-2.412-0.8252-1.587-0.8252-3.885 0-2.247 0.749-3.885 0.7617-1.65 2.133-2.539 1.384-0.8887 3.25-0.8887zm-0.0254 1.727q-1.688 0-2.691 1.104-1.003 1.104-1.193 3.085h7.363q-0.0127-1.244-0.3936-2.184-0.3682-0.9522-1.13-1.473-0.7617-0.5332-1.955-0.5332zm15.59-1.727q0.419 0 0.876 0.0508 0.457 0.0381 0.8125 0.1143l-0.2666 1.955q-0.3428-0.0889-0.7617-0.1396-0.4189-0.0508-0.7871-0.0508-0.8379 0-1.587 0.3428-0.7363 0.3301-1.295 0.9648-0.5586 0.6221-0.876 1.511-0.3174 0.876-0.3174 1.955v7.465h-2.12v-13.91h1.752l0.2285 2.564h0.0889q0.4316-0.7744 1.041-1.409 0.6094-0.6475 1.409-1.028 0.8125-0.3809 1.803-0.3809zm10.5 1.904h-3.466v12.26h-2.107v-12.26h-2.463v-1.016l2.463-0.6982v-0.9268q0-1.752 0.5205-2.844 0.5205-1.104 1.511-1.625 0.9902-0.5205 2.412-0.5205 0.7998 0 1.46 0.1396 0.6728 0.1396 1.181 0.3174l-0.5459 1.663q-0.4316-0.1396-0.9775-0.2539-0.5332-0.127-1.092-0.127-1.206 0-1.79 0.7871-0.5713 0.7744-0.5713 2.438v1.016h3.466zm14.04-1.65v13.91h-1.727l-0.3047-1.955h-0.1142q-0.4316 0.7236-1.117 1.219t-1.549 0.7363q-0.8506 0.2539-1.815 0.2539-1.65 0-2.768-0.5332-1.117-0.5332-1.688-1.65-0.5586-1.117-0.5586-2.869v-9.115h2.133v8.963q0 1.739 0.7871 2.603 0.7871 0.8506 2.399 0.8506 1.549 0 2.463-0.584 0.9268-0.584 1.333-1.714 0.4062-1.143 0.4062-2.793v-7.325zm-9.331-3.783q0-0.6348 0.3301-0.9268 0.3301-0.292 0.8125-0.292 0.4951 0 0.8252 0.292 0.3428 0.292 0.3428 0.9268 0 0.6221-0.3428 0.9395-0.3301 0.3047-0.8252 0.3047-0.4824 0-0.8125-0.3047-0.3301-0.3174-0.3301-0.9395zm4.875 0q0-0.6348 0.3301-0.9268 0.3301-0.292 0.7998-0.292 0.4824 0 0.8252 0.292 0.3428 0.292 0.3428 0.9268 0 0.6221-0.3428 0.9395-0.3428 0.3047-0.8252 0.3047-0.4697 0-0.7998-0.3047-0.3301-0.3174-0.3301-0.9395zm12.8 23.94q-2.742 0-4.228-1.028-1.485-1.016-1.485-2.856 0-1.308 0.8252-2.234 0.8379-0.9268 2.311-1.231-0.5459-0.2539-0.9395-0.7617-0.3809-0.5078-0.3809-1.168 0-0.7617 0.419-1.333 0.4316-0.584 1.308-1.117-1.092-0.4443-1.777-1.498-0.6728-1.066-0.6728-2.476 0-1.498 0.6221-2.552 0.6221-1.066 1.803-1.625 1.181-0.5586 2.856-0.5586 0.3682 0 0.7363 0.0381 0.3809 0.0254 0.7236 0.0889 0.3428 0.0508 0.5967 0.127h4.773v1.358l-2.564 0.3174q0.3808 0.4951 0.6348 1.193 0.2539 0.6982 0.2539 1.549 0 2.082-1.409 3.313-1.409 1.219-3.872 1.219-0.584 0-1.193-0.1016-0.6221 0.3428-0.9522 0.7617-0.3174 0.4189-0.3174 0.9648 0 0.4062 0.2412 0.6475 0.2539 0.2412 0.7236 0.3555 0.4697 0.1016 1.13 0.1016h2.45q2.272 0 3.479 0.9522 1.219 0.9522 1.219 2.78 0 2.311-1.879 3.542-1.879 1.231-5.434 1.231zm0.0635-1.65q1.727 0 2.856-0.3555 1.143-0.3428 1.701-1.003 0.5713-0.6475 0.5713-1.549 0-0.8379-0.3809-1.27-0.3809-0.4189-1.117-0.5586-0.7363-0.1523-1.803-0.1523h-2.412q-0.9395 0-1.638 0.292t-1.079 0.8633q-0.3682 0.5713-0.3682 1.422 0 1.13 0.9521 1.714 0.9522 0.5967 2.717 0.5967zm0.5459-11.12q1.511 0 2.272-0.7617t0.7617-2.222q0-1.562-0.7744-2.336-0.7744-0.7871-2.285-0.7871-1.447 0-2.234 0.8125-0.7744 0.7998-0.7744 2.349 0 1.422 0.7871 2.184t2.247 0.7617zm11.73-13.23v4.938q0 0.8506-0.0508 1.65-0.0381 0.7998-0.0635 1.244h0.1143q0.5713-0.9394 1.65-1.587t2.755-0.6475q2.615 0 4.164 1.815 1.562 1.803 1.562 5.37 0 2.349-0.7109 3.961-0.7109 1.612-2.006 2.438-1.295 0.8252-3.06 0.8252-1.65 0-2.717-0.6094-1.054-0.6221-1.625-1.511h-0.165l-0.4316 1.866h-1.523v-19.75zm4.062 7.363q-1.511 0-2.399 0.5967-0.8887 0.584-1.282 1.777-0.3809 1.181-0.3809 2.996v0.1143q0 2.628 0.876 4.024 0.876 1.384 3.187 1.384 1.942 0 2.907-1.422 0.9775-1.422 0.9775-4.062 0-2.691-0.9648-4.05-0.9522-1.358-2.92-1.358zm14.94-1.752q2.488 0 3.694 1.117 1.206 1.117 1.206 3.567v9.458h-1.536l-0.4062-2.057h-0.1016q-0.584 0.7617-1.219 1.282-0.6348 0.5078-1.473 0.7744-0.8252 0.2539-2.031 0.2539-1.27 0-2.26-0.4443-0.9775-0.4443-1.549-1.346-0.5586-0.9014-0.5586-2.285 0-2.082 1.65-3.199t5.027-1.219l2.399-0.1016v-0.8506q0-1.803-0.7744-2.526-0.7744-0.7236-2.184-0.7236-1.092 0-2.082 0.3174-0.9902 0.3174-1.879 0.749l-0.6475-1.6q0.9395-0.4824 2.158-0.8252 1.219-0.3428 2.564-0.3428zm2.818 7.287-2.12 0.0889q-2.603 0.1016-3.669 0.8506-1.066 0.749-1.066 2.12 0 1.193 0.7236 1.765 0.7236 0.5713 1.917 0.5713 1.854 0 3.034-1.028 1.181-1.028 1.181-3.085zm12.75-7.312q0.419 0 0.876 0.0508 0.457 0.0381 0.8125 0.1143l-0.2666 1.955q-0.3428-0.0889-0.7617-0.1396-0.419-0.0508-0.7871-0.0508-0.8379 0-1.587 0.3428-0.7363 0.3301-1.295 0.9648-0.5586 0.6221-0.876 1.511-0.3174 0.876-0.3174 1.955v7.465h-2.12v-13.91h1.752l0.2285 2.564h0.0889q0.4316-0.7744 1.041-1.409 0.6094-0.6475 1.409-1.028 0.8125-0.3809 1.803-0.3809zm3.986 12.85q0-0.8887 0.4316-1.257 0.4316-0.3809 1.054-0.3809 0.6475 0 1.092 0.3809 0.4443 0.3682 0.4443 1.257 0 0.876-0.4443 1.282-0.4443 0.3936-1.092 0.3936-0.6221 0-1.054-0.3936-0.4316-0.4062-0.4316-1.282z"/>
</svg>
