<svg version="1.1" viewBox="0 0 54.15 17.14" xmlns="http://www.w3.org/2000/svg">
    <!--
        Quake Logo & Font (c) id Software
        Idea (c) Unknown
        Design & SVG (c) justJanne
    -->
    <defs>
        <linearGradient id="linearGradient555" x1="0" x2="1" y1="0" y2="0">
            <stop stop-color="#ff9999" offset="0"/>
            <stop stop-color="#ffdd99" offset=".19"/>
            <stop stop-color="#f3ff99" offset=".31"/>
            <stop stop-color="#99ffbf" offset=".51"/>
            <stop stop-color="#bb99ff" offset=".74"/>
            <stop stop-color="#fb99ff" offset="1"/>
        </linearGradient>
        <linearGradient id="black"><stop stop-color="#000000"/></linearGradient>
    </defs>
    <path fill="url(#black)" d="m45.74 0.01544-40.64 0.01645c-2.758 0.001116-4.608 2.821-5.005 5.381-0.4563 2.947 1.13 6.193 3.96 7.259 0.4039 1.682 0.3911 4.328 2.603 4.466 2.201-0.07968 2.134-2.315 2.468-3.942l40.43 8.7e-4c2.668 5.7e-5 4.985 0.1007 4.513-3.329-0.2194-1.402-0.6802-2.813-1.636-3.879 1.133-2.004-0.1877-4.586-2.235-5.411-1.421-0.5727-2.964-0.5618-4.46-0.5612z"/>
    <path fill="url(#linearGradient555)" d="m13.48 2.072c0.3817 0.1071 0.6066 0.4277 0.6754 0.9617l5.16e-4 5.206c0 0.8164 0.3206 1.556 0.9622 2.22 0.5804 0.6026 1.394 0.9191 2.44 0.9498-0.8325-0.03838-1.462-0.4848-1.89-1.339-0.1072-0.305-0.1607-0.6671-0.1607-1.087v-5.927c-0.06106-0.4653 0.1913-0.7935 0.7565-0.9844zm6.232 0c0.5553 0.1687 0.8021 0.4863 0.741 0.9534v6.086c0 0.4061-0.05772 0.7241-0.1726 0.9534-0.4371 0.8655-1.062 1.314-1.875 1.344 0.6349-0.01542 1.178-0.1381 1.629-0.3674 0.2373-0.1224 0.509-0.3174 0.8149-0.5855 0.6348-0.5588 0.9524-1.294 0.9524-2.206v-5.226c0.06791-0.5359 0.307-0.8534 0.7162-0.9534zm4.318 0c0.3385 0.1149 0.5732 0.4433 0.7044 0.986v5.41c0 0.7411 0.3626 1.387 1.087 1.937 0.6556 0.512 1.364 0.7796 2.126 0.8025-0.4959-0.03087-0.9307-0.2638-1.304-0.6992-0.1683-0.1986-0.3021-0.409-0.4005-0.6305-0.1302-0.7106-0.1948-1.18-0.1948-1.41v-0.7917c0-0.2978 0.1066-0.5308 0.3204-0.6992 0.3359-0.2138 0.8469-0.3323 1.534-0.355-1.038-0.04603-1.561-0.1067-1.568-0.1829-0.1908-0.153-0.2863-0.4057-0.2863-0.7571v-2.591c0-0.5731 0.2247-0.9131 0.6744-1.02zm4.445 0c0.8705 0.1837 1.57 0.5165 2.096 0.9984 0.5885 0.5431 0.9276 1.24 1.02 2.089l-0.01137-3.087zm5.337 0c0.3385 0.1149 0.5732 0.4433 0.7044 0.986v5.41c0 0.7411 0.3626 1.387 1.087 1.937 0.6556 0.512 1.364 0.7796 2.126 0.8025-0.4959-0.03087-0.9307-0.2638-1.304-0.6992-0.1683-0.1986-0.3021-0.409-0.4005-0.6305-0.1302-0.7106-0.1948-1.18-0.1948-1.41v-0.7917c0-0.2978 0.1066-0.5308 0.3204-0.6992 0.3359-0.2138 0.8469-0.3323 1.534-0.355-1.038-0.04603-1.561-0.1067-1.568-0.1829-0.1908-0.153-0.2863-0.4057-0.2863-0.7571v-2.591c0-0.5731 0.2247-0.9131 0.6744-1.02zm4.445 0c0.8705 0.1837 1.57 0.5165 2.096 0.9984 0.5885 0.5431 0.9276 1.24 1.02 2.089l-0.01137-3.087zm5.417 0c0.414 0.09166 0.6212 0.3971 0.6212 0.9167v7.253c-0.05408 0.5043-0.2649 0.8022-0.633 0.894h2.566c-0.4288-0.09166-0.6439-0.3897-0.6439-0.894v-2.463c0-0.6797 0.3225-1.088 0.9674-1.226-0.6449-0.2063-0.9674-0.5535-0.9674-1.043v-2.555c0.1228-0.5195 0.3412-0.8133 0.6553-0.8821zm3.734 0c1.113 0.04169 2.047 1.005 2.047 2.252 0 1.247-0.9342 2.21-2.047 2.252 0.02272 0.01922 1.131 0.3734 2.223 1.135 1.49 1.039 2.291 2.299 2.406 3.781 0.02293-0.221 0.03462-0.439 0.03462-0.6527 0-1.443-0.406-2.626-1.215-3.55-0.4339-0.4959-0.9251-0.8682-1.477-1.114 0.8909-0.4009 1.426-1.068 1.426-1.851 0-1.257-1.38-2.217-3.397-2.252zm-38.8 0.09509c0.6643 0.3822 1.187 0.8879 1.569 1.518 0.3817 0.63 0.5726 1.323 0.5726 2.079 0 1.107-0.3584 2.05-1.076 2.829-0.5117 0.5498-1.077 0.9049-1.696 1.065-0.1452 0.03852-0.4123 0.09917-0.802 0.1835v-1.18c0-0.1602 0.01141-0.3014 0.03462-0.4237 0.04563-0.2443 0.2095-0.3894 0.492-0.4351 0.0076-0.01532-0.01494-0.02325-0.06821-0.02325h-2.073c0.02268 0 0.04181 0.0079 0.05684 0.02325 0.2369 0.03811 0.3824 0.1833 0.4356 0.4351 0.0075 0.1526 0.01137 0.2904 0.01137 0.4124v1.191c-0.1757-0.0072-0.4276-0.06884-0.756-0.1835-0.634-0.1525-1.211-0.5228-1.73-1.111-0.5042-0.5647-0.8212-1.175-0.9508-1.832-0.06133-0.3131-0.09198-0.6302-0.09198-0.9508 0-0.8778 0.2485-1.661 0.7447-2.348 0.3668-0.5039 0.8286-0.9204 1.386-1.249-0.5268 0.191-1.001 0.5348-1.421 1.031-0.3895 0.4508-0.6794 0.9584-0.8702 1.523-0.2061 0.5956-0.3095 1.206-0.3095 1.832 0 1.497 0.5804 2.726 1.741 3.688 0.6718 0.5571 1.424 0.8782 2.256 0.9622v1.203c0.03825 0.107 0.2485 1.008 0.6305 2.704 0.1145-0.8094 0.2403-1.532 0.3778-2.165 0.06871-0.3209 0.1034-0.5039 0.1034-0.5498v-1.18c0.8553-0.09153 1.627-0.42 2.314-0.985 0.6642-0.5497 1.149-1.237 1.455-2.061 0.1831-0.4885 0.2749-1.027 0.2749-1.615 0-0.6721-0.1184-1.329-0.355-1.97-0.4583-1.214-1.21-2.019-2.257-2.417zm23.45 6.096c-0.9774 1.902-1.993 2.895-3.047 2.979 0.7558 0 1.283-0.05169 1.58-0.155 0.2977-0.1027 0.5577-0.1545 0.7793-0.1545 0.313 0 0.5424 0.1031 0.6873 0.3095zm9.782 0c-0.9774 1.902-1.993 2.895-3.047 2.979 0.7558 0 1.283-0.05169 1.58-0.155 0.2977-0.1027 0.5577-0.1545 0.7793-0.1545 0.313 0 0.5424 0.1031 0.6873 0.3095z"/>
</svg>
