<svg version="1.1" viewBox="0 0 58 23" xmlns="http://www.w3.org/2000/svg">
    <!--
        Idea & SVG (c) justJanne
    -->
    <defs>
        <linearGradient id="paper"><stop stop-color="#ffffff"/></linearGradient>
        <linearGradient id="primaryText"><stop stop-color="#212121"/></linearGradient>
        <linearGradient id="secondaryText"><stop stop-color="#737373"/></linearGradient>
        <linearGradient id="disabledText"><stop stop-color="#d9d9d9"/></linearGradient>
    </defs>
    <path fill="url(#paper)"
        d="m1.5-3.41e-4h55c0.831 0 1.5 0.669 1.5 1.5v20c0 0.831-0.669 1.5-1.5 1.5h-55c-0.831 0-1.5-0.669-1.5-1.5v-20c0-0.831 0.669-1.5 1.5-1.5z"/>
    <path fill="url(#primaryText)"
        d="m4.43 3.97q0.0859 0 0.183 0.0114 0.0973 0.00572 0.177 0.0229l-0.063 0.464q-0.0744-0.0172-0.166-0.0286t-0.166-0.0114q-0.235 0-0.441 0.132-0.206 0.126-0.332 0.361-0.12 0.229-0.12 0.539v1.64h-0.506v-3.07h0.412l0.0572 0.563h0.0229q0.143-0.252 0.378-0.435 0.24-0.183 0.563-0.183zm2 0q0.389 0 0.677 0.172 0.286 0.172 0.435 0.487 0.155 0.309 0.155 0.725v0.303h-2.1q0.0114 0.52 0.263 0.797 0.258 0.269 0.716 0.269 0.292 0 0.515-0.0515 0.229-0.0572 0.469-0.16v0.441q-0.235 0.103-0.464 0.149-0.229 0.0515-0.544 0.0515-0.441 0-0.773-0.177t-0.52-0.525q-0.183-0.349-0.183-0.863 0-0.506 0.166-0.863 0.172-0.361 0.475-0.553 0.309-0.195 0.716-0.195zm-0.00572 0.412q-0.361 0-0.572 0.235-0.206 0.229-0.246 0.639h1.56q-0.00573-0.389-0.183-0.63-0.177-0.246-0.563-0.246zm3.14-0.412q0.303 0 0.544 0.114 0.246 0.114 0.418 0.349h0.0286l0.0687-0.406h0.401v3.12q0 0.658-0.338 0.992-0.332 0.332-1.04 0.332-0.677 0-1.11-0.195v-0.464q0.452 0.24 1.14 0.24 0.395 0 0.62-0.235 0.229-0.229 0.229-0.63v-0.12q0-0.0687 0.0057-0.195 0.0057-0.132 0.0114-0.183h-0.0229q-0.309 0.464-0.949 0.464-0.596 0-0.935-0.418-0.332-0.418-0.332-1.17 0-0.735 0.332-1.16 0.338-0.435 0.925-0.435zm0.0687 0.424q-0.384 0-0.596 0.309-0.212 0.303-0.212 0.868t0.206 0.868q0.206 0.298 0.611 0.298 0.464 0 0.677-0.246 0.212-0.252 0.212-0.806v-0.12q0-0.625-0.218-0.897t-0.682-0.275zm2.29 0.682q0-0.212 0.103-0.298t0.246-0.0859 0.252 0.0859 0.109 0.298q0 0.206-0.109 0.298t-0.252 0.0916-0.246-0.0916-0.103-0.298zm2.8-1.11q0.389 0 0.677 0.172t0.435 0.487q0.155 0.309 0.155 0.725v0.303h-2.1q0.0114 0.52 0.263 0.797 0.258 0.269 0.716 0.269 0.292 0 0.515-0.0515 0.229-0.0572 0.469-0.16v0.441q-0.235 0.103-0.464 0.149-0.229 0.0515-0.544 0.0515-0.441 0-0.773-0.177t-0.52-0.525q-0.183-0.349-0.183-0.863 0-0.506 0.166-0.863 0.172-0.361 0.475-0.553 0.309-0.195 0.716-0.195zm-0.0057 0.412q-0.361 0-0.572 0.235-0.206 0.229-0.246 0.639h1.56q-0.00575-0.389-0.183-0.63-0.177-0.246-0.563-0.246zm2.66 1.14-1.06-1.5h0.572l0.792 1.15 0.782-1.15h0.568l-1.06 1.5 1.12 1.57h-0.572l-0.835-1.23-0.849 1.23h-0.568z"/>
    <path fill="url(#disabledText)"
        d="m24.2 0c0 0.174 0.137 0.186 0.172 0.186 0.0633 0 0.174-0.0349 0.174-0.186zm10.4 3.91e-4v0.0273c0.293 0 0.269 0.404 0 0.404v0.184c0.44 0 0.458-0.438 0.338-0.615zm3.24 0c-0.0092 0.0994 0.0103 0.236 0.188 0.236 0.0325 0 0.208-0.0104 0.184-0.236zm-6.8 0.0684v0.00195c-0.091 0-0.157 0.00673-0.201 0.0215v0.191c0.0586-0.00512 0.117-0.00975 0.176-0.0137 0.127 2.08e-4 0.211 0.0199 0.24 0.146 0 0.0713-0.0292 0.148-0.291 0.191l0.0254 0.314h0.197l0.0176-0.195c0.145-0.0332 0.301-0.117 0.301-0.322v-0.00195c0-0.278-0.256-0.334-0.465-0.334zm4.76 0.129v0.604h0.295v-0.604zm2.63 0.00586v0.0371c0.0594 0.107 0.143 0.203 0.254 0.324h-0.342c-0.0686 0.137-0.188 0.362-0.32 0.545v0.0449h0.186c0.163-0.134 0.403-0.41 0.49-0.553v-0.0234c0.066 0.0804 0.145 0.148 0.225 0.215h0.184v-0.0449c-0.117-0.156-0.25-0.408-0.314-0.545zm0.65 0v0.0371c0.0855 0.153 0.336 0.435 0.488 0.553h0.188v-0.0449c-0.123-0.165-0.271-0.447-0.316-0.545zm-15 0.131c-0.0275 0-0.174 0.00814-0.174 0.182 0 0.134 0.0919 0.184 0.174 0.184 0.0611 0 0.174-0.0336 0.174-0.184 0-0.175-0.151-0.182-0.174-0.182zm0.686 0c-0.0498 0-0.168 0.0173-0.168 0.182 0 0.169 0.124 0.184 0.168 0.184 0.0318 0 0.174-0.00974 0.174-0.184 0-0.17-0.137-0.182-0.174-0.182zm13 0.23c-0.124 0.249-0.228 0.422-0.32 0.545v0.0449h0.186c0.211-0.173 0.429-0.453 0.49-0.553v-0.0371zm-3.54 0.271v0.0469c0.29 0.308 0.381 0.42 0.453 0.541h0.332c0.0749-0.138 0.228-0.31 0.459-0.541v-0.0469h-0.23c-0.163 0.106-0.325 0.263-0.398 0.338-0.143-0.154-0.265-0.254-0.395-0.338zm1.57 0.184 0.26 0.688h0.188l-0.262-0.688zm-11.8 0.0254v0.0371c0.0732 0.111 0.306 0.383 0.521 0.553h0.217v-0.0449c-0.109-0.131-0.267-0.375-0.354-0.545zm15.1 0.00781 0.26 0.688h0.188l-0.26-0.687zm-8.12 0.0645-0.154 0.158 0.217 0.217-0.217 0.223 0.154 0.154 0.221-0.217 0.217 0.217 0.16-0.154-0.223-0.223 0.223-0.217-0.16-0.158-0.217 0.221zm6.96 0.293c-0.125 0.202-0.29 0.376-0.453 0.547v0.041h0.223c0.135-0.0833 0.253-0.19 0.393-0.332 0.173 0.172 0.262 0.243 0.402 0.332h0.229v-0.041c-0.17-0.168-0.337-0.342-0.461-0.547zm-3.73 0.27v0.0488c0.229 0.243 0.373 0.405 0.453 0.541h0.332c0.0792-0.146 0.267-0.349 0.459-0.541v-0.0488h-0.227c-0.157 0.102-0.337 0.274-0.402 0.34-0.0591-0.0637-0.216-0.225-0.393-0.34zm6.17 0.166v0.0352c0.0049 0.00741 0.222 0.317 0.521 0.553h0.217v-0.043c-0.114-0.138-0.268-0.377-0.354-0.545zm-16.2 0.0449v0.184c0.106 0.0735 0.223 0.128 0.338 0.186-0.114 0.0568-0.228 0.113-0.336 0.18v0.189h0.041c0.0383-0.0199 0.376-0.194 0.561-0.24v-0.25c-0.192-0.056-0.535-0.233-0.561-0.246zm11.6 0.041-0.0254 0.041c0.0741 0.281 0.211 0.626 0.322 0.859h0.238c-0.0424-0.157-0.126-0.492-0.184-0.898zm3.3 0.0312-0.0254 0.041c0.0807 0.306 0.238 0.689 0.32 0.861h0.24c-0.112-0.414-0.168-0.794-0.184-0.9zm-7.63 0.0371c-0.21 0-0.398 0.11-0.398 0.387 0 0.291 0.202 0.389 0.398 0.389v-0.188c-0.137 0-0.205-0.0682-0.205-0.203 0-0.15 0.117-0.201 0.205-0.201zm6.2 0.254v0.0371c0.0798 0.121 0.318 0.391 0.523 0.553h0.217v-0.0449c-0.11-0.132-0.274-0.385-0.355-0.545zm-8.66 0.0312v0.0371c0.0722 0.13 0.324 0.424 0.49 0.553h0.184v-0.0449c-0.117-0.156-0.25-0.408-0.314-0.545zm0.65 0v0.0371c0.0917 0.164 0.351 0.445 0.49 0.553h0.184v-0.0449c-0.123-0.165-0.271-0.447-0.316-0.545zm5.7 0.238c-0.0498 0.207-0.151 0.215-0.203 0.215-0.174 0-0.322-0.211-0.559-0.211-0.257 0-0.379 0.226-0.404 0.473l0.188-0.00195c0.0466-0.193 0.13-0.213 0.201-0.213 0.222 0.0186 0.325 0.209 0.561 0.209 0.318 0 0.385-0.324 0.4-0.471zm5.45 0.166c-0.0436 0.304-0.105 0.605-0.184 0.902h0.238c0.0305-0.0675 0.236-0.528 0.318-0.863l-0.0254-0.0391zm-16.6 0.135c-0.17 0.603-0.161 0.535-0.168 0.572h0.188c0.0134-0.0532 0.048-0.0952 0.0938-0.131h0.215l-0.0664 0.246h0.188l0.0957-0.338c0.576 0.0153 0.868 0.219 1.48 0.219 0.412 0 0.596-0.191 0.646-0.471h-0.186c-0.0703 0.2-0.27 0.219-0.457 0.225-0.6 0-0.96-0.221-1.54-0.221-0.132 0-0.245 0.0222-0.342 0.0645l0.0449-0.166zm6.17 0.168v0.625h0.242v-0.404h1.12v0.404h0.242v-0.625zm5.05 0.084c0.0116 0.182 0.0992 0.494 0.564 0.494 0.425 0 0.562-0.275 0.58-0.494h-0.201c-0.0298 0.196-0.201 0.224-0.371 0.232-0.313 0-0.361-0.0985-0.373-0.23zm2.33 0.0234c-0.124 0.249-0.228 0.422-0.32 0.545v0.0449h0.184c0.194-0.159 0.418-0.431 0.492-0.553v-0.0371zm0.65 0c-0.0344 0.0687-0.175 0.344-0.32 0.545v0.0449h0.184c0.0793-0.065 0.32-0.295 0.471-0.523 0.0224 0.156 0.103 0.351 0.359 0.412h-0.563v0.127h-1.1l2e-3 0.219h0.686c-0.0086 0.0956-0.0318 0.176-0.0703 0.24-0.0896-0.00345-0.165-0.0141-0.217-0.0371-0.0639-0.027-0.102-0.0931-0.111-0.193h-0.199c0.0084 0.132 0.0512 0.24 0.123 0.324 0.0329 0.123 0.0612 0.229 0.148 0.318 0.23-0.0432 0.594-0.237 0.646-0.277h-0.318v-0.266h0.824v0.586c0.416-0.0604 0.643-0.419 0.912-0.707v-0.0488l-0.592 0.0176c0 0.121-0.0204 0.22-0.0606 0.299-0.0727-0.0763-0.213-0.213-0.371-0.316h-0.154v-0.0234h1.26v0.0957h0.461c-0.0172 0.033-0.0352 0.0679-0.0547 0.104h0.227v0.202c0.112-0.116 0.18-0.205 0.248-0.303h0.242c0.0243 0.179-0.153 0.308-0.227 0.455v0.043h0.471v-0.0703c0.227 0.0184 0.274-0.267 0.125-0.373 0.0285-0.0383 0.0612-0.0819 0.0781-0.109v-0.0352h-0.203v-0.131h-1.24v-0.137h-0.584c0.207-0.0523 0.368-0.215 0.389-0.467h-0.203c-0.04 0.311-0.707 0.346-0.74 0h-0.17v-0.00977zm-8.54 0.0312c-0.0476 0.0952-0.183 0.328-0.352 0.545v0.0449h0.215c0.201-0.151 0.437-0.431 0.525-0.553v-0.0371zm2.68 0.0469v0.605h0.295v-0.605zm2.25 0.0801c-0.0189 0-0.17 0.00551-0.17 0.182 0 0.137 0.0957 0.184 0.17 0.184 0.0611 0 0.174-0.0336 0.174-0.184 0-0.175-0.151-0.182-0.174-0.182zm0.504 0.4c-0.0498 0.207-0.151 0.215-0.203 0.215-0.177 0-0.327-0.213-0.561-0.213-0.224 0-0.356 0.185-0.395 0.412 0.0603 0.0571 0.0998 0.0625 0.178 0.0625 0.0455-0.189 0.126-0.213 0.203-0.213 0.177 0 0.334 0.209 0.559 0.209 0.305 0 0.384-0.292 0.402-0.471zm-9.89 0.00586c-0.153-2e-7 -0.219 0.00875-0.263 0.0234v0.191c0.0584-0.00747 0.117-0.0117 0.176-0.0156 0.128 1.5e-4 0.211 0.0202 0.238 0.148 0 0.0283-0.0066 0.0547-0.0195 0.0762l0.0957 0.188c0.0892-0.0446 0.176-0.113 0.176-0.275 0-0.277-0.25-0.336-0.403-0.336zm2.55 0.0352c-0.205 0-0.378 0.108-0.396 0.34l0.0117 0.266c0.113 0.0348 0.129 0.172 0.385 0.172v-0.189c-0.137 0-0.205-0.0682-0.205-0.203 0-0.134 0.104-0.199 0.205-0.199zm-2.09 0.0312 0.0019 0.221h1.06v0.0879h0.248v-0.309zm-1.28 0.00391c-0.0964 0-0.345 0.0273-0.391 0.305h0.115l-0.203 0.602c0.141-0.0295 0.257-0.0756 0.346-0.143 0.0412 0.0113 0.0857 0.0176 0.135 0.0176v-0.158c0.0815-0.112 0.138-0.249 0.166-0.408l-0.166-0.0391zm6.18 0.0879c-0.149 0.297-0.236 0.433-0.32 0.545v0.0449h0.304c-0.0491 0.249-0.0768 0.366-0.114 0.506h0.238c0.0742-0.164 0.141-0.328 0.221-0.549v0.043h0.184c0.045-0.0369 0.0973-0.0865 0.15-0.141 0.0323 0.0574 0.0904 0.063 0.15 0.0723 0.079 0 0.189-0.0451 0.189-0.207 0.0071-0.0795-0.0343-0.119-0.082-0.168 0.0517-0.0418 0.0617-0.0941 0.0801-0.146l-0.354 0.00195c-0.118 0.236-0.219 0.406-0.316 0.541 0.0393-0.109 0.0724-0.214 0.0957-0.309l-0.0273-0.041h-0.156c0.0482-0.0616 0.0872-0.116 0.111-0.156v-0.0371zm5.06 0c-0.0937 0.158-0.247 0.327-0.453 0.547v0.041h0.221c0.102-0.0595 0.191-0.137 0.275-0.219-0.044 0.256-0.0757 0.427-0.154 0.719h0.24c0.118-0.262 0.229-0.569 0.25-0.633 0.0215 0.0173 0.0418 0.0308 0.0625 0.0449 0.0426-0.0619 0.0943-0.115 0.152-0.16-0.101-0.104-0.189-0.216-0.264-0.34zm-3.1 0.0352c0 0.0524-0.0062 0.0995-0.0137 0.145h-0.111c-0.0123 0.0857-0.0292 0.179-0.0488 0.285-4e-4 0.00195-0.0016 0.0039-2e-3 0.00586-0.0638 0.0477-0.141 0.0793-0.232 0.0918l0.0039 0.23c0.0615-0.00726 0.119-0.0182 0.172-0.0312-0.0016 0.00788-0.0023 0.0155-0.0039 0.0234-0.0061 0.027-0.0115 0.0483-0.0176 0.0742l-0.0098 0.00977v0.211h0.191c0.0587-0.13 0.119-0.273 0.178-0.43 0.0117-0.0299 0.0207-0.057 0.0312-0.0859 0.0018-0.00195 4e-3 -0.0039 0.0059-0.00586 0.115-0.125 0.19-0.286 0.225-0.482l-0.0254-0.041zm-2.5 0.0156-0.041 0.0996c-0.0202-0.00736-0.0412-0.00977-0.0644-0.00977-0.0546 0-0.17 0.0192-0.17 0.182 0 0.132 0.0768 0.162 0.102 0.172l0.455-0.443zm-1.53 0.0645c-0.424 0-0.564 0.271-0.582 0.492h0.203c0.0288-0.198 0.2-0.224 0.371-0.232 0.304 0 0.356 0.0902 0.373 0.232h0.199c-0.016-0.249-0.14-0.492-0.563-0.492zm0.688 0.0234c-0.0545 0-0.172 0.0189-0.172 0.182 0 0.162 0.112 0.184 0.172 0.184 0.159 0 0.174-0.133 0.174-0.184 0-0.163-0.12-0.182-0.174-0.182zm5.35 0.209c-0.0428 0-0.174 0.0137-0.174 0.182 0 0.119 0.0708 0.184 0.174 0.184 0.0822 0 0.174-0.0463 0.174-0.184 0-0.17-0.136-0.182-0.174-0.182zm3.73 0.129v0.141h0.158v-0.141zm-2.8 2.2v0.486h-0.35v-0.0625h-1.1v0.26h0.91v0.0391h0.178v0.266c0.087 0.0399 0.178 0.0434 0.27 0.0371v0.0938h0.266v0.369h0.244v-0.369h0.266v-0.221h-0.494c0.0371-0.0471 0.0639-0.106 0.0801-0.176h0.844v-0.236h-0.824v-0.486zm4.99 0.121c-0.0306 0.0214-0.338 0.243-0.338 0.52 0 0.43 0.465 0.354 0.607 0.313v-0.207c-0.157 0.031-0.31 0.0535-0.344-0.143 0-0.142 0.0617-0.248 0.25-0.428zm-10.5 0.121v0.111h-0.195c-0.0142 0.0468-0.166 0.473-0.25 0.633v0.043h0.188c0.0759-0.129 0.125-0.273 0.18-0.412 0.0227 0.0639 0.0489 0.134 0.0781 0.209v0.137h0.0703c0.0116 0.0202 0.0239 0.0507 0.0352 0.0664h0.186v-0.043c-0.0035-0.00586-0.0082-0.0171-0.0117-0.0234h1.24v-0.236h-1.35c-0.0418-0.108-0.0508-0.136-0.0859-0.25h1.43v-0.232zm-2.43 0.00391c-0.241 0-0.337 0.126-0.375 0.24h0.17c0.0171-0.0346 0.0559-0.043 0.0879-0.0586-0.0125 0.0221-0.0248 0.043-0.0391 0.0664v0.258h-0.223l0.0078 0.188h0.113c0.087 0.0685 0.19 0.0766 0.295 0.0781-0.153 0.0579-0.208 0.176-0.225 0.283h-0.346v0.262h0.379c0.0808 0.172 0.247 0.205 0.361 0.205v-0.188c-0.0376 0-0.0684-0.00745-0.0957-0.0176h0.449v-0.26h-0.547c0.0331-0.101 0.125-0.129 0.191-0.129v-0.184c-0.0144 0-0.0273 0.00296-0.041 0.00391 0.295-0.108 0.278-0.44 0.184-0.582 0.0268-0.0131 0.0129-0.04 0.0195-0.0605h-0.0703c-0.0847-0.077-0.186-0.0964-0.297-0.105zm-3.56 0.00391v0.188c0.137 0 0.207 0.0682 0.207 0.203 0 0.136-0.104 0.201-0.207 0.201v0.186c0.21 0 0.402-0.118 0.402-0.387 0-0.257-0.174-0.391-0.402-0.391zm13.3 0.0723v0.625h0.242v-0.404h0.443v-0.0625h0.508v-0.158zm1.56 0.0371 0.0078 0.221h0.705v0.404h0.24v-0.625zm-9.89 0.0215v0.115c0.109 0.0681 0.224 0.126 0.338 0.184-0.115 0.0547-0.228 0.112-0.336 0.18v0.188h0.041c0.254-0.132 0.43-0.205 0.563-0.238v-0.25c-0.123-0.0359-0.255-0.0951-0.426-0.178zm3.19 0.0547c-0.0491 0-0.0893 0.014-0.121 0.041-0.0343 0.0297-0.0508 0.0766-0.0508 0.141 0 0.0612 0.0164 0.107 0.0508 0.137 0.032 0.0319 0.0722 0.0469 0.121 0.0469 0.0467 0 0.0888-0.015 0.123-0.0469 0.0343-0.0293 0.0508-0.0751 0.0508-0.137 0-0.0639-0.0164-0.111-0.0508-0.141-0.0343-0.027-0.0764-0.041-0.123-0.041zm0.688 0c-0.0467 0-0.0869 0.014-0.121 0.041-0.0319 0.0297-0.0488 0.0766-0.0488 0.141 0 0.0612 0.0169 0.107 0.0488 0.137 0.0343 0.0319 0.0745 0.0469 0.121 0.0469 0.0467 0 0.0869-0.015 0.121-0.0469 0.0343-0.0293 0.0508-0.0751 0.0508-0.137 0-0.0639-0.0164-0.111-0.0508-0.141-0.0343-0.027-0.0745-0.041-0.121-0.041zm-7.29 0.0859v0.234h1.05v-0.234zm2.19 0.0605c0.0323 0.206-0.125 0.255-0.236 0.24 0.087-0.0716 0.162-0.156 0.236-0.24zm6.75 0.279v0.367h-0.264v0.221h0.775v-0.221h-0.268v-0.367zm-2.74 0.0351v0.234h1.53v-0.234zm-1.08 0.168v0.258h-0.266v0.223h0.266v0.258h0.242v-0.258h0.266v-0.223h-0.266v-0.258zm7.22 0.043c-0.0813 0.163-0.311 0.495-0.35 0.545v0.043h0.213c0.17-0.128 0.43-0.425 0.523-0.553v-0.0352zm2.84 0.0254c-0.0096 0.00504-0.36 0.188-0.563 0.238v0.25c0.148 0.0431 0.35 0.137 0.563 0.248l0.041-0.00195v-0.184c-0.0969-0.0631-0.112-0.0704-0.338-0.184 0.0577-0.0287 0.267-0.134 0.336-0.18v-0.188zm-11.2 0.00977v0.258h-0.266v0.223h0.266v0.258h0.242v-0.258h0.266v-0.223h-0.266v-0.258zm9.27 0.0566v0.225h0.439v0.439h0.244v-0.664zm-14.8 0.0371c-0.0264 0.333 0.0388 0.619 0.424 0.57 0.0417-0.00737 0.0722-0.0141 0.0918-0.0215v-0.215c-0.226 0.0722-0.245-0.146-0.238-0.334zm7.78 0.146v0.234h1.53v-0.234zm2.49 0.244v0.221h0.264v0.369h0.246v-0.369h0.266v-0.221zm1.4 0.00781c-0.0896 0.151-0.304 0.39-0.453 0.549v0.041h0.221c0.145-0.0935 0.272-0.212 0.395-0.332 0.0958 0.0957 0.279 0.257 0.4 0.332h0.229v-0.041c-0.0316-0.0316-0.354-0.356-0.459-0.549zm2.07 0.111v0.188c0.137 0 0.207 0.0682 0.207 0.203 0 0.143-0.115 0.203-0.207 0.203v0.184c0.21 0 0.402-0.118 0.402-0.387 0-0.261-0.179-0.391-0.402-0.391zm-9.71 0.0293c0 0.347-0.412 0.314-0.412 0.00195h-0.176c0 0.325-0.408 0.351-0.408 0h-0.199c0 0.468 0.423 0.458 0.57 0.395-0.0172 0.0697-0.0545 0.208-0.107 0.338-0.0296-0.0175-0.062-0.0293-0.0996-0.0293-0.0581 0-0.172 0.0203-0.172 0.18 0 0.161 0.126 0.186 0.172 0.186 0.0496 0 0.174-0.0304 0.174-0.186 0-0.0372-0.0079-0.0663-0.0195-0.0918h0.115c0.0988-0.116 0.186-0.288 0.229-0.385 0.185 0.0542 0.535 0.00921 0.535-0.408zm4.45 0.00391c-0.027 0.054-0.0613 0.115-0.104 0.182-0.042 0.069-0.0868 0.134-0.131 0.197-0.0443 0.066-0.083 0.122-0.117 0.166v0.0449h0.215c0.059-0.0443 0.121-0.103 0.189-0.174 0.071-0.069 0.136-0.138 0.195-0.209 0.0614-0.0687 0.107-0.126 0.139-0.17v-0.0371zm8.17 0.143c-0.229 0-0.402 0.136-0.402 0.387 0 0.261 0.179 0.391 0.402 0.391v-0.188c-0.137 0-0.207-0.0682-0.207-0.203 0-0.139 0.103-0.203 0.207-0.203zm-11.5 0.318v0.221h0.84v-0.221zm5.5 0.0801v0.238h-0.406v0.223h0.406v0.238h0.242v-0.699zm0.529 0.0898c0.012 0.187 0.102 0.492 0.561 0.492 0.434 0 0.565-0.288 0.582-0.492h-0.203c-0.0297 0.196-0.199 0.223-0.369 0.23-0.303 0-0.357-0.0791-0.371-0.23zm-7.33 0.0723c-0.0775 0-0.17 0.0312-0.17 0.18 0 0.176 0.141 0.186 0.17 0.186 0.0118 0 0.172-0.00334 0.172-0.186 0-0.162-0.119-0.18-0.172-0.18zm10.4 0.203-0.393 0.00195c-0.0929 0.186-0.268 0.44-0.35 0.545v0.043h0.215c0.226-0.17 0.506-0.526 0.525-0.553zm1.99 0.252c0.137 0 0.207 0.0682 0.207 0.203 0 0.15-0.116 0.201-0.205 0.201v0.186c0.189 0 0.4-0.0975 0.4-0.387 0-0.273-0.196-0.388-0.402-0.391zm-8.17-0.209v0.221h0.84v-0.221zm-2.63 0.115v0.367h-0.264v0.221h0.771v-0.221h-0.264v-0.367zm5.7 0.201v0.0488c0.317 0.336 0.392 0.438 0.453 0.541h0.332c0.0749-0.138 0.228-0.31 0.459-0.541v-0.0488h-0.229c-0.133 0.087-0.315 0.253-0.4 0.34-0.123-0.132-0.278-0.264-0.395-0.34zm-7.14 0.00391c-0.0495 0.206-0.156 0.213-0.205 0.213-0.191 0-0.303-0.209-0.559-0.209-0.324 0-0.392 0.333-0.406 0.471h0.188c0.0464-0.192 0.122-0.213 0.203-0.213 0.197 0 0.319 0.209 0.561 0.209 0.259 0 0.375-0.225 0.4-0.471zm6.25 0.0742v0.699h0.24v-0.238h0.406v-0.223h-0.406v-0.238zm-2.23 0.18v0.605h0.293v-0.605zm0.59 0v0.605h0.293v-0.605zm4.55 0.119v0.184c0.109 0.0681 0.224 0.126 0.338 0.184-0.116 0.0543-0.228 0.113-0.336 0.182v0.188h0.041c0.305-0.159 0.446-0.211 0.563-0.24v-0.25c-0.203-0.0592-0.545-0.237-0.563-0.246zm0.906 0.0469c-0.0236 0.0778-0.171 0.482-0.25 0.633v0.0449h0.188c0.0759-0.129 0.125-0.273 0.18-0.412 0.0803 0.226 0.136 0.342 0.186 0.412h0.188v-0.0449c-0.103-0.177-0.206-0.504-0.24-0.633zm1.65 0.162v0.734h1.39v-0.734zm-3.95 0.0625c-0.198 0-0.4 0.099-0.4 0.387 0 0.267 0.178 0.388 0.399 0.39 0.217 0.0018 0.411-0.128 0.411-0.394 0-0.266-0.206-0.383-0.41-0.383zm-8.9 0.0039v0.625h1.31l2e-3 -0.625h-0.244v0.406h-0.824v-0.406zm1.89 0.0664v0.234h1.65v-0.234zm11.2 0.0606h0.98v0.346h-0.98zm-4.16 0.0488c0.105 0 0.207 0.0625 0.207 0.207 0 0.134-0.0933 0.203-0.207 0.203-0.154 0-0.205-0.104-0.205-0.203 0-0.149 0.107-0.207 0.205-0.207zm-1.18 0.0449-0.34 0.35h0.219v0.441h0.242v-0.441h0.217zm-5.02 0.242c-0.0341 0.0682-0.187 0.331-0.354 0.545v0.0449h0.217c0.136-0.102 0.405-0.39 0.523-0.553v-0.0371zm2.57 0.0273c-0.0491 0-0.0912 0.0142-0.123 0.041-0.0343 0.0297-0.0508 0.0747-0.0508 0.139 0 0.0612 0.0164 0.107 0.0508 0.137 0.032 0.0319 0.074 0.0488 0.123 0.0488 0.0467 0 0.0849-0.0169 0.119-0.0488 0.0343-0.0293 0.0508-0.0751 0.0508-0.137 0-0.0639-0.0164-0.109-0.0508-0.139-0.0343-0.027-0.0725-0.041-0.119-0.041zm0.686 0c-0.0467 0-0.0869 0.0142-0.121 0.041-0.0319 0.0297-0.0488 0.0747-0.0488 0.139 0 0.0612 0.0169 0.107 0.0488 0.137 0.0343 0.0319 0.0745 0.0488 0.121 0.0488 0.0467 0 0.0869-0.0169 0.121-0.0488 0.0343-0.0293 0.0527-0.0751 0.0527-0.137 0-0.0639-0.0184-0.109-0.0527-0.139-0.0343-0.027-0.0745-0.041-0.121-0.041zm4.44 0.115v0.0469c0.163 0.17 0.326 0.342 0.453 0.541h0.332c0.0767-0.141 0.232-0.312 0.461-0.541v-0.0469h-0.229c-0.142 0.0928-0.268 0.202-0.402 0.338-0.133-0.143-0.261-0.252-0.393-0.338zm-1.48 0.227c-0.201 9.6e-5 -0.403 0.0989-0.403 0.387 0 0.266 0.177 0.389 0.4 0.389 0.381-0.0078 0.41-0.302 0.41-0.393 0-0.266-0.206-0.383-0.407-0.383zm4.36 0.0586c-0.367 0.0013-0.404 0.304-0.404 0.428l0.201-0.0022c0-0.0724 0.0196-0.242 0.203-0.242 0.137 0 0.207 0.0804 0.207 0.242h0.176c0-0.11 0.0348-0.244 0.205-0.244 0.135 0 0.203 0.0804 0.203 0.242h0.199c0-0.39-0.299-0.424-0.402-0.424-0.133 0-0.229 0.0428-0.293 0.129-0.0634-0.0856-0.161-0.128-0.293-0.129zm-4.36 0.121c0.105 0 0.207 0.0626 0.207 0.207 0 0.134-0.0932 0.203-0.207 0.203-0.154 0-0.205-0.104-0.205-0.203 0-0.149 0.107-0.207 0.205-0.207zm-3.95 0.0195v0.625h1.31v-0.625h-0.242v0.404h-0.824v-0.404zm-2.94 0.127v0.734h1.39v-0.734zm5.21 0.0391c0.291 0.65 1.13 0.693 1.43 0.693h2e-3c0.523 0 1.12-0.138 1.4-0.693h-0.256c-0.257 0.366-0.809 0.428-1.15 0.428-0.431-3.7e-5 -0.896-0.0636-1.17-0.426zm3.48 0.104c-0.198 0-0.4 0.0989-0.4 0.387 0 0.28 0.196 0.391 0.4 0.391 0.135 0 0.238-0.0508 0.307-0.148 0.064 0.098 0.163 0.148 0.301 0.148 0.222 0 0.402-0.128 0.402-0.391 0-0.257-0.171-0.387-0.402-0.387-0.14 0-0.239 0.0465-0.301 0.143-0.0663-0.0957-0.169-0.143-0.307-0.143zm-8.49 0.0508h0.98v0.346h-0.98zm8.49 0.129c0.0939-5e-4 0.207 0.058 0.207 0.207 0 0.162-0.117 0.205-0.207 0.205-0.155 2e-6 -0.205-0.105-0.205-0.205 0-0.158 0.124-0.207 0.205-0.207zm0.607 0c0.103 0 0.205 0.072 0.205 0.207 0 0.0868-0.0438 0.205-0.205 0.205-0.108 2e-6 -0.205-0.0601-0.205-0.205 0-0.155 0.12-0.207 0.205-0.207zm1.82 0.195v0.223h0.842v-0.223zm-8.18 0.154v0.625h1.31v-0.625h-0.242v0.406h-0.824v-0.406zm-2.53 0.287c-0.131 0-0.406 0.045-0.406 0.426h0.201c0-0.0619 0.016-0.244 0.205-0.244 0.137 0 0.207 0.0822 0.207 0.244h0.176c0-0.214 0.128-0.246 0.205-0.246 0.135 0 0.203 0.0822 0.203 0.244h0.197c0-0.369-0.25-0.424-0.4-0.424-0.133 0-0.229 0.0428-0.293 0.129-0.0637-0.086-0.162-0.129-0.295-0.129zm5.96 0c-0.0434 0.403 0.106 0.649 0.518 0.549v-0.213c-0.246 0.0743-0.24-0.143-0.24-0.336zm2.12 0.137c0.268 0.599 1 0.691 1.43 0.691l0.0039 0.0019c0.498 2e-6 1.12-0.128 1.4-0.693h-0.258c-0.254 0.378-0.845 0.43-1.15 0.43-0.518 0-0.965-0.11-1.17-0.428zm-5.41 0.336c0.309 0.69 1.25 0.691 1.43 0.691h0.0039c0.483 0 1.11-0.121 1.4-0.691h-0.258c-0.247 0.367-0.807 0.428-1.15 0.428-0.492 0-0.958-0.1-1.17-0.428z"/>
    <path fill="url(#secondaryText)"
        d="m24.3 4.04-0.979 2.63h-0.317l0.979-2.63zm0.177 1.65 0.78-1.66h0.184l0.861 1.66h-0.287l-0.663-1.32-0.589 1.32zm3.08 1.56h-0.824v-3.21h0.824v0.265h-0.508v2.68h0.508zm1.15-2.59q0.361 0 0.534 0.158t0.173 0.504v1.34h-0.236l-0.0626-0.28h-0.0147q-0.129 0.162-0.272 0.239-0.144 0.0773-0.39 0.0773-0.269 0-0.445-0.14-0.177-0.144-0.177-0.445 0-0.294 0.232-0.453 0.232-0.162 0.714-0.177l0.335-0.011v-0.118q0-0.247-0.107-0.342-0.107-0.0957-0.302-0.0957-0.155 0-0.294 0.0478-0.14 0.0442-0.261 0.103l-0.0994-0.243q0.129-0.0699 0.305-0.118 0.177-0.0515 0.368-0.0515zm0.386 1.04-0.291 0.011q-0.368 0.0147-0.512 0.118-0.14 0.103-0.14 0.291 0 0.166 0.0994 0.243 0.103 0.0773 0.261 0.0773 0.247 0 0.412-0.136 0.169-0.14 0.169-0.427zm0.766 0.121v-0.287h0.891v0.287zm2.62 0.843h-1.44v-0.213l1.06-1.51h-0.997v-0.25h1.35v0.243l-1.05 1.48h1.07zm2.07-1.32q0 0.427-0.0883 0.729t-0.283 0.464q-0.191 0.162-0.504 0.162-0.445 0-0.659-0.357-0.21-0.361-0.21-0.997 0-0.427 0.0846-0.729 0.0883-0.302 0.28-0.46 0.191-0.162 0.504-0.162 0.442 0 0.659 0.357 0.217 0.353 0.217 0.994zm-1.42 0q0 0.541 0.121 0.81 0.125 0.269 0.423 0.269 0.294 0 0.42-0.265 0.129-0.269 0.129-0.813 0-0.537-0.129-0.806-0.125-0.269-0.42-0.269-0.298 0-0.423 0.269-0.121 0.269-0.121 0.806zm1.75 0.475v-0.287h0.891v0.287zm2.95-0.663q0 0.283-0.0515 0.559-0.0478 0.272-0.18 0.497-0.129 0.221-0.368 0.353-0.236 0.133-0.607 0.133-0.0736 0-0.173-0.011-0.0994-0.00736-0.158-0.0258v-0.276q0.144 0.0478 0.324 0.0478 0.258 0 0.423-0.0847 0.169-0.0847 0.269-0.228 0.0994-0.147 0.144-0.339 0.0442-0.195 0.0515-0.409h-0.0221q-0.0846 0.125-0.236 0.217-0.151 0.0883-0.39 0.0883-0.339 0-0.548-0.206-0.206-0.21-0.206-0.589 0-0.276 0.103-0.475t0.291-0.305q0.191-0.107 0.445-0.107 0.25 0 0.453 0.129 0.202 0.125 0.32 0.383 0.118 0.254 0.118 0.648zm-0.891-0.887q-0.228 0-0.375 0.151-0.144 0.151-0.144 0.46 0 0.254 0.121 0.401 0.125 0.144 0.383 0.144 0.177 0 0.305-0.0699 0.129-0.0736 0.199-0.184 0.0736-0.11 0.0736-0.228 0-0.158-0.0626-0.313t-0.188-0.258q-0.125-0.103-0.313-0.103zm1.17 2.71h0.508v-2.68h-0.508v-0.265h0.824v3.21h-0.824zm2.45-2.94-0.979 2.63h-0.317l0.979-2.63z"/>
    <path fill="url(#secondaryText)"
        d="m3.64 11q0.24 0 0.362 0.118t0.122 0.375v0.872h-0.218v-0.858q0-0.322-0.3-0.322-0.222 0-0.308 0.125t-0.085 0.36v0.695h-0.22v-1.34h0.178l0.0325 0.182h0.0125q0.065-0.105 0.18-0.155 0.115-0.0525 0.242-0.0525zm2.07 0.692q0 0.332-0.17 0.515-0.168 0.182-0.455 0.182-0.178 0-0.318-0.08-0.138-0.0825-0.218-0.238-0.08-0.158-0.08-0.38 0-0.332 0.165-0.512 0.168-0.18 0.458-0.18 0.18 0 0.32 0.0825 0.14 0.08 0.218 0.235 0.08 0.152 0.08 0.375zm-1.01 0q0 0.238 0.0925 0.378 0.095 0.138 0.3 0.138 0.202 0 0.298-0.138 0.095-0.14 0.095-0.378t-0.095-0.372-0.3-0.135-0.298 0.135-0.0925 0.372zm2.48-0.668v1.34h-0.18l-0.0325-0.178h-0.01q-0.065 0.105-0.18 0.155-0.115 0.0475-0.245 0.0475-0.242 0-0.365-0.115-0.122-0.118-0.122-0.372v-0.878h0.222v0.862q0 0.32 0.298 0.32 0.222 0 0.308-0.125 0.0875-0.125 0.0875-0.36v-0.698zm1.07-0.025q0.24 0 0.362 0.118t0.122 0.375v0.872h-0.218v-0.858q0-0.322-0.3-0.322-0.222 0-0.308 0.125t-0.085 0.36v0.695h-0.22v-1.34h0.178l0.0325 0.182h0.0125q0.065-0.105 0.18-0.155 0.115-0.0525 0.242-0.0525zm1.15 1.08 0.0175 0.0275q-0.035 0.132-0.095 0.29-0.06 0.16-0.12 0.295h-0.162q0.035-0.142 0.07-0.312 0.0375-0.17 0.055-0.3zm1.71-1.08q0.248 0 0.398 0.172 0.152 0.172 0.152 0.52 0 0.342-0.152 0.52-0.15 0.178-0.4 0.178-0.155 0-0.258-0.0575-0.1-0.0575-0.158-0.138h-0.015q0.0025 0.0425 0.0075 0.108 0.0075 0.065 0.0075 0.112v0.55h-0.22v-1.94h0.18l0.03 0.182h0.01q0.06-0.0875 0.158-0.148t0.26-0.06zm-0.04 0.185q-0.205 0-0.29 0.115t-0.0875 0.35v0.0425q0 0.248 0.08 0.382 0.0825 0.132 0.302 0.132 0.12 0 0.2-0.065 0.08-0.0675 0.118-0.185 0.04-0.118 0.04-0.268 0-0.23-0.09-0.368-0.0875-0.138-0.272-0.138zm1.16 1.18h-0.22v-1.9h0.22zm1.54-1.34v1.34h-0.18l-0.0325-0.178h-0.01q-0.065 0.105-0.18 0.155-0.115 0.0475-0.245 0.0475-0.242 0-0.365-0.115-0.122-0.118-0.122-0.372v-0.878h0.222v0.862q0 0.32 0.298 0.32 0.222 0 0.308-0.125 0.0875-0.125 0.0875-0.36v-0.698zm1.05-0.025q0.0375 0 0.08 5e-3 0.0425 0.0025 0.0775 0.01l-0.0275 0.202q-0.0325-0.0075-0.0725-0.0125t-0.0725-5e-3q-0.102 0-0.192 0.0575-0.09 0.055-0.145 0.158-0.0525 0.1-0.0525 0.235v0.715h-0.22v-1.34h0.18l0.025 0.245h0.01q0.0625-0.11 0.165-0.19 0.105-0.08 0.245-0.08zm0.865 0.0025q0.245 0 0.362 0.108t0.118 0.342v0.912h-0.16l-0.0425-0.19h-0.01q-0.0875 0.11-0.185 0.162t-0.265 0.0525q-0.182 0-0.302-0.095-0.12-0.0975-0.12-0.302 0-0.2 0.158-0.308 0.158-0.11 0.485-0.12l0.228-0.0075v-0.08q0-0.168-0.0725-0.232t-0.205-0.065q-0.105 0-0.2 0.0325-0.095 0.03-0.178 0.07l-0.0675-0.165q0.0875-0.0475 0.208-0.08 0.12-0.035 0.25-0.035zm0.262 0.708-0.198 0.0075q-0.25 0.01-0.348 0.08-0.095 0.07-0.095 0.198 0 0.112 0.0675 0.165 0.07 0.0525 0.178 0.0525 0.168 0 0.28-0.0925 0.115-0.095 0.115-0.29zm0.853 0.655h-0.22v-1.9h0.22zm1.7-1.36q0.0375 0 0.08 5e-3 0.0425 0.0025 0.0775 0.01l-0.0275 0.202q-0.0325-0.0075-0.0725-0.0125t-0.0725-5e-3q-0.102 0-0.192 0.0575-0.09 0.055-0.145 0.158-0.0525 0.1-0.0525 0.235v0.715h-0.22v-1.34h0.18l0.025 0.245h0.01q0.0625-0.11 0.165-0.19 0.105-0.08 0.245-0.08zm0.875 0q0.17 0 0.295 0.075t0.19 0.212q0.0675 0.135 0.0675 0.318v0.132h-0.918q5e-3 0.228 0.115 0.348 0.112 0.118 0.312 0.118 0.128 0 0.225-0.0225 0.1-0.025 0.205-0.07v0.192q-0.102 0.045-0.202 0.065-0.1 0.0225-0.238 0.0225-0.192 0-0.338-0.0775t-0.228-0.23q-0.08-0.152-0.08-0.378 0-0.22 0.0725-0.378 0.075-0.158 0.208-0.242 0.135-0.085 0.312-0.085zm-0.0025 0.18q-0.158 0-0.25 0.102-0.09 0.1-0.108 0.28h0.682q-0.0025-0.17-0.08-0.275-0.0775-0.108-0.245-0.108zm1.37-0.18q0.132 0 0.238 0.05 0.108 0.05 0.182 0.152h0.0125l0.03-0.178h0.175v1.36q0 0.288-0.148 0.432-0.145 0.145-0.452 0.145-0.295 0-0.482-0.085v-0.202q0.198 0.105 0.495 0.105 0.172 0 0.27-0.102 0.1-0.1 0.1-0.275v-0.0525q0-0.03 0.0025-0.085 0.0025-0.0575 5e-3 -0.08h-0.01q-0.135 0.202-0.415 0.202-0.26 0-0.408-0.182-0.145-0.182-0.145-0.51 0-0.32 0.145-0.508 0.148-0.19 0.405-0.19zm0.03 0.185q-0.168 0-0.26 0.135-0.0925 0.132-0.0925 0.38t0.09 0.38q0.09 0.13 0.268 0.13 0.202 0 0.295-0.108 0.0925-0.11 0.0925-0.352v-0.0525q0-0.272-0.095-0.392t-0.298-0.12zm1.66-0.185q0.0375 0 0.08 5e-3 0.0425 0.0025 0.0775 0.01l-0.0275 0.202q-0.0325-0.0075-0.0725-0.0125t-0.0725-5e-3q-0.102 0-0.192 0.0575-0.09 0.055-0.145 0.158-0.0525 0.1-0.0525 0.235v0.715h-0.22v-1.34h0.18l0.025 0.245h0.01q0.0625-0.11 0.165-0.19 0.105-0.08 0.245-0.08zm0.875 0q0.17 0 0.295 0.075t0.19 0.212q0.0675 0.135 0.0675 0.318v0.132h-0.918q5e-3 0.228 0.115 0.348 0.112 0.118 0.312 0.118 0.128 0 0.225-0.0225 0.1-0.025 0.205-0.07v0.192q-0.102 0.045-0.202 0.065-0.1 0.0225-0.238 0.0225-0.192 0-0.338-0.0775t-0.228-0.23q-0.08-0.152-0.08-0.378 0-0.22 0.0725-0.378 0.075-0.158 0.208-0.242 0.135-0.085 0.312-0.085zm-0.0025 0.18q-0.158 0-0.25 0.102-0.09 0.1-0.108 0.28h0.682q-0.0025-0.17-0.08-0.275-0.0775-0.108-0.245-0.108zm1.34 1.03q0.05 0 0.102-0.0075t0.085-0.02v0.168q-0.035 0.0175-0.1 0.0275-0.065 0.0125-0.125 0.0125-0.105 0-0.195-0.035-0.0875-0.0375-0.142-0.128t-0.055-0.252v-0.78h-0.19v-0.105l0.192-0.0875 0.0875-0.285h0.13v0.308h0.388v0.17h-0.388v0.775q0 0.122 0.0575 0.182 0.06 0.0575 0.152 0.0575zm1.33-0.215q0 0.195-0.145 0.295t-0.39 0.1q-0.14 0-0.242-0.0225-0.1-0.0225-0.178-0.0625v-0.2q0.08 0.04 0.192 0.075 0.115 0.0325 0.232 0.0325 0.168 0 0.242-0.0525 0.075-0.055 0.075-0.145 0-0.05-0.0275-0.09t-0.1-0.08q-0.07-0.04-0.202-0.09-0.13-0.05-0.222-0.1t-0.142-0.12-0.05-0.18q0-0.17 0.138-0.262 0.14-0.0925 0.365-0.0925 0.122 0 0.228 0.025 0.108 0.025 0.2 0.065l-0.075 0.175q-0.085-0.035-0.178-0.06t-0.19-0.025q-0.135 0-0.208 0.045-0.07 0.0425-0.07 0.118 0 0.0575 0.0325 0.095t0.108 0.075q0.0775 0.0375 0.205 0.085t0.218 0.0975 0.138 0.122q0.0475 0.07 0.0475 0.178z"/>
    <path fill="url(#primaryText)"
        d="m4.36 18.4h-0.225v-0.832h-0.915v0.832h-0.225v-1.78h0.225v0.755h0.915v-0.755h0.225zm0.965-1.36q0.245 0 0.362 0.108t0.118 0.342v0.912h-0.16l-0.0425-0.19h-0.01q-0.0875 0.11-0.185 0.162t-0.265 0.0525q-0.182 0-0.302-0.095-0.12-0.0975-0.12-0.302 0-0.2 0.158-0.308 0.158-0.11 0.485-0.12l0.228-0.0075v-0.08q0-0.168-0.0725-0.232t-0.205-0.065q-0.105 0-0.2 0.0325-0.095 0.03-0.178 0.07l-0.0675-0.165q0.0875-0.0475 0.208-0.08 0.12-0.035 0.25-0.035zm0.262 0.708-0.198 0.0075q-0.25 0.01-0.348 0.08-0.095 0.07-0.095 0.198 0 0.112 0.0675 0.165 0.07 0.0525 0.178 0.0525 0.168 0 0.28-0.0925 0.115-0.095 0.115-0.29zm0.928 0.655-0.508-1.34h0.235l0.285 0.79q0.02 0.055 0.0425 0.122t0.04 0.13 0.025 0.102h0.01q0.0075-0.04 0.0275-0.102 0.02-0.065 0.0425-0.13 0.0225-0.0675 0.0425-0.122l0.285-0.79h0.235l-0.51 1.34zm1.49-1.36q0.17 0 0.295 0.075t0.19 0.212q0.0675 0.135 0.0675 0.318v0.132h-0.918q5e-3 0.228 0.115 0.348 0.112 0.118 0.312 0.118 0.128 0 0.225-0.0225 0.1-0.025 0.205-0.07v0.192q-0.102 0.045-0.202 0.065-0.1 0.0225-0.238 0.0225-0.192 0-0.338-0.0775t-0.228-0.23q-0.08-0.152-0.08-0.378 0-0.22 0.0725-0.378 0.075-0.158 0.208-0.242 0.135-0.085 0.312-0.085zm-0.0025 0.18q-0.158 0-0.25 0.102-0.09 0.1-0.108 0.28h0.682q-0.0025-0.17-0.08-0.275-0.0775-0.108-0.245-0.108zm1.33-0.155h0.235l0.29 0.762q0.0375 0.102 0.0675 0.192t0.045 0.172h0.01q0.015-0.0625 0.0475-0.162 0.0325-0.102 0.0675-0.205l0.272-0.76h0.238l-0.578 1.52q-0.0725 0.19-0.182 0.302-0.11 0.112-0.305 0.112-0.06 0-0.105-0.0075-0.045-5e-3 -0.0775-0.0125v-0.175q0.0275 5e-3 0.065 0.01 0.04 5e-3 0.0825 5e-3 0.115 0 0.185-0.065t0.112-0.172l0.07-0.178zm2.65 0.668q0 0.332-0.17 0.515-0.168 0.182-0.455 0.182-0.178 0-0.318-0.08-0.138-0.0825-0.218-0.238-0.08-0.158-0.08-0.38 0-0.332 0.165-0.512 0.168-0.18 0.458-0.18 0.18 0 0.32 0.0825 0.14 0.08 0.218 0.235 0.08 0.152 0.08 0.375zm-1.01 0q0 0.238 0.0925 0.378 0.095 0.138 0.3 0.138 0.202 0 0.298-0.138 0.095-0.14 0.095-0.378t-0.095-0.372-0.3-0.135-0.298 0.135-0.0925 0.372zm2.48-0.668v1.34h-0.18l-0.0325-0.178h-0.01q-0.065 0.105-0.18 0.155-0.115 0.0475-0.245 0.0475-0.242 0-0.365-0.115-0.122-0.118-0.122-0.372v-0.878h0.222v0.862q0 0.32 0.298 0.32 0.222 0 0.308-0.125 0.0875-0.125 0.0875-0.36v-0.698zm1.52 1.18q0.05 0 0.102-0.0075t0.085-0.02v0.168q-0.035 0.0175-0.1 0.0275-0.065 0.0125-0.125 0.0125-0.105 0-0.195-0.035-0.0875-0.0375-0.142-0.128t-0.055-0.252v-0.78h-0.19v-0.105l0.192-0.0875 0.0875-0.285h0.13v0.308h0.388v0.17h-0.388v0.775q0 0.122 0.0575 0.182 0.06 0.0575 0.152 0.0575zm1.08-1.21q0.0375 0 0.08 5e-3 0.0425 0.0025 0.0775 0.01l-0.0275 0.202q-0.0325-0.0075-0.0725-0.0125t-0.0725-5e-3q-0.102 0-0.192 0.0575-0.09 0.055-0.145 0.158-0.0525 0.1-0.0525 0.235v0.715h-0.22v-1.34h0.18l0.025 0.245h0.01q0.0625-0.11 0.165-0.19 0.105-0.08 0.245-0.08zm0.52-0.478q0.05 0 0.0875 0.035 0.04 0.0325 0.04 0.105t-0.04 0.108q-0.0375 0.0325-0.0875 0.0325-0.055 0-0.0925-0.0325-0.0375-0.035-0.0375-0.108t0.0375-0.105q0.0375-0.035 0.0925-0.035zm0.108 0.502v1.34h-0.22v-1.34zm0.942-0.025q0.17 0 0.295 0.075t0.19 0.212q0.0675 0.135 0.0675 0.318v0.132h-0.918q5e-3 0.228 0.115 0.348 0.112 0.118 0.312 0.118 0.128 0 0.225-0.0225 0.1-0.025 0.205-0.07v0.192q-0.102 0.045-0.202 0.065-0.1 0.0225-0.238 0.0225-0.192 0-0.338-0.0775t-0.228-0.23q-0.08-0.152-0.08-0.378 0-0.22 0.0725-0.378 0.075-0.158 0.208-0.242 0.135-0.085 0.312-0.085zm-0.0025 0.18q-0.158 0-0.25 0.102-0.09 0.1-0.108 0.28h0.682q-0.0025-0.17-0.08-0.275-0.0775-0.108-0.245-0.108zm1.37 1.21q-0.25 0-0.4-0.172-0.15-0.175-0.15-0.52t0.15-0.52q0.152-0.178 0.402-0.178 0.155 0 0.252 0.0575 0.1 0.0575 0.162 0.14h0.015q-5e-3 -0.0325-0.01-0.095-5e-3 -0.065-5e-3 -0.102v-0.535h0.22v1.9h-0.178l-0.0325-0.18h-0.01q-0.06 0.085-0.16 0.145t-0.258 0.06zm0.035-0.182q0.212 0 0.298-0.115 0.0875-0.118 0.0875-0.352v-0.04q0-0.25-0.0825-0.382-0.0825-0.135-0.305-0.135-0.178 0-0.268 0.142-0.0875 0.14-0.0875 0.378 0 0.24 0.0875 0.372 0.09 0.132 0.27 0.132zm2.8-1.18v1.34h-0.18l-0.0325-0.178h-0.01q-0.065 0.105-0.18 0.155-0.115 0.0475-0.245 0.0475-0.242 0-0.365-0.115-0.122-0.118-0.122-0.372v-0.878h0.222v0.862q0 0.32 0.298 0.32 0.222 0 0.308-0.125 0.0875-0.125 0.0875-0.36v-0.698zm1.3 0.97q0 0.195-0.145 0.295t-0.39 0.1q-0.14 0-0.242-0.0225-0.1-0.0225-0.178-0.0625v-0.2q0.08 0.04 0.192 0.075 0.115 0.0325 0.232 0.0325 0.168 0 0.242-0.0525 0.075-0.055 0.075-0.145 0-0.05-0.0275-0.09t-0.1-0.08q-0.07-0.04-0.202-0.09-0.13-0.05-0.222-0.1t-0.142-0.12-0.05-0.18q0-0.17 0.138-0.262 0.14-0.0925 0.365-0.0925 0.122 0 0.228 0.025 0.108 0.025 0.2 0.065l-0.075 0.175q-0.085-0.035-0.178-0.06t-0.19-0.025q-0.135 0-0.208 0.045-0.07 0.0425-0.07 0.118 0 0.0575 0.0325 0.095t0.108 0.075q0.0775 0.0375 0.205 0.085t0.218 0.0975 0.138 0.122q0.0475 0.07 0.0475 0.178zm0.438-1.47q0.05 0 0.0875 0.035 0.04 0.0325 0.04 0.105t-0.04 0.108q-0.0375 0.0325-0.0875 0.0325-0.055 0-0.0925-0.0325-0.0375-0.035-0.0375-0.108t0.0375-0.105q0.0375-0.035 0.0925-0.035zm0.108 0.502v1.34h-0.22v-1.34zm1.07-0.025q0.24 0 0.362 0.118t0.122 0.375v0.872h-0.218v-0.858q0-0.322-0.3-0.322-0.222 0-0.308 0.125t-0.085 0.36v0.695h-0.22v-1.34h0.178l0.0325 0.182h0.0125q0.065-0.105 0.18-0.155 0.115-0.0525 0.242-0.0525zm1.38 0q0.132 0 0.238 0.05 0.108 0.05 0.182 0.152h0.0125l0.03-0.178h0.175v1.36q0 0.288-0.148 0.432-0.145 0.145-0.452 0.145-0.295 0-0.482-0.085v-0.202q0.198 0.105 0.495 0.105 0.172 0 0.27-0.102 0.1-0.1 0.1-0.275v-0.0525q0-0.03 0.0025-0.085 0.0025-0.0575 5e-3 -0.08h-0.01q-0.135 0.202-0.415 0.202-0.26 0-0.408-0.182-0.145-0.182-0.145-0.51 0-0.32 0.145-0.508 0.148-0.19 0.405-0.19zm0.03 0.185q-0.168 0-0.26 0.135-0.0925 0.132-0.0925 0.38t0.09 0.38q0.09 0.13 0.268 0.13 0.202 0 0.295-0.108 0.0925-0.11 0.0925-0.352v-0.0525q0-0.272-0.095-0.392t-0.298-0.12zm2.19-0.182q0.245 0 0.362 0.108t0.118 0.342v0.912h-0.16l-0.0425-0.19h-0.01q-0.0875 0.11-0.185 0.162t-0.265 0.0525q-0.182 0-0.302-0.095-0.12-0.0975-0.12-0.302 0-0.2 0.158-0.308 0.158-0.11 0.485-0.12l0.228-0.0075v-0.08q0-0.168-0.0725-0.232t-0.205-0.065q-0.105 0-0.2 0.0325-0.095 0.03-0.178 0.07l-0.0675-0.165q0.0875-0.0475 0.208-0.08 0.12-0.035 0.25-0.035zm0.262 0.708-0.198 0.0075q-0.25 0.01-0.348 0.08-0.095 0.07-0.095 0.198 0 0.112 0.0675 0.165 0.07 0.0525 0.178 0.0525 0.168 0 0.28-0.0925 0.115-0.095 0.115-0.29zm1.28-0.71q0.24 0 0.362 0.118t0.122 0.375v0.872h-0.218v-0.858q0-0.322-0.3-0.322-0.222 0-0.308 0.125t-0.085 0.36v0.695h-0.22v-1.34h0.178l0.0325 0.182h0.0125q0.065-0.105 0.18-0.155 0.115-0.0525 0.242-0.0525zm2.79 1.36h-0.255l-0.472-0.775-0.48 0.775h-0.238l0.592-0.93-0.555-0.855h0.25l0.438 0.7 0.44-0.7h0.238l-0.552 0.85zm1.04 0-0.588-1.56h-0.01q0.0075 0.0775 0.0125 0.21 5e-3 0.13 5e-3 0.272v1.08h-0.208v-1.78h0.332l0.55 1.46h0.01l0.56-1.46h0.33v1.78h-0.222v-1.1q0-0.13 5e-3 -0.258 0.0075-0.128 0.0125-0.208h-0.01l-0.595 1.56zm1.48 0v-1.78h0.225v1.58h0.78v0.2zm2.57-1.36q0.248 0 0.398 0.172 0.152 0.172 0.152 0.52 0 0.342-0.152 0.52-0.15 0.178-0.4 0.178-0.155 0-0.258-0.0575-0.1-0.0575-0.158-0.138h-0.015q0.0025 0.0425 0.0075 0.108 0.0075 0.065 0.0075 0.112v0.55h-0.22v-1.94h0.18l0.03 0.182h0.01q0.06-0.0875 0.158-0.148t0.26-0.06zm-0.04 0.185q-0.205 0-0.29 0.115t-0.0875 0.35v0.0425q0 0.248 0.08 0.382 0.0825 0.132 0.302 0.132 0.12 0 0.2-0.065 0.08-0.0675 0.118-0.185 0.04-0.118 0.04-0.268 0-0.23-0.09-0.368-0.0875-0.138-0.272-0.138zm1.45-0.182q0.245 0 0.362 0.108t0.118 0.342v0.912h-0.16l-0.0425-0.19h-0.01q-0.0875 0.11-0.185 0.162t-0.265 0.0525q-0.182 0-0.302-0.095-0.12-0.0975-0.12-0.302 0-0.2 0.158-0.308 0.158-0.11 0.485-0.12l0.228-0.0075v-0.08q0-0.168-0.0725-0.232t-0.205-0.065q-0.105 0-0.2 0.0325-0.095 0.03-0.178 0.07l-0.0675-0.165q0.0875-0.0475 0.208-0.08 0.12-0.035 0.25-0.035zm0.262 0.708-0.198 0.0075q-0.25 0.01-0.348 0.08-0.095 0.07-0.095 0.198 0 0.112 0.0675 0.165 0.07 0.0525 0.178 0.0525 0.168 0 0.28-0.0925 0.115-0.095 0.115-0.29zm1.26-0.71q0.0375 0 0.08 5e-3 0.0425 0.0025 0.0775 0.01l-0.0275 0.202q-0.0325-0.0075-0.0725-0.0125t-0.0725-5e-3q-0.102 0-0.192 0.0575-0.09 0.055-0.145 0.158-0.0525 0.1-0.0525 0.235v0.715h-0.22v-1.34h0.18l0.025 0.245h0.01q0.0625-0.11 0.165-0.19 0.105-0.08 0.245-0.08zm1.28 0.995q0 0.195-0.145 0.295t-0.39 0.1q-0.14 0-0.242-0.0225-0.1-0.0225-0.178-0.0625v-0.2q0.08 0.04 0.192 0.075 0.115 0.0325 0.232 0.0325 0.168 0 0.242-0.0525 0.075-0.055 0.075-0.145 0-0.05-0.0275-0.09t-0.1-0.08q-0.07-0.04-0.202-0.09-0.13-0.05-0.222-0.1t-0.142-0.12-0.05-0.18q0-0.17 0.138-0.262 0.14-0.0925 0.365-0.0925 0.122 0 0.228 0.025 0.108 0.025 0.2 0.065l-0.075 0.175q-0.085-0.035-0.178-0.06t-0.19-0.025q-0.135 0-0.208 0.045-0.07 0.0425-0.07 0.118 0 0.0575 0.0325 0.095t0.108 0.075q0.0775 0.0375 0.205 0.085t0.218 0.0975 0.138 0.122q0.0475 0.07 0.0475 0.178zm0.842-0.995q0.17 0 0.295 0.075t0.19 0.212q0.0675 0.135 0.0675 0.318v0.132h-0.918q5e-3 0.228 0.115 0.348 0.112 0.118 0.312 0.118 0.128 0 0.225-0.0225 0.1-0.025 0.205-0.07v0.192q-0.102 0.045-0.202 0.065-0.1 0.0225-0.238 0.0225-0.192 0-0.338-0.0775t-0.228-0.23q-0.08-0.152-0.08-0.378 0-0.22 0.0725-0.378 0.075-0.158 0.208-0.242 0.135-0.085 0.312-0.085zm-0.0025 0.18q-0.158 0-0.25 0.102-0.09 0.1-0.108 0.28h0.682q-0.0025-0.17-0.08-0.275-0.0775-0.108-0.245-0.108zm1.52-0.18q0.0375 0 0.08 5e-3 0.0425 0.0025 0.0775 0.01l-0.0275 0.202q-0.0325-0.0075-0.0725-0.0125t-0.0725-5e-3q-0.102 0-0.192 0.0575-0.09 0.055-0.145 0.158-0.0525 0.1-0.0525 0.235v0.715h-0.22v-1.34h0.18l0.025 0.245h0.01q0.0625-0.11 0.165-0.19 0.105-0.08 0.245-0.08zm1.17-0.478q0.05 0 0.0875 0.035 0.04 0.0325 0.04 0.105t-0.04 0.108q-0.0375 0.0325-0.0875 0.0325-0.055 0-0.0925-0.0325-0.0375-0.035-0.0375-0.108t0.0375-0.105q0.0375-0.035 0.0925-0.035zm0.108 0.502v1.34h-0.22v-1.34zm1.07-0.025q0.24 0 0.362 0.118t0.122 0.375v0.872h-0.218v-0.858q0-0.322-0.3-0.322-0.222 0-0.308 0.125t-0.085 0.36v0.695h-0.22v-1.34h0.178l0.0325 0.182h0.0125q0.065-0.105 0.18-0.155 0.115-0.0525 0.242-0.0525zm1.77 0.995q0 0.195-0.145 0.295t-0.39 0.1q-0.14 0-0.242-0.0225-0.1-0.0225-0.178-0.0625v-0.2q0.08 0.04 0.192 0.075 0.115 0.0325 0.232 0.0325 0.168 0 0.242-0.0525 0.075-0.055 0.075-0.145 0-0.05-0.0275-0.09t-0.1-0.08q-0.07-0.04-0.202-0.09-0.13-0.05-0.222-0.1t-0.142-0.12-0.05-0.18q0-0.17 0.138-0.262 0.14-0.0925 0.365-0.0925 0.122 0 0.228 0.025 0.108 0.025 0.2 0.065l-0.075 0.175q-0.085-0.035-0.178-0.06t-0.19-0.025q-0.135 0-0.208 0.045-0.07 0.0425-0.07 0.118 0 0.0575 0.0325 0.095t0.108 0.075q0.0775 0.0375 0.205 0.085t0.218 0.0975 0.138 0.122q0.0475 0.07 0.0475 0.178zm0.772 0.215q0.05 0 0.102-0.0075t0.085-0.02v0.168q-0.035 0.0175-0.1 0.0275-0.065 0.0125-0.125 0.0125-0.105 0-0.195-0.035-0.0875-0.0375-0.142-0.128t-0.055-0.252v-0.78h-0.19v-0.105l0.192-0.0875 0.0875-0.285h0.13v0.308h0.388v0.17h-0.388v0.775q0 0.122 0.0575 0.182 0.06 0.0575 0.152 0.0575zm0.972-1.21q0.17 0 0.295 0.075t0.19 0.212q0.0675 0.135 0.0675 0.318v0.132h-0.918q5e-3 0.228 0.115 0.348 0.112 0.118 0.312 0.118 0.128 0 0.225-0.0225 0.1-0.025 0.205-0.07v0.192q-0.102 0.045-0.202 0.065-0.1 0.0225-0.238 0.0225-0.192 0-0.338-0.0775t-0.228-0.23q-0.08-0.152-0.08-0.378 0-0.22 0.0725-0.378 0.075-0.158 0.208-0.242 0.135-0.085 0.312-0.085zm-0.0025 0.18q-0.158 0-0.25 0.102-0.09 0.1-0.108 0.28h0.682q-0.0025-0.17-0.08-0.275-0.0775-0.108-0.245-0.108zm1.4-0.178q0.245 0 0.362 0.108t0.118 0.342v0.912h-0.16l-0.0425-0.19h-0.01q-0.0875 0.11-0.185 0.162t-0.265 0.0525q-0.182 0-0.302-0.095-0.12-0.0975-0.12-0.302 0-0.2 0.158-0.308 0.158-0.11 0.485-0.12l0.228-0.0075v-0.08q0-0.168-0.0725-0.232t-0.205-0.065q-0.105 0-0.2 0.0325-0.095 0.03-0.178 0.07l-0.0675-0.165q0.0875-0.0475 0.208-0.08 0.12-0.035 0.25-0.035zm0.262 0.708-0.198 0.0075q-0.25 0.01-0.348 0.08-0.095 0.07-0.095 0.198 0 0.112 0.0675 0.165 0.07 0.0525 0.178 0.0525 0.168 0 0.28-0.0925 0.115-0.095 0.115-0.29zm1.11 0.68q-0.25 0-0.4-0.172-0.15-0.175-0.15-0.52t0.15-0.52q0.152-0.178 0.402-0.178 0.155 0 0.252 0.0575 0.1 0.0575 0.162 0.14h0.015q-5e-3 -0.0325-0.01-0.095-5e-3 -0.065-5e-3 -0.102v-0.535h0.22v1.9h-0.178l-0.0325-0.18h-0.01q-0.06 0.085-0.16 0.145t-0.258 0.06zm0.035-0.182q0.212 0 0.298-0.115 0.0875-0.118 0.0875-0.352v-0.04q0-0.25-0.0825-0.382-0.0825-0.135-0.305-0.135-0.178 0-0.268 0.142-0.0875 0.14-0.0875 0.378 0 0.24 0.0875 0.372 0.09 0.132 0.27 0.132zm1.16-0.345v-0.0675q0-0.095 0.0175-0.162 0.02-0.07 0.065-0.13 0.0475-0.0625 0.128-0.132 0.095-0.08 0.15-0.135 0.055-0.0575 0.0775-0.11t0.0225-0.128q0-0.12-0.0775-0.185t-0.225-0.065q-0.122 0-0.218 0.0325-0.095 0.03-0.182 0.0725l-0.0775-0.175q0.1-0.0525 0.22-0.0875 0.122-0.035 0.272-0.035 0.238 0 0.368 0.118t0.13 0.32q0 0.112-0.0375 0.192-0.035 0.0775-0.102 0.145-0.065 0.065-0.155 0.14-0.085 0.07-0.128 0.122t-0.0575 0.105-0.015 0.122v0.0425zm-0.0575 0.368q0-0.0925 0.0425-0.13 0.045-0.0375 0.112-0.0375 0.0625 0 0.108 0.0375t0.045 0.13q0 0.09-0.045 0.13t-0.108 0.04q-0.0675 0-0.112-0.04-0.0425-0.04-0.0425-0.13z"/>
</svg>
