<svg version="1.1" viewBox="0 0 75 28" xmlns="http://www.w3.org/2000/svg">
    <!--
        Logo (c) Cloudflare
        Handwritten Notes (c) NSA
        Idea & SVG (c) justJanne
    -->
    <defs>
        <linearGradient id="black"><stop stop-color="#000000"/></linearGradient>
        <linearGradient id="white"><stop stop-color="#ffffff"/></linearGradient>
        <linearGradient id="cloudflareBright"><stop stop-color="#faad3f"/></linearGradient>
        <linearGradient id="cloudflareDark"><stop stop-color="#f48120"/></linearGradient>
    </defs>
    <path fill="url(#white)"
        d="m21.971 0.0056844c-3.7509 0.11676-7.074 2.1346-9.0392 5.1899-0.57738-0.10805-1.1601-0.21223-1.7539-0.1664a2.5389 2.5389 0 0 0-0.080098 0.0077515c-2.8651 0.31432-5.155 2.5146-5.6446 5.3325-3.1237 1.0992-5.4217 3.961-5.441 7.4156-0.011629 0.36363 0.042037 0.72365 0.10129 1.0821 0.11936 1.3706 1.2423 2.4671 2.5859 2.5451a2.5389 2.5389 0 0 0 0.18965 0.004134l18.035-0.30489c0.04518 0.93173 0.067247 1.8669 0.29301 2.6619 0.31421 1.1065 0.93582 2.1893 1.8593 2.914 1.847 1.4495 3.8107 1.309 5.8596 1.309h41.355c1.3313 0 2.5188-0.74302 3.1895-1.6366 0.67068-0.89358 0.96893-1.9406 0.96893-3.0236 0-1.4361-0.51098-2.3764-1.0371-3.2189 1.2407-1.015 1.6378-2.5383 1.5823-3.744-0.05628-1.2236-0.45308-2.313-1.1586-3.2794-0.62374-0.85436-1.6884-1.6144-3.0546-1.803-0.0263-0.28916 0.062149-0.58793-0.007751-0.86713-0.41977-1.6765-2.0597-3.4783-4.2421-3.4783a2.5389 2.5389 0 0 0-0.002068 0l-33.975 0.029456c-1.7499-4.2271-5.8671-7.1158-10.584-6.9691z"/>
    <path fill="url(#cloudflareDark)"
        d="m27.82 17.828a2.1741 2.1402 0 0 0-0.22842-1.9487 2.356 2.3192 0 0 0-1.5989-0.82446l-13.248-0.1499c-0.07614 0-0.15228-0.07495-0.22842-0.07495a0.14276 0.14053 0 0 1 0-0.22485c0.07613-0.1499 0.15228-0.22486 0.30456-0.22486l13.324-0.1499a4.7909 4.7161 0 0 0 3.8831-2.8481l0.7614-1.9487c0-0.074948 0.07613-0.1499 0-0.22485a8.6772 8.5418 0 0 0-16.675-0.89941 4.1568 4.0919 0 0 0-2.741-0.74951 3.9664 3.9045 0 0 0-3.5024 3.4478 4.1592 4.0943 0 0 0 0.076139 1.3491 5.5595 5.4728 0 0 0-5.4059 5.4714 3.1232 3.0745 0 0 0 0.076139 0.82446 0.24311 0.23932 0 0 0 0.22842 0.22485h24.441c0.15228 0 0.30456-0.07495 0.30456-0.22485z"/>
    <path fill="url(#cloudflareBright)"
        d="m32.008 9.434h-0.3807c-0.07613 0-0.15228 0.074948-0.22842 0.1499l-0.53298 1.7988a2.1741 2.1402 0 0 0 0.22842 1.9487 2.356 2.3192 0 0 0 1.5989 0.82446l2.8172 0.1499c0.07613 0 0.15228 0.07495 0.22842 0.07495a0.14276 0.14053 0 0 1 0 0.22486c-0.07613 0.1499-0.15228 0.22485-0.30456 0.22485l-2.8933 0.1499a4.7909 4.7161 0 0 0-3.8831 2.8481l-0.15228 0.67456c-0.07614 0.07495 0 0.22485 0.15228 0.22485h10.05a0.2019 0.19875 0 0 0 0.22842-0.22486 8.2778 8.1486 0 0 0 0.30456-1.9487 7.2793 7.1657 0 0 0-7.2332-7.1204"/>
    <path fill="url(#black)"
        d="m66.336 9.3164a0.25002 0.25002 0 0 0-0.19726 0.27148c0.05042 0.46463 0.11854 1.0499 0.19531 1.6152-0.32271-0.07891-0.65253-0.14861-0.88672-0.0332-0.27607 0.13606-0.45292 0.38724-0.55078 0.6543-0.09786 0.26706-0.12378 0.55743-0.0918 0.82812 0.0095 0.08021 0.06981 0.13477 0.08984 0.21094a0.25 0.25 0 0 0-0.28906-0.02734c-0.08087 0.0673-0.25104 0.13231-0.41992 0.14453s-0.33072-0.03049-0.39062-0.07422c-0.15482-0.11303-0.27871-0.23261-0.34375-0.3457-0.02479-0.04311-0.0048-0.09767-0.01563-0.14062 0.31553-0.0572 0.62738-0.17164 0.86523-0.3457 0.14073-0.10299 0.25942-0.21094 0.34961-0.32422 0.09019-0.11328 0.19349-0.2301 0.13672-0.44141a0.25002 0.25002 0 0 0-0.17773-0.17774c-0.38833-0.10074-0.75454-0.08313-1.0547 0.08008-0.24962 0.13574-0.39772 0.40762-0.51758 0.69726-0.02901-0.02075-0.10865-0.01218-0.12891-0.04687-0.05374-0.09205-0.08593-0.29054-0.08398-0.54102 0.0035-0.44878 0.05296-1.0261-0.12695-1.5293-0.01382-0.048941 0.01652-0.096761 0-0.14453l-0.01172 0.00586c-6e-3 -0.012453 0.0025-0.026744-0.0039-0.039063a0.25002 0.25002 0 0 0-0.45703 0.19727c0.1534 0.44358 0.05678 0.9844-0.01367 1.4785-0.33316-0.08389-0.65685-0.13032-0.85742 0.0293-0.24763 0.19706-0.31888 0.49919-0.33594 0.77539-0.02192 0.35531 6e-3 0.61399 0.11133 0.81836 0.10536 0.20437 0.32678 0.32724 0.52344 0.32812 0.25136 7.07e-4 0.4201-0.1538 0.58984-0.36523 0.13508-0.16826 0.24789-0.43136 0.35156-0.70703 0.08604 0.09871 0.2331 0.12536 0.37109 0.17188 0.0054 0.16402-0.02186 0.341 0.05273 0.4707 0.12072 0.20991 0.29919 0.36427 0.48242 0.49805 0.20952 0.15297 0.46791 0.18821 0.7207 0.16992s0.5073-0.09322 0.70508-0.25781a0.25 0.25 0 0 0 0.07227-0.11328c0.04282 0.08277 0.04112 0.1906 0.10742 0.25781 0.18366 0.18621 0.50338 0.25536 0.78516 0.12695 0.3051-0.13902 0.56288-0.44381 0.74805-0.85352 0.04497 0.15801 0.05639 0.30786 0.13672 0.46484a0.25 0.25 0 0 0 0.33789 0.10938 0.25 0.25 0 0 0 0.10742-0.33594c-0.15699-0.30679-0.20852-0.69332-0.32031-1.1152-0.02613-0.0986-0.01555-0.20199-0.03516-0.30274 0.0013-0.06461 0.03335-0.10094 0.03125-0.16797-0.02287-0.73304-0.12157-1.2244-0.25195-1.6719-0.0027-0.027481-0.0068-0.05871-0.0098-0.085937h-2e-3c-0.0038-0.01238-4e-3 -0.034593-0.0078-0.046875a0.25002 0.25002 0 0 0-0.28899-0.16994zm-6.6719 0.36328a0.25002 0.25002 0 0 0-0.10938 0.33398c0.0097 0.01875 0.0013 0.06372 0.0098 0.08398 0.15889 0.35307 0.13028 0.69909 0.12695 1.4316-0.40605-0.10582-0.77544-0.11502-0.98633 0.08398-0.24178 0.22815-0.28438 0.5506-0.27344 0.82422 0.01366 0.3416 0.10719 0.61007 0.32031 0.76172 0.21312 0.15165 0.49758 0.11456 0.70703-0.01563 0.27595-0.17152 0.35736-0.66286 0.48242-1.0859 0.06685 0.31674 0.03514 0.65718 0.29688 0.90625a0.25 0.25 0 0 0 0.35352-0.0098 0.25 0.25 0 0 0-0.0098-0.35352c-0.31008-0.29502-0.36414-0.73709-0.37305-1.2617-0.008908-0.52458 0.04728-1.1026-0.20898-1.5957h-2e-3a0.25002 0.25002 0 0 0-0.33394-0.10352zm-11.084 0.050781c-0.42322 0.13935-0.86109 0.29627-1.209 0.4668-0.17395 0.08526-0.32415 0.17148-0.44727 0.27539-0.12312 0.10391-0.24061 0.23854-0.24219 0.43359-0.0014 0.17142 0.07161 0.3799 0.23828 0.52539 0.16667 0.14549 0.40052 0.24368 0.74609 0.33008 0.24993 0.06248 0.38344 0.15545 0.45508 0.24023 0.07164 0.08479 0.09499 0.16904 0.0918 0.26953-0.0056 0.17869-0.15026 0.32901-0.39062 0.39062-0.24036 0.06162-0.54044 0.0135-0.7793-0.22266a0.25 0.25 0 0 0-0.35352 2e-3 0.25 0.25 0 0 0 2e-3 0.35352c0.36575 0.3616 0.8525 0.45446 1.2539 0.35156 0.40141-0.1029 0.75373-0.42129 0.76758-0.85938h-2e-3c0.0064-0.2012-0.05176-0.42365-0.20703-0.60742-0.15527-0.18378-0.39462-0.3218-0.7168-0.40234-0.30487-0.07622-0.47-0.16237-0.53906-0.22266-0.06906-0.06029-0.06697-0.07703-0.06641-0.14453-2.8e-4 0.0345-0.0057 0.0046 0.06445-0.05469 0.07019-0.05924 0.19273-0.13596 0.3457-0.21094 0.30594-0.14997 0.73184-0.30292 1.1465-0.43945a0.25 0.25 0 0 0 0.15821-0.3145 0.25 0.25 0 0 0-0.31641-0.16016zm1.6543 0.23242c-0.42721 0.03963-0.76514 0.14104-1.0137 0.28711s-0.43173 0.35225-0.43164 0.61719c7.8e-5 0.25598 0.17725 0.44352 0.38086 0.57422 0.20361 0.1307 0.46258 0.22776 0.75976 0.30664 0.32364 0.0859 0.48786 0.20127 0.57227 0.30469 0.0844 0.10342 0.10654 0.20754 0.10352 0.33789-0.0041 0.17238-0.12376 0.2917-0.36719 0.34375-0.24342 0.05205-0.58244-0.0016-0.88281-0.23828a0.25 0.25 0 0 0-0.34961 0.04101 0.25 0.25 0 0 0 0.04102 0.35156c0.41222 0.32486 0.89314 0.42184 1.2949 0.33594 0.40178-0.0859 0.75341-0.39443 0.76367-0.82226 0.0049-0.2106-0.04665-0.45754-0.2168-0.66602-0.17014-0.20847-0.44156-0.36706-0.83203-0.4707-0.26484-0.0703-0.48394-0.15861-0.61719-0.24414-0.13325-0.08553-0.15039-0.14458-0.15039-0.1543-2e-6 -0.0078 0.02404-0.09063 0.18555-0.18555 0.16151-0.09492 0.43493-0.18622 0.80664-0.2207a0.25 0.25 0 0 0 0.22461-0.27148 0.25 0.25 0 0 0-0.27148-0.22656zm6.0801 0.24219c-0.30752 0.09305-0.52155 0.3261-0.62109 0.59375-0.09954 0.26765-0.11233 0.567-0.0957 0.88281 0.03325 0.63163 0.19024 1.3439 0.21875 1.9199a0.25 0.25 0 0 0 0.26367 0.23828 0.25 0.25 0 0 0 0.23633-0.26172c-0.01893-0.38245-0.07614-0.75771-0.13086-1.1445 0.38081-0.13778 0.69129-0.19658 1.0488-0.25195 0.06565 0.26912 0.18951 0.45719 0.20117 0.76953a0.25 0.25 0 0 0 0.25781 0.24023 0.25 0.25 0 0 0 0.24024-0.25976c-0.01415-0.37884-0.16314-0.62587-0.24805-0.94922a0.25 0.25 0 0 0 0.02734-0.14453 0.25 0.25 0 0 0-0.10938-0.16797c-0.07793-0.22743-0.08786-0.53863-0.18945-0.71875-0.13993-0.24807-0.29504-0.44858-0.47266-0.58789-0.17762-0.13931-0.40238-0.22616-0.62695-0.1582zm-4.543 0.0039a0.25 0.25 0 0 0-0.25976 0.24024c-0.03873 1.0066-0.07305 1.7449-0.04687 2.584a0.25002 0.25002 0 0 0 0.26758 0.24219c0.42916-0.02985 0.6343-0.03923 1.1172 0.01953a0.25 0.25 0 0 0 0.2793-0.21875 0.25 0.25 0 0 0-0.21875-0.27734c-0.39502-0.04806-0.64594-0.0322-0.94141-0.01758-0.01369-0.72803 0.0078-1.4004 0.04297-2.3145a0.25 0.25 0 0 0-0.24024-0.25781zm4.6875 0.47461c0.01863-0.0056 0.07127-0.0062 0.17383 0.07422 0.10255 0.08043 0.229 0.23255 0.3457 0.43945 0.06705 0.11886 0.07318 0.35276 0.13086 0.50391-0.32482 0.05245-0.6409 0.12116-0.98047 0.23633-0.0091-0.08892-0.02688-0.20009-0.03125-0.2832-0.01487-0.28241 0.0054-0.5228 0.06445-0.68164 0.05907-0.15884 0.1285-0.23811 0.29688-0.28906zm9.209 0.93555c0.16167-0.07967 0.3794-0.06725 0.66016 0.04101-0.08407 0.745-0.39549 1.2635-0.64453 1.377-0.13549 0.06174-0.15566 0.04251-0.2207-0.02344-0.06505-0.06595-0.13917-0.22578-0.16211-0.41992-0.02294-0.19415 1.45e-4 -0.41683 0.06641-0.59766 0.06626-0.18082 0.16844-0.31173 0.30078-0.37695zm-1.625 0.01758c-0.0156 0.01226-0.02057 0.02305-0.03711 0.03516-0.09543 0.06983-0.20913 0.0818-0.32226 0.13477 0.0417-0.03947 0.06168-0.13031 0.10938-0.15625 0.05984-0.03254 0.1741 0 0.25-0.01367zm-2.3789 0.07226c0.07098-0.05648 0.21976-0.08405 0.54102 0.03711-0.0072 0.02694 0.0076 0.07234 0 0.09766-0.09807 0.32767-0.23166 0.56939-0.35156 0.71875-0.11991 0.14936-0.24116 0.17762-0.19922 0.17773-0.05169-2.33e-4 -0.04402 0.0133-0.08008-0.05664s-0.07754-0.25143-0.05859-0.55859c0.01264-0.20476 0.07464-0.35728 0.14844-0.41602zm-2.6152 0.26758c0.05679-0.05359 0.25129-0.03073 0.45898 0.0078-0.10464 0.30758-0.18735 0.6976-0.3125 0.77539-0.09903 0.06155-0.12553 0.05033-0.15234 0.03125-0.02682-0.01908-0.1011-0.1172-0.11133-0.37305-0.0078-0.19402 0.04082-0.36934 0.11719-0.44141zm11.201 1.6953a0.25002 0.25002 0 0 0-0.15625 0.28906c0.09146 0.40683 0.32728 1.3327 0.57812 2.0957-0.12117-0.01261-0.24423-0.0366-0.36133-0.0332-0.22654 0.0066-0.45821 0.04979-0.63867 0.21094-0.2578 0.23027-0.35623 0.57238-0.33594 0.90234 0.0203 0.32996 0.15599 0.66367 0.41406 0.9082 0.16518 0.15651 0.39746 0.20935 0.61523 0.17578 0.21778-0.03357 0.43134-0.14855 0.61133-0.33008 0.13174-0.13286 0.21391-0.34076 0.29688-0.54492 0.02537 0.03333 0.05147 0.11453 0.08008 0.15234a0.25 0.25 0 0 0 0.34961 0.04883 0.25 0.25 0 0 0 0.04883-0.35156c-0.15605-0.20628-0.25004-0.45299-0.35547-0.6875-1.59e-4 -0.16518 0.04195-0.29738 0.0098-0.48438-0.15142-0.8796-0.59619-1.7539-0.82422-2.1699-1.79e-4 -3.28e-4 1.79e-4 -0.0016 0-2e-3 -7e-3 -0.01272-0.01885-0.05462-0.02539-0.06641a0.25002 0.25002 0 0 0-0.30668-0.11324zm-21.238 0.38477a0.25002 0.25002 0 0 0-0.11719 0.32812c0.0025 0.0054 0.0034 0.0082 0.0059 0.01367 0.2831 0.61685 0.40597 1.0673 0.58594 1.5781-0.41564-0.0591-0.8248-0.10103-1.0176 0.07422-0.17967 0.16328-0.23283 0.39887-0.22656 0.62109 0.0063 0.22223 0.06926 0.44864 0.16602 0.66406 0.09676 0.21542 0.2274 0.41909 0.38867 0.58203s0.35708 0.29368 0.59375 0.31641c0.37932 0.03644 0.71548-0.08934 0.875-0.35938 0.08234-0.13938 0.03778-0.33182 0.04687-0.5 0.19684 0.36687 0.32958 0.72745 0.76953 1.123a0.25 0.25 0 0 0 0.35352-0.01758 0.25 0.25 0 0 0-0.01953-0.35352c-0.61659-0.55439-0.81591-0.94052-1.0332-1.5078-0.2149-0.56096-0.44006-1.3067-1.0273-2.4277-0.0037-0.0071-0.0021-0.0085-0.0059-0.01563-0.0029-0.0056-0.0029-0.0061-0.0059-0.01172a0.25002 0.25002 0 0 0-0.33203-0.10742zm19.455 1.4609c-0.16096-0.0021-0.31876 0.01945-0.41211 0.0332-0.30235 0.04458-0.54514 0.23686-0.69531 0.48242-0.15018 0.24556-0.22412 0.54424-0.23828 0.86328-0.02382 0.53672 0.12477 0.99463 0.44531 1.2578 0.32054 0.26318 0.81005 0.25308 1.2207-0.05469a0.25 0.25 0 0 0 0.048828-0.3496 0.25 0.25 0 0 0-0.34961-0.050781c-0.28726 0.21529-0.45274 0.19055-0.60156 0.06836-0.11216-0.09209-0.16291-0.36642-0.19922-0.63867 0.33868-0.10346 0.67202-0.25167 0.87891-0.47852 0.11536-0.12649 0.21986-0.26922 0.29883-0.40234 0.03948-0.06656 0.073-0.12905 0.09766-0.19531 0.02466-0.06626 0.06446-0.12973 0.01953-0.26758a0.25002 0.25002 0 0 0-2e-3 -0.0039c-0.05046-0.14772-0.17662-0.20495-0.26367-0.23047-0.08705-0.02552-0.16757-0.03216-0.24805-0.0332zm-10.309 0.02149c-0.47519-0.0703-0.9889 0.02453-1.3535 0.37305-0.03912 0.03738-0.0603 0.10737-0.09766 0.15234a0.25 0.25 0 0 0-0.2168-0.24023c-0.16605-0.01774-0.46753-0.04986-0.77344-0.05078-0.30591-9.26e-4 -0.60682-9.9e-4 -0.85938 0.16602-0.07858 0.05196-0.06795 0.14696-0.12109 0.2168-0.01955-0.05335-0.06074-0.10559-0.07813-0.16016a0.25 0.25 0 0 0-0.31445-0.16211 0.25 0.25 0 0 0-0.16211 0.3125c0.10591 0.33249 0.28089 0.60257 0.42969 0.89258 0.02381 0.06635 0.02155 0.13861 0.05078 0.20312 0.18915 0.41745 0.47157 0.82747 0.55078 1.041 9.97e-4 0.0027 0.0049 0.01105 0.0059 0.01367 0.0034 0.0072 0.0064 0.01422 0.0098 0.02148a0.25002 0.25002 0 0 0 0.46094-0.18945c-0.0022-0.0063-0.0074-0.01324-0.0098-0.01953l2e-3 -2e-3c-0.22188-0.47851-0.41067-0.86802-0.61914-1.2754-0.02393-0.08321-0.06618-0.18267-0.06445-0.24023 0.0032-0.1068 0.02213-0.16056 0.13672-0.23633 0.03966-0.02623 0.30701-0.08286 0.58008-0.08203 0.27306 8.27e-4 0.5606 0.02956 0.72266 0.04687a0.25 0.25 0 0 0 0.2207-0.17773c-0.06679 0.09304-0.14832 0.16535-0.18555 0.28906-0.06683 0.22207-0.05822 0.49111 0.05664 0.77344 0.14252 0.35028 0.41655 0.68345 0.81055 0.875s0.90533 0.2247 1.459-0.0039a0.25 0.25 0 0 0 0.13664-0.32613 0.25 0.25 0 0 0-0.32812-0.13477c-0.44193 0.18248-0.78024 0.14621-1.0488 0.01563-0.05861-0.02849-0.07136-0.09694-0.12305-0.13476 0.27137-0.10471 0.54415-0.20696 0.7793-0.33008 0.37971-0.19883 0.61045-0.53323 0.62109-0.88086 0.01064-0.34763-0.26371-0.68481-0.67773-0.74609zm-13.645 0.09766a0.25002 0.25002 0 0 0-0.07031 0.14648c-0.56029-0.30164-1.0788-0.3435-1.4199-0.11133-0.35986 0.24495-0.49794 0.69484-0.40625 1.1094 0.07078 0.31992 0.256 0.60527 0.48242 0.82031 0.22643 0.21504 0.49609 0.37735 0.80274 0.35352 0.24691-0.01922 0.65185-0.07133 0.91211-0.41406 0.05002-0.06587-0.02744-0.25415 0.0059-0.33594 0.1316 0.28375 0.2667 0.57274 0.66992 0.8418a0.25 0.25 0 0 0 0.34766-0.06836 0.25 0.25 0 0 0-0.07031-0.34766c-0.43668-0.29139-0.56019-0.51881-0.64648-0.79688-0.08406-0.27087-0.11457-0.6198-0.28125-1.0332-0.0012-0.0038 0.0013-4e-3 0-0.0078h-2e-3c-0.0032-0.0079-0.0025-0.01159-0.0059-0.01953a0.25002 0.25002 0 0 0-0.31836-0.13672zm17.283 0.04687c-0.1421-0.01293-0.28808 0.047-0.38867 0.13867-0.1006 0.09167-0.1715 0.20893-0.23242 0.34961-0.04845 0.11186-0.06664 0.32414-0.10352 0.4707-0.0877-0.17008-0.17991-0.42471-0.26758-0.53711-0.09718-0.12459-0.19567-0.22093-0.31836-0.28125-0.12268-0.06032-0.27806-0.07238-0.4043-0.02344-0.18703 0.07247-0.29072 0.23032-0.36328 0.39844-0.07256 0.16812-0.11498 0.36392-0.13477 0.58008-0.03957 0.43232 0.01538 0.94274 0.21289 1.4004a0.25 0.25 0 0 0 0.32812 0.13086 0.25 0.25 0 0 0 0.13086-0.33008c-0.15595-0.36136-0.20597-0.8051-0.17383-1.1562 0.01607-0.17558 0.05236-0.3273 0.0957-0.42774 0.04335-0.10043 0.09257-0.13223 0.08398-0.12891-1.73e-4 6.7e-5 -0.01884-0.0053 0.0039 0.0059 0.02275 0.01119 0.07663 0.05162 0.14453 0.13867 0.13581 0.17411 0.31898 0.51991 0.51953 1.0586a0.25002 0.25002 0 0 0 0.48242-0.06055c0.05365-0.48889 0.13654-0.84021 0.22266-1.0391 0.04306-0.09943 0.08654-0.15693 0.10938-0.17774 0.02283-0.02081 0.01035-0.01149 0.0078-0.01172-0.0014-1.31e-4 0.01946 0.0027 0.06836 0.05469 0.0489 0.05197 0.11386 0.14858 0.17969 0.28516 0.13166 0.27315 0.27137 0.70248 0.40234 1.2676a0.25 0.25 0 0 0 0.29883 0.1875 0.25 0.25 0 0 0 0.1875-0.30078c-0.13567-0.58534-0.27749-1.0411-0.4375-1.373-0.08-0.16598-0.16371-0.30184-0.26562-0.41016s-0.23228-0.1948-0.38867-0.20898zm-14.693 0.02539c-0.31544-4.71e-4 -0.58552 0.21942-0.74805 0.53711-0.16252 0.31769-0.24454 0.74737-0.22656 1.2852a0.25 0.25 0 0 0 0.25781 0.24219 0.25 0.25 0 0 0 0.24219-0.25781c-0.01591-0.47602 0.06357-0.82931 0.17188-1.041 0.1083-0.21171 0.21681-0.26575 0.30274-0.26562 0.0823 1.17e-4 0.11917 0.01501 0.16211 0.05078s0.09275 0.10576 0.14062 0.22656c0.09575 0.2416 0.16826 0.66685 0.23633 1.2402a0.25 0.25 0 0 0 0.27734 0.21875 0.25 0.25 0 0 0 0.21875-0.2793c-0.069134-0.58237-0.13351-1.025-0.26758-1.3633-0.067034-0.16914-0.1536-0.31815-0.28516-0.42773-0.13155-0.10959-0.30636-0.16577-0.48242-0.16602zm16.861 0.01953c-0.5381 0.01554-1.045 0.44177-1.0332 1.0723 0.01301 0.69712 0.52566 1.3325 1.1973 1.293 0.26192-0.01541 0.52295-0.1556 0.70898-0.4082 0.11044-0.14995 0.16265-0.42175 0.23438-0.65039 0.16116 0.20997 0.32856 0.47369 0.48047 0.57227 0.24718 0.1604 0.49391 0.17741 0.66992 0.17578 0.47241-0.0044 0.79321-0.37938 0.88477-0.77539 0.09156-0.39601 0.0076-0.85368-0.31055-1.1641a0.25 0.25 0 0 0-0.35352 0.0039 0.25 0.25 0 0 0 0.0039 0.35352c0.16434 0.16032 0.22927 0.45357 0.17383 0.69336-0.05544 0.23979-0.17777 0.38656-0.4043 0.38867-0.1544 0.0014-0.24537-1.79e-4 -0.39258-0.0957-0.1472-0.09552-0.35375-0.30989-0.62305-0.76562a0.25002 0.25002 0 0 0-0.26172-0.11914c-0.266-0.30271-0.58614-0.58546-0.97461-0.57422zm4.4473 0.29297c-0.05798 0.0929-0.13487 0.20119-0.2168 0.29102-0.13074 0.14335-0.31542 0.19673-0.48828 0.28125 0.02805-0.1006 0.03423-0.22901 0.07813-0.30078 0.09154-0.14968 0.19603-0.22656 0.3418-0.24805 0.06929-0.0102 0.18504-0.02051 0.28516-0.02344zm-10.328 0.01172c0.22783 0.03372 0.25581 0.1124 0.25195 0.23828-0.0039 0.12588-0.10422 0.32165-0.35156 0.45117-0.25388 0.13293-0.57213 0.2577-0.9082 0.38477-0.01904-0.03565-0.06929-0.05569-0.08398-0.0918-0.07874-0.19355-0.07524-0.32573-0.04102-0.43945s0.10734-0.21496 0.19922-0.30274c0.226-0.21602 0.57482-0.29331 0.93359-0.24023zm-14.779 0.05273c0.16963-0.11546 0.46713-0.15988 0.96094 0.13281a0.25 0.25 0 0 0 0.10742-0.02734c0.11214 0.50923 0.13891 0.92053 0.04297 1.0469-0.11832 0.15581-0.34093 0.20031-0.55274 0.2168-0.07567 0.0059-0.259-0.06396-0.41992-0.2168-0.16092-0.15283-0.295-0.37059-0.33789-0.56445-0.05251-0.23739 0.02958-0.47243 0.19922-0.58789zm20.674 0.14062c0.29304-0.0085 0.58374 0.16926 0.7207 0.40039-0.07217 0.34533-0.16378 0.62608-0.26367 0.76172-0.11551 0.15684-0.21276 0.19978-0.33594 0.20703-0.31983 0.01884-0.66141-0.34869-0.66992-0.80469-7e-3 -0.37715 0.24011-0.55554 0.54883-0.56445zm-15.174 0.19336c0.0741-0.06736 0.30251-0.15754 0.84961 0.01172 0.04742 0.16312 0.18562 0.4248 0.20898 0.56055 0.05431 0.31558 0.02537 0.53636-0.0293 0.62891-0.05467 0.09254-0.1257 0.14125-0.39648 0.11523-0.06948-0.0067-0.17633-0.05997-0.28516-0.16992-0.10883-0.10995-0.21443-0.26939-0.28906-0.43555-0.07463-0.16616-0.11734-0.33944-0.12109-0.47266-0.0038-0.13321 0.02816-0.20708 0.0625-0.23828zm21.52 0.10156c0.13523-0.0039 0.31556 0.02141 0.49609 0.04687-0.03329 0.38464-0.04551 0.81569-0.19922 0.9707-0.11318 0.11415-0.23609 0.17271-0.33203 0.1875-0.09594 0.01479-0.15464-0.0082-0.19336-0.04492-0.15479-0.14667-0.24885-0.36506-0.26172-0.57422-0.01287-0.20916 0.05319-0.39399 0.17188-0.5 0.04993-0.04459 0.15223-0.08112 0.31836-0.08594zm-9.5273 2.8125a0.25 0.25 0 0 0-0.14453 0.32422c0.33117 0.85942 0.4969 1.7296 0.74219 2.625a0.25 0.25 0 0 0 0.30664 0.17578 0.25 0.25 0 0 0 0.17578-0.30859c-0.23838-0.87014-0.40632-1.7597-0.75781-2.6719a0.25 0.25 0 0 0-0.32227-0.14453zm-11.447 0.57812a0.25 0.25 0 0 0-0.14844 0.32227l1.1309 3.0879a0.25002 0.25002 0 0 0 0.48438-0.11524c-0.07695-0.68515-0.06638-1.1948-0.0039-1.5312 0.06247-0.33645 0.18036-0.46973 0.22656-0.49219 0.0231-0.01123 0.03701-0.01556 0.08203-2e-3 0.04503 0.01361 0.11505 0.05282 0.19531 0.12695 0.16052 0.14827 0.35459 0.43113 0.52734 0.82617 0.21314 0.4874 0.35914 0.91842 0.62891 1.4805a0.25 0.25 0 0 0 0.33203 0.11914 0.25 0.25 0 0 0 0.11719-0.33398c-0.25655-0.53453-0.39619-0.95501-0.61914-1.4648-0.19158-0.4381-0.40712-0.77305-0.64648-0.99414-0.11968-0.11054-0.24757-0.19504-0.39062-0.23828-0.14305-0.04324-0.30603-0.03644-0.44531 0.03125-0.27856 0.13537-0.42155 0.43767-0.49805 0.84961-0.01165 0.06275 0.0083 0.18662 0 0.25586l-0.65235-1.7773a0.25 0.25 0 0 0-0.32031-0.15039zm9.0039 1.1387c-0.29477-0.0054-0.66379 0.05992-0.96484 0.34766-0.07164 0.06845-0.09435 0.17247-0.14258 0.25977-0.19511-0.1139-0.41124-0.21568-0.65039-0.25977-0.28857-0.0532-0.58553-0.07202-0.83594 0.0957-0.02994 0.02005-0.02058 0.05899-0.04687 0.08203a0.25 0.25 0 0 0-0.10938-0.03711 0.25 0.25 0 0 0-0.23047 0.26758c0.0074 0.10126 0.05837 0.1427 0.07617 0.23242-0.0021 0.02018-0.03117 0.03466-0.03125 0.05469-2.2e-4 0.05503 0.03556 0.09666 0.04492 0.14844a0.25 0.25 0 0 0-0.02344 0.02344c-0.09543 0.21576-0.33137 0.6212-0.75781 0.92188-0.08476 0.05976-0.26078 0.11277-0.43359 0.11719-0.17281 0.0044-0.33917-0.04304-0.39258-0.08203-0.15487-0.11307-0.17012-0.29888-0.25977-0.45508 0.30889-0.07653 0.62152-0.17554 0.79688-0.37891 0.11649-0.1351 0.20262-0.27791 0.25391-0.42188 0.05129-0.14396 0.08641-0.29688-0.0039-0.46484a0.25002 0.25002 0 0 0-0.1543-0.12305c-0.38838-0.10503-0.75928-0.12886-1.0742 0.02148-0.31494 0.15035-0.52049 0.48906-0.55078 0.92383-0.03959 0.56848 0.31486 1.0216 0.69727 1.3008 0.20138 0.14703 0.44944 0.18607 0.69922 0.17969 0.24978-0.0064 0.50405-0.06117 0.71094-0.20703 0.38369-0.27053 0.51883-0.55689 0.67383-0.82226 0.164 0.293 0.33362 0.56514 0.40039 0.76172 0.01115 0.03284 0.04027 0.06325 0.04883 0.09766a0.25019 0.25019 0 0 0 0.48828-0.10938c-7.52e-4 -0.0036-0.0031-0.0061-0.0039-0.0098h2e-3c-0.09034-0.36308-0.2751-0.62108-0.41992-0.87109-0.10106-0.17446-0.14801-0.39264-0.20117-0.60938 0.01013-0.03808 0.0028-0.07321 0.08008-0.125 0.04063-0.02722 0.24482-0.06045 0.4668-0.01953 0.22198 0.04092 0.46009 0.13855 0.58203 0.22656a0.25 0.25 0 0 0 0.0332-0.0059c-0.0023 0.14624-0.0098 0.28428 0.02539 0.46875 0.05136 0.26937 0.20244 0.51188 0.3418 0.71484 0.21552 0.3139 0.57671 0.52609 0.96094 0.58398 0.38423 0.05789 0.8342-0.08788 1.0352-0.51172a0.25 0.25 0 0 0-0.11914-0.33398 0.25 0.25 0 0 0-0.33203 0.11914c-0.10644 0.22449-0.27191 0.26826-0.50977 0.23242-0.23786-0.03584-0.50511-0.20127-0.62305-0.37305-0.10509-0.15306-0.18498-0.32196-0.22656-0.45117 0.16749 0.01494 0.33651 0.01476 0.50195-0.02344 0.20986-0.04845 0.4022-0.11582 0.55078-0.20898 0.24822-0.15565 0.41005-0.35871 0.45898-0.58594 0.04893-0.22722-0.06368-0.49611-0.28711-0.59766a0.25002 0.25002 0 0 0-0.0293-0.01172c-0.0014-4.43e-4 -0.22086-0.07667-0.51562-0.08203zm0.33984 0.5625c3e-3 -2.63e-4 0.01102-0.0096 0.0039 0.02344-0.01125 0.05226-0.0743 0.16598-0.23633 0.26758-0.0636 0.03988-0.23248 0.10817-0.39844 0.14648-0.16595 0.03831-0.34192 0.04509-0.4082 0.0293a0.25 0.25 0 0 0-0.04492 0.02734c0.0012-0.02972-0.01187-0.0922-0.0078-0.11524 0.01738-0.0988 0.04775-0.15115 0.13281-0.23242 0.33608-0.32121 0.92496-0.15582 0.95898-0.14648zm7.7891 0.06641-0.125 2e-3a0.25 0.25 0 0 0-0.24414 0.25586 0.25 0.25 0 0 0 0.25391 0.24414l0.12695-2e-3a0.25 0.25 0 0 0 0.24414-0.25586 0.25 0.25 0 0 0-0.25586-0.24414zm-12.854 0.17188c0.10355-0.04944 0.31325-0.01691 0.50781 0.0059-0.0303 0.06419-0.06144 0.13364-0.12305 0.20508-0.15151 0.17571-0.3828 0.30554-0.64062 0.31445 2.77e-4 -0.0068-0.01024-0.01072-0.0098-0.01758 0.02211-0.31734 0.11706-0.43689 0.26562-0.50781zm15.91 0.21875a0.25 0.25 0 0 0-0.25781 0.24219 0.25 0.25 0 0 0 0.24219 0.25781l0.12695 0.0039a0.25 0.25 0 0 0 0.25586-0.24219 0.25 0.25 0 0 0-0.24219-0.25781zm-4.623 0.66602a0.25 0.25 0 0 0-0.23828 0.26172c0.02332 0.47846 0.32273 0.98642 0.76367 1.4805 0.44094 0.49404 1.0375 0.96476 1.7129 1.2832 0.6754 0.31844 1.4329 0.4867 2.1836 0.3457 0.75073-0.141 1.4795-0.60051 2.0605-1.4688a0.25 0.25 0 0 0-0.06836-0.34766 0.25 0.25 0 0 0-0.34766 0.06836c-0.5207 0.77806-1.1175 1.1396-1.7363 1.2559-0.6188 0.11622-1.2731-0.02102-1.8789-0.30664-0.6058-0.28562-1.1569-0.7186-1.5527-1.1621-0.39583-0.44351-0.62381-0.90708-0.63672-1.1719a0.25 0.25 0 0 0-0.26172-0.23828zm2.8711 0.17383a0.25 0.25 0 0 0-0.32812 0.13281c-0.22994 0.53608-0.11789 1.0804-0.1582 1.5098a0.25002 0.25002 0 0 0 0.23633 0.27344l1.498 0.07617a0.25 0.25 0 0 0 0.26172-0.23828 0.25 0.25 0 0 0-0.23633-0.26172l-1.2383-0.0625c0.0107-0.40983-0.02463-0.81451 0.09766-1.0996a0.25 0.25 0 0 0-0.13281-0.33008zm-5.7559 1.0078a0.25 0.25 0 0 0-0.30469 0.17969l-0.05664 0.2168a0.25 0.25 0 0 0 0.17969 0.30469 0.25 0.25 0 0 0 0.30469-0.17774l0.05664-0.21875a0.25 0.25 0 0 0-0.17969-0.30469z"/>
    <path fill="url(#black)"
        d="m24.215 19.9a0.25002 0.25002 0 0 0-0.32422 0.20508c-0.17659 1.3323-0.14962 2.614-0.02734 3.8672a0.25 0.25 0 0 0 0.27344 0.22461 0.25 0.25 0 0 0 0.22461-0.27344c-0.11026-1.13-0.10499-2.2774 0.02344-3.4531 0.89715 0.3028 1.7582 0.65264 2.8652 0.83203a0.25 0.25 0 0 0 0.28711-0.20703 0.25 0.25 0 0 0-0.20703-0.28711c-1.1674-0.18918-2.0822-0.5755-3.1152-0.9082zm0.70312 1.1465a0.25 0.25 0 0 0-0.11914 0.33398c0.26365 0.5566 0.66459 0.98877 1.0547 1.3965a0.25 0.25 0 0 0 0.35352 0.0078 0.25 0.25 0 0 0 0.0078-0.35352c-0.38506-0.40245-0.74066-0.79648-0.96289-1.2656a0.25 0.25 0 0 0-0.33398-0.11914zm2.0625 2.4375a0.25 0.25 0 0 0-0.15625 0.10938 0.25 0.25 0 0 0 0.07813 0.3457c0.54392 0.34334 1.1312 0.69013 1.8457 0.73242a0.25 0.25 0 0 0 0.26367-0.23438 0.25 0.25 0 0 0-0.23438-0.26367c-0.56689-0.03355-1.0737-0.32133-1.6074-0.6582a0.25 0.25 0 0 0-0.18945-0.03125zm21.318 0.08203c-0.60651 0.32453-1.2611 0.50242-1.9531 0.59961a0.25 0.25 0 0 0-0.21289 0.2832 0.25 0.25 0 0 0 0.28125 0.21289c0.73256-0.10288 1.4496-0.29501 2.1211-0.6543a0.25 0.25 0 0 0 0.10352-0.33984 0.25 0.25 0 0 0-0.33984-0.10156zm-7.8594 0.94727-1.4512 0.27344a0.25 0.25 0 0 0-0.19922 0.29297 0.25 0.25 0 0 0 0.29297 0.19922l1.4492-0.27344a0.25 0.25 0 0 0 0.19922-0.29297 0.25 0.25 0 0 0-0.29102-0.19922zm3.8379 0.11133c-0.51138 0.11592-0.83083 0.21929-2.043 0.02539a0.25 0.25 0 0 0-0.28516 0.20703 0.25 0.25 0 0 0 0.20703 0.28711c1.2576 0.20116 1.7323 0.07973 2.2305-0.0332a0.25 0.25 0 0 0 0.18945-0.29883 0.25 0.25 0 0 0-0.29883-0.1875zm-14.369 0.24609a0.25 0.25 0 0 0-0.2832 0.21289 0.25 0.25 0 0 0 0.21289 0.28125l1.1992 0.16992a0.25 0.25 0 0 0 0.2832-0.21289 0.25 0.25 0 0 0-0.21289-0.2832zm4.498 0.22266c-0.36343-0.06321-0.72224 0.02421-1.0508 0.09766-0.32854 0.07344-0.62908 0.13036-0.80859 0.0957a0.25 0.25 0 0 0-0.29297 0.19727 0.25 0.25 0 0 0 0.19922 0.29297c0.34278 0.06617 0.6829-0.02459 1.0098-0.09766 0.32686-0.07307 0.63776-0.13195 0.85742-0.09375a0.25 0.25 0 0 0 0.28906-0.20312 0.25 0.25 0 0 0-0.20312-0.28906zm2.7969 0.0098-0.83008 0.16016a0.25 0.25 0 0 0-0.19922 0.29297 0.25 0.25 0 0 0 0.29297 0.19726l0.83008-0.16016a0.25 0.25 0 0 0 0.19922-0.29297 0.25 0.25 0 0 0-0.29297-0.19726z"/>
</svg>
