<svg version="1.1" viewBox="0 0 102 24" xmlns="http://www.w3.org/2000/svg">
    <!--
        Star Trek & the Enterprise Silhouette (c) Paramount Pictures
        Idea & SVG (c) justJanne
    -->
    <defs>
        <linearGradient id="black"><stop stop-color="#000000"/></linearGradient>
        <linearGradient id="white"><stop stop-color="#ffffff"/></linearGradient>
        <linearGradient id="space_blue"><stop stop-color="#001b41"/></linearGradient>
        <linearGradient id="pride_red"><stop stop-color="#e83134"/></linearGradient>
        <linearGradient id="pride_orange"><stop stop-color="#f28e2c"/></linearGradient>
        <linearGradient id="pride_yellow"><stop stop-color="#feba15"/></linearGradient>
        <linearGradient id="pride_green"><stop stop-color="#84b135"/></linearGradient>
        <linearGradient id="pride_indigo"><stop stop-color="#405d9f"/></linearGradient>
        <linearGradient id="pride_violet"><stop stop-color="#815596"/></linearGradient>
    </defs>
    <path id="background" fill="url(#space_blue)"
        d="m0 24h102v-24h-102z"/>
    <path id="stars" fill="url(#white)"
        d="m79.7 0.333a0.1 0.1 0 0 0-0.1 0.1 0.1 0.1 0 0 0 0.1 0.1 0.1 0.1 0 0 0 0.1-0.1 0.1 0.1 0 0 0-0.1-0.1zm-10 0.9a0.1 0.1 0 0 0-0.1 0.1 0.1 0.1 0 0 0 0.1 0.1 0.1 0.1 0 0 0 0.1-0.1 0.1 0.1 0 0 0-0.1-0.1zm6.83 0.3a0.2 0.2 0 0 0-0.2 0.2 0.2 0.2 0 0 0 0.2 0.2 0.2 0.2 0 0 0 0.201-0.2 0.2 0.2 0 0 0-0.201-0.2zm-6.03 0.4a0.1 0.1 0 0 0-0.1 0.1 0.1 0.1 0 0 0 0.1 0.1 0.1 0.1 0 0 0 0.1-0.1 0.1 0.1 0 0 0-0.1-0.1zm26.3 0a0.1 0.1 0 0 0-0.1 0.1 0.1 0.1 0 0 0 0.1 0.1 0.1 0.1 0 0 0 0.1-0.1 0.1 0.1 0 0 0-0.1-0.1zm-19.3 0.1a0.1 0.1 0 0 0-0.1 0.1 0.1 0.1 0 0 0 0.1 0.1 0.1 0.1 0 0 0 0.1-0.1 0.1 0.1 0 0 0-0.1-0.1zm2.61 0.4a0.1 0.1 0 0 0-0.1 0.1 0.1 0.1 0 0 0 0.1 0.1 0.1 0.1 0 0 0 0.1-0.1 0.1 0.1 0 0 0-0.1-0.1zm1.31 0.3a0.1 0.1 0 0 0-0.1 0.1 0.1 0.1 0 0 0 0.1 0.1 0.1 0.1 0 0 0 0.1-0.1 0.1 0.1 0 0 0-0.1-0.1zm5.02 0a0.1 0.1 0 0 0-0.1 0.1 0.1 0.1 0 0 0 0.1 0.1 0.1 0.1 0 0 0 0.1-0.1 0.1 0.1 0 0 0-0.1-0.1zm-9.64 0.3a0.2 0.2 0 0 0-0.2 0.2 0.2 0.2 0 0 0 0.2 0.2 0.2 0.2 0 0 0 0.201-0.2 0.2 0.2 0 0 0-0.201-0.2zm-7.74 0.7a0.1 0.1 0 0 0-0.1 0.1 0.1 0.1 0 0 0 0.1 0.1 0.1 0.1 0 0 0 0.1-0.1 0.1 0.1 0 0 0-0.1-0.1zm26.7 0.2a0.1 0.1 0 0 0-0.1 0.1 0.1 0.1 0 0 0 0.1 0.1 0.1 0.1 0 0 0 0.1-0.1 0.1 0.1 0 0 0-0.1-0.1zm-26.2 0.7a0.2 0.2 0 0 0-0.2 0.2 0.2 0.2 0 0 0 0.2 0.2 0.2 0.2 0 0 0 0.201-0.2 0.2 0.2 0 0 0-0.201-0.2zm28.8 0.2a0.1 0.1 0 0 0-0.1 0.1 0.1 0.1 0 0 0 0.1 0.1 0.1 0.1 0 0 0 0.1-0.1 0.1 0.1 0 0 0-0.1-0.1zm2.51 2.01a0.4 0.4 0 0 0-0.4 0.4 0.4 0.4 0 0 0 0.4 0.4 0.4 0.4 0 0 0 0.402-0.4 0.4 0.4 0 0 0-0.402-0.4zm-38.7 2.51a0.1 0.1 0 0 0-0.1 0.1 0.1 0.1 0 0 0 0.1 0.1 0.1 0.1 0 0 0 0.1-0.1 0.1 0.1 0 0 0-0.1-0.1zm38.9 1.31a0.2 0.2 0 0 0-0.2 0.2 0.2 0.2 0 0 0 0.2 0.2 0.2 0.2 0 0 0 0.201-0.2 0.2 0.2 0 0 0-0.201-0.2zm-37.3 0.7a0.1 0.1 0 0 0-0.1 0.1 0.1 0.1 0 0 0 0.1 0.1 0.1 0.1 0 0 0 0.1-0.1 0.1 0.1 0 0 0-0.1-0.1zm30 0.5a0.1 0.1 0 0 0-0.1 0.1 0.1 0.1 0 0 0 0.1 0.1 0.1 0.1 0 0 0 0.1-0.1 0.1 0.1 0 0 0-0.1-0.1zm-1 0.4a0.4 0.4 0 0 0-0.4 0.4 0.4 0.4 0 0 0 0.4 0.4 0.4 0.4 0 0 0 0.402-0.4 0.4 0.4 0 0 0-0.402-0.4zm-2.01 0.8a0.2 0.2 0 0 0-0.2 0.2 0.2 0.2 0 0 0 0.2 0.2 0.2 0.2 0 0 0 0.201-0.2 0.2 0.2 0 0 0-0.201-0.2zm3.82 0.2a0.1 0.1 0 0 0-0.1 0.1 0.1 0.1 0 0 0 0.1 0.1 0.1 0.1 0 0 0 0.1-0.1 0.1 0.1 0 0 0-0.1-0.1zm-19.6 0.3a0.1 0.1 0 0 0-0.1 0.1 0.1 0.1 0 0 0 0.1 0.1 0.1 0.1 0 0 0 0.1-0.1 0.1 0.1 0 0 0-0.1-0.1zm8.64 0.1a0.2 0.2 0 0 0-0.2 0.2 0.2 0.2 0 0 0 0.2 0.2 0.2 0.2 0 0 0 0.201-0.2 0.2 0.2 0 0 0-0.201-0.2zm-26.2 0.2a0.2 0.2 0 0 0-0.2 0.2 0.2 0.2 0 0 0 0.2 0.2 0.2 0.2 0 0 0 0.201-0.2 0.2 0.2 0 0 0-0.201-0.2zm22.1 0a0.1 0.1 0 0 0-0.1 0.1 0.1 0.1 0 0 0 0.1 0.1 0.1 0.1 0 0 0 0.1-0.1 0.1 0.1 0 0 0-0.1-0.1zm20.3 0a0.1 0.1 0 0 0-0.1 0.1 0.1 0.1 0 0 0 0.1 0.1 0.1 0.1 0 0 0 0.1-0.1 0.1 0.1 0 0 0-0.1-0.1zm-12.4 0.3a0.1 0.1 0 0 0-0.1 0.1 0.1 0.1 0 0 0 0.1 0.1 0.1 0.1 0 0 0 0.1-0.1 0.1 0.1 0 0 0-0.1-0.1zm-2.31 0.2a0.1 0.1 0 0 0-0.1 0.1 0.1 0.1 0 0 0 0.1 0.1 0.1 0.1 0 0 0 0.1-0.1 0.1 0.1 0 0 0-0.1-0.1zm7.84 0.1a0.1 0.1 0 0 0-0.1 0.1 0.1 0.1 0 0 0 0.1 0.1 0.1 0.1 0 0 0 0.1-0.1 0.1 0.1 0 0 0-0.1-0.1zm-19.4 0.4a0.2 0.2 0 0 0-0.2 0.2 0.2 0.2 0 0 0 0.2 0.2 0.2 0.2 0 0 0 0.201-0.2 0.2 0.2 0 0 0-0.201-0.2zm-14.2 0.1a0.2 0.2 0 0 0-0.2 0.2 0.2 0.2 0 0 0 0.2 0.2 0.2 0.2 0 0 0 0.201-0.2 0.2 0.2 0 0 0-0.201-0.2zm29 0a0.4 0.4 0 0 0-0.4 0.4 0.4 0.4 0 0 0 0.4 0.4 0.4 0.4 0 0 0 0.402-0.4 0.4 0.4 0 0 0-0.402-0.4zm7.74 0.3a0.1 0.1 0 0 0-0.1 0.1 0.1 0.1 0 0 0 0.1 0.1 0.1 0.1 0 0 0 0.1-0.1 0.1 0.1 0 0 0-0.1-0.1zm-5.53 0.1a0.1 0.1 0 0 0-0.1 0.1 0.1 0.1 0 0 0 0.1 0.1 0.1 0.1 0 0 0 0.1-0.1 0.1 0.1 0 0 0-0.1-0.1zm-4.82 0.2a0.1 0.1 0 0 0-0.1 0.1 0.1 0.1 0 0 0 0.1 0.1 0.1 0.1 0 0 0 0.1-0.1 0.1 0.1 0 0 0-0.1-0.1zm-7.63 0.3a0.1 0.1 0 0 0-0.1 0.1 0.1 0.1 0 0 0 0.1 0.1 0.1 0.1 0 0 0 0.1-0.1 0.1 0.1 0 0 0-0.1-0.1zm9.14 0.1a0.1 0.1 0 0 0-0.1 0.1 0.1 0.1 0 0 0 0.1 0.1 0.1 0.1 0 0 0 0.1-0.1 0.1 0.1 0 0 0-0.1-0.1zm-2.51 0.2a0.1 0.1 0 0 0-0.1 0.1 0.1 0.1 0 0 0 0.1 0.1 0.1 0.1 0 0 0 0.1-0.1 0.1 0.1 0 0 0-0.1-0.1zm-1.51 0.1a0.1 0.1 0 0 0-0.1 0.1 0.1 0.1 0 0 0 0.1 0.1 0.1 0.1 0 0 0 0.1-0.1 0.1 0.1 0 0 0-0.1-0.1zm8.94 0.1a0.4 0.4 0 0 0-0.4 0.4 0.4 0.4 0 0 0 0.4 0.4 0.4 0.4 0 0 0 0.402-0.4 0.4 0.4 0 0 0-0.402-0.4zm-12.1 0.9a0.1 0.1 0 0 0-0.1 0.1 0.1 0.1 0 0 0 0.1 0.1 0.1 0.1 0 0 0 0.1-0.1 0.1 0.1 0 0 0-0.1-0.1zm1.41 0a0.1 0.1 0 0 0-0.1 0.1 0.1 0.1 0 0 0 0.1 0.1 0.1 0.1 0 0 0 0.1-0.1 0.1 0.1 0 0 0-0.1-0.1zm7.74 0a0.1 0.1 0 0 0-0.1 0.1 0.1 0.1 0 0 0 0.1 0.1 0.1 0.1 0 0 0 0.1-0.1 0.1 0.1 0 0 0-0.1-0.1zm11.3 0.1a0.2 0.2 0 0 0-0.2 0.2 0.2 0.2 0 0 0 0.2 0.2 0.2 0.2 0 0 0 0.201-0.2 0.2 0.2 0 0 0-0.201-0.2zm-14.8 0.2a0.1 0.1 0 0 0-0.1 0.1 0.1 0.1 0 0 0 0.1 0.1 0.1 0.1 0 0 0 0.1-0.1 0.1 0.1 0 0 0-0.1-0.1zm1.51 1.01a0.4 0.4 0 0 0-0.4 0.4 0.4 0.4 0 0 0 0.4 0.4 0.4 0.4 0 0 0 0.402-0.4 0.4 0.4 0 0 0-0.402-0.4zm-7.33 0.4a0.2 0.2 0 0 0-0.2 0.2 0.2 0.2 0 0 0 0.2 0.2 0.2 0.2 0 0 0 0.201-0.2 0.2 0.2 0 0 0-0.201-0.2zm2.91 0a0.1 0.1 0 0 0-0.1 0.1 0.1 0.1 0 0 0 0.1 0.1 0.1 0.1 0 0 0 0.1-0.1 0.1 0.1 0 0 0-0.1-0.1zm-5.02 0.1a0.4 0.4 0 0 0-0.4 0.4 0.4 0.4 0 0 0 0.4 0.4 0.4 0.4 0 0 0 0.402-0.4 0.4 0.4 0 0 0-0.402-0.4zm3.21 0.4a0.1 0.1 0 0 0-0.1 0.1 0.1 0.1 0 0 0 0.1 0.1 0.1 0.1 0 0 0 0.1-0.1 0.1 0.1 0 0 0-0.1-0.1zm-4.32 0.3a0.1 0.1 0 0 0-0.1 0.1 0.1 0.1 0 0 0 0.1 0.1 0.1 0.1 0 0 0 0.1-0.1 0.1 0.1 0 0 0-0.1-0.1zm12.2 0.1a0.2 0.2 0 0 0-0.2 0.2 0.2 0.2 0 0 0 0.2 0.2 0.2 0.2 0 0 0 0.201-0.2 0.2 0.2 0 0 0-0.201-0.2zm-5.22 0.1a0.4 0.4 0 0 0-0.4 0.4 0.4 0.4 0 0 0 0.4 0.4 0.4 0.4 0 0 0 0.402-0.4 0.4 0.4 0 0 0-0.402-0.4zm-4.32 0.1a0.2 0.2 0 0 0-0.2 0.2 0.2 0.2 0 0 0 0.2 0.2 0.2 0.2 0 0 0 0.201-0.2 0.2 0.2 0 0 0-0.201-0.2zm10.9 0.3a0.1 0.1 0 0 0-0.1 0.1 0.1 0.1 0 0 0 0.1 0.1 0.1 0.1 0 0 0 0.1-0.1 0.1 0.1 0 0 0-0.1-0.1zm-0.9 0.6a0.1 0.1 0 0 0-0.1 0.1 0.1 0.1 0 0 0 0.1 0.1 0.1 0.1 0 0 0 0.1-0.1 0.1 0.1 0 0 0-0.1-0.1zm8.74 0.4a0.1 0.1 0 0 0-0.1 0.1 0.1 0.1 0 0 0 0.1 0.1 0.1 0.1 0 0 0 0.1-0.1 0.1 0.1 0 0 0-0.1-0.1zm-16.5 0.1a0.2 0.2 0 0 0-0.2 0.2 0.2 0.2 0 0 0 0.2 0.2 0.2 0.2 0 0 0 0.201-0.2 0.2 0.2 0 0 0-0.201-0.2zm-4.52 0.6a0.1 0.1 0 0 0-0.1 0.1 0.1 0.1 0 0 0 0.1 0.1 0.1 0.1 0 0 0 0.1-0.1 0.1 0.1 0 0 0-0.1-0.1zm1.21 0.2a0.1 0.1 0 0 0-0.1 0.1 0.1 0.1 0 0 0 0.1 0.1 0.1 0.1 0 0 0 0.1-0.1 0.1 0.1 0 0 0-0.1-0.1zm12.1 0.1a0.2 0.2 0 0 0-0.2 0.2 0.2 0.2 0 0 0 0.2 0.2 0.2 0.2 0 0 0 0.201-0.2 0.2 0.2 0 0 0-0.201-0.2zm-9.34 0.3a0.1 0.1 0 0 0-0.1 0.1 0.1 0.1 0 0 0 0.1 0.1 0.1 0.1 0 0 0 0.1-0.1 0.1 0.1 0 0 0-0.1-0.1zm6.93 0.1a0.1 0.1 0 0 0-0.1 0.1 0.1 0.1 0 0 0 0.1 0.1 0.1 0.1 0 0 0 0.1-0.1 0.1 0.1 0 0 0-0.1-0.1zm-6.03 0.2a0.2 0.2 0 0 0-0.2 0.2 0.2 0.2 0 0 0 0.2 0.2 0.2 0.2 0 0 0 0.201-0.2 0.2 0.2 0 0 0-0.201-0.2zm6.83 0.4a0.1 0.1 0 0 0-0.1 0.1 0.1 0.1 0 0 0 0.1 0.1 0.1 0.1 0 0 0 0.1-0.1 0.1 0.1 0 0 0-0.1-0.1z"/>
    <path fill="url(#pride_red)"
        d="m0 1.12e-4v4h14c-0.0932-0.194-0.151-0.404-0.16-0.623-0.0133-0.321 0.13-0.641 0.359-0.926l-0.756-0.844c-0.169-0.189-0.0417-0.49 0.212-0.5l5.18-0.2c0.278-0.288 0.688-0.536 1.41-0.6 0.0057-4.21e-4 0.0113-6.81e-4 0.017-7.81e-4l9.36-0.3z"/>
    <path fill="url(#pride_orange)"
        d="m14 4h-14v4h22c0.0295-0.0318 0.0656-0.0567 0.106-0.0732l3.7-0.145c0.0539-0.0516 0.114-0.1 0.181-0.148 0.0672-0.0465 0.142-0.0896 0.226-0.128 0.0839-0.0381 0.177-0.0712 0.281-0.0976 0.104-0.0264 0.219-0.0461 0.347-0.0576 0.0057-4e-4 0.0113-6.67e-4 0.017-8e-4l6.72-0.219c0.107-0.00347 0.2 0.0503 0.264 0.141l0.193 0.3 16.6-0.225 0.0855-1.34-33-0.0311c-0.0828-1.36e-5 -0.162-0.0342-0.219-0.0945l-0.986-1.05c-0.0863 0.0481-0.174 0.0902-0.262 0.125-0.0883 0.035-0.177 0.063-0.266 0.0834-0.0888 0.0204-0.178 0.033-0.266 0.0373s-0.175 1.27e-4 -0.261-0.0133c-0.107-0.0167-0.211-0.0433-0.311-0.0783-0.1-0.035-0.197-0.0786-0.289-0.129-0.092-0.0509-0.18-0.109-0.262-0.174-0.0822-0.0644-0.159-0.135-0.23-0.21-0.0708-0.0755-0.136-0.156-0.194-0.242-0.052-0.0763-0.096-0.157-0.136-0.24z"/>
    <path fill="url(#pride_yellow)"
        d="m22 8h-22v4h48.8l-0.0502-0.378-23.8-0.0228c-0.0828-1.4e-5 -0.162-0.0342-0.219-0.0945l-0.667-0.71c-0.0619 0.0304-0.124 0.0573-0.188 0.0799s-0.126 0.041-0.189 0.0543c-0.0631 0.0133-0.126 0.0216-0.188 0.0242-0.0624 0.0026-0.124-4.66e-4 -0.185-0.01-0.0821-0.0128-0.162-0.033-0.238-0.0598-0.0766-0.0268-0.15-0.06-0.22-0.0988-0.07-0.0388-0.137-0.0832-0.199-0.132s-0.121-0.103-0.175-0.16c-0.0538-0.0574-0.103-0.119-0.148-0.184-0.0444-0.065-0.0834-0.133-0.116-0.205-0.0328-0.0714-0.0592-0.146-0.0783-0.222-0.0191-0.0766-0.0308-0.156-0.0342-0.236-0.0024-0.0571 0.0019-0.114 0.0119-0.171 0.01-0.0566 0.0258-0.113 0.0465-0.169 0.0207-0.0556 0.0462-0.111 0.0758-0.165 0.0296-0.054 0.0633-0.1 0.1-0.159l-0.497-0.554c-0.0777-0.0865-0.0985-0.21-0.0533-0.317 0.0394-0.0531 0.0952-0.0918 0.159-0.11z"/>
    <path fill="url(#pride_green)"
        d="m48.8 12h-48.8v4h49.3z"/>
    <path fill="url(#pride_indigo)"
        d="m49.3 16h-49.3v4h42.7c0.013-0.0782 0.0254-0.157 0.0428-0.231 0.0248-0.1 0.0539-0.2 0.0869-0.3 0.033-0.0974 0.07-0.191 0.11-0.281 0.0402-0.09 0.0838-0.177 0.13-0.26 0.093-0.167 0.197-0.321 0.31-0.466-0.075-0.0248-0.137-0.0781-0.173-0.148-0.0359-0.0704-0.0427-0.152-0.0188-0.227l0.202-0.633c0.0198-0.0617 0.0591-0.115 0.112-0.153 0.0529-0.0375 0.116-0.0569 0.181-0.0553l0.159 0.0037-0.0023-0.0664c-0.0027-0.0784 0.0253-0.155 0.0781-0.213 0.0528-0.058 0.126-0.0929 0.204-0.0975l0.676-0.0383c0.0728-0.0042 0.145 0.0183 0.2 0.0633 0.0574 0.045 0.0965 0.1 0.11 0.181l0.0229 0.122c1.32-0.118 2.76-0.25 4.28-0.385z"/>
    <path fill="url(#pride_violet)"
        d="m42.7 20h-42.7v4l71.6-0.0029c-1.43 0.0045-2.76 0.0039-4.01-0.0015-1.25-0.0054-2.41-0.0156-3.51-0.0305-1.1-0.0149-2.12-0.0343-3.09-0.0582-0.969-0.0239-1.88-0.0523-2.75-0.0848-0.866-0.0324-1.69-0.069-2.47-0.11-0.788-0.0406-1.54-0.085-2.28-0.133-0.735-0.0482-1.45-0.1-2.16-0.156-0.707-0.0554-1.41-0.114-2.11-0.177-0.0748-0.0067-0.144-0.0412-0.195-0.0967-0.13-0.143-0.261-0.275-0.391-0.397-0.131-0.122-0.262-0.234-0.393-0.338-0.131-0.103-0.262-0.198-0.394-0.284-0.131-0.0861-0.263-0.164-0.394-0.235-0.131-0.0706-0.263-0.134-0.394-0.19-0.131-0.0566-0.262-0.107-0.393-0.151-0.131-0.0443-0.262-0.0829-0.392-0.117-0.131-0.0337-0.261-0.0625-0.391-0.0871-0.26-0.0493-0.518-0.0821-0.775-0.105-0.256-0.023-0.511-0.0363-0.762-0.0461-0.252-0.0098-0.5-0.0163-0.745-0.026-0.245-0.0097-0.487-0.0225-0.725-0.0451-0.0724-0.0068-0.14-0.0397-0.19-0.0926-0.0499-0.0528-0.079-0.122-0.0818-0.194-0.0054-0.134-5e-3 -0.263 8e-4 -0.387 0.0056-0.124 0.0164-0.243 0.032-0.357 0.0047-0.0342 0.0126-0.0652 0.0182-0.0986z"/>
    <path fill="url(#black)"
        d="m29.492 0.044922-9.3594 0.30078a0.250.250 0 0-0.015624 0c-0.73877 0.066241-1.1605 0.30905-1.4258 0.60156l-5.1699 0.19531a0.250.250 0 0-0.17773 0.41797l0.82422 0.91406c-0.22343 0.27503-0.42893 0.56842-0.41602 0.87891 0.01668 0.40087 0.20246 0.77795 0.47852 1.0723 0.27605 0.29432 0.64778 0.51152 1.0625 0.57617 0.33311 0.051931 0.68609-0.094874 1.0215-0.2832l1.0508 1.1152a0.250.250 0 0 0.18164 0.078125l33.033 0.03125-0.09375 1.4648-16.549 0.22656-0.23047-0.34375a0.250.250 0 0-0.21484-0.11133l-6.7207 0.21875a0.250.250 0 0-0.013672 0c-0.52575 0.04708-0.8449 0.22477-1.0508 0.43359l-3.6816 0.14258a0.250.250 0 0-0.17578 0.41602l0.56641 0.63281c-0.1406 0.19826-0.30011 0.39749-0.29102 0.61523 0.01288 0.3083 0.155 0.59257 0.36328 0.81445 0.20828 0.22188 0.48721 0.38761 0.80274 0.4375 0.23352 0.03692 0.4788-0.08163 0.7168-0.19727l0.73047 0.77734a0.250.250 0 0 0.18164 0.078125l23.781 0.023438 0.69922 5.2461c-1.5782 0.14005-3.0809 0.27983-4.4492 0.40234l-0.03125-0.16797a0.250.250 0 0-0.25977-0.20508l-0.67578 0.039063a0.250.250 0 0-0.23438 0.25781l0.003906 0.11914-0.21289-0.003906a0.250.250 0 0-0.24414 0.17383l-0.19922 0.63476a0.250.250 0 0 0.16211 0.3125l0.05664 0.017579c-0.46682 0.57478-0.80059 1.3117-0.75586 2.4121a0.250.250 0 0 0.22656 0.23828c1.8889 0.1796 4.0905-0.26098 6.1797 2.0391a0.250.250 0 0 0.16211 0.080078c5.6252 0.49746 10.918 0.78601 22.322 0.75a0.250.250 0 0 0.23438-0.16211l0.17773-0.47852 1.8926-0.18555a0.250.250 0 0 0.22461-0.21875c0.226-1.9069 0.26081-3.8663-0.16992-5.959a0.250.250 0 0-0.20703-0.19726l-2.043-0.3125-0.32227-0.65039a0.250.250 0 0-0.22656-0.13867c-0.56749 5e-3 -1.1298 0.013738-1.6934 0.023438l3.498-3.4902c2.0293 0.17863 4.5842 0.76663 8.0801 0.83984l1.0527 0.48242a0.250.250 0 0 0.11328 0.023438l0.80664-0.029297a0.250.250 0 0 0.11914-0.035156l0.98828-0.5918c4.2684-0.36182 8.0114-0.96891 10.729-1.6582 1.367-0.34678 2.4779-0.71273 3.2793-1.084 0.40071-0.18563 0.72373-0.37325 0.96875-0.56836 0.2429-0.19343 0.41772-0.39753 0.47656-0.64844 0.15662-0.56951 0.12588-1.0307-0.007813-1.5352a0.250.250 0 0-0.001953-0.0039062c-0.15532-0.54856-0.75665-0.93497-1.6172-1.3242-0.86054-0.38925-2.0133-0.75009-3.3496-1.0645-2.6725-0.62873-6.0743-1.0641-9.2715-1.0742-2.089-0.00683-4.3282 0.099294-6.5762 0.31445-5.1618 0.44668-8.139 1.3393-9.9863 2.1172l-1.4395 0.29688a0.250.250 0 0-0.10742 0.050781l-0.30274 0.24609-0.02539-0.015625a0.250.250 0 0-0.20703-0.037109l-0.27734 0.076172a0.250.250 0 0-0.17188 0.16602l-0.14844 0.46094-0.62891 0.46875a0.250.250 0 0-0.097656 0.24609l0.12891 0.68945a0.250.250 0 0 0.12695 0.17383c0.28918 0.15492 0.56427 0.29171 0.83984 0.42969l-6.4023 6.4492c-2.194 0.1326-4.3058 0.28891-6.3145 0.45117l0.41992-4.8887h0.81641c0.10152 0.06344 0.22629 0.16209 0.4707 0.17383a0.250.250 0 0 0.011719 0l2.5801 0.011718a0.250.250 0 0 0.044922-0.003906l1.2695-0.23242a0.250.250 0 0 0.011719-0.001953c0.57177-0.12943 1.0724-0.31931 1.4434-0.66211 0.37094-0.3428 0.58636-0.83908 0.5918-1.4785a0.250.250 0 0-0.001953-0.015625c-0.028418-0.55851-0.22259-1.0357-0.57227-1.3887-0.34968-0.35296-0.83994-0.57674-1.4395-0.69336a0.250.250 0 0-0.048828 0.023438l0.007813-0.019531-4.8242 0.064453 0.12109-1.4082 4.6445 0.0039063c0.14017 0.087824 0.30956 0.22545 0.64844 0.24219a0.250.250 0 0 0.011719 0l3.5898 0.015625a0.250.250 0 0 0.046875-0.0039062l1.7109-0.32617c0.64811-0.058322 1.2876-0.29879 1.7754-0.74805 0.49468-0.4556 0.82274-1.1294 0.82812-1.9863 0.003691-0.86309-0.36394-1.4928-0.86914-1.9004-0.4942-0.39868-1.1063-0.60085-1.6543-0.7168l-0.005859-0.0019531-0.37891-0.13867a0.250.250 0 0-0.089844-0.015625l-33.416 0.45117-0.16992-0.12305a0.250.250 0 0-0.15039-0.048828l-1.0781 0.0097656-0.21094-0.46289a0.250.250 0 0-0.23437-0.14648z"/>
    <path id="enterprise" fill="url(#white)"
        d="m33.5 7.43-6.72 0.218c-0.555 0.0497-0.8 0.223-0.965 0.429l-3.78 0.147 0.66 0.736c-0.948 0.778 0.413 2.26 1.41 1.47l0.816 0.869 24 0.0227 0.766 5.76c0.177-0.0159 0.339-0.0306 0.517-0.0465l0.601-9.38-17 0.231zm25.7 0.105-4.94 0.0671-0.32 3.72 0.923 8e-4c0.125 0.0719 0.219 0.162 0.448 0.173l2.58 0.0113 1.27-0.231c1.1-0.249 1.83-0.724 1.84-1.9-0.0519-1.02-0.679-1.63-1.81-1.85zm-29.7-7.24-9.36 0.3c-0.774 0.0694-1.12 0.31-1.34 0.598l-5.27 0.2 0.918 1.02c-1.32 1.08 0.575 3.15 1.96 2.04l1.14 1.21 33.3 0.0308-0.124 1.93-0.6 9.38c-0.179 0.0159-0.341 0.0308-0.517 0.0465-1.73 0.153-3.38 0.306-4.86 0.438l-0.0724-0.391-0.675 0.0388 0.0136 0.384-0.478-0.0113-0.2 0.634 0.367 0.117c-0.565 0.553-0.941 1.31-0.891 2.54 1.83 0.174 4.18-0.258 6.34 2.12 5.62 0.497 10.9 0.785 22.3 0.749l0.231-0.625 2.05-0.2c0.224-1.89 0.257-3.82-0.167-5.88l-2.17-0.333-0.381-0.766c-0.774 0.0068-1.54 0.0181-2.31 0.0336l4.02-4.01c2.09 0.173 4.68 0.79 8.24 0.856l1.09 0.5 0.805-0.0297 1.03-0.617c8.58-0.72 15-2.45 15.3-3.78 0.148-0.534 0.119-0.927-9e-3 -1.41-0.439-1.55-7.65-3.26-14-3.28-2.08-0.0068-4.31 0.0986-6.55 0.313-5.17 0.447-8.13 1.34-9.95 2.11l-1.45 0.299-0.449 0.366-0.179-0.124-0.277 0.0757-0.171 0.537-0.695 0.518 0.128 0.689c0.392 0.21 0.769 0.4 1.14 0.583l-6.71 6.76c-2.33 0.14-4.58 0.304-6.7 0.477l0.466-5.43 0.149-1.74 0.171-1.99 0.162-1.88 4.91 0.00453c0.174 0.1 0.3 0.225 0.624 0.241l3.59 0.0159 1.71-0.326c1.22-0.1 2.39-0.898 2.4-2.49 0.0068-1.59-1.29-2.16-2.36-2.38l-0.384-0.142-33.5 0.453-0.237-0.173-1.24 0.0113z"/>
</svg>
