<svg version="1.1" viewBox="0 0 102 24" xmlns="http://www.w3.org/2000/svg">
    <!--
        Star Trek & the Enterprise Silhouette (c) Paramount Pictures
        Idea & SVG (c) justJanne
    -->
     <defs>
        <linearGradient id="black"><stop stop-color="#000000"/></linearGradient>
        <linearGradient id="white"><stop stop-color="#ffffff"/></linearGradient>
        <linearGradient id="space_blue"><stop stop-color="#001b41"/></linearGradient>
        <linearGradient id="pride_red"><stop stop-color="#e83134"/></linearGradient>
        <linearGradient id="pride_orange"><stop stop-color="#f28e2c"/></linearGradient>
        <linearGradient id="pride_yellow"><stop stop-color="#feba15"/></linearGradient>
        <linearGradient id="pride_green"><stop stop-color="#84b135"/></linearGradient>
        <linearGradient id="pride_indigo"><stop stop-color="#405d9f"/></linearGradient>
        <linearGradient id="pride_violet"><stop stop-color="#815596"/></linearGradient>
    </defs>
    <path id="background" fill="url(#space_blue)"
        d="m0 24h102v-24h-102z"/>
    <path id="stars" fill="url(#white)"
        d="m79.7 0.333a0.1 0.1 0 0 0-0.1 0.1 0.1 0.1 0 0 0 0.1 0.1 0.1 0.1 0 0 0 0.1-0.1 0.1 0.1 0 0 0-0.1-0.1zm-10 0.9a0.1 0.1 0 0 0-0.1 0.1 0.1 0.1 0 0 0 0.1 0.1 0.1 0.1 0 0 0 0.1-0.1 0.1 0.1 0 0 0-0.1-0.1zm6.83 0.3a0.2 0.2 0 0 0-0.2 0.2 0.2 0.2 0 0 0 0.2 0.2 0.2 0.2 0 0 0 0.201-0.2 0.2 0.2 0 0 0-0.201-0.2zm-6.03 0.4a0.1 0.1 0 0 0-0.1 0.1 0.1 0.1 0 0 0 0.1 0.1 0.1 0.1 0 0 0 0.1-0.1 0.1 0.1 0 0 0-0.1-0.1zm26.3 0a0.1 0.1 0 0 0-0.1 0.1 0.1 0.1 0 0 0 0.1 0.1 0.1 0.1 0 0 0 0.1-0.1 0.1 0.1 0 0 0-0.1-0.1zm-19.3 0.1a0.1 0.1 0 0 0-0.1 0.1 0.1 0.1 0 0 0 0.1 0.1 0.1 0.1 0 0 0 0.1-0.1 0.1 0.1 0 0 0-0.1-0.1zm2.61 0.4a0.1 0.1 0 0 0-0.1 0.1 0.1 0.1 0 0 0 0.1 0.1 0.1 0.1 0 0 0 0.1-0.1 0.1 0.1 0 0 0-0.1-0.1zm1.31 0.3a0.1 0.1 0 0 0-0.1 0.1 0.1 0.1 0 0 0 0.1 0.1 0.1 0.1 0 0 0 0.1-0.1 0.1 0.1 0 0 0-0.1-0.1zm5.02 0a0.1 0.1 0 0 0-0.1 0.1 0.1 0.1 0 0 0 0.1 0.1 0.1 0.1 0 0 0 0.1-0.1 0.1 0.1 0 0 0-0.1-0.1zm-9.64 0.3a0.2 0.2 0 0 0-0.2 0.2 0.2 0.2 0 0 0 0.2 0.2 0.2 0.2 0 0 0 0.201-0.2 0.2 0.2 0 0 0-0.201-0.2zm-7.74 0.7a0.1 0.1 0 0 0-0.1 0.1 0.1 0.1 0 0 0 0.1 0.1 0.1 0.1 0 0 0 0.1-0.1 0.1 0.1 0 0 0-0.1-0.1zm26.7 0.2a0.1 0.1 0 0 0-0.1 0.1 0.1 0.1 0 0 0 0.1 0.1 0.1 0.1 0 0 0 0.1-0.1 0.1 0.1 0 0 0-0.1-0.1zm-26.2 0.7a0.2 0.2 0 0 0-0.2 0.2 0.2 0.2 0 0 0 0.2 0.2 0.2 0.2 0 0 0 0.201-0.2 0.2 0.2 0 0 0-0.201-0.2zm28.8 0.2a0.1 0.1 0 0 0-0.1 0.1 0.1 0.1 0 0 0 0.1 0.1 0.1 0.1 0 0 0 0.1-0.1 0.1 0.1 0 0 0-0.1-0.1zm2.51 2.01a0.4 0.4 0 0 0-0.4 0.4 0.4 0.4 0 0 0 0.4 0.4 0.4 0.4 0 0 0 0.402-0.4 0.4 0.4 0 0 0-0.402-0.4zm-38.7 2.51a0.1 0.1 0 0 0-0.1 0.1 0.1 0.1 0 0 0 0.1 0.1 0.1 0.1 0 0 0 0.1-0.1 0.1 0.1 0 0 0-0.1-0.1zm38.9 1.31a0.2 0.2 0 0 0-0.2 0.2 0.2 0.2 0 0 0 0.2 0.2 0.2 0.2 0 0 0 0.201-0.2 0.2 0.2 0 0 0-0.201-0.2zm-37.3 0.7a0.1 0.1 0 0 0-0.1 0.1 0.1 0.1 0 0 0 0.1 0.1 0.1 0.1 0 0 0 0.1-0.1 0.1 0.1 0 0 0-0.1-0.1zm30 0.5a0.1 0.1 0 0 0-0.1 0.1 0.1 0.1 0 0 0 0.1 0.1 0.1 0.1 0 0 0 0.1-0.1 0.1 0.1 0 0 0-0.1-0.1zm-1 0.4a0.4 0.4 0 0 0-0.4 0.4 0.4 0.4 0 0 0 0.4 0.4 0.4 0.4 0 0 0 0.402-0.4 0.4 0.4 0 0 0-0.402-0.4zm-2.01 0.8a0.2 0.2 0 0 0-0.2 0.2 0.2 0.2 0 0 0 0.2 0.2 0.2 0.2 0 0 0 0.201-0.2 0.2 0.2 0 0 0-0.201-0.2zm3.82 0.2a0.1 0.1 0 0 0-0.1 0.1 0.1 0.1 0 0 0 0.1 0.1 0.1 0.1 0 0 0 0.1-0.1 0.1 0.1 0 0 0-0.1-0.1zm-19.6 0.3a0.1 0.1 0 0 0-0.1 0.1 0.1 0.1 0 0 0 0.1 0.1 0.1 0.1 0 0 0 0.1-0.1 0.1 0.1 0 0 0-0.1-0.1zm8.64 0.1a0.2 0.2 0 0 0-0.2 0.2 0.2 0.2 0 0 0 0.2 0.2 0.2 0.2 0 0 0 0.201-0.2 0.2 0.2 0 0 0-0.201-0.2zm-26.2 0.2a0.2 0.2 0 0 0-0.2 0.2 0.2 0.2 0 0 0 0.2 0.2 0.2 0.2 0 0 0 0.201-0.2 0.2 0.2 0 0 0-0.201-0.2zm22.1 0a0.1 0.1 0 0 0-0.1 0.1 0.1 0.1 0 0 0 0.1 0.1 0.1 0.1 0 0 0 0.1-0.1 0.1 0.1 0 0 0-0.1-0.1zm20.3 0a0.1 0.1 0 0 0-0.1 0.1 0.1 0.1 0 0 0 0.1 0.1 0.1 0.1 0 0 0 0.1-0.1 0.1 0.1 0 0 0-0.1-0.1zm-12.4 0.3a0.1 0.1 0 0 0-0.1 0.1 0.1 0.1 0 0 0 0.1 0.1 0.1 0.1 0 0 0 0.1-0.1 0.1 0.1 0 0 0-0.1-0.1zm-2.31 0.2a0.1 0.1 0 0 0-0.1 0.1 0.1 0.1 0 0 0 0.1 0.1 0.1 0.1 0 0 0 0.1-0.1 0.1 0.1 0 0 0-0.1-0.1zm7.84 0.1a0.1 0.1 0 0 0-0.1 0.1 0.1 0.1 0 0 0 0.1 0.1 0.1 0.1 0 0 0 0.1-0.1 0.1 0.1 0 0 0-0.1-0.1zm-19.4 0.4a0.2 0.2 0 0 0-0.2 0.2 0.2 0.2 0 0 0 0.2 0.2 0.2 0.2 0 0 0 0.201-0.2 0.2 0.2 0 0 0-0.201-0.2zm-14.2 0.1a0.2 0.2 0 0 0-0.2 0.2 0.2 0.2 0 0 0 0.2 0.2 0.2 0.2 0 0 0 0.201-0.2 0.2 0.2 0 0 0-0.201-0.2zm29 0a0.4 0.4 0 0 0-0.4 0.4 0.4 0.4 0 0 0 0.4 0.4 0.4 0.4 0 0 0 0.402-0.4 0.4 0.4 0 0 0-0.402-0.4zm7.74 0.3a0.1 0.1 0 0 0-0.1 0.1 0.1 0.1 0 0 0 0.1 0.1 0.1 0.1 0 0 0 0.1-0.1 0.1 0.1 0 0 0-0.1-0.1zm-5.53 0.1a0.1 0.1 0 0 0-0.1 0.1 0.1 0.1 0 0 0 0.1 0.1 0.1 0.1 0 0 0 0.1-0.1 0.1 0.1 0 0 0-0.1-0.1zm-4.82 0.2a0.1 0.1 0 0 0-0.1 0.1 0.1 0.1 0 0 0 0.1 0.1 0.1 0.1 0 0 0 0.1-0.1 0.1 0.1 0 0 0-0.1-0.1zm-7.63 0.3a0.1 0.1 0 0 0-0.1 0.1 0.1 0.1 0 0 0 0.1 0.1 0.1 0.1 0 0 0 0.1-0.1 0.1 0.1 0 0 0-0.1-0.1zm9.14 0.1a0.1 0.1 0 0 0-0.1 0.1 0.1 0.1 0 0 0 0.1 0.1 0.1 0.1 0 0 0 0.1-0.1 0.1 0.1 0 0 0-0.1-0.1zm-2.51 0.2a0.1 0.1 0 0 0-0.1 0.1 0.1 0.1 0 0 0 0.1 0.1 0.1 0.1 0 0 0 0.1-0.1 0.1 0.1 0 0 0-0.1-0.1zm-1.51 0.1a0.1 0.1 0 0 0-0.1 0.1 0.1 0.1 0 0 0 0.1 0.1 0.1 0.1 0 0 0 0.1-0.1 0.1 0.1 0 0 0-0.1-0.1zm8.94 0.1a0.4 0.4 0 0 0-0.4 0.4 0.4 0.4 0 0 0 0.4 0.4 0.4 0.4 0 0 0 0.402-0.4 0.4 0.4 0 0 0-0.402-0.4zm-12.1 0.9a0.1 0.1 0 0 0-0.1 0.1 0.1 0.1 0 0 0 0.1 0.1 0.1 0.1 0 0 0 0.1-0.1 0.1 0.1 0 0 0-0.1-0.1zm1.41 0a0.1 0.1 0 0 0-0.1 0.1 0.1 0.1 0 0 0 0.1 0.1 0.1 0.1 0 0 0 0.1-0.1 0.1 0.1 0 0 0-0.1-0.1zm7.74 0a0.1 0.1 0 0 0-0.1 0.1 0.1 0.1 0 0 0 0.1 0.1 0.1 0.1 0 0 0 0.1-0.1 0.1 0.1 0 0 0-0.1-0.1zm11.3 0.1a0.2 0.2 0 0 0-0.2 0.2 0.2 0.2 0 0 0 0.2 0.2 0.2 0.2 0 0 0 0.201-0.2 0.2 0.2 0 0 0-0.201-0.2zm-14.8 0.2a0.1 0.1 0 0 0-0.1 0.1 0.1 0.1 0 0 0 0.1 0.1 0.1 0.1 0 0 0 0.1-0.1 0.1 0.1 0 0 0-0.1-0.1zm1.51 1.01a0.4 0.4 0 0 0-0.4 0.4 0.4 0.4 0 0 0 0.4 0.4 0.4 0.4 0 0 0 0.402-0.4 0.4 0.4 0 0 0-0.402-0.4zm-7.33 0.4a0.2 0.2 0 0 0-0.2 0.2 0.2 0.2 0 0 0 0.2 0.2 0.2 0.2 0 0 0 0.201-0.2 0.2 0.2 0 0 0-0.201-0.2zm2.91 0a0.1 0.1 0 0 0-0.1 0.1 0.1 0.1 0 0 0 0.1 0.1 0.1 0.1 0 0 0 0.1-0.1 0.1 0.1 0 0 0-0.1-0.1zm-5.02 0.1a0.4 0.4 0 0 0-0.4 0.4 0.4 0.4 0 0 0 0.4 0.4 0.4 0.4 0 0 0 0.402-0.4 0.4 0.4 0 0 0-0.402-0.4zm3.21 0.4a0.1 0.1 0 0 0-0.1 0.1 0.1 0.1 0 0 0 0.1 0.1 0.1 0.1 0 0 0 0.1-0.1 0.1 0.1 0 0 0-0.1-0.1zm-4.32 0.3a0.1 0.1 0 0 0-0.1 0.1 0.1 0.1 0 0 0 0.1 0.1 0.1 0.1 0 0 0 0.1-0.1 0.1 0.1 0 0 0-0.1-0.1zm12.2 0.1a0.2 0.2 0 0 0-0.2 0.2 0.2 0.2 0 0 0 0.2 0.2 0.2 0.2 0 0 0 0.201-0.2 0.2 0.2 0 0 0-0.201-0.2zm-5.22 0.1a0.4 0.4 0 0 0-0.4 0.4 0.4 0.4 0 0 0 0.4 0.4 0.4 0.4 0 0 0 0.402-0.4 0.4 0.4 0 0 0-0.402-0.4zm-4.32 0.1a0.2 0.2 0 0 0-0.2 0.2 0.2 0.2 0 0 0 0.2 0.2 0.2 0.2 0 0 0 0.201-0.2 0.2 0.2 0 0 0-0.201-0.2zm10.9 0.3a0.1 0.1 0 0 0-0.1 0.1 0.1 0.1 0 0 0 0.1 0.1 0.1 0.1 0 0 0 0.1-0.1 0.1 0.1 0 0 0-0.1-0.1zm-0.9 0.6a0.1 0.1 0 0 0-0.1 0.1 0.1 0.1 0 0 0 0.1 0.1 0.1 0.1 0 0 0 0.1-0.1 0.1 0.1 0 0 0-0.1-0.1zm8.74 0.4a0.1 0.1 0 0 0-0.1 0.1 0.1 0.1 0 0 0 0.1 0.1 0.1 0.1 0 0 0 0.1-0.1 0.1 0.1 0 0 0-0.1-0.1zm-16.5 0.1a0.2 0.2 0 0 0-0.2 0.2 0.2 0.2 0 0 0 0.2 0.2 0.2 0.2 0 0 0 0.201-0.2 0.2 0.2 0 0 0-0.201-0.2zm-4.52 0.6a0.1 0.1 0 0 0-0.1 0.1 0.1 0.1 0 0 0 0.1 0.1 0.1 0.1 0 0 0 0.1-0.1 0.1 0.1 0 0 0-0.1-0.1zm1.21 0.2a0.1 0.1 0 0 0-0.1 0.1 0.1 0.1 0 0 0 0.1 0.1 0.1 0.1 0 0 0 0.1-0.1 0.1 0.1 0 0 0-0.1-0.1zm12.1 0.1a0.2 0.2 0 0 0-0.2 0.2 0.2 0.2 0 0 0 0.2 0.2 0.2 0.2 0 0 0 0.201-0.2 0.2 0.2 0 0 0-0.201-0.2zm-9.34 0.3a0.1 0.1 0 0 0-0.1 0.1 0.1 0.1 0 0 0 0.1 0.1 0.1 0.1 0 0 0 0.1-0.1 0.1 0.1 0 0 0-0.1-0.1zm6.93 0.1a0.1 0.1 0 0 0-0.1 0.1 0.1 0.1 0 0 0 0.1 0.1 0.1 0.1 0 0 0 0.1-0.1 0.1 0.1 0 0 0-0.1-0.1zm-6.03 0.2a0.2 0.2 0 0 0-0.2 0.2 0.2 0.2 0 0 0 0.2 0.2 0.2 0.2 0 0 0 0.201-0.2 0.2 0.2 0 0 0-0.201-0.2zm6.83 0.4a0.1 0.1 0 0 0-0.1 0.1 0.1 0.1 0 0 0 0.1 0.1 0.1 0.1 0 0 0 0.1-0.1 0.1 0.1 0 0 0-0.1-0.1z"/>
    <path fill="url(#pride_red)"
        d="m0 0v4h13.93c-0.076178-0.14768-0.13781-0.31466-0.16602-0.50586-0.047692-0.32329 0.16629-0.68431 0.41602-1.0059l-1.1934-1.3242 5.7461-0.2207c0.099147-0.11098 0.17471-0.22356 0.33984-0.31836 0.26313-0.15105 0.59079-0.23624 1.041-0.27734l0.01367-0.001953 9.533-0.3457z"/>
    <path fill="url(#pride_orange)"
        d="m0 4v4h21.502l-0.0059-0.00586 4.1934-0.16211-0.07031 0.087891c0.08694-0.10855 0.23298-0.25316 0.42773-0.34766 0.19475-0.094501 0.41938-0.14547 0.70703-0.17188l0.01367-0.00195 6.6621-0.2168 0.32035-0.0097684 0.23047 0.46289 16.521-0.22852 0.083985-1.4629-33.146-0.029297-1.0547-1.1211 0.17969-0.14453c-0.43268 0.34677-0.95244 0.42829-1.3691 0.33594-0.4167-0.092351-0.73901-0.31782-0.96484-0.55859-0.10763-0.11477-0.21395-0.25745-0.30078-0.42578z"/>
    <path fill="url(#pride_yellow)"
        d="m0 8v4h48.76l-0.05664-0.42773-23.891-0.02344-0.73242-0.78125 0.17578-0.14062c-0.29185 0.22968-0.66447 0.31116-0.96484 0.26367-0.3226-0.051-0.59393-0.21505-0.80274-0.4375-0.20952-0.2232-0.35006-0.49427-0.36328-0.8125-0.0082-0.19771 0.15184-0.41282 0.29102-0.61719l-0.91406-1.0234z"/>
    <path fill="url(#pride_green)"
        d="m0 12v4h49.293l-0.5332-4z"/>
    <path fill="url(#pride_indigo)"
        d="m0 16v4h42.678c0.12418-0.55871 0.35454-1.0916 0.69922-1.582l-0.35547-0.11328 0.33203-1.0488 0.40039 0.0078-0.01172-0.36523 1.1367-0.0625 0.07227 0.38672 4.4551-0.37303-0.11328-0.84961z"/>
    <path fill="url(#pride_violet)"
        d="m0 20v4h71.625-0.3457c-11.21 0.031465-16.518-0.33715-22.084-0.82812l-0.18945-0.017578-0.13086-0.13672c-1.9756-2.0954-4.0114-1.8256-5.8184-1.9492l-0.51562-0.03516 0.05078-0.51367c0.017773-0.17506 0.04797-0.3487 0.085938-0.51953z"/>
    <path id="outline" fill="url(#black)"
        d="m29.66 0.041016-0.33398 0.0097656-9.1992 0.29492-0.01367 0.001953c-0.45023 0.041102-0.77789 0.12629-1.041 0.27734-0.16514 0.094797-0.2407 0.20738-0.33984 0.31836l-5.7461 0.2207 1.1934 1.3242c-0.24972 0.32155-0.46371 0.68257-0.41602 1.0059 0.06036 0.40914 0.26474 0.71617 0.4668 0.93164 0.22584 0.24077 0.54815 0.46624 0.96484 0.55859 0.4167 0.092352 0.93646 0.01083 1.3691-0.33594l-0.17969 0.14453 1.0547 1.1211 33.146 0.029297-0.083985 1.4629-16.521 0.22852-0.23047-0.46289-0.32031 0.00977-6.6621 0.2168-0.01367 0.00195c-0.28765 0.026402-0.51228 0.077374-0.70703 0.17188s-0.34079 0.23911-0.42773 0.34766l0.07031-0.087891-4.1934 0.16211 0.91992 1.0293c-0.13918 0.20437-0.29923 0.41947-0.29102 0.61719 0.01322 0.31823 0.15376 0.5893 0.36328 0.8125 0.2088 0.22245 0.48014 0.3865 0.80274 0.4375 0.30038 0.04749 0.67299-0.03399 0.96484-0.26367l-0.17578 0.14062 0.73242 0.78125 23.891 0.02344 0.70312 5.2773-4.4551 0.37305-0.07227-0.38672-1.1367 0.0625 0.01172 0.36523-0.40039-0.0078-0.33203 1.0488 0.35547 0.11328c-0.45006 0.64039-0.70926 1.3539-0.78516 2.1016l-0.05078 0.51367 0.51562 0.03516c1.807 0.12366 3.8428-0.14623 5.8184 1.9492l0.13086 0.13672 0.18945 0.01758c5.5663 0.49097 10.874 0.77561 22.084 0.74414h0.3457l0.23633-0.63867 2.0859-0.20117 0.04492-0.4043c0.19914-1.7912 0.21486-3.6332-0.16406-5.5859l-0.06641-0.3457-2.2012-0.33789-0.39062-0.78906-1.8535 0.02734 3.5-3.4922c2.0151 0.17738 4.5637 0.75161 8.0195 0.83203l1.1719 0.51562 0.91797-0.03516 1.1035-0.62891c4.6099-0.39322 8.3158-1.0392 10.908-1.7188 1.3086-0.34305 2.334-0.6923 3.0742-1.0332 0.37008-0.17045 0.66958-0.33582 0.90625-0.51562 0.23592-0.17924 0.43967-0.3678 0.51367-0.69141 0.15255-0.55864 0.1225-1.0301-0.0078-1.5234l-2e-3 -0.00586-2e-3 -0.00391c-0.096039-0.34003-0.32634-0.55345-0.60148-0.75587-0.27513-0.20242-0.62015-0.38707-1.0332-0.57031-0.8261-0.36648-1.9269-0.71799-3.2266-1.0312-2.5993-0.62653-5.9808-1.0948-9.377-1.1055-1.9403-0.00634-10.903 0.058082-16.545 2.4219l-1.5176 0.31836-0.36524 0.29688-0.48438-0.29883-0.32422 0.93359-0.75976 0.56641 0.17578 0.95508 0.21289 0.11328c0.24703 0.13284 0.49177 0.25161 0.73828 0.375l-6.4062 6.4531c-1.8691 0.11561-3.7229 0.24023-6.3145 0.44922l0.41992-4.8887h0.78125c0.0311 0.02095 0.05276 0.03879 0.12305 0.07617 0.10136 0.0539 0.25735 0.09164 0.38281 0.09766h0.0098l2.6055 0.01172 1.3047-0.23828 0.0098-2e-3c0.68411-0.1567 1.1934-0.39248 1.5409-0.77144 0.34743-0.37887 0.47451-0.87171 0.48047-1.3574v-0.033203c-0.027953-0.51887-0.20532-1.0042-0.55469-1.3633-0.34936-0.35911-0.83423-0.57666-1.4199-0.69727l-0.05469-0.00977h-0.05469l-4.793 0.066406 0.12109-1.4102 4.6465 0.00391 0.56836 0.24219 3.7031 0.015625 1.7578-0.33594h2e-3c0.55997-0.054328 1.1727-0.24757 1.6777-0.67578 0.52065-0.44146 0.89411-1.1473 0.90039-2.0508v-0.00195c1e-3 -0.23686-0.008102-0.79618-0.36328-1.3438-0.34722-0.53529-1.0182-1.0202-2.127-1.2637l-0.46094-0.16797-33.465 0.45312-0.23633-0.17188-1.1602 0.011719z"/>
    <path id="enterprise" fill="url(#white)"
        d="m29.342 0.55078-9.1836 0.29492c-0.81842 0.074715-1.0036 0.29556-1.2305 0.5918l-4.8555 0.18555 0.73633 0.81836-0.20312 0.16602c-0.62271 0.50949-0.29776 1.1694-0.0098 1.4766 0.32598 0.34754 1.0094 0.69225 1.6562 0.17383l0.17969-0.14453 1.2246 1.3008 33.459 0.029297-0.67578 11.822-5.8965 0.49219-0.07422-0.39844-0.21094 0.01172 0.01367 0.4043-0.55469-0.01172-0.06836 0.2168 0.52539 0.16797c-0.77624 0.63316-0.98623 1.4589-1.084 2.4219 1.7277 0.11823 4.0352-0.13796 6.1484 2.1035 5.5555 0.49002 10.838 0.77363 22.039 0.74219l0.22461-0.60547 1.9941-0.19336c0.19532-1.7568 0.20907-3.5429-0.1582-5.4355l-2.1094-0.32422-0.36719-0.74023-2.7734 0.04297 4.541-4.5312 0.11524 0.0098c2.1218 0.17563 4.6912 0.78996 8.2246 0.85547l1.1348 0.49805 0.68164-0.02539 1.084-0.61914c9.2954-0.7801 14.855-2.6038 15.076-3.586l4e-3 -0.01172c0.13664-0.49399 0.11097-0.81609-0.009859-1.2734-0.35273-1.2454-7.0576-3.0785-13.76-3.0996-1.924-0.0062897-10.94 0.093457-16.402 2.4043l-1.4375 0.30078-0.54688 0.44531-0.25586-0.1582-0.16992 0.48828-0.63281 0.47266 0.07617 0.41406c0.44117 0.23724 0.89145 0.45666 1.3398 0.67969l-7.0234 7.0742c-2.0166 0.12433-3.9208 0.24836-6.7891 0.48242l-0.29492 0.02344 0.99219-11.562 5.207 0.00391 0.57031 0.24218 3.5527 0.015625 1.7129-0.32617c0.97515-0.079936 2.1611-0.68681 2.1719-2.2402 0.0019-0.44127-0.035633-1.6975-2.1621-2.1348l-0.375-0.13672-33.537 0.45313-0.23828-0.17188-1.3203 0.011719zm4.1035 7.1309-6.6465 0.2168c-0.50388 0.046249-0.65745 0.16967-0.78906 0.33398l-0.07031 0.089844-3.3633 0.13086 0.47852 0.53516-0.20117 0.16406c-0.18424 0.1512-0.23532 0.3031-0.22852 0.4668 0.0068 0.1637 0.09042 0.34507 0.22852 0.49219 0.13809 0.14712 0.32518 0.25505 0.51562 0.28516 0.19044 0.03011 0.38235-0.0054 0.58008-0.16211l0.18164-0.14258 0.89844 0.95703 24.111 0.02344 0.75195 5.6504 0.5625-8.8145-16.783 0.23047zm25.729 0.10352-4.6836 0.064453-0.27734 3.2227h0.7168l0.05859 0.0332c0.15629 0.0899 0.16706 0.13262 0.33398 0.14062l2.5469 0.01172 1.248-0.22852c1.2587-0.28836 1.6227-0.81904 1.6328-1.6465-0.046441-0.86205-0.5308-1.3824-1.5762-1.5977z"/>
</svg>
