<svg version="1.1" viewBox="0 0 146 146" xmlns="http://www.w3.org/2000/svg">
   <!--
        Logo (c) TÜV Nord
        Idea & SVG (c) justJanne
    -->
   <path fill="#ffffff" d="m73 0c-40.32 0-73 32.68-73 73s32.68 73 73 73 73-32.68 73-73-32.68-73-73-73z"/>
   <path fill="#164194" d="m73 0c-40.32 0-73 32.68-73 73s32.68 73 73 73 73-32.68 73-73-32.68-73-73-73zm0 1c39.76 0 72 32.24 72 72s-32.24 72-72 72-72-32.24-72-72 32.23-72 72-72z"/>
   <path fill="#164194" d="m57.57 72.44v0.8066h0.543v-0.8066zm1.416 0v0.8066h0.543v-0.8066zm22.17 1.279c-1.8 0-2.697 1.417-2.697 2.977s0.8973 2.975 2.697 2.975c1.792 0 2.688-1.415 2.688-2.975s-0.8955-2.977-2.688-2.977zm-29.83 0.1191v0.4648h1.992v5.248h0.543v-5.248h1.992v-0.4648zm5.008 0v3.656c0 1.176 0.6328 2.176 2.217 2.176 1.592 0 2.223-0.9998 2.223-2.176v-3.656h-0.543v3.537c8e-3 1.328-0.6237 1.832-1.68 1.832-1.048 0-1.682-0.504-1.674-1.832v-3.537zm4.904 0 2.119 5.713h0.6328l2.119-5.713h-0.5762l-1.84 5.113h-0.01563l-1.855-5.113zm7.6 0v5.713h0.5449v-2.721h2.734v-0.4629h-2.734v-2.064h3.078v-0.4648zm4.287 0v5.713h0.5449v-4.832h0.01563l3.328 4.832h0.6074v-5.713h-0.543v4.832h-0.01563l-3.328-4.832zm11.57 0v5.713h0.5449v-2.537h2.064c1.032-0.04 1.095 0.8484 1.143 1.648 0.016 0.24 0.01634 0.6647 0.1523 0.8887h0.5996c-0.24-0.288-0.2397-1.073-0.2637-1.465-0.04-0.68-0.256-1.191-1-1.287v-0.01563c0.736-0.144 1.111-0.737 1.111-1.457 0-1.032-0.7904-1.488-1.734-1.488zm5.336 0v5.713h1.977c1.72-0.04 2.623-0.9835 2.623-2.855s-0.903-2.817-2.623-2.857zm-8.871 0.3438c1.504 0 2.145 1.266 2.145 2.514s-0.6405 2.512-2.145 2.512c-1.512 0-2.152-1.264-2.152-2.512s0.6403-2.514 2.152-2.514zm4.08 0.1211h2.031c0.816 0 1.232 0.4407 1.232 1.137s-0.5684 1.111-1.232 1.111h-2.031zm5.336 0h1.16c1.64-8e-3 2.352 0.6886 2.352 2.393s-0.7116 2.399-2.352 2.391h-1.16zm-39.03 7.416c-1.8 0-2.695 1.417-2.695 2.977s0.8953 2.975 2.695 2.975c1.336 0 2.225-0.8949 2.377-2.295h-0.5449c-0.104 1.016-0.776 1.832-1.832 1.832-1.512 0-2.15-1.264-2.15-2.512s0.6384-2.514 2.15-2.514c0.832 0 1.56 0.5048 1.752 1.385h0.5449c-0.144-1.2-1.217-1.848-2.297-1.848zm16.69 0.1191v5.713h0.543v-4.832h0.01563l3.328 4.832h0.6094v-5.713h-0.5449v4.832h-0.01563l-3.328-4.832zm18.34 0.06445c-1.088 0-1.76 0.7838-1.768 1.84h0.5039c-0.016-0.832 0.4315-1.416 1.271-1.416 0.672 0 1.225 0.3206 1.225 1.057 0 0.704-0.6167 1.024-1.137 1.016h-0.4238v0.4238h0.4238c0.744 0 1.344 0.3916 1.344 1.184 0 0.8-0.6956 1.24-1.432 1.24-0.904 0-1.432-0.5925-1.4-1.48h-0.5039c-0.08 1.2 0.7521 1.904 1.912 1.904 1.032 0 1.928-0.6071 1.928-1.703 0-0.736-0.4243-1.265-1.152-1.385v-0.01565c0.6-0.144 0.9453-0.6322 0.9453-1.24 0-0.992-0.8563-1.424-1.736-1.424zm4.447 0c-1.088 0-1.76 0.7838-1.768 1.84h0.5039c-0.016-0.832 0.4315-1.416 1.271-1.416 0.672 0 1.225 0.3206 1.225 1.057 0 0.704-0.6167 1.024-1.137 1.016h-0.4238v0.4238h0.4238c0.744 0 1.344 0.3916 1.344 1.184 0 0.8-0.6956 1.24-1.432 1.24-0.904 0-1.432-0.5925-1.4-1.48h-0.5039c-0.08 1.2 0.7521 1.904 1.912 1.904 1.032 0 1.93-0.6071 1.93-1.703 0-0.736-0.4243-1.265-1.152-1.385v-0.01565c0.6-0.144 0.9434-0.6322 0.9434-1.24 0-0.992-0.8563-1.424-1.736-1.424zm-8.703 0.04883c-0.152 1.032-0.6962 1.048-1.576 1.08v0.3594h1.48v4.16h0.5039v-5.6zm11.4 0.07227v0.4629h3.096c-1.552 1.768-2.169 3.168-2.305 5.064h0.5449c0.128-2.608 1.568-4.336 2.264-5.064v-0.4629zm-32.1 0.1582v1.24h-0.7188v0.4238h0.7188v2.824c-8e-3 0.704 0.2245 0.9277 0.8965 0.9277 0.152 0 0.2972-0.01563 0.4492-0.01563v-0.4316c-0.144 0.016-0.2896 0.02344-0.4336 0.02344-0.36-0.024-0.4082-0.215-0.4082-0.543v-2.785h0.8418v-0.4238h-0.8418v-1.24zm-5.311 1.121c-1.312 0-1.865 1.096-1.865 2.184 0 1.176 0.5532 2.184 1.865 2.184 1.04 0 1.583-0.5425 1.799-1.479h-0.5039c-0.16 0.624-0.5589 1.055-1.295 1.055-0.968 0-1.353-0.887-1.361-1.623h3.176c0.04-1.16-0.4865-2.32-1.814-2.32zm19.21 0c-1.264 0-1.951 0.9996-1.951 2.184s0.6872 2.184 1.951 2.184 1.953-0.9996 1.953-2.184-0.6891-2.184-1.953-2.184zm-14.67 0.06445c-0.744-0.032-1.305 0.3594-1.561 1.023h-0.01563v-0.9688h-0.4629v4.129h0.5039v-2.201c0-0.856 0.6232-1.527 1.535-1.479zm-4.535 0.3594c0.816 0 1.287 0.7127 1.311 1.473h-2.672c0.08-0.752 0.5373-1.473 1.361-1.473zm19.21 0c0.968 0 1.449 0.8798 1.449 1.76s-0.4812 1.76-1.449 1.76-1.447-0.8798-1.447-1.76 0.4793-1.76 1.447-1.76zm-11.53 2.977v0.8477h0.6719v-0.8477zm14.53 0v0.8477h0.6719v-0.8477z"/>
   <path fill="#164194" d="m103.2 51.52c-1.789 0-3.326 0.6985-4.613 2.09-1.087 1.182-1.831 2.64-2.227 4.375-0.3941 1.736-0.3169 3.195 0.2344 4.377 0.6529 1.391 1.872 2.088 3.662 2.088 1.788 0 3.326-0.6965 4.611-2.088 1.09-1.182 1.831-2.641 2.227-4.377 0.3941-1.735 0.3169-3.193-0.2344-4.375-0.6518-1.391-1.872-2.09-3.66-2.09zm-58.77 0.2246-0.9141 3.777h2.867l-2.035 8.73h4.277l2.111-8.746h5.658l0.9121-3.756zm32.29 0-3.176 12.51h4.092l1.133-4.465h4.326l0.748-2.941h-4.326l0.4355-1.719h5.008l0.8594-3.383zm9.811 0-3.176 12.51h3.91l1.014-3.93s0.2912-1.278 0.334-1.551c0.0682-0.4322 0.1266-0.9142 0.07813-1.121l1.832 6.602h3.904l3.176-12.51h-3.91l-1.014 3.93s-0.2912 1.279-0.334 1.551c-0.0694 0.4322-0.1278 0.9154-0.07813 1.121l-1.832-6.602zm22.49 0-3.154 12.47h4.102l0.9531-4.428c0.4126 1.404 1.012 2.911 1.551 4.465h7.311c4.28 0 6.239-1.864 7.268-6.574 0.7465-3.42-0.7855-5.936-4.281-5.936h-3.918l-2.807 11.05c-0.475-1.134-0.9123-2.335-1.566-3.328 0.9326 0.0174 3-1.33 2.865-3.848-0.1572-2.924-2.555-3.879-3.67-3.879zm-50.26 0.0039-0.8359 3.754h3.475l1.51 8.754h4.041l6.197-12.5h-4.5l-2.842 6.855-0.6602-6.859zm43.72 2.92c0.995 0 1.24 1.107 0.7363 3.316-0.5015 2.211-1.25 3.314-2.244 3.314-0.995 0-1.239-1.104-0.7363-3.314 0.5038-2.21 1.251-3.316 2.244-3.316zm9.551 0.4609h0.6914c0.5432-5e-3 0.6445 0.599 0.6445 0.748 0 0.5744-0.7098 0.9788-1.02 0.9707h-0.6953c0.1445-0.5674 0.2922-1.164 0.3789-1.719zm9.932 0.0098c1.064 0 1.597 0.6945 1.354 2.029-0.5894 3.222-1.367 3.713-2.805 3.713zm-65.69 1.053-3.627 0.0098-1.268 5.393c-0.245 0.9834 0.6101 3.252 3.605 3.301 1.847 0.0312 4.609-0.6585 5.178-3.291l1.139-5.412h-3.625l-1.035 4.439c-0.0832 0.3421-0.3903 0.5527-0.7832 0.5527-0.3952 0-0.6958-0.3043-0.6484-0.5527z"/>
   <path fill="#164194" d="m111.6 25.11c-9.071 0-16.58 5.512-20.17 13.22-0.08898 0.171-0.0038 0.3663 0.1406 0.4414 0.1629 0.08436 0.3669-0.0058 0.457-0.1699 3.379-7.253 11.05-12.15 19.57-12.15 11.73 0 21.24 9.511 21.24 21.24 0 5.199-1.612 10.21-4.711 13.9l-0.0195 0.02344c-0.1214 0.1491-0.1168 0.3391 0.0254 0.4512 0.1375 0.1098 0.31 0.1036 0.4648-0.08594 3.319-3.934 5.588-8.738 5.588-14.29 0-12.48-10.11-22.59-22.59-22.59z"/>
   <path fill="#164194" d="m73 3c-38.66 0-70 31.34-70 70s31.34 70 70 70 70-31.34 70-70l-31.76-2e-3c0 21.12-17.12 38.24-38.24 38.24s-38.24-17.12-38.24-38.24 17.12-38.25 38.24-38.25z"/>
   <path fill="#ffffff" d="m26.23 82.25 1.871 7.053-1.826 0.4844-0.6387-2.412-9.219 2.445-0.5898-2.227 9.217-2.447-0.6406-2.412zm95.98 2.064 7.836 2.332c2.178 0.6477 2.949 1.927 2.215 4.396-0.5336 1.794-1.632 2.57-3.043 2.15l0.6016-2.025c0.276 0.0821 0.5273 0.02355 0.7246-0.1348 0.1973-0.1583 0.3619-0.376 0.4394-0.6367 0.2554-0.8588-0.2971-1.357-1.141-1.607l-1.088-0.3242-0.01 0.03125c0.4857 0.6119 0.689 1.39 0.4883 2.064-0.5017 1.687-1.903 2.188-4.924 1.289-1.932-0.5747-4.116-1.541-3.432-3.842 0.1733-0.5828 0.6632-1.22 1.641-1.363l0.01-0.03125-0.9199-0.2734zm1.559 2.859c-0.6141-0.0052-0.937 0.215-1.078 0.6895-0.2782 0.9355 0.4228 1.327 2.646 1.988 1.135 0.3375 2.196 0.4715 2.461-0.418 0.2645-0.8895-0.624-1.438-2.02-1.854-0.879-0.2614-1.532-0.4022-2.01-0.4062zm-99.74 3.104c1.097 0.02493 2.058 0.5716 2.701 2.117 0.9893 2.378-0.3847 3.574-2.822 4.588l-0.457 0.1895-1.678-4.033-0.6348 0.2656c-0.9307 0.3871-1.743 1.018-1.43 1.771 0.2827 0.6796 0.9172 0.7463 1.941 0.459l0.7617 1.83c-1.877 0.6942-3.281 0.2389-4.08-1.682-1.229-2.955 0.997-4.018 2.977-4.842 0.9307-0.3871 1.867-0.6835 2.721-0.6641zm92.99 0.4648 1.734 0.7461-0.873 2.029-1.732-0.7461zm2.705 1.164 7.906 3.402-0.873 2.029-7.906-3.402zm-95.41 0.3691c-0.333-9.92e-4 -0.6944 0.09606-1.018 0.2305l-0.3105 0.1289 0.8672 2.084c1.193-0.5482 1.811-0.9782 1.461-1.82-0.1901-0.457-0.5718-0.6218-1-0.623zm91.52 1.691 9.895 5.711-1.057 1.83-0.791-0.457-0.0156 0.0293c0.4528 0.8158 0.4399 1.51 8e-3 2.258-0.9041 1.566-2.469 1.622-5.24 0.0215-2.771-1.6-3.506-2.985-2.602-4.551 0.416-0.7205 0.9866-1.036 1.814-1.094l0.0156-0.0293-3.131-1.807zm-88.66 3.137c1.301-0.0699 2.169 0.6293 2.818 1.721 1.039 1.746 0.4651 3.317-1.281 4.355l-1.08-1.814c0.715-0.4254 1.402-1.021 0.9766-1.736-0.5563-0.935-1.471-0.5964-3.176 0.418-1.829 1.088-2.488 1.704-1.98 2.557 0.3763 0.6325 1.085 0.6023 2.281-0.1094l1.08 1.814c-1.939 1.153-3.509 0.988-4.703-1.02-1.129-1.898-0.7631-3.381 2.207-5.148 1.14-0.678 2.077-0.9952 2.857-1.037zm91.54 1.438c-0.035-8.93e-4 -0.0682-5.6e-5 -0.1016 2e-3 -0.32 0.01929-0.565 0.1733-0.748 0.4902-0.48 0.8314 0.2558 1.478 1.877 2.414 1.621 0.9361 2.549 1.249 3.029 0.418 0.4881-0.8452-0.248-1.49-1.869-2.426-0.9499-0.5485-1.663-0.885-2.188-0.8984zm-84.64 2.002 1.395 1.711-2.863 2.338 0.01953 0.0234c0.8333-0.1428 1.593 0.2086 2.18 0.9277 0.8697 1.066 0.8045 2.172-0.5098 3.244l-4.947 4.035-1.396-1.711 4.6-3.752c0.6695-0.5461 0.7486-0.9799 0.334-1.488-0.4753-0.5827-1.098-0.6126-1.842-6e-3l-4.426 3.609-1.396-1.711zm80.37 0.918 1.678 1.283c-0.1489 0.1681-0.3091 0.3495-0.4453 0.5273-0.467 0.6097-0.6744 1.54 0.2402 2.24l4.104 3.141-1.344 1.754-6.834-5.234 1.285-1.676 0.9141 0.6992 0.0195-0.0254c-0.3881-0.8616-0.4412-1.688 0.1133-2.412 0.0778-0.1016 0.179-0.205 0.2695-0.2969zm-6.285 3.35 1.338 1.332-1.266 1.27-1.336-1.332zm2.854 1.443 6.1 6.074-1.49 1.496-0.7148-0.7109-0.0234 0.0234c0.2733 0.9272-0.0189 1.764-0.6738 2.422-0.9711 0.9748-2.08 1.023-3.281-0.1738l-4.523-4.506 1.559-1.564 4.207 4.189c0.6121 0.6098 1.053 0.6425 1.516 0.1777 0.5307-0.5328 0.4946-1.155-0.1855-1.832l-4.047-4.031zm-4.795 0.5059 1.338 1.334-1.266 1.27-1.338-1.334zm-69.39 1.471 1.568 1.414-0.6758 0.75 0.02344 0.0215c0.9126-0.3188 1.764-0.0689 2.453 0.5527 1.022 0.9217 1.124 2.026-0.01172 3.285l-4.277 4.74-1.639-1.479 3.977-4.408c0.5788-0.6415 0.5906-1.082 0.1035-1.521-0.5583-0.5037-1.179-0.4393-1.822 0.2734l-3.826 4.242-1.639-1.48zm7.836 2.84 1.801 1.277-1.092 1.539-1.801-1.277zm61.34 0.4121 3.326 8.154-2.072 1.418-4.389-4.404-0.0254 0.0176 2.564 5.65-2.113 1.445-6.404-6.049 1.822-1.246 4.283 4.477 0.0254-0.0195-2.564-5.648 1.98-1.355 4.389 4.404 0.0254-0.0176-2.592-5.633zm-63.05 1.99 1.803 1.275-4.979 7.023-1.803-1.277zm3.764 2.826c0.5648-7e-3 1.22 0.1683 1.965 0.582 1.748 0.9712 2.138 2.214 1.385 3.57l-0.1719 0.3086-1.734-0.9648c0.4195-0.7553 0.4068-1.256-0.2227-1.605-0.4895-0.2719-1.066-0.2268-1.361 0.3047-0.202 0.3637-0.1773 0.7805 0.3496 1.348l0.9434 1.037c0.9916 1.082 1.098 1.945 0.4688 3.078-0.8779 1.581-2.487 1.712-4.109 0.8105-2.168-1.204-2.242-2.489-1.441-3.93l0.1465-0.2676 1.734 0.9648-0.1387 0.252c-0.3652 0.6574-0.257 1.285 0.4004 1.65 0.5875 0.3263 1.142 0.2499 1.477-0.3516 0.2719-0.4895 0.07535-0.8925-0.2246-1.242l-1.086-1.242c-0.8532-0.9681-1.034-1.929-0.4434-2.992 0.4322-0.778 1.123-1.299 2.064-1.311zm49.39 1.6 3.275 7.49c0.9102 2.082 0.4286 3.497-1.932 4.529-1.715 0.75-3.016 0.4112-3.605-0.9375l1.936-0.8477c0.1154 0.2639 0.322 0.4182 0.5703 0.4668s0.5223 0.0348 0.7715-0.0742c0.821-0.359 0.8447-1.104 0.4922-1.91l-0.4551-1.041-0.0293 0.0137c-0.1541 0.7659-0.6186 1.423-1.264 1.705-1.613 0.7051-2.899-0.0417-4.162-2.93-0.8077-1.847-1.478-4.138 0.7207-5.1 0.5571-0.2436 1.361-0.2812 2.102 0.373l0.0293-0.0137-0.3848-0.8789zm-36.65 0.8262 2.154 0.4805-0.8047 3.607 0.03125 8e-3c0.5663-0.6277 1.379-0.8232 2.285-0.6211 1.343 0.2997 1.977 1.212 1.607 2.867l-1.391 6.23-2.156-0.4805 1.293-5.795c0.1882-0.8433-0.01991-1.234-0.6602-1.377-0.7339-0.1638-1.24 0.1998-1.449 1.137l-1.244 5.574-2.154-0.4805zm-5.656 0.8672c0.4473 0.0132 0.9106 0.1243 1.385 0.3066 1.897 0.7293 2.417 2.318 1.688 4.215l-1.971-0.7578c0.2986-0.7766 0.4699-1.67-0.3066-1.969-1.016-0.3905-1.524 0.4431-2.236 2.295-0.7638 1.986-0.9005 2.876 0.02539 3.232 0.687 0.2642 1.225-0.1988 1.725-1.498l1.971 0.7578c-0.8097 2.106-2.144 2.948-4.324 2.109-2.061-0.7925-2.692-2.184-1.451-5.41 0.9518-2.475 2.154-3.321 3.496-3.281zm40.34 0.8672c-0.1375-4e-3 -0.2805 0.0296-0.4316 0.0957-0.8943 0.391-0.742 1.179 0.1875 3.305 0.4743 1.085 1.06 1.981 1.91 1.609 0.8503-0.3718 0.6946-1.404 0.1113-2.738-0.6823-1.56-1.181-2.255-1.777-2.271zm-17.18 0.082 0.01758 1.887-4.08 0.041 0.02734 2.689 3.84-0.0391 0.01953 1.887-3.84 0.0391 0.04883 4.961-2.303 0.0215-0.1152-11.42zm10.54 0.7148c1.302 0.0427 1.804 0.8426 2.105 1.967l1.174 4.373c0.2074 0.7726 0.3504 1.116 0.6953 1.537l-2.041 0.5469c-0.2096-0.2254-0.3577-0.5334-0.4941-0.7949l-0.03125 0.01c-0.2622 0.9981-0.8063 1.375-1.826 1.648-1.483 0.3982-2.35-0.7272-2.648-1.84-0.4189-1.561 0.04605-2.364 1.406-3.16l1.117-0.6484c0.5879-0.34 0.7372-0.6449 0.5879-1.201-0.1701-0.6336-0.5509-0.9447-1.262-0.7539-0.649 0.1742-0.8734 0.6967-0.6992 1.346l0.0625 0.2324-1.916 0.5137-0.05469-0.2012c-0.5143-1.916 0.6253-2.916 2.232-3.348 0.6336-0.1701 1.158-0.2408 1.592-0.2266zm-5.168 1.141 0.2832 2.092c-0.2241 0.0143-0.4636 0.0324-0.6855 0.0625-0.761 0.1033-1.563 0.6143-1.408 1.756l0.6953 5.121-2.188 0.2969-1.158-8.529 2.092-0.2832 0.1562 1.141 0.03125-4e-3c0.332-0.8847 0.8775-1.508 1.781-1.631 0.1268-0.0172 0.2714-0.0201 0.4004-0.0215zm5.725 3.197c-0.2355 0.2952-0.5547 0.5298-0.8008 0.6621-0.8156 0.4177-1.043 0.9262-0.8438 1.668 0.1701 0.6336 0.5435 1.097 1.115 0.9434 0.5718-0.1535 1.213-0.723 0.9688-1.635z"/>
</svg>
