<svg version="1.1" viewBox="0 0 144 144" xmlns="http://www.w3.org/2000/svg">
    <!--
        Logo (c) TÜV Nord
        Idea & SVG (c) justJanne
    -->
   <path fill="#fff" d="m0 72c0-39.76 32.24-72 72-72 39.76 0 72 32.24 72 72 0 39.76-32.24 72-72 72-39.76 0-72-32.24-72-72"/>
   <path fill="#164194" d="m100.8 50.52c-1.789 0-3.326 0.6985-4.613 2.09-1.087 1.182-1.831 2.64-2.227 4.375-0.3941 1.736-0.3169 3.195 0.2344 4.377 0.6529 1.391 1.872 2.088 3.662 2.088 1.788 0 3.326-0.6965 4.611-2.088 1.09-1.182 1.831-2.641 2.227-4.377 0.3941-1.735 0.3169-3.193-0.2344-4.375-0.6518-1.391-1.872-2.09-3.66-2.09zm-25.37 0.2251-3.17 12.51h3.512l1.271-4.994h4.074l0.6875-2.738h-4.074l0.4805-1.931h4.788l0.7285-2.844zm-32.29-4.46e-4 -0.9141 3.777h2.867l-2.035 8.73h4.277l2.111-8.746h5.658l0.9121-3.756zm40.99 0-3.176 12.51h3.91l1.014-3.93s0.2912-1.278 0.334-1.551c0.0682-0.4322 0.1266-0.9142 0.07813-1.121l1.832 6.602h3.904l3.176-12.51h-3.91l-1.014 3.93s-0.2912 1.279-0.334 1.551c-0.0694 0.4322-0.1278 0.9154-0.07813 1.121l-1.832-6.602zm22.49 0-3.154 12.47h4.102l0.9531-4.428c0.4126 1.404 1.012 2.911 1.551 4.465h7.311c4.28 0 6.239-1.864 7.268-6.574 0.7465-3.42-0.7855-5.936-4.281-5.936h-3.918l-2.807 11.05c-0.475-1.134-0.9123-2.335-1.566-3.328 0.9326 0.0174 3-1.33 2.865-3.848-0.1572-2.924-2.555-3.879-3.67-3.879zm-49.14 0.0039-0.8359 3.754h3.475l1.51 8.754h4.041l6.197-12.5h-4.5l-2.842 6.855-0.6602-6.859zm42.6 2.92c0.995 0 1.24 1.107 0.7363 3.316-0.5015 2.211-1.25 3.314-2.244 3.314-0.995 0-1.239-1.104-0.7363-3.314 0.5038-2.21 1.251-3.316 2.244-3.316zm9.551 0.4609h0.6914c0.5432-5e-3 0.6445 0.599 0.6445 0.748 0 0.5744-0.7098 0.9788-1.02 0.9707h-0.6953c0.1444-0.5674 0.2922-1.164 0.3789-1.719zm9.932 0.0098c1.064 0 1.597 0.6945 1.354 2.029-0.5894 3.222-1.367 3.713-2.805 3.713zm-64.57 1.053-3.627 0.0098-1.268 5.393c-0.245 0.9834 0.6101 3.252 3.605 3.301 1.847 0.0312 4.609-0.6585 5.178-3.291l1.139-5.412h-3.625l-1.035 4.439c-0.0832 0.3421-0.3903 0.5527-0.7832 0.5527-0.3952 0-0.6958-0.3043-0.6484-0.5527z"/>
   <path fill="#164194" d="m90.44 37.33c3.594-7.713 11.1-13.22 20.17-13.22 12.48 0 22.59 10.11 22.59 22.59 0 5.549-2.27 10.35-5.589 14.29-0.1548 0.1895-0.3282 0.1964-0.4657 0.0867-0.1421-0.1121-0.1468-0.3028-0.0254-0.4519l0.0196-0.0219c3.099-3.693 4.711-8.701 4.711-13.9 0-11.73-9.51-21.24-21.24-21.24-8.529 0-16.19 4.894-19.57 12.15-0.0901 0.1641-0.2947 0.2554-0.4576 0.171-0.1444-0.0751-0.23-0.2716-0.141-0.4426"/>
   <path fill="#164194" d="m2 72c0-38.66 31.34-70 70-70l-5e-3 31.75c-21.12 0-38.24 17.12-38.24 38.24 0 21.12 17.12 38.24 38.24 38.24 21.12 0 38.24-17.12 38.24-38.24l31.76 2e-3c0 38.66-31.34 70-70 70-38.66 0-70-31.34-70-70"/>
   <path fill="#fff" d="m25.23 81.25-1.825 0.4842 0.6402 2.413-9.217 2.446 0.5909 2.227 9.217-2.446 0.6402 2.413 1.825-0.4842zm-2.781 14.92 0.458-0.1905c2.438-1.014 3.812-2.209 2.823-4.588-1.143-2.748-3.295-2.338-5.422-1.453-1.98 0.8234-4.205 1.888-2.977 4.842 0.7988 1.92 2.202 2.377 4.079 1.683l-0.7619-1.832c-1.024 0.2874-1.658 0.2217-1.941-0.4578-0.3134-0.7534 0.4981-1.386 1.429-1.773l0.6352-0.2642zm-0.4661-4.537 0.3102-0.129c0.7387-0.3072 1.679-0.4211 2.017 0.3914 0.3502 0.8421-0.2679 1.272-1.461 1.821zm5.721 10.54c1.746-1.039 2.32-2.609 1.281-4.355s-2.636-2.49-5.675-0.6825c-2.97 1.767-3.335 3.25-2.206 5.148 1.194 2.008 2.763 2.173 4.702 1.019l-1.08-1.815c-1.196 0.7117-1.904 0.742-2.281 0.1095-0.5072-0.8525 0.1509-1.467 1.98-2.555 1.705-1.014 2.62-1.354 3.176-0.4189 0.4254 0.715-0.2628 1.311-0.9779 1.736zm-3.489 4.585 1.396 1.711 4.426-3.61c0.7439-0.6068 1.366-0.5777 1.842 5e-3 0.4146 0.5084 0.3363 0.9439-0.3332 1.49l-4.6 3.752 1.396 1.711 4.947-4.035c1.314-1.072 1.381-2.18 0.5115-3.246-0.5866-0.7191-1.347-1.069-2.18-0.9264l-0.02023-0.0248 2.864-2.336-1.396-1.711zm5.837 6.857 1.639 1.479 3.826-4.241c0.6431-0.7128 1.263-0.7786 1.821-0.2749 0.4871 0.4394 0.4758 0.8818-0.1029 1.523l-3.976 4.407 1.639 1.479 4.276-4.74c1.136-1.259 1.034-2.364 0.01232-3.286-0.689-0.6216-1.54-0.8724-2.453-0.5536l-0.02376-0.0214 0.6752-0.7484-1.568-1.415zm6.921 5.872 1.801 1.277 4.979-7.022-1.801-1.277zm5.589-7.884 1.801 1.277 1.092-1.54-1.801-1.277zm-0.6303 7.961-0.1476 0.2658c-0.8002 1.441-0.7271 2.726 1.441 3.93 1.622 0.9012 3.232 0.7706 4.11-0.8099 0.6293-1.133 0.5236-1.997-0.468-3.079l-0.9434-1.036c-0.5269-0.5672-0.5518-0.9837-0.3497-1.347 0.2952-0.5315 0.8702-0.5782 1.36-0.3062 0.6294 0.3496 0.6434 0.8516 0.2239 1.607l1.734 0.9634 0.1709-0.3077c0.7536-1.357 0.3635-2.598-1.385-3.57-1.986-1.103-3.337-0.5173-4.028 0.7276-0.5905 1.063-0.4101 2.023 0.4431 2.992l1.085 1.243c0.3 0.3496 0.4973 0.7521 0.2254 1.242-0.3341 0.6014-0.8889 0.6776-1.476 0.3513-0.6574-0.3652-0.7662-0.993-0.4011-1.65l0.1398-0.2518zm13.93 3.543c0.7293-1.897 0.2088-3.485-1.688-4.215-1.897-0.7293-3.612-0.326-4.881 2.974-1.24 3.226-0.6096 4.617 1.451 5.409 2.18 0.8384 3.515-3e-3 4.325-2.108l-1.971-0.758c-0.4996 1.299-1.037 1.761-1.724 1.497-0.9259-0.356-0.7893-1.246-0.02553-3.233 0.7121-1.852 1.221-2.685 2.236-2.294 0.7766 0.2986 0.6043 1.192 0.3057 1.969zm0.09515 5.761 2.155 0.4809 1.244-5.575c0.2091-0.937 0.7162-1.299 1.45-1.135 0.6403 0.1429 0.8482 0.5335 0.66 1.377l-1.293 5.793 2.155 0.4809 1.39-6.231c0.3694-1.655-0.2632-2.567-1.606-2.867-0.9057-0.2021-1.72-7e-3 -2.286 0.621l-0.03123-7e-3 0.805-3.607-2.155-0.4809zm13.72 2.153 2.304-0.0231-0.04965-4.96 3.84-0.0384-0.0189-1.888-3.84 0.0384-0.02691-2.688 4.08-0.0408-0.0189-1.888-6.384 0.0639zm8.338-0.3028 2.188-0.297-0.695-5.121c-0.1549-1.142 0.6474-1.654 1.408-1.757 0.222-0.0301 0.4619-0.0465 0.6861-0.0608l-0.284-2.093c-0.129 1e-3 -0.2738 5e-3 -0.4007 0.0221-0.9037 0.1227-1.449 0.7456-1.781 1.63l-0.03171 4e-3 -0.1549-1.142-2.093 0.284zm6.618-7.208-0.06222-0.2318c-0.1742-0.649 0.04963-1.173 0.6987-1.347 0.7108-0.1908 1.093 0.1209 1.263 0.7544 0.1493 0.5563-6.6e-4 0.8616-0.5886 1.202l-1.118 0.648c-1.36 0.7958-1.824 1.599-1.405 3.16 0.2986 1.113 1.164 2.239 2.648 1.841 1.02-0.2738 1.565-0.6519 1.827-1.65l0.03091-8e-3c0.1365 0.2616 0.2854 0.5695 0.495 0.7949l2.04-0.5475c-0.3449-0.421-0.4867-0.764-0.6941-1.537l-1.174-4.373c-0.4023-1.499-1.163-2.421-3.698-1.741-1.607 0.4314-2.746 1.433-2.232 3.349l0.05392 0.2009zm2.849 2.714c0.2447 0.9117-0.3975 1.482-0.9692 1.635-0.5718 0.1535-0.9446-0.3097-1.115-0.9433-0.1991-0.7418 0.02889-1.25 0.8445-1.668 0.2461-0.1323 0.5642-0.3668 0.7997-0.662zm5.679-8.488 0.3846 0.8796-0.02932 0.0128c-0.7401-0.6543-1.545-0.6169-2.102-0.3733-2.199 0.9615-1.529 3.253-0.7212 5.1 1.263 2.888 2.55 3.635 4.162 2.93 0.645-0.282 1.109-0.9388 1.263-1.705l0.02932-0.0128 0.4551 1.041c0.3526 0.8063 0.3286 1.55-0.4924 1.909-0.2492 0.109-0.5222 0.1236-0.7705 0.075-0.2483-0.0486-0.4553-0.2026-0.5707-0.4664l-1.935 0.8461c0.5897 1.349 1.891 1.688 3.606 0.938 2.36-1.032 2.842-2.447 1.931-4.529l-3.276-7.491zm-0.2777 5.116c-0.9295-2.126-1.082-2.915-0.188-3.306 0.8063-0.3526 1.37 0.2568 2.209 2.177 0.5833 1.334 0.7379 2.367-0.1123 2.738-0.8503 0.3718-1.435-0.5253-1.909-1.61zm9.398-0.0956 2.113-1.445-2.565-5.65 0.0264-0.0181 4.388 4.404 2.074-1.418-3.327-8.153-1.743 1.192 2.591 5.632-0.0264 0.0181-4.388-4.404-1.981 1.355 2.565 5.65-0.0264 0.0181-4.282-4.476-1.823 1.246zm12.32-9.939 1.491-1.496-6.098-6.075-1.558 1.564 4.047 4.031c0.6801 0.6775 0.7153 1.3 0.1846 1.832-0.463 0.4648-0.9043 0.4317-1.516-0.1781l-4.205-4.189-1.558 1.564 4.523 4.505c1.202 1.197 2.31 1.15 3.281 0.1747 0.6549-0.6574 0.9475-1.495 0.6742-2.422l0.0226-0.0227zm-9.331-4.462 1.265-1.27-1.338-1.332-1.265 1.27zm1.942-1.95 1.265-1.27-1.338-1.332-1.265 1.27zm10.45 2.993 1.343-1.753-4.103-3.142c-0.9146-0.7004-0.7068-1.63-0.2399-2.239 0.1362-0.1778 0.2948-0.3586 0.4437-0.5268l-1.677-1.284c-0.0905 0.0919-0.1908 0.1965-0.2686 0.2981-0.5545 0.724-0.502 1.55-0.1139 2.412l-0.0195 0.0254-0.9146-0.7004-1.284 1.677zm1.065-8.958c-1.621-0.9361-2.356-1.582-1.876-2.414 0.488-0.8452 1.415-0.5314 3.037 0.4047s2.356 1.582 1.868 2.428c-0.4801 0.8314-1.407 0.5176-3.029-0.4185zm4.935 0.06 1.056-1.829-9.893-5.713-1.104 1.912 3.131 1.808-0.016 0.02771c-0.8278 0.05778-1.399 0.3747-1.815 1.095-0.9041 1.566-0.1701 2.95 2.601 4.55 2.771 1.6 4.337 1.544 5.241-0.022 0.432-0.7482 0.4451-1.443-8e-3 -2.258l0.016-0.0277zm2.089-4.17 0.8728-2.028-7.907-3.403-0.8728 2.028zm-8.877-3.82 0.8728-2.028-1.734-0.7463-0.8728 2.028zm3.725-7.178 0.9202 0.2737-9e-3 0.03067c-0.9774 0.1433-1.468 0.782-1.641 1.365-0.6842 2.3 1.499 3.267 3.431 3.842 3.021 0.8985 4.422 0.3971 4.924-1.29 0.2007-0.6748-2e-3 -1.453-0.4877-2.065l9e-3 -0.03067 1.089 0.3238c0.8435 0.2509 1.396 0.7491 1.141 1.608-0.0775 0.2607-0.2425 0.4787-0.4398 0.637-0.1973 0.1583-0.4485 0.2172-0.7246 0.1351l-0.6021 2.024c1.411 0.4196 2.509-0.3554 3.043-2.15 0.7343-2.469-0.0365-3.75-2.214-4.398l-7.837-2.331zm3.729 3.513c-2.224-0.6614-2.925-1.054-2.647-1.989 0.2509-0.8435 1.08-0.8807 3.089-0.2832 1.396 0.4151 2.284 0.9631 2.02 1.853-0.2645 0.8895-1.327 0.7572-2.462 0.4196z"/>
   <path fill="#000080" d="m56.57 71.44v0.8066h0.543v-0.8066h-0.543zm1.416 0v0.8066h0.543v-0.8066h-0.543zm22.17 1.279c-1.8 0-2.697 1.417-2.697 2.977s0.8973 2.975 2.697 2.975c1.792 0 2.688-1.415 2.688-2.975s-0.8955-2.977-2.688-2.977zm-29.83 0.1191v0.4648h1.992v5.248h0.543v-5.248h1.992v-0.4648h-4.527zm5.008 0v3.656c0 1.176 0.6328 2.176 2.217 2.176 1.592 0 2.223-0.9998 2.223-2.176v-3.656h-0.543v3.537c8e-3 1.328-0.6237 1.832-1.68 1.832-1.048 0-1.682-0.504-1.674-1.832v-3.537h-0.543zm4.904 0 2.119 5.713h0.6328l2.119-5.713h-0.5762l-1.84 5.113h-0.01562l-1.855-5.113h-0.584zm7.6 0v5.713h0.5449v-2.721h2.734v-0.4629h-2.734v-2.064h3.078v-0.4648h-3.623zm4.287 0v5.713h0.5449v-4.832h0.01563l3.328 4.832h0.6074v-5.713h-0.543v4.832h-0.01562l-3.328-4.832h-0.6094zm11.57 0v5.713h0.5449v-2.537h2.064c1.032-0.04 1.095 0.8484 1.143 1.648 0.016 0.24 0.01634 0.6647 0.1523 0.8887h0.5996c-0.24-0.288-0.2397-1.073-0.2637-1.465-0.04-0.68-0.256-1.191-1-1.287v-0.01562c0.736-0.144 1.111-0.737 1.111-1.457 0-1.032-0.7904-1.488-1.734-1.488h-2.617zm5.336 0v5.713h1.977c1.72-0.04 2.623-0.9835 2.623-2.855s-0.903-2.817-2.623-2.857h-1.977zm-8.871 0.3438c1.504 0 2.145 1.266 2.145 2.514s-0.6405 2.512-2.145 2.512c-1.512 0-2.152-1.264-2.152-2.512s0.6403-2.514 2.152-2.514zm4.08 0.1211h2.031c0.816 0 1.232 0.4407 1.232 1.137s-0.5684 1.111-1.232 1.111h-2.031v-2.248zm5.336 0h1.16c1.64-8e-3 2.352 0.6886 2.352 2.393s-0.7116 2.399-2.352 2.391h-1.16v-4.783zm-39.03 7.416c-1.8 0-2.695 1.417-2.695 2.977s0.8953 2.975 2.695 2.975c1.336 0 2.225-0.8949 2.377-2.295h-0.5449c-0.104 1.016-0.776 1.832-1.832 1.832-1.512 0-2.15-1.264-2.15-2.512s0.6384-2.514 2.15-2.514c0.832 0 1.56 0.5048 1.752 1.385h0.5449c-0.144-1.2-1.217-1.848-2.297-1.848zm16.69 0.1191v5.713h0.543v-4.832h0.01562l3.328 4.832h0.6094v-5.713h-0.5449v4.832h-0.01562l-3.328-4.832h-0.6074zm18.34 0.06445c-1.088 0-1.76 0.7838-1.768 1.84h0.5039c-0.016-0.832 0.4315-1.416 1.271-1.416 0.672 0 1.225 0.3206 1.225 1.057 0 0.704-0.6167 1.024-1.137 1.016h-0.4238v0.4238h0.4238c0.744 0 1.344 0.3916 1.344 1.184 0 0.8-0.6956 1.24-1.432 1.24-0.904 0-1.432-0.5925-1.4-1.48h-0.5039c-0.08 1.2 0.7521 1.904 1.912 1.904 1.032 0 1.928-0.6071 1.928-1.703 0-0.736-0.4243-1.265-1.152-1.385v-0.01562c0.6-0.144 0.9453-0.6322 0.9453-1.24 0-0.992-0.8563-1.424-1.736-1.424zm4.447 0c-1.088 0-1.76 0.7838-1.768 1.84h0.5039c-0.016-0.832 0.4315-1.416 1.271-1.416 0.672 0 1.225 0.3206 1.225 1.057 0 0.704-0.6167 1.024-1.137 1.016h-0.4238v0.4238h0.4238c0.744 0 1.344 0.3916 1.344 1.184 0 0.8-0.6956 1.24-1.432 1.24-0.904 0-1.432-0.5925-1.4-1.48h-0.5039c-0.08 1.2 0.7521 1.904 1.912 1.904 1.032 0 1.93-0.6071 1.93-1.703 0-0.736-0.4243-1.265-1.152-1.385v-0.01562c0.6-0.144 0.9434-0.6322 0.9434-1.24 0-0.992-0.8563-1.424-1.736-1.424zm-8.703 0.04883c-0.152 1.032-0.6962 1.048-1.576 1.08v0.3594h1.48v4.16h0.5039v-5.6h-0.4082zm11.4 0.07226v0.4629h3.096c-1.552 1.768-2.169 3.168-2.305 5.064h0.5449c0.128-2.608 1.568-4.336 2.264-5.064v-0.4629h-3.6zm-32.1 0.1582v1.24h-0.7188v0.4238h0.7188v2.824c-8e-3 0.704 0.2245 0.9277 0.8965 0.9277 0.152 0 0.2972-0.01562 0.4492-0.01562v-0.4316c-0.144 0.016-0.2896 0.02344-0.4336 0.02344-0.36-0.024-0.4082-0.215-0.4082-0.543v-2.785h0.8418v-0.4238h-0.8418v-1.24h-0.5039zm-5.311 1.121c-1.312 0-1.865 1.096-1.865 2.184 0 1.176 0.5532 2.184 1.865 2.184 1.04 0 1.583-0.5425 1.799-1.479h-0.5039c-0.16 0.624-0.5589 1.055-1.295 1.055-0.968 0-1.353-0.887-1.361-1.623h3.176c0.04-1.16-0.4865-2.32-1.814-2.32zm19.21 0c-1.264 0-1.951 0.9996-1.951 2.184s0.6872 2.184 1.951 2.184 1.953-0.9996 1.953-2.184-0.6891-2.184-1.953-2.184zm-14.67 0.06445c-0.744-0.032-1.305 0.3594-1.561 1.023h-0.01562v-0.9688h-0.4629v4.129h0.5039v-2.201c0-0.856 0.6232-1.527 1.535-1.479v-0.5039zm-4.535 0.3594c0.816 0 1.287 0.7127 1.311 1.473h-2.672c0.08-0.752 0.5373-1.473 1.361-1.473zm19.21 0c0.968 0 1.449 0.8798 1.449 1.76s-0.4812 1.76-1.449 1.76-1.447-0.8798-1.447-1.76 0.4793-1.76 1.447-1.76zm-11.53 2.977v0.8477h0.6719v-0.8477h-0.6719zm14.53 0v0.8477h0.6719v-0.8477h-0.6719z"/>
</svg>
