<svg version="1.1" viewBox="0 0 252 80.5" xmlns="http://www.w3.org/2000/svg">
    <!--
        Top Gun (c) Paramount Pictures
        Linux (c) The Linux Foundation
        Idea (c) Unknown Author
        SVG (c) justJanne
    -->
    <defs>
        <linearGradient id="white"><stop stop-color="#ffffff"/></linearGradient>
        <linearGradient id="red"><stop stop-color="#a02020"/></linearGradient>
        <linearGradient id="blue"><stop stop-color="#204080"/></linearGradient>
    </defs>
    <path fill="url(#white)"
        d="m15 0c-1.4-1.24e-4 -2.76 0.492-3.84 1.39l-9 7.5c-2.95 2.46-2.86 7.03 0.188 9.37l49.5 38c1.05 0.804 2.33 1.24 3.65 1.24h36.5v8.5c-2.3e-4 1.94 0.935 3.76 2.51 4.88l7 5c1.02 0.727 2.24 1.12 3.49 1.12h4.2l2.4 2.06c1.09 0.932 2.47 1.44 3.91 1.44h21c1.43 6.12e-4 2.82-0.511 3.91-1.44l2.4-2.06h4.2c1.25 2.57e-4 2.47-0.39 3.49-1.12l7-5c1.58-1.13 2.51-2.94 2.51-4.88v-2c1.8e-4 -0.377-0.0351-0.753-0.106-1.12l-1.02-5.38h37.6c1.32 2.35e-4 2.61-0.436 3.65-1.24l49.5-38c3-2.31 3.15-6.78 0.297-9.28l-8.57-7.5c-1.09-0.957-2.5-1.48-3.95-1.48z"/>
    <path fill="url(#blue)"
        d="m15 6-9 7.5h62.5v28.5h8v-28.5h4.5v-7.5zm73.5 0-6 5v26l6 5h8.5l5.5-5v-26l-6-5zm15.5 0v35.8h8v-11.8h6l6-5v-14l-6-5zm30 0-6 5v26l6 5h9l6-5v-14.5h-10.5v7h2.5v5.5h-5v-22h5v6h8v-8l-6-5zm16.5 0v36h7.5v-18.5l5.5 18.5h7v-36h-7.5l0.0879 17-5.09-17zm21.5 0v31l6 5h8l6-5v-23.5h54l-8.57-7.5h-53.4v29h-4v-29zm-82 7h5v22h-5zm22 0h5v10h-5zm-66.3 31 9.77 7.5h40.5v-7.5zm110 0-1.55 7.5h42.1l9.77-7.5z"/>
    <path fill="url(#red)"
        d="m98 44v20h8v-3.5h-3v-16.5zm10 0v20h5v-20zm7 0v20h4.5v-10l2.5 10h5v-20h-4.5v10l-2.5-10zm14 0v16c0 3.501.5007 4.25 5.75 4.25 5.247 0 5.75-.7462 5.75-4.25v-16h-5v16c0 .4957-.2523.75-.75.75-.4994 0-.75-.2532-.75-.75v-16h-4.988zm12.5 0 2 9.5-2 10.5h5l1.25-8.857 1.25 8.857h5l-2-10.5 2-9.5h-5l-1.25 7.074-1.25-7.074z"/>
    <path fill="url(#red)"
        d="m8.6 15.5 9.78 7.5h48.1v-7.5zm185 0v7.5h39.6l9.78-7.5zm-173 9.5 9.77 7.5h35.8v-7.5zm173 0v7.5h27.2l9.77-7.5zm-161 9.5 9.77 7.5h23.4v-7.5zm161 0v7.5h14.9l9.77-7.5z"/>
    <path fill="url(#blue)"
        d="m98 66 7 5h19.1l1.58-5zm28.3 0 1.58 5h19.1l7-5zm-0.314 1-1.25 4.5h-4.75l3.8 2.5-1.3 4.5 3.5-2.5 3.5 2.5-1.3-4.5 3.8-2.5h-4.75zm-14 4.5 3.5 3h7.5l-4-3zm21 0-4 3h7.5l3.5-3z"/>
</svg>
