<svg version="1.1" viewBox="0 0 567.2 160" xmlns="http://www.w3.org/2000/svg">
    <!--
        Logo (c) Telekom
        Idde (c) Unbekannt
        SVG (c) justJanne
    -->
    <path fill="#e5007d" d="m0 160h567.2v-160h-567.2z"/>
    <path fill="#fff" d="m39.75 41.4-0.7773 27.39 4.121 0.7109c0.7678-8.069 2.883-14.06 6.354-17.97 3.65-4.088 8.679-6.223 15.14-6.408v57.29c0 5.011-0.6978 8.257-2.16 9.758-1.24 1.28-3.338 2.066-6.299 2.354-0.8756 0.0759-2.371 0.1074-4.492 0.1074v4.383h38.32v-4.383c-2.117 0-3.617-0.03153-4.492-0.1074-2.958-0.2874-5.059-1.073-6.301-2.354-1.46-1.501-2.17-4.747-2.17-9.758v-57.29c6.466 0.185 11.5 2.32 15.15 6.408 3.469 3.907 5.588 9.898 6.357 17.97l4.115-0.7109-0.7754-27.39h-62.1zm192.1 0.916c-11.34 0-19.4 9.593-19.4 20.6 0 24.52 34.88 19.95 34.88 39.79 0 6.867-4.36 13.95-12.54 13.95-12.64 0-17.11-17.22-18.86-27.47h-3.488v29.87h3.488c0.654-1.417 2.071-4.359 3.924-4.359 2.398 0 6.323 6.104 15.15 6.104 11.66 0 21.04-11.12 21.04-22.56 0-26.92-34.88-20.82-34.88-40 0-7.303 4.687-11.77 10.68-11.77 11.88 0 15.48 16.57 16.79 25.51h3.486v-27.9h-3.486c-0.763 1.199-1.527 4.143-3.271 4.143-1.853 0-5.123-5.887-13.52-5.887zm92.43 1.09-16.57 0.6543v3.488c5.886 0.218 7.193 0.981 7.193 5.668v56.9c0 3.27-1.743 5.231-6.975 5.449v3.488h23.33v-3.488c-5.232-0.218-6.977-2.179-6.977-5.449v-21.8c0-10.46 5.995-17.66 11.45-17.66 3.924 0 6.648 2.509 6.648 10.14v38.26h16.13v-3.488c-4.905-0.218-6.76-2.179-6.76-5.449v-28.99c0-9.592-5.232-15.48-13.62-15.48-7.303 0-11.44 5.015-13.62 9.811h-0.2168v-32.05zm158.5 0-16.35 0.6543v3.488c5.668 0.218 6.975 0.981 6.975 5.668v56.9c0 3.27-1.743 5.231-6.975 5.449v3.488h23.33v-3.488c-5.232-0.218-6.977-2.179-6.977-5.449v-10.68l5.014-5.451 13.95 25.07h13.73v-3.488c-4.578-0.218-5.123-0.5441-6.867-3.705l-14.17-25.18 10.57-11.55c2.616-2.943 5.995-4.47 9.156-4.688v-3.488h-20.49v3.488c4.796 0 6.104 0.6544 6.104 2.398 0 0.981-0.764 2.724-3.707 5.994l-13.08 14.28h-0.2188v-49.71zm-197.3 22.24c-13.08 0-22.56 13.73-22.56 27.36 0 16.02 10.25 27.36 21.26 27.36 11.99 0 16.78-9.156 17.77-19.4l-3.486-0.4356c-1.199 7.63-4.034 15.7-12.86 15.7-6.322 0-11.99-5.231-11.99-23.54 0-15.48 5.45-23.54 13.52-23.54 4.033 0 7.521 1.963 9.156 5.887l-0.2168 0.2168c-0.436-0.109-0.8718-0.4355-1.635-0.4355-2.834 0-4.471 1.854-4.471 6.541 0 3.924 2.071 6.539 5.123 6.539 3.924 0 5.561-2.834 5.561-8.066 0-8.393-5.887-14.17-15.15-14.17zm158.6 0c-7.412 0-11.66 5.015-14.61 11.12h-0.2188v-10.46l-15.91 0.6543v3.488c5.886 0.218 7.195 0.981 7.195 5.668v34.01c0 3.27-1.745 5.231-6.977 5.449v3.488h23.33v-3.488c-5.232-0.218-6.977-2.179-6.977-5.449v-21.15c0-10.68 5.887-18.31 11.66-18.31 3.706 0 6.43 2.4 6.43 9.594v38.8h16.13v-3.488c-5.232-0.218-6.758-1.743-6.758-5.449v-28.99c0-9.592-4.252-15.48-13.3-15.48zm-67.96 0.6543-15.48 0.6543v3.488c4.796 0.218 6.105 0.981 6.105 5.668v28.78c0 10.79 4.469 15.48 13.62 15.48 7.63 0 11.55-4.686 14.28-11.12h0.2188v9.809l14.71-0.6543v-3.486c-4.687-0.218-6.539-1.2-6.539-5.451v-43.16l-16.24 0.6543v3.488c5.559 0.218 6.867 0.981 6.867 5.668v21.58c0 9.047-5.123 17.66-11.34 17.66-3.597 0-6.213-1.962-6.213-8.502v-40.55zm-337.2 10.81v15.72h15.72v-15.72h-15.72zm47.94 0v15.72h15.72v-15.72h-15.72zm47.15 0v15.72h15.72v-15.72h-15.72zm47.16 0v15.72h15.72v-15.72h-15.72zm341.8 0v15.72h15.72v-15.72h-15.72z"/>
</svg>
