<svg version="1.1" viewBox="0 0 400 80" xmlns="http://www.w3.org/2000/svg">
    <!--
        Text & Icon (c) Matrix Foundation
        Idea & SVG (c) justJanne
    -->
    <defs>
        <linearGradient id="paper"><stop stop-color="#ffffff"/></linearGradient>
        <linearGradient id="primaryText"><stop stop-color="#000000"/></linearGradient>
        <linearGradient id="secondaryText"><stop stop-color="#4d4d4d"/></linearGradient>
        <linearGradient id="error"><stop stop-color="#ff0000"/></linearGradient>
    </defs>
    <path fill="url(#paper)"
        d="m13.33 0c-7.387 0-13.33 5.947-13.33 13.33v53.33c4.737e-15 7.387 5.947 13.33 13.33 13.33h373.3c7.387 0 13.33-5.947 13.33-13.33v-53.33c0-7.387-5.947-13.33-13.33-13.33h-373.3z"/>
    <path fill="url(#primaryText)"
        d="m322.4 15c-0.5186 0-0.9531 0.4024-0.9531 0.8984 0 0.4961 0.4345 0.9062 0.9531 0.9062s0.9453-0.4101 0.9453-0.9062c0-0.4961-0.4267-0.8984-0.9453-0.8984zm-272.8 0.3592 0.09377 2.484-2.094-1.336-0.5469 0.9531 2.211 1.148-2.211 1.148 0.5469 0.9453 2.094-1.328-0.09377 2.477h1.086l-0.09377-2.477 2.102 1.328 0.5391-0.9453-2.211-1.148 2.211-1.148-0.5391-0.9531-2.102 1.336 0.09377-2.484zm7.43 0 0.09377 2.484-2.094-1.336-0.5469 0.9531 2.211 1.148-2.211 1.148 0.5469 0.9453 2.094-1.328-0.09377 2.477h1.086l-0.09377-2.477 2.102 1.328 0.5391-0.9453-2.211-1.148 2.211-1.148-0.5391-0.9531-2.102 1.336 0.09377-2.484zm9.359 0v7.648c0 2.368 1.775 4.102 4.492 4.102 2.717 0 4.484-1.734 4.484-4.102v-7.648h-1.398v7.531c0 1.691-1.158 2.914-3.086 2.914-1.928 0-3.094-1.223-3.094-2.914v-7.531zm28.49 0v11.55h1.281v-1.328h0.1641c0.2932 0.4736 0.8548 1.508 2.523 1.508 2.165 0 3.672-1.733 3.672-4.484 0-2.729-1.508-4.469-3.695-4.469-1.691 0-2.207 1.041-2.5 1.492h-0.1172v-4.266zm9.164 0v11.55h1.328v-11.55zm39.95 0v4.266h-0.1093c-0.2932-0.451-0.8166-1.492-2.508-1.492-2.187 0-3.695 1.74-3.695 4.469 0 2.751 1.507 4.484 3.672 4.484 1.669 0 2.238-1.034 2.531-1.508h0.1562v1.328h1.281v-11.55zm56.34 0v1.242h3.633v10.3h1.398v-10.3h3.625v-1.242zm10.13 0v11.55h1.336v-5.211c0-1.511 0.9599-2.367 2.273-2.367 1.252 0 2.008 0.7885 2.008 2.164v5.414h1.328v-5.5c0-2.227-1.183-3.273-2.953-3.273-1.364 0-2.141 0.5724-2.547 1.469h-0.1093v-4.242zm52.79 0v4.266h-0.1172c-0.2932-0.451-0.8088-1.492-2.5-1.492-2.187 0-3.695 1.74-3.695 4.469 0 2.751 1.507 4.484 3.672 4.484 1.669 0 2.23-1.034 2.523-1.508h0.1641v1.328h1.281v-11.55zm17.48 0v3.969h1.242v-3.969zm20.76 0v4.266h-0.1172c-0.2932-0.451-0.8088-1.492-2.5-1.492-2.187 0-3.695 1.74-3.695 4.469 0 2.751 1.507 4.484 3.672 4.484 1.669 0 2.23-1.034 2.523-1.508h0.1562v1.328h1.289v-11.55zm44.54 0v11.55h1.328v-5.211c0-1.511 0.9677-2.367 2.281-2.367 1.252 0 2.008 0.7885 2.008 2.164v5.414h1.328v-5.5c0-2.227-1.183-3.273-2.953-3.273-1.364 0-2.141 0.5724-2.547 1.469h-0.1172v-4.242zm-225.5 0.8125v2.078h-1.305v1.125h1.305v5.414c0 1.511 1.216 2.227 2.344 2.227 0.4961 0 0.8118-0.0884 0.9922-0.1564l-0.2656-1.195c-0.1128 0.024-0.3006 0.0704-0.5937 0.0704-0.5863 0-1.148-0.1852-1.148-1.313v-5.047h1.852v-1.125h-1.852v-2.078zm67.7 0v2.078h-1.312v1.125h1.312v5.414c0 1.511 1.216 2.227 2.344 2.227 0.4961 0 0.8118-0.0884 0.9922-0.1564l-0.2734-1.195c-0.1128 0.024-0.2928 0.0704-0.5859 0.0704-0.5863 0-1.148-0.1852-1.148-1.313v-5.047h1.852v-1.125h-1.852v-2.078zm-20.12 1.938c-1.037 0-1.942 0.5884-2.258 1.445h-0.0859v-1.313h-1.289v8.664h1.328v-5.477c0-1.173 0.9247-2.031 2.187-2.031 0.3552 0 0.7223 0.0636 0.8125 0.086v-1.352c-0.1522-0.0125-0.498-0.024-0.6953-0.024zm110.9 0c-1.037 0-1.942 0.5884-2.258 1.445h-0.0859v-1.313h-1.289v8.664h1.336v-5.477c0-1.173 0.9247-2.031 2.187-2.031 0.3552 0 0.7223 0.0636 0.8125 0.086v-1.352c-0.1522-0.0125-0.5058-0.024-0.7031-0.024zm-197.7 0.024c-1.308 0-2.118 0.5893-2.523 1.469h-0.1172v-1.352h-1.281v8.656h1.328v-5.211c0-1.511 0.9369-2.367 2.211-2.367 1.235 0 1.984 0.8054 1.984 2.164v5.414h1.328v-5.5c0-2.21-1.176-3.273-2.93-3.273zm8.172 0c-1.308 0-2.792 0.4528-3.469 2.031l1.258 0.4531c0.2932-0.6314 0.9894-1.312 2.258-1.312 1.223 0 1.828 0.6472 1.828 1.758v0.0468c0 0.6427-0.6559 0.5861-2.234 0.7891-1.607 0.2084-3.359 0.5625-3.359 2.547 0 1.691 1.307 2.664 2.953 2.664 1.511 0 2.3-0.8112 2.57-1.375h0.0703v1.172h1.328v-5.703c0-2.751-2.098-3.07-3.203-3.07zm21.23 0c-2.345 0-3.898 1.847-3.898 4.508 0 2.661 1.536 4.445 4.039 4.445 1.759 0 3.039-0.8796 3.445-2.187l-1.281-0.3596c-0.3382 0.902-1.121 1.352-2.164 1.352-1.562 0-2.641-1.005-2.703-2.859h6.289v-0.5703c0-3.225-1.923-4.328-3.727-4.328zm17.9 0c-2.345 0-3.93 1.786-3.93 4.492 0 2.683 1.585 4.461 3.93 4.461s3.922-1.778 3.922-4.461c0-2.706-1.577-4.492-3.922-4.492zm22.24 0c-2.345 0-3.906 1.847-3.906 4.508 0 2.661 1.536 4.445 4.039 4.445 1.759 0 3.047-0.8796 3.453-2.187l-1.289-0.3596c-0.3382 0.902-1.121 1.352-2.164 1.352-1.562 0-2.641-1.005-2.703-2.859h6.289v-0.5703c0-3.225-1.915-4.328-3.719-4.328zm8.734 0c-2.345 0-3.898 1.854-3.898 4.492 0 2.593 1.487 4.461 3.922 4.461 1.917 0 3.181-1.17 3.406-2.703h-1.336c-0.248 0.9471-1.033 1.508-2.07 1.508-1.578 0-2.594-1.306-2.594-3.312 0-1.962 1.038-3.25 2.594-3.25 1.173 0 1.867 0.7263 2.07 1.516h1.336c-0.2255-1.624-1.603-2.711-3.43-2.711zm22.8 0c-1.691 0-2.207 1.041-2.5 1.492h-0.1563v-1.375h-1.289v11.91h1.336v-4.578h0.1093c0.2932 0.4736 0.8548 1.508 2.523 1.508 2.165 0 3.68-1.733 3.68-4.484 0-2.729-1.516-4.469-3.703-4.469zm40.36 0c-2.345 0-3.898 1.847-3.898 4.508 0 2.661 1.536 4.445 4.039 4.445 1.759 0 3.039-0.8796 3.445-2.187l-1.281-0.3596c-0.3382 0.902-1.121 1.352-2.164 1.352-1.562 0-2.641-1.005-2.703-2.859h6.289v-0.5703c0-3.225-1.923-4.328-3.727-4.328zm12.27 0c-1.827 0-3.18 1.042-3.18 2.508 0 1.195 0.7071 1.995 2.297 2.367l1.445 0.336c0.8738 0.2028 1.281 0.6212 1.281 1.219 0 0.7441-0.791 1.352-2.031 1.352-1.088 0-1.763-0.4682-2-1.398l-1.266 0.3124c0.3101 1.471 1.519 2.258 3.289 2.258 2.013 0 3.383-1.1 3.383-2.594 0-1.206-0.7522-1.966-2.297-2.344l-1.289-0.3124c-1.026-0.2536-1.484-0.6004-1.484-1.266 0-0.7441 0.7917-1.289 1.852-1.289 1.161 0 1.636 0.6446 1.867 1.242l1.195-0.336c-0.4172-1.229-1.349-2.055-3.062-2.055zm8.219 0c-2.345 0-3.906 1.847-3.906 4.508 0 2.661 1.536 4.445 4.039 4.445 1.759 0 3.039-0.8796 3.445-2.187l-1.281-0.3596c-0.3382 0.902-1.121 1.352-2.164 1.352-1.562 0-2.641-1.005-2.703-2.859h6.289v-0.5703c0-3.225-1.915-4.328-3.719-4.328zm9.164 0c-1.308 0-2.125 0.5893-2.531 1.469h-0.1093v-1.352h-1.281v8.656h1.328v-5.211c0-1.511 0.9369-2.367 2.211-2.367 1.235 0 1.984 0.8054 1.984 2.164v5.414h1.328v-5.5c0-2.21-1.176-3.273-2.93-3.273zm17.7 0c-2.345 0-3.898 1.847-3.898 4.508 0 2.661 1.536 4.445 4.039 4.445 1.759 0 3.039-0.8796 3.445-2.187l-1.281-0.3596c-0.3382 0.902-1.121 1.352-2.164 1.352-1.562 0-2.641-1.005-2.703-2.859h6.289v-0.5703c0-3.225-1.923-4.328-3.727-4.328zm16.72 0c-1.827 0-3.18 1.042-3.18 2.508 0 1.195 0.7149 1.995 2.305 2.367l1.445 0.336c0.8738 0.2028 1.281 0.6212 1.281 1.219 0 0.7441-0.791 1.352-2.031 1.352-1.088 0-1.771-0.4682-2.008-1.398l-1.258 0.3124c0.31 1.471 1.519 2.258 3.289 2.258 2.013 0 3.383-1.1 3.383-2.594 0-1.206-0.7522-1.966-2.297-2.344l-1.289-0.3124c-1.026-0.2536-1.484-0.6004-1.484-1.266 0-0.7441 0.7839-1.289 1.844-1.289 1.161 0 1.644 0.6446 1.875 1.242l1.195-0.336c-0.4172-1.229-1.357-2.055-3.07-2.055zm21.52 0c-2.345 0-3.898 1.847-3.898 4.508 0 2.661 1.528 4.445 4.031 4.445 1.759 0 3.047-0.8796 3.453-2.187l-1.281-0.3596c-0.3382 0.902-1.129 1.352-2.172 1.352-1.562 0-2.633-1.005-2.695-2.859h6.281v-0.5703c0-3.225-1.915-4.328-3.719-4.328zm20.05 0c-2.345 0-3.898 1.854-3.898 4.492 0 2.593 1.486 4.461 3.922 4.461 1.917 0 3.181-1.17 3.406-2.703h-1.328c-0.248 0.9471-1.041 1.508-2.078 1.508-1.578 0-2.594-1.306-2.594-3.312 0-1.962 1.038-3.25 2.594-3.25 1.173 0 1.875 0.7263 2.078 1.516h1.328c-0.2255-1.624-1.603-2.711-3.43-2.711zm8.359 0c-2.345 0-3.906 1.847-3.906 4.508 0 2.661 1.536 4.445 4.039 4.445 1.759 0 3.047-0.8796 3.453-2.187l-1.289-0.3596c-0.3384 0.902-1.121 1.352-2.164 1.352-1.562 0-2.641-1.005-2.703-2.859h6.289v-0.5703c0-3.225-1.915-4.328-3.719-4.328zm21.38 0c-1.308 0-2.792 0.4528-3.469 2.031l1.258 0.4531c0.2932-0.6314 0.9894-1.312 2.258-1.312 1.223 0 1.828 0.6472 1.828 1.758v0.0468c0 0.6427-0.6559 0.5861-2.234 0.7891-1.607 0.2084-3.359 0.5625-3.359 2.547 0 1.691 1.307 2.664 2.953 2.664 1.511 0 2.3-0.8112 2.57-1.375h0.0704v1.172h1.328v-5.703c0-2.751-2.098-3.07-3.203-3.07zm8.195 0c-1.827 0-3.18 1.042-3.18 2.508 0 1.195 0.7149 1.995 2.305 2.367l1.438 0.336c0.8738 0.2028 1.289 0.6212 1.289 1.219 0 0.7441-0.791 1.352-2.031 1.352-1.088 0-1.771-0.4682-2.008-1.398l-1.258 0.3124c0.31 1.471 1.519 2.258 3.289 2.258 2.013 0 3.383-1.1 3.383-2.594 0-1.206-0.7522-1.966-2.297-2.344l-1.289-0.3124c-1.026-0.2536-1.484-0.6004-1.484-1.266 0-0.7441 0.7839-1.289 1.844-1.289 1.161 0 1.644 0.6446 1.875 1.242l1.195-0.336c-0.4172-1.229-1.357-2.055-3.07-2.055zm-196.9 0.1172 3.203 8.703-0.25 0.6719c-0.4848 1.319-1.077 1.443-2.047 1.195l-0.3438 1.172c0.1353 0.0676 0.5256 0.164 0.9766 0.164 1.201 0 2.045-0.637 2.547-1.984l3.672-9.922h-1.445l-2.391 6.898h-0.0859l-2.391-6.898zm143.2 0 3.203 8.656h1.352l3.203-8.656h-1.445l-2.391 6.898h-0.0859l-2.391-6.898zm9.008 0v8.656h1.328v-8.656zm-127.8 0.2892c-0.5581 0-1.008 0.4575-1.008 1.016 0 0.5581 0.4497 1.016 1.008 1.016 0.5581 0 1.016-0.4575 1.016-1.016 0-0.5581-0.4575-1.016-1.016-1.016zm-95.26 0.7891c1.691 0 2.523 1.423 2.523 3.25 0 1.849-0.8548 3.312-2.523 3.312-1.601 0-2.484-1.351-2.484-3.312 0-1.939 0.8608-3.25 2.484-3.25zm12.13 0c1.443 0 2.375 1.081 2.375 2.547h-4.938c0.0902-1.347 1.04-2.547 2.563-2.547zm17.9 0c1.781 0 2.586 1.561 2.586 3.297s-0.8045 3.266-2.586 3.266c-1.781 0-2.594-1.529-2.594-3.266s0.8123-3.297 2.594-3.297zm12.85 0c1.624 0 2.477 1.311 2.477 3.25 0 1.962-0.8756 3.312-2.477 3.312-1.669 0-2.531-1.463-2.531-3.312 0-1.827 0.84-3.25 2.531-3.25zm9.391 0c1.443 0 2.367 1.081 2.367 2.547h-4.937c0.0902-1.347 1.048-2.547 2.57-2.547zm31.38 0c1.691 0 2.523 1.423 2.523 3.25 0 1.849-0.8548 3.312-2.523 3.312-1.601 0-2.477-1.351-2.477-3.312 0-1.939 0.853-3.25 2.477-3.25zm40.52 0c1.443 0 2.375 1.081 2.375 2.547h-4.938c0.0901-1.347 1.04-2.547 2.562-2.547zm20.49 0c1.443 0 2.367 1.081 2.367 2.547h-4.938c0.0901-1.347 1.048-2.547 2.57-2.547zm17.47 0c1.624 0 2.484 1.311 2.484 3.25 0 1.962-0.8834 3.312-2.484 3.312-1.669 0-2.523-1.463-2.523-3.312 0-1.827 0.8322-3.25 2.523-3.25zm9.391 0c1.443 0 2.367 1.081 2.367 2.547h-4.93c0.0902-1.347 1.04-2.547 2.562-2.547zm28.85 0c1.624 0 2.484 1.311 2.484 3.25 0 1.962-0.8834 3.312-2.484 3.312-1.669 0-2.523-1.463-2.523-3.312 0-1.827 0.8322-3.25 2.523-3.25zm9.391 0c1.443 0 2.367 1.081 2.367 2.547h-4.93c0.0901-1.347 1.04-2.547 2.562-2.547zm28.41 0c1.443 0 2.367 1.081 2.367 2.547h-4.938c0.0902-1.347 1.048-2.547 2.57-2.547zm-245.4 3.227v1.219c0 1.082-0.859 2.141-2.438 2.141-1.06 0-1.828-0.4739-1.828-1.398 0-1.015 0.9236-1.333 1.961-1.469 0.5637-0.0677 2.079-0.2216 2.305-0.4922zm268.7 0v1.219c0 1.082-0.859 2.141-2.438 2.141-1.06 0-1.828-0.4739-1.828-1.398 0-1.015 0.9236-1.333 1.961-1.469 0.5637-0.0677 2.079-0.2216 2.305-0.4922zm-166.2 2.414c-0.5581 0-1.008 0.4576-1.008 1.016 0 0.5581 0.4497 1.016 1.008 1.016 0.5581 0 1.016-0.4575 1.016-1.016 0-0.5581-0.4575-1.016-1.016-1.016zm1.438 7.953c-1.24 0-2.438 0.7461-2.438 2.234v1.195h-1.398v1.125h1.398v7.531h1.328v-7.531h1.938v-1.125h-1.938v-0.8828c0-0.8569 0.3628-1.305 1.242-1.305 0.3834 0 0.6069 0.088 0.7422 0.1328l0.3828-1.148c-0.203-0.0904-0.6039-0.2268-1.258-0.2268zm35.15 0.1796c-0.5186 0-0.9453 0.4024-0.9453 0.8984 0 0.4961 0.4267 0.9062 0.9453 0.9062s0.9453-0.4101 0.9453-0.9062c0-0.4961-0.4267-0.8984-0.9453-0.8984zm-96.05 0.3592v11.55h1.336v-5.211c0-1.511 0.9599-2.367 2.273-2.367 1.252 0 2.008 0.7885 2.008 2.164v5.414h1.328v-5.5c0-2.227-1.183-3.273-2.953-3.273-1.364 0-2.141 0.5724-2.547 1.469h-0.1093v-4.242zm21.57 0v11.55h1.328v-3.242l0.9297-0.8593 3.242 4.102h1.695l-3.93-4.961 3.656-3.695h-1.648l-3.789 3.852h-0.1562v-6.742zm64.94 0v11.55h1.328v-5.211c0-1.511 0.9677-2.367 2.281-2.367 1.252 0 2 0.7885 2 2.164v5.414h1.336v-5.5c0-2.227-1.183-3.273-2.953-3.273-1.364 0-2.149 0.5724-2.555 1.469h-0.1093v-4.242zm97.87 0 0.0937 2.484-2.102-1.336-0.5391 0.9531 2.211 1.148-2.211 1.148 0.5391 0.9453 2.102-1.328-0.0937 2.477h1.086l-0.0937-2.477 2.094 1.328 0.5469-0.9453-2.211-1.148 2.211-1.148-0.5469-0.9531-2.094 1.336 0.0937-2.484zm7.43 0 0.0859 2.484-2.094-1.336-0.5391 0.9531 2.211 1.148-2.211 1.148 0.5391 0.9453 2.094-1.328-0.0859 2.477h1.078l-0.0859-2.477 2.094 1.328 0.5469-0.9453-2.211-1.148 2.211-1.148-0.5469-0.9531-2.094 1.336 0.0859-2.484zm-260.9 0.8125v2.078h-1.312v1.125h1.312v5.414c0 1.511 1.216 2.227 2.344 2.227 0.4961 0 0.8118-0.0883 0.9922-0.1564l-0.2734-1.195c-0.1128 0.024-0.2928 0.0704-0.5859 0.0704-0.5863 0-1.148-0.1852-1.148-1.312v-5.047h1.852v-1.125h-1.852v-2.078zm34.53 0v2.078h-1.312v1.125h1.312v5.414c0 1.511 1.216 2.227 2.344 2.227 0.4961 0 0.8118-0.0883 0.9922-0.1564l-0.2734-1.195c-0.1128 0.024-0.2928 0.0704-0.5859 0.0704-0.5863 0-1.148-0.1852-1.148-1.312v-5.047h1.852v-1.125h-1.852v-2.078zm29.68 0v2.078h-1.305v1.125h1.305v5.414c0 1.511 1.224 2.227 2.352 2.227 0.4961 0 0.8118-0.0883 0.9922-0.1564l-0.2734-1.195c-0.1127 0.024-0.2928 0.0704-0.5859 0.0704-0.5863 0-1.148-0.1852-1.148-1.312v-5.047h1.844v-1.125h-1.844v-2.078zm86.51 0v2.078h-1.313v1.125h1.313v5.414c0 1.511 1.216 2.227 2.344 2.227 0.4961 0 0.8118-0.0883 0.9922-0.1564l-0.2734-1.195c-0.1128 0.024-0.2928 0.0704-0.5859 0.0704-0.5863 0-1.148-0.1852-1.148-1.312v-5.047h1.852v-1.125h-1.852v-2.078zm-6.313 1.937c-1.037 0-1.942 0.5884-2.258 1.445h-0.0859v-1.313h-1.289v8.664h1.328v-5.477c0-1.173 0.9247-2.031 2.188-2.031 0.3552 0 0.7223 0.0636 0.8125 0.086v-1.352c-0.1522-0.0125-0.498-0.024-0.6953-0.024zm-158.8 0.024c-1.308 0-2.125 0.5893-2.531 1.469h-0.1094v-1.352h-1.289v8.656h1.336v-5.211c0-1.511 0.9291-2.367 2.203-2.367 1.235 0 1.984 0.8054 1.984 2.164v5.414h1.336v-5.5c0-2.21-1.176-3.273-2.93-3.273zm8.375 0c-2.345 0-3.922 1.786-3.922 4.492 0 2.683 1.577 4.461 3.922 4.461 2.345 0 3.922-1.778 3.922-4.461 0-2.706-1.577-4.492-3.922-4.492zm17.73 0c-1.827 0-3.18 1.042-3.18 2.508 0 1.195 0.7071 1.995 2.297 2.367l1.445 0.336c0.8738 0.2028 1.281 0.6212 1.281 1.219 0 0.7441-0.7832 1.352-2.023 1.352-1.088 0-1.771-0.4683-2.008-1.398l-1.266 0.3124c0.31 1.471 1.519 2.258 3.289 2.258 2.013 0 3.383-1.1 3.383-2.594 0-1.206-0.7522-1.966-2.297-2.344l-1.289-0.3124c-1.026-0.2536-1.484-0.6004-1.484-1.266 0-0.7441 0.7917-1.289 1.852-1.289 1.161 0 1.636 0.6446 1.867 1.242l1.195-0.336c-0.4172-1.229-1.349-2.055-3.062-2.055zm8.219 0c-2.345 0-3.906 1.847-3.906 4.508 0 2.661 1.536 4.445 4.039 4.445 1.759 0 3.047-0.8796 3.453-2.187l-1.289-0.3592c-0.3382 0.902-1.121 1.352-2.164 1.352-1.562 0-2.641-1.012-2.703-2.867h6.289v-0.5625c0-3.225-1.915-4.328-3.719-4.328zm9.164 0c-1.308 0-2.118 0.5893-2.523 1.469h-0.1172v-1.352h-1.281v8.656h1.328v-5.211c0-1.511 0.9369-2.367 2.211-2.367 1.235 0 1.984 0.8054 1.984 2.164v5.414h1.328v-5.5c0-2.21-1.176-3.273-2.93-3.273zm25.86 0c-1.827 0-3.18 1.042-3.18 2.508 0 1.195 0.7149 1.995 2.305 2.367l1.437 0.336c0.8738 0.2028 1.289 0.6212 1.289 1.219 0 0.7441-0.791 1.352-2.031 1.352-1.088 0-1.771-0.4683-2.008-1.398l-1.258 0.3124c0.31 1.471 1.519 2.258 3.289 2.258 2.013 0 3.383-1.1 3.383-2.594 0-1.206-0.7522-1.966-2.297-2.344l-1.289-0.3124c-1.026-0.2536-1.484-0.6004-1.484-1.266 0-0.7441 0.7839-1.289 1.844-1.289 1.161 0 1.644 0.6446 1.875 1.242l1.195-0.336c-0.4172-1.229-1.357-2.055-3.07-2.055zm26.49 0c-2.345 0-3.898 1.847-3.898 4.508 0 2.661 1.536 4.445 4.039 4.445 1.759 0 3.039-0.8796 3.445-2.187l-1.281-0.3592c-0.3382 0.902-1.121 1.352-2.164 1.352-1.562 0-2.641-1.012-2.703-2.867h6.289v-0.5625c0-3.225-1.923-4.328-3.727-4.328zm20.46 0c-2.345 0-3.898 1.847-3.898 4.508 0 2.661 1.536 4.445 4.039 4.445 1.759 0 3.039-0.8796 3.445-2.187l-1.281-0.3592c-0.3382 0.902-1.121 1.352-2.164 1.352-1.562 0-2.641-1.012-2.703-2.867h6.289v-0.5625c0-3.225-1.923-4.328-3.727-4.328zm16.38 0c-1.827 0-3.18 1.042-3.18 2.508 0 1.195 0.7071 1.995 2.297 2.367l1.445 0.336c0.8738 0.2028 1.289 0.6212 1.289 1.219 0 0.7441-0.791 1.352-2.031 1.352-1.088 0-1.771-0.4683-2.008-1.398l-1.266 0.3124c0.31 1.471 1.527 2.258 3.297 2.258 2.013 0 3.383-1.1 3.383-2.594 0-1.206-0.76-1.966-2.305-2.344l-1.281-0.3124c-1.026-0.2536-1.492-0.6004-1.492-1.266 0-0.7441 0.7917-1.289 1.852-1.289 1.161 0 1.636 0.6446 1.867 1.242l1.195-0.336c-0.4172-1.229-1.349-2.055-3.063-2.055zm17.05 0c-2.345 0-3.922 1.786-3.922 4.492 0 2.683 1.577 4.461 3.922 4.461s3.922-1.778 3.922-4.461c0-2.706-1.577-4.492-3.922-4.492zm35.45 0c-1.827 0-3.18 1.042-3.18 2.508 0 1.195 0.7071 1.995 2.297 2.367l1.445 0.336c0.8738 0.2028 1.289 0.6212 1.289 1.219 0 0.7441-0.791 1.352-2.031 1.352-1.088 0-1.771-0.4683-2.008-1.398l-1.266 0.3124c0.3101 1.471 1.527 2.258 3.297 2.258 2.013 0 3.383-1.1 3.383-2.594 0-1.206-0.76-1.966-2.305-2.344l-1.281-0.3124c-1.026-0.2536-1.492-0.6004-1.492-1.266 0-0.7441 0.7917-1.289 1.852-1.289 1.161 0 1.644 0.6446 1.875 1.242l1.195-0.336c-0.4172-1.229-1.357-2.055-3.07-2.055zm12.4 0c-1.127 0-1.96 0.5442-2.32 1.469h-0.1093v-1.352h-1.289v8.656h1.328v-5.414c0-1.268 0.9315-2.164 1.969-2.164 1.009 0 1.711 0.6619 1.711 1.648v5.93h1.352v-5.641c0-1.116 0.6964-1.937 1.914-1.937 0.9471 0 1.766 0.5015 1.766 1.781v5.797h1.328v-5.797c0-2.035-1.096-2.977-2.641-2.977-1.24 0-2.148 0.5724-2.594 1.469h-0.0859c-0.4285-0.9245-1.189-1.469-2.328-1.469zm13.07 0c-2.345 0-3.898 1.847-3.898 4.508 0 2.661 1.528 4.445 4.031 4.445 1.759 0 3.047-0.8796 3.453-2.187l-1.289-0.3592c-0.3382 0.902-1.121 1.352-2.164 1.352-1.562 0-2.633-1.012-2.695-2.867h6.281v-0.5625c0-3.225-1.915-4.328-3.719-4.328zm8.305 0c-1.827 0-3.18 1.042-3.18 2.508 0 1.195 0.7149 1.995 2.305 2.367l1.445 0.336c0.8738 0.2028 1.281 0.6212 1.281 1.219 0 0.7441-0.791 1.352-2.031 1.352-1.088 0-1.771-0.4683-2.008-1.398l-1.258 0.3124c0.3101 1.471 1.519 2.258 3.289 2.258 2.013 0 3.383-1.1 3.383-2.594 0-1.206-0.7522-1.966-2.297-2.344l-1.289-0.3124c-1.026-0.2536-1.484-0.6004-1.484-1.266 0-0.7441 0.7839-1.289 1.844-1.289 1.161 0 1.644 0.6446 1.875 1.242l1.195-0.336c-0.4172-1.229-1.357-2.055-3.07-2.055zm7.797 0c-1.827 0-3.18 1.042-3.18 2.508 0 1.195 0.7071 1.995 2.297 2.367l1.445 0.336c0.8738 0.2028 1.281 0.6212 1.281 1.219 0 0.7441-0.7832 1.352-2.023 1.352-1.088 0-1.771-0.4683-2.008-1.398l-1.266 0.3124c0.31 1.471 1.519 2.258 3.289 2.258 2.013 0 3.383-1.1 3.383-2.594 0-1.206-0.7522-1.966-2.297-2.344l-1.289-0.3124c-1.026-0.2536-1.484-0.6004-1.484-1.266 0-0.7441 0.7917-1.289 1.852-1.289 1.161 0 1.636 0.6446 1.867 1.242l1.195-0.336c-0.4172-1.229-1.349-2.055-3.062-2.055zm8.039 0c-1.308 0-2.8 0.4528-3.477 2.031l1.266 0.4531c0.2932-0.6314 0.9816-1.312 2.25-1.312 1.223 0 1.828 0.6472 1.828 1.758v0.0468c0 0.6427-0.6559 0.5861-2.234 0.7891-1.607 0.2084-3.359 0.5625-3.359 2.547 0 1.691 1.307 2.664 2.953 2.664 1.511 0 2.3-0.8112 2.57-1.375h0.0702v1.172h1.328v-5.703c0-2.751-2.09-3.07-3.195-3.07zm8.414 0c-2.187 0-3.695 1.738-3.695 4.398 0 2.706 1.583 4.242 3.68 4.242 1.691 0 2.23-0.9952 2.523-1.469h0.1093v1.758c0 1.443-1.016 2.102-2.414 2.102-1.573 0-2.121-0.8333-2.477-1.312l-1.063 0.7422c0.5412 0.9076 1.605 1.742 3.539 1.742 2.075 0 3.75-0.9473 3.75-3.18v-8.906h-1.289v1.375h-0.1328c-0.2932-0.451-0.84-1.492-2.531-1.492zm9.375 0c-2.345 0-3.906 1.847-3.906 4.508 0 2.661 1.536 4.445 4.039 4.445 1.759 0 3.047-0.8796 3.453-2.187l-1.289-0.3592c-0.3382 0.902-1.121 1.352-2.164 1.352-1.562 0-2.641-1.012-2.703-2.867h6.289v-0.5625c0-3.225-1.915-4.328-3.719-4.328zm-195 0.1172v5.5c0 2.21 1.173 3.266 2.797 3.266 1.308 0 2.164-0.6987 2.57-1.578h0.0937v1.469h1.328v-8.656h-1.328v5.117c0 1.624-1.242 2.367-2.234 2.367-1.105 0-1.898-0.8154-1.898-2.078v-5.406zm63.03 0 3.203 8.703-0.25 0.6719c-0.4848 1.319-1.077 1.443-2.047 1.195l-0.3438 1.172c0.1353 0.0677 0.5256 0.164 0.9766 0.164 1.201 0 2.045-0.637 2.547-1.984l3.672-9.922h-1.445l-2.391 6.898h-0.0859l-2.391-6.898zm58.25 0v8.656h1.336v-8.656zm-170.5 1.078c1.781 0 2.594 1.561 2.594 3.297 0 1.736-0.8123 3.266-2.594 3.266-1.781 0-2.594-1.529-2.594-3.266 0-1.736 0.8123-3.297 2.594-3.297zm25.95 0c1.443 0 2.367 1.081 2.367 2.547h-4.937c0.0902-1.347 1.048-2.547 2.57-2.547zm61.52 0c1.443 0 2.367 1.081 2.367 2.547h-4.93c0.0902-1.347 1.04-2.547 2.563-2.547zm20.46 0c1.443 0 2.375 1.081 2.375 2.547h-4.938c0.0901-1.347 1.04-2.547 2.562-2.547zm33.43 0c1.781 0 2.594 1.561 2.594 3.297 0 1.736-0.8123 3.266-2.594 3.266-1.781 0-2.594-1.529-2.594-3.266 0-1.736 0.8123-3.297 2.594-3.297zm60.91 0c1.443 0 2.367 1.081 2.367 2.547h-4.93c0.0902-1.347 1.04-2.547 2.562-2.547zm32.72 0c1.624 0 2.477 1.308 2.477 3.18 0 1.917-0.8756 3.07-2.477 3.07-1.669 0-2.531-1.266-2.531-3.07 0-1.759 0.84-3.18 2.531-3.18zm9.211 0c1.443 0 2.367 1.081 2.367 2.547h-4.937c0.0901-1.347 1.048-2.547 2.57-2.547zm-15.92 3.227v1.219c0 1.082-0.859 2.141-2.437 2.141-1.06 0-1.82-0.4739-1.82-1.398 0-1.015 0.9236-1.333 1.961-1.469 0.5637-0.0676 2.071-0.2216 2.297-0.4922zm22.13 2.414c-0.5581 0-1.016 0.4576-1.016 1.016 0 0.5581 0.4575 1.008 1.016 1.008 0.5581 0 1.016-0.4497 1.016-1.008 0-0.5581-0.4575-1.016-1.016-1.016z"/>
    <path fill="url(#secondaryText)"
        d="m218.8 55c-0.9922 0-1.953 0.5985-1.953 1.789v0.9532h-1.117v0.9062h1.117v6.023h1.062v-6.023h1.555v-0.9062h-1.555v-0.7032c0-0.6855 0.2886-1.047 0.9922-1.047 0.3067 0 0.4933 0.0727 0.6016 0.1092l0.3047-0.9219c-0.1624-0.072-0.4846-0.1796-1.008-0.1796zm-54.55 0.1484c-0.4149 0-0.7578 0.322-0.7578 0.7188 0 0.3968 0.3429 0.7187 0.7578 0.7187 0.4149 0 0.7578-0.322 0.7578-0.7187 0-0.3968-0.3429-0.7188-0.7578-0.7188zm176.9 0c-0.4149 0-0.7578 0.322-0.7578 0.7188 0 0.3968 0.3432 0.7187 0.7578 0.7187 0.4149 0 0.7578-0.322 0.7578-0.7187 0-0.3968-0.3428-0.7188-0.7578-0.7188zm-294.1 0.2892v9.234h1.125v-3.609h2.016c0.08117 0 0.1577 4e-3 0.2344 0l1.953 3.609h1.297l-2.086-3.813c1.177-0.4014 1.727-1.367 1.727-2.594 0-1.633-0.9759-2.828-3.141-2.828zm138.3 0v9.234h1.062v-2.594l0.7422-0.6875 2.594 3.281h1.352l-3.141-3.969 2.922-2.961h-1.312l-3.031 3.086h-0.125v-5.391zm104.8 0v9.234h1.062v-4.164c0-1.209 0.7695-1.898 1.82-1.898 1.001 0 1.609 0.634 1.609 1.734v4.328h1.062v-4.398c0-1.781-0.9511-2.617-2.367-2.617-1.091 0-1.707 0.4548-2.031 1.172h-0.0937v-3.391zm-180.4 0.6484v1.656h-1.047v0.9062h1.047v4.328c0 1.209 0.973 1.781 1.875 1.781 0.3969 0 0.6526-0.0704 0.7969-0.1248l-0.2188-0.9531c-0.0902 0.02-0.2342 0.0547-0.4687 0.0547-0.469 0-0.9219-0.1448-0.9219-1.047v-4.039h1.484v-0.9062h-1.484v-1.656zm49.86 0v1.656h-1.039v0.9062h1.039v4.328c0 1.209 0.9808 1.781 1.883 1.781 0.3969 0 0.6448-0.0704 0.7891-0.1248l-0.2188-0.9531c-0.0901 0.02-0.2342 0.0547-0.4688 0.0547-0.469 0-0.914-0.1448-0.914-1.047v-4.039h1.477v-0.9062h-1.477v-1.656zm126.2 0v1.656h-1.047v0.9062h1.047v4.328c0 1.209 0.973 1.781 1.875 1.781 0.3969 0 0.6526-0.0704 0.7969-0.1248l-0.2188-0.9531c-0.0901 0.02-0.2342 0.0547-0.4688 0.0547-0.469 0-0.9219-0.1448-0.9219-1.047v-4.039h1.484v-0.9062h-1.484v-1.656zm-237.6 0.3436h1.961c1.497 0 2.078 0.7265 2.078 1.836 0 1.109-0.5754 1.789-2.055 1.789h-1.984zm22.92 1.203c-0.8298 0-1.552 0.4707-1.805 1.156h-0.07033v-1.047h-1.023v6.93h1.062v-4.383c0-0.9381 0.7398-1.625 1.75-1.625 0.2841 0 0.5763 0.0523 0.6484 0.0703v-1.078c-0.1218-7e-3 -0.4047-0.024-0.5625-0.024zm71.17 0c-0.8298 0-1.552 0.4707-1.805 1.156h-0.0702v-1.047h-1.031v6.93h1.062v-4.383c0-0.9381 0.7398-1.625 1.75-1.625 0.2841 0 0.5763 0.0523 0.6484 0.0703v-1.078c-0.1218-7e-3 -0.3969-0.024-0.5547-0.024zm81.62 0c-0.8298 0-1.552 0.4707-1.805 1.156h-0.0702v-1.047h-1.023v6.93h1.062v-4.383c0-0.9381 0.7398-1.625 1.75-1.625 0.2841 0 0.5763 0.0523 0.6484 0.0703v-1.078c-0.1217-7e-3 -0.4046-0.024-0.5625-0.024zm48.48 0c-0.8298 0-1.552 0.4707-1.805 1.156h-0.0702v-1.047h-1.031v6.93h1.063v-4.383c0-0.9381 0.7398-1.625 1.75-1.625 0.2841 0 0.5763 0.0523 0.6484 0.0703v-1.078c-0.1218-7e-3 -0.3968-0.024-0.5547-0.024zm35.54 0c-0.8298 0-1.552 0.4707-1.805 1.156h-0.0703v-1.047h-1.031v6.93h1.063v-4.383c0-0.9381 0.7398-1.625 1.75-1.625 0.2841 0 0.5763 0.0523 0.6484 0.0703v-1.078c-0.1218-7e-3 -0.3968-0.024-0.5547-0.024zm-250.2 0.024c-1.876 0-3.125 1.473-3.125 3.602s1.224 3.555 3.227 3.555c1.407 0 2.441-0.7037 2.766-1.75l-1.031-0.2892c-0.2706 0.7216-0.9 1.086-1.734 1.086-1.249 0-2.107-0.8053-2.156-2.289h5.031v-0.4531c0-2.58-1.533-3.461-2.977-3.461zm17.75 0c-1.876 0-3.125 1.473-3.125 3.602s1.232 3.555 3.234 3.555c1.407 0 2.433-0.7037 2.758-1.75l-1.031-0.2892c-0.2706 0.7216-0.8922 1.086-1.727 1.086-1.249 0-2.114-0.8053-2.164-2.289h5.031v-0.4531c0-2.58-1.533-3.461-2.977-3.461zm7.234 0c-1.75 0-2.961 1.388-2.961 3.57 0 2.201 1.206 3.586 2.938 3.586 1.335 0 1.789-0.8243 2.023-1.203h0.09377v3.656h1.062v-9.523h-1.031v1.102h-0.125c-0.2345-0.3608-0.647-1.188-2-1.188zm15.28 0c-1.876 0-3.125 1.473-3.125 3.602s1.224 3.555 3.227 3.555c1.407 0 2.441-0.7037 2.766-1.75l-1.031-0.2892c-0.2706 0.7216-0.9 1.086-1.734 1.086-1.249 0-2.107-0.8053-2.156-2.289h5.031v-0.4531c0-2.58-1.533-3.461-2.977-3.461zm7.047 0c-1.461 0-2.539 0.8274-2.539 2 0 0.9561 0.5641 1.593 1.836 1.891l1.156 0.2736c0.699 0.1624 1.031 0.4985 1.031 0.9766 0 0.5953-0.6328 1.078-1.625 1.078-0.8704 0-1.42-0.3732-1.609-1.117l-1.008 0.25c0.248 1.177 1.217 1.805 2.633 1.805 1.61 0 2.711-0.8751 2.711-2.07 0-0.9651-0.608-1.573-1.844-1.875l-1.031-0.258c-0.8208-0.2028-1.188-0.4756-1.188-1.008 0-0.5953 0.6287-1.031 1.477-1.031 0.929 0 1.315 0.5141 1.5 0.9922l0.9531-0.2656c-0.3337-0.9832-1.082-1.641-2.453-1.641zm15.17 0c-1.876 0-3.117 1.473-3.117 3.602s1.224 3.555 3.227 3.555c1.407 0 2.433-0.7037 2.758-1.75l-1.023-0.2892c-0.2706 0.7216-0.9 1.086-1.734 1.086-1.249 0-2.107-0.8053-2.156-2.289h5.023v-0.4531c0-2.58-1.533-3.461-2.977-3.461zm7.742 0c-1.046 0-1.699 0.4683-2.023 1.172h-0.086v-1.086h-1.031v6.93h1.063v-4.164c0-1.209 0.7542-1.898 1.773-1.898 0.9877 0 1.586 0.6475 1.586 1.734v4.328h1.062v-4.406c0-1.768-0.9411-2.609-2.344-2.609zm7.086 0c-1.876 0-3.117 1.475-3.117 3.586 0 2.075 1.192 3.57 3.141 3.57 1.533 0 2.538-0.9373 2.719-2.164h-1.062c-0.1985 0.7577-0.8264 1.211-1.656 1.211-1.263 0-2.078-1.043-2.078-2.648 0-1.569 0.8334-2.602 2.078-2.602 0.9381 0 1.494 0.5796 1.656 1.211h1.062c-0.1804-1.299-1.281-2.164-2.742-2.164zm19.47 0c-1.353 0-1.765 0.8267-2 1.188h-0.1328v-1.102h-1.023v9.523h1.062v-3.656h0.0937c0.2345 0.3788 0.6807 1.203 2.016 1.203 1.732 0 2.945-1.385 2.945-3.586 0-2.183-1.211-3.57-2.961-3.57zm15.02 0c-1.876 0-3.133 1.421-3.133 3.586 0 2.147 1.257 3.57 3.133 3.57 1.876 0 3.141-1.424 3.141-3.57 0-2.165-1.264-3.586-3.141-3.586zm7.906 0c-1.046 0-1.699 0.4683-2.023 1.172h-0.0859v-1.086h-1.031v6.93h1.062v-4.164c0-1.209 0.7542-1.898 1.773-1.898 0.9877 0 1.586 0.6475 1.586 1.734v4.328h1.062v-4.406c0-1.768-0.9412-2.609-2.344-2.609zm17.28 0c-1.876 0-3.125 1.473-3.125 3.602s1.232 3.555 3.234 3.555c1.407 0 2.433-0.7037 2.758-1.75l-1.031-0.2892c-0.2706 0.7216-0.8922 1.086-1.727 1.086-1.249 0-2.114-0.8053-2.164-2.289h5.031v-0.4531c0-2.58-1.533-3.461-2.977-3.461zm13.91 0c-1.461 0-2.539 0.8274-2.539 2 0 0.9561 0.5642 1.593 1.836 1.891l1.156 0.2736c0.699 0.1624 1.031 0.4985 1.031 0.9766 0 0.5953-0.6328 1.078-1.625 1.078-0.8704 0-1.42-0.3732-1.609-1.117l-1.008 0.25c0.248 1.177 1.217 1.805 2.633 1.805 1.61 0 2.703-0.8751 2.703-2.07 0-0.9651-0.6002-1.573-1.836-1.875l-1.031-0.258c-0.8208-0.2028-1.187-0.4756-1.187-1.008 0-0.5953 0.6287-1.031 1.477-1.031 0.929 0 1.315 0.5141 1.5 0.9922l0.9531-0.2656c-0.3337-0.9832-1.082-1.641-2.453-1.641zm19.66 0c-1.876 0-3.141 1.421-3.141 3.586 0 2.147 1.264 3.57 3.141 3.57 1.876 0 3.141-1.424 3.141-3.57 0-2.165-1.264-3.586-3.141-3.586zm7.742 0c-0.902 0-1.571 0.4322-1.859 1.172h-0.0937v-1.086h-1.023v6.93h1.062v-4.328c0-1.015 0.7405-1.734 1.57-1.734 0.8073 0 1.367 0.5311 1.367 1.32v4.742h1.086v-4.508c0-0.893 0.5571-1.555 1.531-1.555 0.7577 0 1.406 0.398 1.406 1.422v4.641h1.062v-4.641c0-1.628-0.8737-2.375-2.109-2.375-0.9922 0-1.714 0.4548-2.07 1.172h-0.0702c-0.3428-0.7396-0.9484-1.172-1.859-1.172zm21.27 0c-1.876 0-3.141 1.421-3.141 3.586 0 2.147 1.264 3.57 3.141 3.57 1.876 0 3.141-1.424 3.141-3.57 0-2.165-1.264-3.586-3.141-3.586zm23.26 0c-1.876 0-3.141 1.421-3.141 3.586 0 2.147 1.264 3.57 3.141 3.57 1.876 0 3.133-1.424 3.133-3.57 0-2.165-1.257-3.586-3.133-3.586zm19.82 0c-1.876 0-3.117 1.481-3.117 3.609 0 2.129 1.224 3.547 3.227 3.547 1.407 0 2.433-0.7037 2.758-1.75l-1.023-0.2892c-0.2706 0.7216-0.9 1.086-1.734 1.086-1.249 0-2.107-0.8053-2.156-2.289h5.023v-0.4531c0-2.58-1.533-3.461-2.977-3.461zm15.35 0c-1.461 0-2.539 0.8274-2.539 2 0 0.9561 0.5642 1.593 1.836 1.891l1.156 0.2736c0.699 0.1624 1.031 0.4985 1.031 0.9766 0 0.5953-0.6328 1.078-1.625 1.078-0.8704 0-1.42-0.3732-1.609-1.117l-1.008 0.258c0.248 1.177 1.217 1.797 2.633 1.797 1.61 0 2.703-0.8751 2.703-2.07 0-0.9651-0.6002-1.573-1.836-1.875l-1.031-0.258c-0.8208-0.2028-1.187-0.4756-1.187-1.008 0-0.5953 0.6287-1.031 1.477-1.031 0.929 0 1.315 0.5141 1.5 0.9922l0.9531-0.2656c-0.3337-0.9832-1.082-1.641-2.453-1.641zm6.984 0c-1.876 0-3.125 1.481-3.125 3.609 0 2.129 1.232 3.547 3.234 3.547 1.407 0 2.433-0.7037 2.758-1.75l-1.031-0.2892c-0.2706 0.7216-0.8922 1.086-1.727 1.086-1.249 0-2.114-0.8053-2.164-2.289h5.031v-0.4531c0-2.58-1.533-3.461-2.977-3.461zm7.055 0c-1.461 0-2.547 0.8274-2.547 2 0 0.9561 0.572 1.593 1.844 1.891l1.148 0.2736c0.699 0.1624 1.031 0.4985 1.031 0.9766 0 0.5953-0.6328 1.078-1.625 1.078-0.8704 0-1.412-0.3732-1.602-1.117l-1.016 0.258c0.248 1.177 1.224 1.797 2.641 1.797 1.61 0 2.703-0.8751 2.703-2.07 0-0.9651-0.608-1.573-1.844-1.875l-1.023-0.258c-0.8208-0.2028-1.195-0.4756-1.195-1.008 0-0.5953 0.6365-1.031 1.484-1.031 0.929 0 1.307 0.5141 1.492 0.9922l0.9609-0.2656c-0.3337-0.9832-1.082-1.641-2.453-1.641zm6.633 0c-1.461 0-2.539 0.8274-2.539 2 0 0.9561 0.5642 1.593 1.836 1.891l1.156 0.2736c0.699 0.1624 1.031 0.4985 1.031 0.9766 0 0.5953-0.6328 1.078-1.625 1.078-0.8704 0-1.42-0.3732-1.609-1.117l-1.008 0.258c0.248 1.177 1.217 1.797 2.633 1.797 1.61 0 2.711-0.8751 2.711-2.07 0-0.9651-0.608-1.573-1.844-1.875l-1.023-0.258c-0.8208-0.2028-1.195-0.4756-1.195-1.008 0-0.5953 0.6287-1.031 1.477-1.031 0.929 0 1.315 0.5141 1.5 0.9922l0.9609-0.2656c-0.3336-0.9832-1.09-1.641-2.461-1.641zm10.02 0c-1.876 0-3.141 1.421-3.141 3.586 0 2.147 1.264 3.57 3.141 3.57 1.876 0 3.141-1.424 3.141-3.57 0-2.165-1.265-3.586-3.141-3.586zm7.898 0c-1.046 0-1.691 0.4683-2.016 1.172h-0.0936v-1.086h-1.023v6.93h1.062v-4.164c0-1.209 0.7464-1.898 1.766-1.898 0.9877 0 1.586 0.6475 1.586 1.734v4.328h1.07v-4.398c0-1.768-0.949-2.617-2.352-2.617zm6.75 0c-1.461 0-2.547 0.8274-2.547 2 0 0.9561 0.572 1.593 1.844 1.891l1.156 0.2736c0.699 0.1624 1.023 0.4985 1.023 0.9766 0 0.5953-0.625 1.078-1.617 1.078-0.8704 0-1.42-0.3732-1.609-1.117l-1.008 0.258c0.248 1.177 1.217 1.797 2.633 1.797 1.61 0 2.703-0.8751 2.703-2.07 0-0.9651-0.6002-1.573-1.836-1.875l-1.031-0.258c-0.8208-0.2028-1.188-0.4756-1.188-1.008 0-0.5953 0.6287-1.031 1.477-1.031 0.929 0 1.315 0.5141 1.5 0.9922l0.9531-0.2656c-0.3336-0.9832-1.082-1.641-2.453-1.641zm-273.2 0.086v4.406c0 1.768 0.9433 2.609 2.242 2.609 1.046 0 1.73-0.5542 2.055-1.258h0.0703v1.172h1.062v-6.93h-1.063v4.094c0 1.299-0.9953 1.898-1.789 1.898-0.884 0-1.516-0.6539-1.516-1.664v-4.328zm55.92 0 2.562 6.969-0.1953 0.5391c-0.3878 1.055-0.8649 1.152-1.641 0.9531l-0.2735 0.9375c0.1082 0.054 0.4127 0.1248 0.7735 0.1248 0.9606 0 1.638-0.5081 2.039-1.586l2.945-7.937h-1.156l-1.914 5.523h-0.0702l-1.914-5.523zm19.98 0v6.93h1.062v-6.93zm34.85 0 2.562 6.969-0.2031 0.5391c-0.3878 1.055-0.8649 1.152-1.641 0.9531l-0.2734 0.9375c0.1082 0.054 0.4204 0.1248 0.7812 0.1248 0.9606 0 1.638-0.5081 2.039-1.586l2.937-7.937h-1.156l-1.914 5.523h-0.0702l-1.914-5.523zm48.56 0 2.562 6.969-0.2031 0.5391c-0.3878 1.055-0.8649 1.152-1.641 0.9531l-0.2656 0.9375c0.1082 0.054 0.4126 0.1248 0.7734 0.1248 0.9606 0 1.638-0.5081 2.039-1.586l2.938-7.937h-1.156l-1.906 5.523h-0.0781l-1.906-5.523zm14.94 0v4.406c0 1.768 0.9355 2.609 2.234 2.609 1.046 0 1.73-0.5542 2.055-1.258h0.0781v1.172h1.062v-6.93h-1.062v4.094c0 1.299-0.9953 1.898-1.789 1.898-0.884 0-1.516-0.6539-1.516-1.664v-4.328zm78.52 0v6.93h1.063v-6.93zm-282.9 0.8672c1.155 0 1.891 0.8665 1.891 2.039h-3.945c0.07217-1.078 0.837-2.039 2.055-2.039zm17.75 0c1.155 0 1.891 0.8665 1.891 2.039h-3.945c0.07217-1.078 0.837-2.039 2.055-2.039zm7.359 0c1.299 0 1.984 1.05 1.984 2.602 0 1.569-0.7036 2.648-1.984 2.648-1.335 0-2.023-1.169-2.023-2.648 0-1.461 0.6705-2.602 2.023-2.602zm15.16 0c1.155 0 1.891 0.8665 1.891 2.039h-3.945c0.0722-1.078 0.837-2.039 2.055-2.039zm22.22 0c1.155 0 1.898 0.8665 1.898 2.039h-3.945c0.0721-1.078 0.8292-2.039 2.047-2.039zm34.17 0c1.353 0 2.016 1.14 2.016 2.602 0 1.479-0.6807 2.648-2.016 2.648-1.281 0-1.984-1.079-1.984-2.648 0-1.551 0.6855-2.602 1.984-2.602zm15.15 0c1.425 0 2.078 1.244 2.078 2.633 0 1.389-0.653 2.617-2.078 2.617s-2.07-1.228-2.07-2.617c0-1.389 0.6452-2.633 2.07-2.633zm25.19 0c1.155 0 1.891 0.8665 1.891 2.039h-3.945c0.0721-1.078 0.837-2.039 2.055-2.039zm33.57 0c1.425 0 2.078 1.244 2.078 2.633 0 1.389-0.653 2.617-2.078 2.617s-2.07-1.228-2.07-2.617c0-1.389 0.6452-2.633 2.07-2.633zm29.01 0c1.425 0 2.078 1.244 2.078 2.633 0 1.389-0.653 2.617-2.078 2.617-1.425 0-2.07-1.228-2.07-2.617 0-1.389 0.6452-2.633 2.07-2.633zm23.26 0c1.425 0 2.07 1.244 2.07 2.633 0 1.389-0.6452 2.617-2.07 2.617-1.425 0-2.078-1.228-2.078-2.617 0-1.389 0.653-2.633 2.078-2.633zm19.82 0c1.155 0 1.898 0.8665 1.898 2.039h-3.945c0.0721-1.078 0.8292-2.039 2.047-2.039zm22.34 0c1.155 0 1.891 0.8665 1.891 2.039h-3.945c0.0721-1.078 0.837-2.039 2.055-2.039zm23.7 0c1.425 0 2.078 1.244 2.078 2.633 0 1.389-0.653 2.617-2.078 2.617-1.425 0-2.078-1.228-2.078-2.617 0-1.389 0.653-2.633 2.078-2.633zm-284.2 1.609v0.9921h4.039v-0.9921zm303.8 2.898c-0.4465 0-0.8125 0.366-0.8125 0.8125 0 0.4465 0.366 0.8125 0.8125 0.8125 0.4465 0 0.8125-0.366 0.8125-0.8125 0-0.4465-0.366-0.8125-0.8125-0.8125z"/>
    <path fill="url(#error)"
        d="m31.71 18.07c-0.5293 7e-3 -1.036 0.2-1.423 0.5866-0.7671 0.7671-0.7575 2.005-0.1044 2.957l-1.852 1.889-0.1665-0.1716-0.0011-9.5e-4c-0.07124-0.071-0.1477-0.1557-0.2995-0.2101-0.1517-0.0544-0.3916 9.4e-4 -0.5146 0.1244l-0.6003 0.6003c-0.2459 0.2457-0.224 0.6561 0.0098 0.8899l0.1839 0.1844-0.1044 0.1074c-0.1235 0.1232-0.2108 0.2823-0.2275 0.4648-0.01663 0.1822 0.05272 0.3832 0.1926 0.5233 0.14 0.1398 0.3583 0.2079 0.5369 0.1739 0.1786-0.034 0.3123-0.1296 0.4213-0.2385l3.51-3.383c0.8921 0.4468 1.942 0.3764 2.621-0.3031 0.8838-0.8838 0.7387-2.395-0.2361-3.37-0.4874-0.4874-1.109-0.7675-1.719-0.8153-0.07627-7e-3 -0.1518-7e-3 -0.2275-7e-3zm0.07087 1.083c0.04055 6.5e-4 0.08145 2e-3 0.1231 7e-3 0.3326 0.0378 0.6877 0.1992 0.9869 0.4984 0.5984 0.5984 0.653 1.421 0.2361 1.838-0.4169 0.4167-1.24 0.3621-1.838-0.2362-0.5984-0.5984-0.653-1.421-0.2361-1.838 0.1824-0.1822 0.4433-0.274 0.7283-0.2699zm5.215 2.843a7 7 0 0 1-7 7 7 7 0 0 1-7-7 7 7 0 0 1 7-7 7 7 0 0 1 7 7z"/>
</svg>
