<svg version="1.1" viewBox="0 0 39.426 35.016" xmlns="http://www.w3.org/2000/svg">
    <!--
        Blahaj (c) IKEA
        Warning Sign (c) United Nations
        Idea (c) Unknown Author
        SVG (c) justJanne
    -->
    <defs>
        <linearGradient id="black"><stop stop-color="#000000"/></linearGradient>
        <linearGradient id="white"><stop stop-color="#ffffff"/></linearGradient>
        <linearGradient id="warning"><stop stop-color="#f5c918"/></linearGradient>
        <linearGradient id="blahajFur"><stop stop-color="#427d8f"/></linearGradient>
        <linearGradient id="blahajBelly"><stop stop-color="#e5e5e5"/></linearGradient>
        <linearGradient id="blahajMouth"><stop stop-color="#eac4bf"/></linearGradient>
        <linearGradient id="blahajEyelashes"><stop stop-color="#523b3a"/></linearGradient>
    </defs>
    <path fill="url(#warning)"
        d="m20.001 0c-0.72649-0 -1.4011 0.38644-1.7616 1.0077l-17.985 31.001c-0.74996 1.2921 0.2529 2.9927 1.7637 2.9912h35.964c1.5108 0.0015 2.5137-1.6991 1.7637-2.9912l-17.983-31.001c-0.35999-0.6214-1.0354-1.0071-1.7616-1.0077z"/>
    <path fill="url(#black)"
        d="m17.929 17.335c-0.69791 0-1.1544 0.39986-1.5198 0.67128-0.36541 0.27142-0.6575 0.47284-1.2702 0.47284-0.61271 0-0.91007-0.20371-1.2764-0.47491-0.22342-0.1654-0.47996-0.37706-0.80305-0.5178l-0.49816 0.85835c0.20963 0.06139 0.39778 0.21502 0.70487 0.44235 0.40547 0.30016 1.0014 0.66973 1.8728 0.66973s1.4628-0.36979 1.8666-0.66973c0.40379-0.29993 0.60219-0.47232 0.92346-0.47232 0.32127 0 0.5176 0.17239 0.92139 0.47232 0.4038 0.29993 0.99725 0.66973 1.8686 0.66973 0.87137 0 1.4629-0.37209 1.865-0.67179 0.40212-0.2997 0.59662-0.47026 0.92501-0.47026 0.3141 0 0.5123 0.17216 0.91777 0.47232 0.40547 0.30016 1.0009 0.66973 1.8722 0.66973 0.65901 0 1.15-0.21114 1.5276-0.4439l-0.49093-0.84646c-0.27506 0.18345-0.5586 0.31264-1.0366 0.31264-0.61271 0-0.91007-0.20371-1.2764-0.47491-0.36634-0.27119-0.81896-0.66921-1.5136-0.66921-0.70122 0-1.1615 0.39963-1.526 0.67128s-0.6513 0.47284-1.264 0.47284c-0.61271 0-0.90687-0.20142-1.2723-0.47284-0.36541-0.27142-0.81982-0.67128-1.5177-0.67128z"/>
    <path fill="url(#black)"
        d="m20.001 0.99948a1.0147 0.99964 0 0 0-0.88133 0.50413l-17.983 31.001a1.0147 0.99964 0 0 0 0.88185 1.4959h35.964a1.0147 0.99964 0 0 0 0.88186-1.4959l-17.983-31.001a1.0147 0.99964 0 0 0-0.88028-0.50413zm-5.24e-4 3.0145 16.233 27.987h-32.466z"/>
    <path fill="url(#blahajBelly)"
        d="m10.539 27.166 11.787 0.94168c0.0916 0.02309-2.4962 1.4802-4.0407 1.7718-1.1235 0.21206-3.5272 0.17817-5.1594-0.73669-1.1805-0.50281-2.024-1.1495-2.587-1.9768z"/>
    <path fill="url(#blahajFur)"
        d="m10.521 27.147c0.22723 0.38774 4.4682 1.2629 7.2148 1.5488 0.03744 0.0024 0.22536 0.05938 0.1856 0.20891-0.02656 0.41604 0.25256 0.7972 0.64957 1.0758 1.1954 0.6715 1.9564 0.93509 3.299 0.93438 0.60235-3.19e-4 1.1582-0.07889 1.2249-0.31328 0.06479-0.22771-0.05292-0.32549-0.52586-0.44336-1.4992-0.37365-2.3834-1.1901-2.2647-1.5295 0.4154-0.3046 1.2749-0.31462 1.916-0.47545 0.59778 0.0011 2.888-1.0001 3.9639-1.873 0.18609-0.18308 0.37346-0.33205 0.60272-0.4447 0.20269 0.13185 0.36716 0.24632 0.52754 0.3443 0.40545 0.20758 0.78636 0.46514 1.2148 0.6236 0.10926 0.02577 0.20325 0.01934 0.2756-0.03693 0.13134-0.33911-0.13595-0.62077-0.40676-0.999-0.14654-0.20467-0.52405-0.77058-0.52731-1.1733 0.16954-0.50565 0.43768-1.0208 0.67652-1.5171 0.23438-0.44289 0.6118-1.1694 0.38344-1.3347-0.24737-0.1791-0.73414 0.35412-1.1734 0.87939-0.42076 0.50311-0.81424 1.146-1.2808 1.7004-0.81144 0.59129-1.3895 0.54428-1.8176 0.51743-0.39228-0.2529 0.13065-0.67154-0.13729-0.82394-0.16915-0.09621-0.52841 0.55221-0.8664 0.84103-0.47709 0.24566-2.2987 0.13806-2.7282-0.63973-0.3995-0.77033-0.0043-2.1857 0.40762-3.6183 0.01966-0.06837-0.01508-0.13277-0.03509-0.16692-0.1797-0.27088-0.91898 0.0716-1.4865 0.74392-0.67219 0.79638-1.0413 2.153-1.4553 2.5122-1.0128 0.49082-1.9159 0.43449-2.8345 0.52299-2.3454 0.226-5.2255 0.56353-5.2876 2.0714-0.0157 0.38075 0.11196 0.56894 0.28529 0.86472z"/>
    <path fill="url(#blahajMouth)"
        d="m11.486 28.185c0.22296 0.18025 0.46824 0.34859 0.73651 0.50588 0.75216 0.40907 2.574 0.45949 2.9962 0.41335-0.68289-0.46113-3.1219-0.63436-3.7327-0.91923z"/>
    <path fill="url(#blahajEyelashes)"
        d="m13.848 27.353c-0.07786-0.0014-0.153 0.0082-0.21776 0.02549-0.07401 0.01974-0.13584 0.04363-0.17537 0.09859a0.06638 0.065398 0 0 0-0.01216 0.04047c0.0036 0.08741 0.07124 0.1473 0.14749 0.18961 0.07625 0.04231 0.17056 0.07148 0.26652 0.08848 0.09596 0.017 0.19272 0.0218 0.27566 9e-3 0.04147-0.0064 0.07982-0.01701 0.11388-0.03628 0.03406-0.01927 0.06537-0.05028 0.07738-0.09194a0.06638 0.065398 0 0 0-4.25e-4 -0.0372c-0.03092-0.09871-0.09928-0.17052-0.17962-0.21508-0.08034-0.04455-0.17237-0.06464-0.26205-0.06988h0c-0.0112-6.54e-4 -0.02239-0.0011-0.0335-0.0013z"/>
    <path fill="url(#black)"
        d="m13.509 27.515c0.08464-0.11769 0.64797-0.1845 0.75075 0.1436-0.05101 0.1769-0.74225 0.06502-0.75075-0.1436z"/>
    <path fill="url(#white)"
        d="m14.109 27.57a0.094996 0.09359 0 0 1-0.095 0.09359 0.094996 0.09359 0 0 1-0.095-0.09359 0.094996 0.09359 0 0 1 0.095-0.09359 0.094996 0.09359 0 0 1 0.095 0.09359z"/>
</svg>
