<svg version="1.1" viewBox="0 0 300 150" xmlns="http://www.w3.org/2000/svg">
    <!--
        Y2K Sticker (c) Best Buy
        Idea (c) Unknown Author
        SVG (c) justJanne
    -->
    <rect fill="#ffffff" width="300" height="150" rx="15" ry="15"/>
    <rect fill="#000000" x="5" y="5" width="290" height="140" rx="10" ry="10"/>
    <path fill="#ffffff" d="m292 76.27c-64.65 7.283-87.28 36.37-94.52 65.73h87.52c3.878 0 7-3.122 7-7zm-53.67 17.17 49.44 4.764-3.727 39.66-49.61-4.752-11.29-13.11 1.582-16.04zm-7.604 18.07c-0.6155 1e-5 -1.123 0.5056-1.123 1.121 0 0.6155 0.5076 1.123 1.123 1.123s1.117-0.5076 1.117-1.123c0-0.6154-0.5017-1.121-1.117-1.121z"/>
    <path fill="#f1df03" d="m86.44 116-9.357 22.61h3.502l9.359-22.61h-3.504zm39.8 0-9.359 22.61h3.504l9.357-22.61h-3.502zm-106.7 1.127c-4.361 0-7.056 2.867-7.203 7.105h5.293c-0.049-0.2695-0.07422-0.5402-0.07422-0.7852 0-1.25 0.7113-2.254 2.01-2.254 1.274 0 2.105 1.226 2.105 2.402 0 1.69-1.027 3.355-2.105 4.531l-7.547 8.209h14.85v-4.068h-6.053l2.867-2.67c1.886-1.715 2.988-3.258 2.988-5.904 0-4.018-3.258-6.566-7.129-6.566zm16.88 0c-5.488 0-7.84 5.169-7.84 9.971s2.327 9.973 7.84 9.973 7.84-5.171 7.84-9.973-2.352-9.971-7.84-9.971zm17.05 0c-1.886 0-3.527 0.5383-4.703 1.592s-1.96 2.523-2.156 4.459h4.459c-0.0245-1.2 0.7359-2.131 1.961-2.131 1.078 0 1.887 0.7343 1.887 1.861 0 1.274-0.8824 2.035-2.107 2.035h-0.4902v3.209c0.2695-0.0735 0.538-0.1465 0.832-0.1465 1.348 0 2.549 1.076 2.549 2.473 0 1.494-1.102 2.475-2.572 2.475-1.519 0-2.572-1.151-2.572-2.621h-4.9c-0.049 1.617 1.005 3.529 2.107 4.656 1.494 1.519 3.405 2.082 5.512 2.082 3.675 0 7.18-2.082 7.18-6.125 0-1.886-1.054-4.142-3.014-4.656 1.348-0.7595 1.936-2.327 1.936-3.797 0-3.454-2.599-5.365-5.906-5.365zm16.56 0c-3.16 0-6.297 1.74-6.297 5.268 0 1.96 1.226 3.626 2.916 4.189v0.04883c-2.205 0.735-3.674 2.426-3.674 4.852 0 3.822 3.87 5.586 7.055 5.586s7.057-1.764 7.057-5.586c0-2.426-1.471-4.117-3.676-4.852v-0.04883c1.69-0.5635 2.916-2.229 2.916-4.189 0-3.528-3.136-5.268-6.297-5.268zm26.99 0c-5.488 0-7.84 5.169-7.84 9.971s2.327 9.973 7.84 9.973 7.84-5.171 7.84-9.973-2.352-9.971-7.84-9.971zm52.21 0c-4.214 0-7.938 2.45-7.938 6.982 0 3.406 2.304 6.518 5.93 6.518 0.98 0 1.763-0.197 2.596-0.5644l0.04883 0.04883-5.268 6.225h5.465l3.943-5.17c1.592-2.107 2.965-4.679 2.965-7.35 0-1.936-0.9801-3.897-2.475-5.098-1.421-1.152-3.479-1.592-5.268-1.592zm-41.86 0.7344v4.068h2.645v14.41h4.803v-18.47h-7.447zm22.99 0v4.068h2.646v14.41h4.801v-18.47h-7.447zm-60.33 2.598c1.127 0 2.033 0.9305 2.033 2.082s-0.9062 2.082-2.033 2.082-2.033-0.9305-2.033-2.082 0.9062-2.082 2.033-2.082zm79.22 0.4648c1.69 0 3.062 1.349 3.062 3.039s-1.372 3.037-3.062 3.037-2.965-1.347-2.965-3.037 1.274-3.039 2.965-3.039zm-112.8 0.4414c2.474 0 3.062 3.92 3.062 5.709s-0.588 5.758-3.062 5.758-3.062-3.969-3.062-5.758 0.588-5.709 3.062-5.709zm60.61 0c2.475 0 3.062 3.92 3.062 5.709s-0.588 5.758-3.062 5.758-3.062-3.969-3.062-5.758 0.588-5.709 3.062-5.709zm-26.99 7.203c1.225 0 2.205 1.029 2.205 2.303 0 1.25-0.9801 2.254-2.205 2.254s-2.205-1.004-2.205-2.254c0-1.274 0.9801-2.303 2.205-2.303z"/>
    <path fill="#f1df03" d="m238.8 95.17-12.51 9.68-1.441 14.62 10.38 12.06 47.28 4.529 3.414-36.34zm6.639 4.576h2e-3v2e-3c7e-3 -3.31e-4 0.0223-0.0011 0.0293 0l4.389 0.457c0.1914 0.0208 0.3267 0.2018 0.2988 0.3926-0.1761 1.336 0.0342 3.606 0.3809 6.104 1.376-3.552 4.211-7.273 10.05-6.891 7.936 0.5193 9.618 8.935 9.652 9.121 0.5785-1.476 1.402-3.432 1.09-5.859-0.0278-0.2165 0.1493-0.4115 0.3672-0.3906 3.222 0.275 5.856 0.5445 7.15 0.7031 1.229 0.1503 1.665 0.2108 1.609 0.6152-1.04 8.484-6.919 16.84-14.46 18.47-0.2207 0.74-0.3878 1.162-1.389 1.141-0.4462-7e-3 -0.7237-0.1026-1.1-0.3574-0.0488 0.0488-0.2494 0.2065-0.4902 0.2344-0.332 0.0348-0.9948-0.0625-1.227-0.1328-0.1302-0.0418-0.2436-0.1139-0.3418-0.1953-0.1796 0.0626-0.3386 0.2053-0.5391 0.1914-0.2847 0.0208-1.153-0.0342-1.559-0.1504-0.1378-0.0418-0.2543-0.0898-0.3594-0.1524-0.0739-0.0418-0.1183-0.0759-0.1406-0.0996-0.0278 0.0148-0.0784 0.027-0.1836 0.041-0.33 0.0626-0.6915-7e-3 -1.1-0.0977-0.4135-0.0897-0.8107-0.1842-1.09-0.3672-0.0418-0.0208-0.0637-0.0348-0.084-0.0488-0.0208 7e-3 -0.048 0.0147-0.082 0.0352-7e-3 7e-5 -0.0156 7e-5 -0.0156 0-0.2102 0.0947-0.388 0.1284-0.6602 0.0937-0.2736-0.0418-0.5775-0.1645-0.7559-0.2695-0.1788-0.1057-0.2296-0.1538-0.3242-0.2305-0.0348-0.0278-0.0547-0.0547-0.082-0.082-0.1691 0.0759-0.3517 0.1305-0.541 0.0957-0.2214-0.0418-0.4239-0.1464-0.6543-0.2988-0.3578-0.2374-0.6271-0.4886-0.8027-0.8008-0.1748-0.3118-0.2441-0.6661-0.2441-1.076v-0.2988c-7.52-6.512-7.659-15.1-7.086-19.6 0.0208-0.1522 0.139-0.2928 0.2891-0.2988zm12.76 7.586c-0.7695 0.0148-1.553 0.1277-2.312 0.2871-0.8773 0.291-2.033 0.2629-2.652 1.016-0.4052 0.6342-0.2989 1.448-0.3477 2.168 0.1455 0.777 0.9789 1.16 1.637 1.447 0.7989 0.1776 1.378 0.7919 2.09 1.15 0.7197 0.4901 1.576-0.0629 1.666-0.8672 0.2701-1.104 0.6979-2.194 0.7188-3.342-0.0625-0.6483-0.2395-1.511-0.7969-1.859zm6.389 0.5938c-0.6258 0.0348-1.235 0.2976-1.654 0.7695-0.6008 0.5305-0.7148 1.355-0.5332 2.102 0.2617 1.016 0.4126 2.074 0.8106 3.047 0.8136 0.1017 1.585-0.221 2.285-0.5977 0.5869-0.2736 1.144-0.1946 1.729-0.5176 0.8618-0.2694 0.9311-1.248 1.08-1.992-0.0208-0.6926-0.3953-1.38-0.8164-1.926-0.7576-0.7285-1.888-0.8987-2.9-0.8848zm-33.89 1.924c1.53 0 2.787 1.259 2.787 2.789 0 1.53-1.258 2.787-2.787 2.787-1.53 0-2.789-1.257-2.789-2.787 0-1.53 1.259-2.789 2.789-2.789zm30.29 1.449v2e-3h2e-3v-2e-3zm0 8e-3c-0.0479 0.5051-0.0208 1.008-0.2363 1.396-0.2617 0.4748-0.6634 0.5296-0.8555 0.1934-0.1601-0.2729-0.0833-0.5228-0.1113-0.6836-0.1873 0.6488-0.4963 1.49-0.4824 2.244-0.0278 0.6216 0.0433 1.25 0.1992 1.857-0.0766 0.7313 0.5749-0.187 0.8906 0.3887 0.2054-0.3968 0.5621-1.105 0.6582-1.666 0.2105-1.226-0.0201-2.494-0.0625-3.73zm-14.91 7.89 2e-3 2e-3c0.9226 0.0488 1.825 0.4365 2.275 1.334 0.2673 0.5381 0.3005 0.9983 0.0723 1.922 1.631 0.1671 3.302 0.3075 4.951 0.666 0.1963 0.0418 0.3135 0.2415 0.2578 0.4336-0.8927 1.198-1.833 2.425-2.826 3.566-0.0766 0.0947-0.1954 0.1351-0.3144 0.1211-1.123-0.1252-2.246-0.2655-3.371-0.4785 0.0488 0.472 0.0709 0.961-0.0781 1.393-0.3502 1.041-2.109 2.288-3.889 0.8379-0.6565-0.5339-2.302-2.436-1.311-4.193 0.3188-0.5653 0.7005-0.8332 1.334-1.217-0.4671-0.5917-0.9604-1.251-0.707-2.158 0.316-1.129 1.641-1.993 2.689-2.166 0.2951-0.0556 0.6067-0.0751 0.9141-0.0625zm7.416 0.5566c-0.0348 2e-3 -0.0723 5e-3 -0.1113 0.0137-0.2917 0.3056 0.4719 1.621 0.6641 0.8926 0.3-0.5625-3e-3 -0.9254-0.5527-0.9024zm5.025 0.041-0.2637 0.0762c-0.7682 0.0766-0.8824 0.8487-1.029 1.457 0.0348 0.2597 1.272 0.7491 1.23 0.1328 7e-3 -0.5144 0.3167-1.232 0.0625-1.666zm-2.922 0.1621c-0.3426 0.1713-0.3124 0.6632-0.3848 0.9531-0.1155 0.3334 0.5615 0.6302 0.7558 0.3887 0.2652-0.4643 0.49-1.363-0.3711-1.342zm4.633 0.0273c-0.0418 0-0.0761 5e-3 -0.1172 0.0156-0.0787 0.0148-0.272-0.0149-0.2442 0.1406 0.0418 0.5646-0.5254 1.636 0.0274 1.881 0.7002 0.3404 1.226-0.1384 1.09-0.877 0.0724-0.552-0.1763-1.164-0.752-1.156zm2.16 0.6523c-0.0125 7.5e-4 -0.0258 2e-3 -0.041 4e-3 -0.2604 0.2694-0.1846 0.9139-0.2402 1.309-0.0814 0.3641 0.4596 0.3667 0.6621 0.2734 0.0488-0.5228 0.4539-1.56-0.3418-1.586-0.0139-5e-4 -0.0266-7.5e-4 -0.0391 0zm2.475 0.4199-0.2773 0.0547c-0.6251-0.0488-0.5907 0.8126-0.457 1.143 0.8145 0.5778 0.9286-0.6362 0.7344-1.191zm8.701 1.012c1.809-0.0947 3.338 1.442 3.338 3.039 0 0.8666-0.4196 1.724-0.9668 2.475 0.3167 0.3717 0.5535 0.6666 0.6621 1.18 0.1977 0.9345-0.1553 2.238-1.375 3.008-1.149 0.7241-3.877 0.99-4.877-0.7188-0.2242-0.3794-0.266-0.9199-0.2598-1.482l-2.568-0.3379c-0.1177-0.0148-0.2177-0.0855-0.2734-0.1914-0.4427-0.916-1.405-2.841-2.051-4.148-0.1217-0.2471 0.0791-0.5328 0.3535-0.498 1.673 0.174 3.325 0.3896 4.961 0.4453 0.3773-1.824 1.683-2.44 2.27-2.627 0.2659-0.0849 0.5291-0.1288 0.7871-0.1426zm-18.11 1.223h2e-3c0.0148-1e-3 0.029-1e-3 0.043 0 0.0208 1e-3 0.034 0 0.041 0h4e-3c1.152 0.1022 2.328 0.1904 3.486 0.4062 0.2234 0.0418 0.3388 0.2856 0.2442 0.4902-0.3035 0.655-1.517 1.786-2.637 3.385 0.9502 0.6335 0.6735 1.495 0.5176 1.824-0.4748 1.051-2.304 1.739-3.141 1.299-0.3146-0.1593-0.4144-0.3408-0.4492-0.7559-0.1608 0.3223-0.2994 0.4813-0.6621 0.6797-1.198 0.6544-2.477-0.4374-2.602-1.496-0.0696-0.5952 0.154-2.542 2.299-2.611 0.877-1.026 1.745-2.048 2.598-3.088 0.0626-0.0801 0.1564-0.1273 0.2559-0.1328zm4.25 0.5137c0.0148-1e-3 0.987 7e-3 3.883 0.3418 0.1092 0.0148 0.2091 0.0788 0.2578 0.1777 0.575 1.101 1.092 2.209 1.688 3.248 0.5701 0.284 1.034 0.6372 1.33 1.018 1.651 2.119 0.0838 3.899-1.207 3.971-0.8248 0.0488-1.679-0.7123-1.854-1.053-0.5785 0.2645-1.098 0.2942-1.539 0.2148-1.08-0.1942-2.295-1.171-1.896-2.479 0.1267-0.417 0.4115-0.7084 0.6816-0.9785-0.5576-1.292-1.196-2.62-1.645-3.996-0.0711-0.2186 0.0711-0.4627 0.3008-0.4648z"/>
    <path fill="#f1df03" d="m8 56v55h153v31h32.19c10.06-42.62 45.8-64.04 98.81-69.92v-16.08zm219.4 6c0.532 0 1.005 0.0948 1.48 0.3418v2.982c-0.399-0.171-0.7588-0.3223-1.215-0.3223-0.893 0-1.197 0.5328-1.197 1.635v1.576h2.412v2.85h-2.412v6.898h-3.459v-6.898h-1.215v-2.85h1.215v-1.234c-2e-5 -1.349 0.0383-2.337 0.9883-3.42 0.855-1.007 2.091-1.559 3.402-1.559zm7.871 0c0.532 0 1.007 0.0948 1.482 0.3418v2.982c-0.399-0.171-0.7608-0.3223-1.217-0.3223-0.893 0-1.197 0.5328-1.197 1.635v1.576h2.414v2.85h-2.414v6.898h-3.457v-6.898h-1.217v-2.85h1.217v-1.234c0-1.349 0.0383-2.337 0.9883-3.42 0.855-1.007 2.089-1.559 3.4-1.559zm-223.2 1.635h9.881v3.152h-3.078v11.17h-3.725v-11.17h-3.078zm166.8 1.652h3.459v2.926h1.957v2.85h-1.957v6.898h-3.459v-6.898h-1.121v-2.85h1.121zm-129.5 2.604c2.622 0 3.666 1.653 3.666 4.047v6.023h-3.457v-4.75c0-0.931 0.1514-2.566-1.559-2.566-1.406 0-1.805 1.046-1.805 2.262v5.055h-3.457v-9.748h3.457v1.254h0.03906c0.798-1.178 1.766-1.576 3.115-1.576zm30.04 0c3.135 0 5.871 1.88 5.871 5.205 0 3.306-2.736 5.188-5.871 5.188-3.116 0-5.871-1.862-5.871-5.188s2.736-5.205 5.871-5.205zm37.82 0c0.798 0 1.595 0.1903 2.279 0.5703v2.926c-0.513-0.38-1.12-0.6855-1.785-0.6855-1.33 0-2.375 1.026-2.375 2.375 0 1.406 1.007 2.395 2.432 2.395 0.608 0 1.273-0.2461 1.729-0.6641v2.926c-0.76 0.38-1.596 0.5508-2.432 0.5508-2.888 0-5.301-2.147-5.301-5.092 0-3.135 2.394-5.301 5.453-5.301zm9.576 0c3.135 0 5.871 1.88 5.871 5.205 0 3.306-2.736 5.188-5.871 5.188-3.116 0-5.871-1.862-5.871-5.188s2.736-5.205 5.871-5.205zm14 0c1.406 0 2.623 0.5693 3.326 1.861 0.665-1.216 1.975-1.861 3.305-1.861 2.47 0 3.326 1.613 3.326 3.855v6.215h-3.459v-4.656c0-1.007 0.0392-2.66-1.424-2.66-1.596 0-1.654 1.501-1.654 2.66v4.656h-3.457v-4.656c0-1.083-6e-5 -2.736-1.539-2.736s-1.539 1.653-1.539 2.736v4.656h-3.459v-9.748h3.459v1.217h0.0371c0.817-1.083 1.824-1.539 3.078-1.539zm18.54 0c2.907 0 4.92 2.432 4.92 5.225 0 2.812-1.995 5.168-4.883 5.168-1.121 0-2.279-0.3989-3.02-1.254v5.795h-3.459v-14.61h3.459v1.102h0.0371c0.627-0.969 1.805-1.424 2.945-1.424zm30.67 0c3.382 0 5.338 2.089 5.338 5.414v0.3613h-7.275c0 1.406 0.741 2.166 2.166 2.166 0.741 0 1.272-0.2466 1.652-0.8926h3.324c-0.266 1.14-0.9488 1.976-1.842 2.527s-1.996 0.8164-3.117 0.8164c-3.23 0-5.643-1.824-5.643-5.188 0-3.249 2.223-5.205 5.396-5.205zm25.19 0c3.135 0 5.871 1.88 5.871 5.205 0 3.306-2.736 5.188-5.871 5.188-3.116 0-5.871-1.862-5.871-5.188s2.736-5.205 5.871-5.205zm-174.4 0.1895h0.6641v3.324c-0.475-0.266-0.9309-0.3223-1.463-0.3223-1.919 0-2.395 1.273-2.395 2.945v3.934h-3.457v-9.748h3.457v1.596h0.03906c0.665-1.197 1.805-1.729 3.154-1.729zm65.21 0h0.666v3.324c-0.475-0.266-0.9309-0.3223-1.463-0.3223-1.919 0-2.395 1.273-2.395 2.945v3.934h-3.459v-9.748h3.459v1.596h0.0371c0.665-1.197 1.805-1.729 3.154-1.729zm97.58 0h0.6641v3.324c-0.475-0.266-0.9309-0.3223-1.463-0.3223-1.919 0-2.395 1.273-2.395 2.945v3.934h-3.457v-9.748h3.457v1.596h0.0391c0.665-1.197 1.805-1.729 3.154-1.729zm-182 0.1328h3.457v5.207c0 1.235 0.3055 2.107 1.73 2.107s1.729-0.8724 1.729-2.107v-5.207h3.457v5.871c0 3.211-2.26 4.199-5.186 4.199s-5.188-0.9882-5.188-4.199zm38.84 0h3.99l2.604 4.998 2.545-4.998h3.934l-7.809 14.61h-3.877l3.326-6.193zm26.37 0h3.459v5.207c-1e-6 1.235 0.3035 2.107 1.729 2.107s1.729-0.8724 1.729-2.107v-5.207h3.459v5.871c0 3.211-2.262 4.199-5.188 4.199s-5.188-0.9882-5.188-4.199zm79.15 0h3.457v5.207c1e-5 1.235 0.3035 2.107 1.729 2.107s1.73-0.8724 1.73-2.107v-5.207h3.457v5.871c0 3.211-2.262 4.199-5.188 4.199s-5.186-0.9882-5.186-4.199zm24.26 1.92c-1.007 0-1.842 0.5321-2.051 1.539h4.008c-0.171-0.931-1.026-1.539-1.957-1.539zm-110.8 0.7598c-1.406 0-2.223 1.006-2.223 2.203 0 1.235 0.8167 2.186 2.223 2.186s2.223-0.9505 2.223-2.186c0-1.197-0.8167-2.203-2.223-2.203zm47.4 0c-1.406 0-2.223 1.006-2.223 2.203 0 1.235 0.8167 2.186 2.223 2.186s2.223-0.9505 2.223-2.186c0-1.197-0.8167-2.203-2.223-2.203zm31.67 0c-1.406 0-2.223 1.006-2.223 2.203 0 1.235 0.8166 2.186 2.223 2.186 1.406 0 2.225-0.9505 2.225-2.186 0-1.197-0.8186-2.203-2.225-2.203zm56.73 0c-1.406 0-2.225 1.006-2.225 2.203 0 1.235 0.8186 2.186 2.225 2.186s2.223-0.9505 2.223-2.186c0-1.197-0.8167-2.203-2.223-2.203zm-172.9 15.58c0.532 0 1.007 0.0948 1.482 0.3418v2.982c-0.399-0.171-0.7608-0.3223-1.217-0.3223-0.893 0-1.197 0.5328-1.197 1.635v1.576h2.414v2.85h-2.414v6.898h-3.457v-6.898h-1.217v-2.85h1.217v-1.234c0-1.349 0.03828-2.337 0.9883-3.42 0.855-1.007 2.089-1.559 3.4-1.559zm-29.39 0.1895h3.457v6.975c0.741-0.855 1.9-1.273 3.021-1.273 2.888 0 4.883 2.393 4.883 5.186-1e-6 2.812-2.013 5.207-4.92 5.207-1.14 0-2.318-0.4372-2.945-1.406h-0.03906v1.084h-3.457zm76.7 0.875c4.256 1e-6 6.08 4.008 6.08 7.732 1e-6 3.724-1.805 7.732-6.08 7.732s-6.08-4.008-6.08-7.732 1.824-7.732 6.08-7.732zm13.22 0c2.565 1e-6 4.578 1.481 4.578 4.16 0 1.14-0.455 2.356-1.5 2.945 1.52 0.399 2.336 2.146 2.336 3.609 0 3.135-2.716 4.75-5.566 4.75-1.634 0-3.116-0.4353-4.275-1.613-0.855-0.874-1.673-2.357-1.635-3.611h3.801c3e-5 1.14 0.8162 2.033 1.994 2.033 1.14 0 1.996-0.759 1.996-1.918 0-1.083-0.9316-1.92-1.977-1.92-0.228 0-0.4375 0.05628-0.6465 0.1133v-2.488h0.3809c0.95 0 1.635-0.5882 1.635-1.576 0-0.874-0.6288-1.445-1.465-1.445-0.95 0-1.539 0.7233-1.52 1.654h-3.457c0.152-1.501 0.7599-2.642 1.672-3.459 0.912-0.817 2.185-1.234 3.648-1.234zm47.95 0c4.256 2e-6 6.08 4.008 6.08 7.732s-1.805 7.732-6.08 7.732-6.08-4.008-6.08-7.732 1.824-7.732 6.08-7.732zm-34.04 0.5703h5.775v14.33h-3.723v-11.17h-2.053zm13.81 0h4.883v8.512h1.729v2.85h-1.729v2.965h-3.459v-2.965h-6.953v-2.375zm28.1 0h11.76l-8.227 14.33h-4.086l6.537-11.17h-5.986zm-69.04 2.717c-1.919 0-2.375 3.039-2.375 4.426s0.456 4.465 2.375 4.465 2.375-3.078 2.375-4.465-0.456-4.426-2.375-4.426zm61.17 0c-1.919 0-2.375 3.039-2.375 4.426s0.456 4.465 2.375 4.465 2.375-3.078 2.375-4.465-0.456-4.426-2.375-4.426zm-18.85 0.2852-3.344 5.51h3.381v-5.51zm-19.5 0.8535c1.235 0 2.223 0.9896 2.223 2.225 0 1.216-0.9877 2.223-2.223 2.223s-2.223-1.007-2.223-2.223c0-1.235 0.9876-2.225 2.223-2.225zm28.59 0c1.235 0 2.223 0.9896 2.223 2.225 0 1.216-0.9877 2.223-2.223 2.223s-2.223-1.007-2.223-2.223c-1e-5 -1.235 0.9876-2.225 2.223-2.225zm-110.4 0.4004c3.382 0 5.338 2.089 5.338 5.414v0.3613h-7.275c0 1.406 0.741 2.166 2.166 2.166 0.741 0 1.272-0.2466 1.652-0.8926h3.324c-0.266 1.14-0.9488 1.976-1.842 2.527s-1.996 0.8164-3.117 0.8164c-3.23 0-5.643-1.824-5.643-5.187 0-3.249 2.223-5.205 5.396-5.205zm19.44 0c3.135 0 5.871 1.88 5.871 5.205 0 3.306-2.736 5.187-5.871 5.187-3.116 0-5.871-1.862-5.871-5.187 0-3.325 2.736-5.205 5.871-5.205zm20.71 0c3.382 0 5.34 2.089 5.34 5.414v0.3613h-7.277c-1e-6 1.406 0.741 2.166 2.166 2.166 0.741 0 1.272-0.2466 1.652-0.8926h3.326c-0.266 1.14-0.9508 1.976-1.844 2.527s-1.994 0.8164-3.115 0.8164c-3.23 0-5.645-1.824-5.645-5.187 0-3.249 2.223-5.205 5.396-5.205zm108.3 0c3.135 0 5.871 1.88 5.871 5.205 0 3.306-2.736 5.187-5.871 5.187-3.116 0-5.871-1.862-5.871-5.187 0-3.325 2.736-5.205 5.871-5.205zm14.04 0c2.622 0 3.666 1.653 3.666 4.047v6.023h-3.457v-4.75c0-0.931 0.1514-2.566-1.559-2.566-1.406 0-1.805 1.046-1.805 2.262v5.055h-3.459v-9.748h3.459v1.254h0.0371c0.798-1.178 1.768-1.576 3.117-1.576zm-129 0.1895h0.666v3.324c-0.475-0.266-0.9309-0.3223-1.463-0.3223-1.919 0-2.395 1.273-2.395 2.945v3.934h-3.459v-9.748h3.459v1.596h0.03711c0.665-1.197 1.805-1.729 3.154-1.729zm-33.35 2.053c-1.007 0-1.842 0.5321-2.051 1.539h4.008c-0.171-0.931-1.026-1.539-1.957-1.539zm40.15 0c-1.007 0-1.844 0.5321-2.053 1.539h4.01c-0.171-0.931-1.026-1.539-1.957-1.539zm-52.5 0.7598c-1.406 0-2.223 1.006-2.223 2.203 0 1.235 0.8167 2.186 2.223 2.186s2.223-0.9505 2.223-2.186c0-1.197-0.8167-2.203-2.223-2.203zm31.62 0c-1.406-1e-6 -2.225 1.006-2.225 2.203 0 1.235 0.8186 2.186 2.225 2.186s2.223-0.9505 2.223-2.186c0-1.197-0.8167-2.203-2.223-2.203zm129 0c-1.406 0-2.223 1.006-2.223 2.203 0 1.235 0.8167 2.186 2.223 2.186s2.223-0.9505 2.223-2.186c0-1.197-0.8166-2.203-2.223-2.203zm-66.71 3.002c1.235 0 2.223 0.9876 2.223 2.223 0 1.216-0.9877 2.223-2.223 2.223s-2.223-1.007-2.223-2.223c0-1.235 0.9876-2.223 2.223-2.223zm28.59 0c1.235 0 2.223 0.9876 2.223 2.223 0 1.216-0.9877 2.223-2.223 2.223s-2.223-1.007-2.223-2.223c-1e-5 -1.235 0.9876-2.223 2.223-2.223z"/>
    <path fill="#f1df03" d="m13 13v33.18h11.79v-10.65h0.2188l5.281 10.65h13.9l-7.215-10.78c-0.66-0.968-1.407-1.496-2.023-1.98v-0.2637c4.488-1.496 6.424-3.609 6.424-8.625 0-8.36-6.336-11.53-13.82-11.53h-14.56zm33.13 0v33.18h22.66v-9.064h-10.52v-3.256h9.285v-8.623h-9.285v-3.168h10.16v-9.064h-22.31zm31.63 0-5.367 33.18h11.66l1.408-14.17c0.132-1.32 0.2186-2.684 0.3066-4.004h0.3965c0.088 1.408 0.396 2.729 0.748 4.137l4.312 14.04h7.039l4.797-14.87c0.352-1.056 0.571-2.201 0.791-3.301h0.2207l1.629 18.17h11.66l-5.455-33.18h-12.28l-3.74 13.02c-0.396 1.408-0.6159 2.948-0.8359 4.4h-0.3086l-4.576-17.42h-12.41zm43.47 0v33.18h22.66v-9.064h-10.52v-3.256h9.283v-8.623h-9.283v-3.168h10.16v-9.064h-22.31zm31.64 0-5.369 33.18h11.66l1.408-14.17c0.132-1.32 0.2206-2.684 0.3086-4.004h0.3945c0.088 1.408 0.396 2.729 0.748 4.137l4.312 14.04h7.041l4.795-14.87c0.352-1.056 0.573-2.201 0.793-3.301h0.2188l1.629 18.17h11.66l-5.457-33.18h-12.28l-3.74 13.02c-0.396 1.408-0.6159 2.948-0.8359 4.4h-0.3086l-4.576-17.42h-12.41zm43.56 0v33.18h16.41c5.808 0 12.14-2.332 12.14-9.152 0-3.96-2.288-6.599-5.896-7.875v-0.2637c2.904-0.924 4.355-3.785 4.355-6.689 0-7.656-6.555-9.195-12.98-9.195h-14.04zm32.3 0v33.18h22.66v-9.064h-10.52v-3.256h9.283v-8.623h-9.283v-3.168h10.16v-9.064h-22.31zm27.63 0v33.18h11.79v-10.65h0.2207l5.279 10.65h13.9l-7.217-10.78c-0.66-0.968-1.407-1.496-2.023-1.98v-0.2637c4.488-1.496 6.424-3.609 6.424-8.625 0-8.36-6.336-11.53-13.82-11.53h-14.56zm-48.75 8.008h0.8359c1.76 0 4.004-0.1749 4.004 2.289 0 2.288-1.978 2.463-3.738 2.463h-1.102v-4.752zm-182.8 1.057h0.9238c2.068 0 3.871 0.3074 3.871 2.859 0 2.464-1.979 2.771-3.959 2.771h-0.8359v-5.631zm243.4 0h0.9238c2.068 0 3.873 0.3074 3.873 2.859 0 2.464-1.981 2.771-3.961 2.771h-0.8359v-5.631zm-60.54 10.69h1.189c1.936 0 5.016-0.04348 5.016 2.729 0 2.728-2.86 2.771-4.84 2.771h-1.365v-5.5z"/>
</svg>
