<svg version="1.1" viewBox="0 0 917 500" xmlns="http://www.w3.org/2000/svg">
  <rect width="917" height="500" rx="64" ry="64" fill="#fff"/>
  <rect x="16" y="16" width="885" height="468" rx="48" ry="48"/>
  <path fill="#fff" d="m869 256c-126.6 11.63-194.9 59.85-232 105.7-32.44 40.15-40.84 79.03-42.72 90.19l-0.0039 0.1133h258.7c8.864 0 16-7.136 16-16z"/>
  <path fill="#f6ed38" d="m48 197v163h443v92h93.66c1.487-9.72 9.688-52.56 44.98-96.24 38.6-47.78 110.7-97.34 239.4-109.2v-49.56z"/>
  <path d="m864.6 326.7-10.78 114.4-142.6-13.36-32.36-37.86 4.366-46.26 39.01-30.48z"/>
  <path fill="#f6eb16" d="m862 329-10.27 109.4-139.3-13.33-31.2-36.21 4.351-44.15 37.6-29.07z"/>
  <path d="m699.6 369.4c-0.3262 3.477-3.41 6.02-6.879 5.693-3.476-0.3332-6.019-3.417-5.693-6.894 0.3337-3.469 3.417-6.012 6.894-5.685 3.469 0.3332 6.012 3.417 5.678 6.886z"/>
  <path fill="#fff" d="m697.3 369.1c-0.2067 2.194-2.156 3.803-4.358 3.595-2.194-0.2076-3.802-2.164-3.595-4.358 0.215-2.194 2.165-3.803 4.359-3.595 2.194 0.2073 3.802 2.157 3.595 4.358z"/>
  <path fill="#f6ed38" d="m59.65 64.02v100.2h34.67v-33.04l17.2 33.04h39.64l-26.27-40.78c5.778-0.6841 10.41-3.397 13.91-8.141 3.404-4.561 5.107-10.4 5.107-17.51 0-10.86-3.406-19.2-10.21-25.04-6.764-5.792-16.62-8.689-29.56-8.689zm98.5 0v100.2h66.59v-27.16h-31.92v-10.54h28.22v-25.66h-28.22v-9.647h31.11v-27.16zm88.89 0-16.8 100.2h34.67l4.301-39.68c0.3583-4.105 0.6275-7.138 0.8066-9.1 0.0896-1.779 0.3135-4.858 0.6719-9.236 0.2688 2.052 0.8286 5.086 1.68 9.1 0.6719 3.284 1.589 6.75 2.754 10.4l11.29 38.52h21.03l11.29-38.52c1.299-4.424 2.218-7.89 2.756-10.4 0.6271-3.056 1.187-6.089 1.68-9.1 0.0896 2.235 0.3135 5.268 0.6719 9.1 0.1344 1.505 0.2679 3.033 0.4023 4.584 0.1344 1.551 0.2699 3.102 0.4043 4.652l4.299 39.68h34.67l-15.59-100.2h-36.42l-7.324 24.36c-2.016 6.613-3.45 12-4.301 16.15-1.075 4.743-1.88 9.258-2.418 13.54h-0.6055c-0.6271-6.248-2.442-14.84-5.443-25.79-0.5823-1.87-0.9182-3.034-1.008-3.49l-6.986-24.77zm126.3 0v100.2h66.59v-27.16h-31.92v-10.54h28.22v-25.66h-28.22v-9.647h31.11v-27.16zm88.89 0-16.8 100.2h34.67l4.301-39.68c0.3583-4.105 0.6272-7.138 0.8067-9.1 0.0896-1.779 0.3133-4.858 0.6718-9.236 0.2687 2.052 0.8286 5.086 1.68 9.1 0.6719 3.284 1.589 6.75 2.754 10.4l11.29 38.52h21.03l11.29-38.52c1.299-4.424 2.218-7.89 2.756-10.4 0.6271-3.056 1.187-6.089 1.68-9.1 0.0896 2.235 0.3137 5.268 0.6719 9.1 0.1346 1.505 0.268 3.033 0.4023 4.584 0.1346 1.551 0.2699 3.102 0.4043 4.652l4.299 39.68h34.67l-15.59-100.2h-36.42l-7.324 24.36c-2.016 6.613-3.45 12-4.301 16.15-1.075 4.743-1.88 9.258-2.418 13.54h-0.6055c-0.6271-6.248-2.44-14.84-5.441-25.79-0.5822-1.87-0.9181-3.034-1.008-3.49l-6.988-24.77zm126.3 0v100.2h46.97c12 0 21.12-2.372 27.35-7.115 6.226-4.835 9.34-11.9 9.34-21.21 0-6.659-1.634-11.93-4.904-15.8-3.18-3.922-8.152-6.59-14.92-8.004 4.972-1.14 8.734-3.512 11.29-7.115 2.688-3.649 4.031-8.188 4.031-13.62 0-8.575-2.799-15.3-8.398-20.18-2.822-2.372-6.181-4.15-10.08-5.336-3.852-1.186-8.376-1.779-13.57-1.779zm96.35 0v100.2h66.59v-27.16h-31.92v-10.54h28.22v-25.66h-28.22v-9.647h31.11v-27.16zm80.9 0v100.2h34.67v-33.04l17.2 33.04h39.64l-26.27-40.78c5.778-0.6841 10.41-3.397 13.91-8.141 3.404-4.561 5.107-10.4 5.107-17.51 0-10.86-3.404-19.2-10.21-25.04-6.764-5.792-16.62-8.689-29.56-8.689zm-144.1 23.81h4.635c2.956 0 5.174 0.5935 6.652 1.779 1.433 1.14 2.15 2.873 2.15 5.199 0 2.28-0.717 4.013-2.15 5.199-1.568 1.231-3.786 1.848-6.652 1.848h-4.635zm-527.5 1.984h5.51c3.449 0 6.07 0.821 7.861 2.463 1.747 1.779 2.621 4.264 2.621 7.457 0 3.147-0.8741 5.519-2.621 7.115-1.792 1.688-4.412 2.531-7.861 2.531h-5.51zm706.2 0h5.51c3.449 0 6.07 0.821 7.861 2.463 1.747 1.779 2.621 4.264 2.621 7.457 0 3.147-0.8741 5.519-2.621 7.115-1.792 1.688-4.412 2.531-7.861 2.531h-5.51zm-178.7 33.59h5.912c3.584 0 6.338 0.7072 8.264 2.121 1.837 1.277 2.756 3.239 2.756 5.885 0 2.417-0.9193 4.378-2.756 5.883-2.016 1.414-4.77 2.121-8.264 2.121h-5.912z"/>
  <path d="m708.9 214.3c-2.196 0-4.13 0.4623-5.799 1.385-1.625 0.8786-2.898 2.174-3.82 3.887-0.8786 1.713-1.318 3.777-1.318 6.193v3.098h-4.35v8.83h4.35v22.4h9.686v-22.4h5.666v-8.83h-5.666v-1.582c0-1.406 0.2865-2.416 0.8574-3.031 0.615-0.6589 1.47-0.9883 2.568-0.9883 0.6589 0 1.209 0.0449 1.648 0.1328 0.4832 0.0879 0.923 0.1758 1.318 0.2637v-8.764c-0.5271-0.1318-1.231-0.2647-2.109-0.3965-0.8786-0.1318-1.889-0.1973-3.031-0.1973zm22.27 0c-2.196 0-4.13 0.4623-5.799 1.385-1.625 0.8786-2.898 2.174-3.82 3.887-0.8786 1.713-1.318 3.777-1.318 6.193v3.098h-4.35v8.83h4.35v22.4h9.686v-22.4h5.666v-8.83h-5.666v-1.582c0-1.406 0.2865-2.416 0.8574-3.031 0.615-0.6589 1.47-0.9883 2.568-0.9883 0.6589 0 1.209 0.0449 1.648 0.1328 0.4832 0.0879 0.923 0.1758 1.318 0.2637v-8.764c-0.5271-0.1318-1.231-0.2647-2.109-0.3965-0.8786-0.1318-1.889-0.1973-3.031-0.1973zm-671.6 0.9219v9.291h13.31v35.58h9.686v-35.58h13.57v-9.291zm502.7 4.877-1.977 7.775h-4.875v8.83h5.008v12.65c0 3.997 1.011 6.874 3.031 8.631 2.065 1.757 4.875 2.637 8.434 2.637 1.098 0 2.064-0.0655 2.898-0.1972 0.8786-0.1318 1.693-0.3077 2.439-0.5273v-9.027c-0.3954 0.1318-0.9007 0.2628-1.516 0.3945-0.571 0.0879-1.187 0.1328-1.846 0.1328-1.142 0-2.065-0.3088-2.768-0.9238-0.7028-0.6589-1.055-1.735-1.055-3.229v-10.54h7.184v-8.83h-7.184v-7.775zm-413.6 6.984c-1.406 0-2.789 0.3518-4.15 1.055-1.318 0.6589-2.482 1.471-3.492 2.438-0.224 0.224-0.4363 0.442-0.6367 0.6543l-0.9453-3.355h-7.117v32.22h9.621v-21.43c0.3594-0.3213 0.7542-0.6022 1.186-0.8418 1.625-0.9225 3.845-1.383 6.656-1.383h2.174v-8.764c-0.3514-0.2196-0.8137-0.375-1.385-0.4629-0.5711-0.0879-1.207-0.1308-1.91-0.1308zm27.68 0c-1.889 0-3.691 0.3069-5.404 0.9219-1.713 0.615-3.295 1.45-4.744 2.504-0.4886 0.3554-0.9604 0.7232-1.414 1.104l-1.156-3.738h-7.115v32.22h9.619v-20.35c0.4486-0.4252 0.9334-0.8235 1.451-1.193 0.9225-0.6589 1.866-1.164 2.832-1.516 1.01-0.3954 1.978-0.5918 2.9-0.5918 1.098 0 1.976 0.3069 2.635 0.9219 0.6589 0.5711 0.9883 1.778 0.9883 3.623v19.11h9.621v-19.63c0-1.713-0.1329-3.362-0.3965-4.943-0.2196-1.625-0.7024-3.074-1.449-4.348-0.7028-1.274-1.736-2.264-3.098-2.967-1.362-0.7468-3.117-1.119-5.27-1.119zm82.86 0c-3.339 0-6.282 0.7242-8.83 2.174-2.548 1.406-4.524 3.384-5.93 5.932-1.406 2.548-2.109 5.49-2.109 8.828 0 3.295 0.7037 6.216 2.109 8.764 1.406 2.548 3.382 4.546 5.93 5.996 2.548 1.406 5.492 2.109 8.83 2.109 3.382 0 6.347-0.7037 8.895-2.109 2.548-1.45 4.526-3.448 5.932-5.996 1.45-2.548 2.174-5.469 2.174-8.764 0-3.339-0.7242-6.28-2.174-8.828-1.406-2.548-3.384-4.526-5.932-5.932-2.548-1.45-5.512-2.174-8.895-2.174zm74.38 0c-1.406 0-2.789 0.3518-4.15 1.055-1.318 0.6589-2.482 1.471-3.492 2.438-0.224 0.224-0.4363 0.442-0.6367 0.6543l-0.9453-3.355h-7.115v32.22h9.619v-21.43c0.3594-0.3213 0.7542-0.6022 1.186-0.8418 1.625-0.9225 3.845-1.383 6.656-1.383h2.174v-8.764c-0.3514-0.2196-0.8118-0.375-1.383-0.4629-0.5711-0.0879-1.209-0.1308-1.912-0.1308zm39.54 0c-3.295 0-6.193 0.7242-8.697 2.174-2.46 1.45-4.371 3.448-5.732 5.996-1.362 2.504-2.043 5.405-2.043 8.699s0.6812 6.216 2.043 8.764c1.362 2.548 3.272 4.546 5.732 5.996 2.504 1.45 5.403 2.174 8.697 2.174 3.514 0 6.611-0.8796 9.291-2.637 2.68-1.801 4.59-4.195 5.732-7.182l-8.697-3.822c-0.615 1.362-1.427 2.417-2.438 3.164-1.01 0.7468-2.285 1.119-3.822 1.119-1.933 0-3.557-0.6587-4.875-1.977-1.318-1.362-1.979-3.228-1.979-5.6s0.6607-4.217 1.979-5.535c1.318-1.362 2.942-2.043 4.875-2.043 1.537 0 2.812 0.3948 3.822 1.186 1.01 0.7468 1.823 1.8 2.438 3.162l8.697-3.887c-1.142-2.987-3.03-5.36-5.666-7.117-2.636-1.757-5.755-2.635-9.357-2.635zm33.62 0c-3.339 0-6.28 0.7242-8.828 2.174-2.548 1.406-4.526 3.384-5.932 5.932-1.406 2.548-2.107 5.49-2.107 8.828 0 3.295 0.7017 6.216 2.107 8.764 1.406 2.548 3.384 4.546 5.932 5.996 2.548 1.406 5.49 2.109 8.828 2.109 3.382 0 6.349-0.7037 8.896-2.109 2.548-1.45 4.524-3.448 5.93-5.996 1.45-2.548 2.174-5.469 2.174-8.764 0-3.339-0.7242-6.28-2.174-8.828-1.406-2.548-3.382-4.526-5.93-5.932-2.548-1.45-5.514-2.174-8.896-2.174zm41.05 0c-1.801 0-3.536 0.3069-5.205 0.9219-1.669 0.615-3.206 1.45-4.611 2.504-0.449 0.3368-0.8832 0.6858-1.301 1.045l-1.139-3.68h-7.115v32.22h9.619v-20.39c0.7922-0.7886 1.649-1.459 2.57-2.012 1.318-0.8346 2.658-1.252 4.02-1.252 0.9664 0 1.779 0.3069 2.438 0.9219 0.6589 0.5711 0.9883 1.778 0.9883 3.623v19.11h9.621v-19.64c0-0.2505-2e-3 -0.4984-8e-3 -0.7461 0.7946-0.7922 1.654-1.465 2.578-2.02 1.318-0.8346 2.678-1.252 4.084-1.252 0.9664 0 1.758 0.3069 2.373 0.9219 0.6589 0.5711 0.9883 1.778 0.9883 3.623v19.11h9.686v-19.63c0-1.713-0.1308-3.362-0.3945-4.943-0.2634-1.625-0.7259-3.074-1.385-4.348-0.6589-1.274-1.647-2.264-2.965-2.967-1.318-0.7468-3.053-1.119-5.205-1.119-1.801 0-3.536 0.3069-5.205 0.9219-1.625 0.615-3.141 1.45-4.547 2.504-0.5167 0.3875-1.015 0.7898-1.496 1.207-0.0892-0.1862-0.1844-0.3676-0.2831-0.5469-0.6589-1.274-1.647-2.264-2.965-2.967-1.274-0.7468-2.988-1.119-5.141-1.119zm53.83 0c-2.811 0-5.27 0.6812-7.379 2.043-0.858 0.5541-1.641 1.207-2.346 1.957l-0.9492-3.209h-7.182v44.74h9.619v-14.14c0.2351 0.1756 0.4763 0.3435 0.7246 0.502 2.109 1.274 4.592 1.91 7.447 1.91 2.899 0 5.469-0.7037 7.709-2.109 2.24-1.45 3.998-3.448 5.271-5.996 1.274-2.548 1.91-5.469 1.91-8.764 0-3.339-0.6362-6.28-1.91-8.828-1.23-2.548-2.967-4.526-5.207-5.932-2.196-1.45-4.766-2.174-7.709-2.174zm95.72 0c-3.207 0-6.04 0.7242-8.5 2.174-2.416 1.406-4.306 3.384-5.668 5.932-1.318 2.548-1.977 5.49-1.977 8.828 0 3.382 0.6587 6.326 1.977 8.83 1.362 2.504 3.252 4.437 5.668 5.799 2.46 1.362 5.293 2.043 8.5 2.043 3.514 0 6.544-0.7037 9.092-2.109 2.548-1.45 4.526-3.471 5.932-6.063l-6.523-3.623c-0.8346 1.23-1.868 2.261-3.098 3.096-1.186 0.8346-2.81 1.252-4.875 1.252-2.46 0-4.393-0.6587-5.799-1.977-1.13-1.13-1.792-2.624-1.984-4.48h23.2c0.0442-0.3075 0.0888-0.7248 0.1327-1.252 0.0439-0.5271 0.0646-1.075 0.0646-1.646 0-3.163-0.6587-5.996-1.977-8.5-1.318-2.548-3.184-4.569-5.6-6.063-2.416-1.494-5.272-2.24-8.566-2.24zm37.29 0c-1.406 0-2.791 0.3518-4.152 1.055-1.318 0.6589-2.482 1.471-3.492 2.438-0.2238 0.2237-0.4365 0.4404-0.6367 0.6523l-0.9434-3.354h-7.117v32.22h9.621v-21.43c0.3594-0.3213 0.7543-0.6022 1.186-0.8418 1.625-0.9225 3.843-1.383 6.654-1.383h2.176v-8.764c-0.3515-0.2196-0.8137-0.375-1.385-0.4629-0.571-0.0879-1.207-0.1308-1.91-0.1308zm40 0c-3.339 0-6.282 0.7242-8.83 2.174-2.548 1.406-4.524 3.384-5.93 5.932-1.406 2.548-2.109 5.49-2.109 8.828 0 3.295 0.7037 6.216 2.109 8.764 1.406 2.548 3.382 4.546 5.93 5.996 2.548 1.406 5.492 2.109 8.83 2.109 3.382 0 6.347-0.7037 8.895-2.109 2.548-1.45 4.526-3.448 5.932-5.996 1.45-2.548 2.174-5.469 2.174-8.764 0-3.339-0.7242-6.28-2.174-8.828-1.406-2.548-3.384-4.526-5.932-5.932-2.548-1.45-5.512-2.174-8.895-2.174zm-579.2 0.791v19.63c0 1.801 0.131 3.515 0.3945 5.141 0.3075 1.581 0.8577 3.009 1.648 4.283 0.8346 1.23 1.976 2.196 3.426 2.898 1.494 0.7028 3.427 1.055 5.799 1.055 1.713 0 3.338-0.3069 4.875-0.9219 1.537-0.615 2.988-1.45 4.35-2.504 0.4297-0.3357 0.8434-0.6793 1.24-1.027l1.133 3.662h7.182v-32.22h-9.686v20.53c-0.4148 0.4213-0.8546 0.8045-1.318 1.152-0.8786 0.615-1.779 1.098-2.701 1.449-0.9225 0.3075-1.868 0.4629-2.834 0.4629-1.098 0-2.021-0.2863-2.768-0.8574-0.7468-0.615-1.121-1.824-1.121-3.625v-19.11zm111.8 0 12.71 29.3-6.709 15.44h9.818l19.37-44.74h-9.752l-7.857 18.09-7.824-18.09zm73.1 0v19.63c0 1.801 0.131 3.515 0.3945 5.141 0.3075 1.581 0.8577 3.009 1.648 4.283 0.8346 1.23 1.976 2.196 3.426 2.898 1.494 0.7028 3.427 1.055 5.799 1.055 1.713 0 3.339-0.3069 4.877-0.9219 1.537-0.615 2.986-1.45 4.348-2.504 0.4297-0.3357 0.8434-0.6794 1.24-1.027l1.133 3.662h7.182v-32.22h-9.686v20.53c-0.4148 0.4213-0.8546 0.8045-1.318 1.152-0.8786 0.615-1.779 1.098-2.701 1.449-0.9225 0.3075-1.868 0.4629-2.834 0.4629-1.098 0-2.021-0.2863-2.768-0.8574-0.7468-0.615-1.119-1.824-1.119-3.625v-19.11zm240.2 0v19.63c0 1.801 0.133 3.515 0.3965 5.141 0.3076 1.581 0.8558 3.009 1.646 4.283 0.8347 1.23 1.976 2.196 3.426 2.898 1.494 0.7028 3.427 1.055 5.799 1.055 1.713 0 3.339-0.3069 4.877-0.9219 1.537-0.615 2.986-1.45 4.348-2.504 0.4297-0.3357 0.8434-0.6793 1.24-1.027l1.133 3.662h7.182v-32.22h-9.686v20.53c-0.4148 0.4213-0.8546 0.8045-1.318 1.152-0.8786 0.615-1.779 1.098-2.701 1.449-0.9225 0.3075-1.868 0.4629-2.834 0.4629-1.098 0-2.021-0.2863-2.768-0.8574-0.7468-0.615-1.119-1.824-1.119-3.625v-19.11zm76.89 6.654c2.504 0 4.347 0.7692 5.533 2.307 0.709 0.8863 1.215 1.919 1.516 3.098h-14.22c0.2888-1.321 0.8775-2.442 1.768-3.361 1.362-1.362 3.164-2.043 5.404-2.043zm-97.63 1.582c1.977 0 3.601 0.7467 4.875 2.24 1.318 1.45 1.977 3.338 1.977 5.666 0 2.284-0.6587 4.174-1.977 5.668-1.274 1.45-2.898 2.174-4.875 2.174-1.933 0-3.559-0.7242-4.877-2.174-1.318-1.494-1.977-3.404-1.977-5.732 0-2.284 0.6587-4.152 1.977-5.602 1.318-1.494 2.944-2.24 4.877-2.24zm-240.6 0.2637c2.152 0 3.887 0.7017 5.205 2.107 1.362 1.406 2.043 3.251 2.043 5.535 0 2.24-0.6812 4.063-2.043 5.469-1.318 1.362-3.053 2.043-5.205 2.043-2.065 0-3.777-0.6812-5.139-2.043-1.318-1.406-1.979-3.249-1.979-5.533s0.6607-4.109 1.979-5.471c1.362-1.406 3.074-2.107 5.139-2.107zm147.5 0c2.152 0 3.889 0.7017 5.207 2.107 1.362 1.406 2.041 3.251 2.041 5.535 0 2.24-0.6792 4.063-2.041 5.469-1.318 1.362-3.055 2.043-5.207 2.043-2.065 0-3.777-0.6812-5.139-2.043-1.318-1.406-1.977-3.249-1.977-5.533s0.6587-4.109 1.977-5.471c1.362-1.406 3.074-2.107 5.139-2.107zm267.9 0c2.152 0 3.887 0.7017 5.205 2.107 1.362 1.406 2.043 3.251 2.043 5.535 0 2.24-0.6812 4.063-2.043 5.469-1.318 1.362-3.053 2.043-5.205 2.043-2.065 0-3.779-0.6812-5.141-2.043-1.318-1.406-1.977-3.249-1.977-5.533s0.6587-4.109 1.977-5.471c1.362-1.406 3.076-2.107 5.141-2.107zm-524.5 48.98c-2.196 0-4.13 0.4603-5.799 1.383-1.625 0.8786-2.9 2.176-3.822 3.889-0.8786 1.713-1.318 3.777-1.318 6.193v3.098h-4.348v8.828h4.348v22.4h9.688v-22.4h5.666v-8.828h-5.666v-1.582c0-1.406 0.2844-2.416 0.8555-3.031 0.615-0.6589 1.472-0.9883 2.57-0.9883 0.6589 0 1.207 0.043 1.646 0.1308 0.4832 0.0879 0.923 0.1758 1.318 0.2637v-8.764c-0.5271-0.1318-1.229-0.2628-2.107-0.3945-0.8786-0.1318-1.889-0.1973-3.031-0.1973zm135.9 0.1308c-3.295 0-6.193 0.9451-8.697 2.834-2.46 1.889-4.371 4.569-5.732 8.039-1.318 3.47-1.977 7.621-1.977 12.45s0.6587 8.983 1.977 12.45c1.362 3.426 3.272 6.063 5.732 7.908 2.504 1.845 5.403 2.768 8.697 2.768 3.339 0 6.237-0.9226 8.697-2.768s4.35-4.482 5.668-7.908c1.362-3.47 2.041-7.621 2.041-12.45s-0.6792-8.983-2.041-12.45c-1.318-3.47-3.208-6.15-5.668-8.039s-5.359-2.834-8.697-2.834zm35.13 0c-3.163 0-5.974 0.6157-8.434 1.846-2.416 1.186-4.811 3.162-7.184 5.93l6.195 6.193c1.318-1.537 2.658-2.679 4.02-3.426 1.362-0.7907 2.833-1.186 4.414-1.186 1.625 0 2.877 0.3724 3.756 1.119 0.9225 0.7468 1.383 1.78 1.383 3.098 0 1.537-0.6138 2.724-1.844 3.559-1.23 0.8346-3.01 1.252-5.338 1.252h-1.318c-0.4393-0.0439-1.01-0.1094-1.713-0.1972v8.367c0.615-0.0879 1.208-0.1308 1.779-0.1308 0.5711-0.0439 1.121-0.0664 1.648-0.0664 1.669 0 3.14 0.1965 4.414 0.5918 1.274 0.3514 2.262 0.9447 2.965 1.779 0.7468 0.7907 1.121 1.846 1.121 3.164 0 1.537-0.5932 2.789-1.779 3.756-1.142 0.9664-2.791 1.449-4.943 1.449-1.845 0-3.514-0.3518-5.008-1.055-1.494-0.7028-2.919-1.779-4.281-3.229l-6.129 5.865c2.152 2.592 4.525 4.545 7.117 5.863 2.636 1.274 5.753 1.912 9.355 1.912 3.251 0 6.018-0.6157 8.303-1.846 2.328-1.23 4.085-2.856 5.271-4.877 1.23-2.065 1.846-4.348 1.846-6.852 0-2.767-0.7037-5.118-2.109-7.051-1.2-1.703-2.858-3.03-4.979-3.982 0.4304-0.2742 0.8373-0.5734 1.223-0.8945 2.636-2.24 3.953-5.205 3.953-8.895 0-2.328-0.5483-4.392-1.646-6.193-1.054-1.801-2.615-3.229-4.68-4.283-2.065-1.054-4.524-1.582-7.379-1.582zm135.4 0c-3.295 0-6.193 0.9451-8.697 2.834-2.46 1.889-4.371 4.569-5.732 8.039-1.318 3.47-1.979 7.621-1.979 12.45s0.6607 8.983 1.979 12.45c1.362 3.426 3.272 6.063 5.732 7.908 2.504 1.845 5.403 2.768 8.697 2.768 3.339 0 6.237-0.9226 8.697-2.768 2.46-1.845 4.35-4.482 5.668-7.908 1.362-3.47 2.041-7.621 2.041-12.45s-0.6792-8.983-2.041-12.45c-1.318-3.47-3.208-6.15-5.668-8.039-2.46-1.889-5.359-2.834-8.697-2.834zm-391.7 0.791v44.87h7.182l0.957-3.234c0.7034 0.7506 1.483 1.412 2.338 1.982 2.109 1.362 4.568 2.043 7.379 2.043 2.943 0 5.515-0.7037 7.711-2.109 2.24-1.45 3.975-3.448 5.205-5.996 1.274-2.592 1.91-5.536 1.91-8.83s-0.6362-6.216-1.91-8.764c-1.274-2.548-3.031-4.524-5.271-5.93-2.24-1.45-4.81-2.174-7.709-2.174-2.855 0-5.339 0.6587-7.447 1.977-0.2483 0.1532-0.4897 0.3154-0.7246 0.4863v-14.32zm304 0c-0.3954 1.274-1.097 2.395-2.107 3.361-1.01 0.9664-2.242 1.713-3.691 2.24-1.406 0.5271-2.942 0.7891-4.611 0.7891v9.094c2.109 0 3.954-0.2414 5.535-0.7246 0.9934-0.3222 1.871-0.6856 2.635-1.09v31.2h9.621v-44.87zm24.25 0-9.949 28.6v5.732h19.17v10.54h9.752v-10.54h5.932v-9.357h-5.932v-10.81h-6.654l-3.643 10.81h-7.732l8.607-24.97zm82.78 0v9.291h18.68l-17.1 35.58h10.67l17.13-36.7v-8.17zm-189.9 8.697c1.669 0 2.987 0.6812 3.953 2.043 0.9664 1.362 1.648 3.097 2.043 5.205 0.4393 2.109 0.6582 4.306 0.6582 6.59 0 2.46-0.2189 4.745-0.6582 6.854-0.4393 2.109-1.143 3.798-2.109 5.072-0.9225 1.23-2.217 1.846-3.887 1.846s-2.987-0.6157-3.953-1.846c-0.9664-1.274-1.67-2.964-2.109-5.072-0.3954-2.109-0.5918-4.394-0.5918-6.854 0-2.284 0.1965-4.481 0.5918-6.59 0.3954-2.109 1.077-3.843 2.043-5.205 1.01-1.362 2.35-2.043 4.02-2.043zm170.5 0c1.669 0 2.987 0.6812 3.953 2.043 0.9664 1.362 1.648 3.097 2.043 5.205 0.4393 2.109 0.6582 4.306 0.6582 6.59 0 2.46-0.2188 4.745-0.6582 6.854-0.4393 2.109-1.143 3.798-2.109 5.072-0.9225 1.23-2.217 1.846-3.887 1.846-1.669 0-2.987-0.6157-3.953-1.846-0.9664-1.274-1.67-2.964-2.109-5.072-0.3954-2.109-0.5918-4.394-0.5918-6.854 0-2.284 0.1965-4.481 0.5918-6.59 0.3953-2.109 1.077-3.843 2.043-5.205 1.01-1.362 2.35-2.043 4.02-2.043zm-108.6 2.57c-1.186 0-2.285 0.3069-3.295 0.9219-1.01 0.615-1.823 1.429-2.438 2.439-0.615 0.9664-0.9219 2.063-0.9219 3.293 0 1.186 0.3069 2.285 0.9219 3.295 0.615 1.01 1.427 1.823 2.438 2.438 1.01 0.615 2.109 0.9238 3.295 0.9238 1.274 0 2.415-0.3088 3.426-0.9238 1.01-0.615 1.802-1.427 2.373-2.438 0.615-1.01 0.9219-2.109 0.9219-3.295 0-1.23-0.3069-2.327-0.9219-3.293-0.5711-1.01-1.363-1.824-2.373-2.439-1.01-0.615-2.152-0.9219-3.426-0.9219zm80.83 0c-1.186 0-2.285 0.3069-3.295 0.9219-1.01 0.615-1.822 1.429-2.437 2.439-0.615 0.9664-0.9219 2.063-0.9219 3.293 0 1.186 0.3069 2.285 0.9219 3.295 0.615 1.01 1.427 1.823 2.437 2.438 1.01 0.615 2.109 0.9238 3.295 0.9238 1.274 0 2.415-0.3088 3.426-0.9238 1.01-0.615 1.802-1.427 2.373-2.438 0.615-1.01 0.9219-2.109 0.9219-3.295 0-1.23-0.3069-2.327-0.9219-3.293-0.571-1.01-1.363-1.824-2.373-2.439-1.01-0.615-2.152-0.9219-3.426-0.9219zm-312.6 0.5938c-3.207 0-6.04 0.7242-8.5 2.174-2.416 1.406-4.306 3.382-5.668 5.93-1.318 2.548-1.977 5.492-1.977 8.83 0 3.382 0.6587 6.326 1.977 8.83 1.362 2.504 3.252 4.437 5.668 5.799 2.46 1.362 5.293 2.041 8.5 2.041 3.514 0 6.546-0.7017 9.094-2.107 2.548-1.45 4.524-3.471 5.93-6.063l-6.523-3.625c-0.8346 1.23-1.868 2.263-3.098 3.098-1.186 0.8346-2.81 1.252-4.875 1.252-2.46 0-4.393-0.6587-5.799-1.977-1.13-1.13-1.792-2.624-1.984-4.48h23.2c0.044-0.3075 0.0889-0.7248 0.1328-1.252 0.0439-0.5271 0.0644-1.077 0.0644-1.648 0-3.163-0.6587-5.996-1.977-8.5-1.318-2.548-3.184-4.567-5.6-6.061-2.416-1.494-5.272-2.24-8.566-2.24zm57.96 0c-3.339 0-6.28 0.7242-8.828 2.174-2.548 1.406-4.526 3.382-5.932 5.93-1.406 2.548-2.107 5.492-2.107 8.83 0 3.295 0.7017 6.216 2.107 8.764 1.406 2.548 3.384 4.546 5.932 5.996 2.548 1.406 5.49 2.109 8.828 2.109 3.382 0 6.349-0.7037 8.896-2.109 2.548-1.45 4.524-3.448 5.93-5.996 1.45-2.548 2.174-5.469 2.174-8.764 0-3.339-0.7242-6.282-2.174-8.83-1.406-2.548-3.382-4.524-5.93-5.93-2.548-1.45-5.514-2.174-8.896-2.174zm38.02 0c-1.406 0-2.789 0.3499-4.15 1.053-1.318 0.6589-2.482 1.473-3.492 2.439-0.224 0.224-0.4363 0.442-0.6367 0.6543l-0.9453-3.357h-7.115v32.22h9.619v-21.43c0.3594-0.3213 0.7562-0.6002 1.188-0.8398 1.625-0.9225 3.843-1.385 6.654-1.385h2.174v-8.764c-0.3514-0.2196-0.8118-0.3731-1.383-0.4609-0.5711-0.0879-1.209-0.1308-1.912-0.1308zm20.7 0c-3.207 0-6.04 0.7242-8.5 2.174-2.416 1.406-4.304 3.382-5.666 5.93-1.318 2.548-1.977 5.492-1.977 8.83 0 3.382 0.6587 6.326 1.977 8.83 1.362 2.504 3.25 4.437 5.666 5.799 2.46 1.362 5.293 2.041 8.5 2.041 3.514 0 6.546-0.7017 9.094-2.107 2.548-1.45 4.524-3.471 5.93-6.063l-6.523-3.625c-0.8346 1.23-1.866 2.263-3.096 3.098-1.186 0.8346-2.812 1.252-4.877 1.252-2.46 0-4.391-0.6587-5.797-1.977-1.13-1.13-1.792-2.624-1.984-4.48h23.2c0.044-0.3075 0.0869-0.7248 0.1308-1.252 0.0439-0.5271 0.0664-1.077 0.0664-1.648 0-3.163-0.6587-5.996-1.977-8.5-1.318-2.548-3.186-4.567-5.602-6.061-2.416-1.494-5.272-2.24-8.566-2.24zm309.6 0c-3.339 0-6.28 0.7242-8.828 2.174-2.548 1.406-4.526 3.382-5.932 5.93-1.406 2.548-2.107 5.492-2.107 8.83 0 3.295 0.7017 6.216 2.107 8.764 1.406 2.548 3.384 4.546 5.932 5.996 2.548 1.406 5.49 2.109 8.828 2.109 3.382 0 6.349-0.7037 8.897-2.109 2.548-1.45 4.524-3.448 5.93-5.996 1.45-2.548 2.174-5.469 2.174-8.764 0-3.339-0.7242-6.282-2.174-8.83-1.406-2.548-3.382-4.524-5.93-5.93-2.548-1.45-5.514-2.174-8.897-2.174zm41.51 0c-1.889 0-3.691 0.3069-5.404 0.9219-1.713 0.615-3.295 1.45-4.744 2.504-0.4886 0.3554-0.9604 0.7232-1.414 1.104l-1.156-3.74h-7.115v32.22h9.619v-20.36c0.4486-0.4252 0.9334-0.8216 1.451-1.191 0.9225-0.6589 1.866-1.164 2.832-1.516 1.01-0.3954 1.978-0.5938 2.9-0.5938 1.098 0 1.976 0.3088 2.635 0.9238 0.6589 0.5711 0.9883 1.778 0.9883 3.623v19.11h9.621v-19.64c0-1.713-0.133-3.36-0.3965-4.941-0.2196-1.625-0.7025-3.076-1.449-4.35-0.7028-1.274-1.736-2.262-3.098-2.965-1.362-0.7468-3.117-1.119-5.27-1.119zm-467.8 7.445c2.504 0 4.347 0.7692 5.533 2.307 0.709 0.8863 1.215 1.917 1.516 3.096h-14.22c0.2889-1.321 0.8775-2.44 1.768-3.359 1.362-1.362 3.164-2.043 5.404-2.043zm116.7 0c2.504 0 4.349 0.7692 5.535 2.307 0.7091 0.8863 1.213 1.917 1.514 3.096h-14.22c0.2889-1.321 0.8794-2.44 1.77-3.359 1.362-1.362 3.162-2.043 5.402-2.043zm-152 1.582c1.977 0 3.601 0.7467 4.875 2.24 1.318 1.45 1.977 3.315 1.977 5.6 0 2.328-0.6587 4.239-1.977 5.732-1.274 1.45-2.898 2.176-4.875 2.176-1.933 0-3.559-0.7262-4.877-2.176-1.318-1.494-1.977-3.404-1.977-5.732 0-2.284 0.6587-4.15 1.977-5.6 1.318-1.494 2.944-2.24 4.877-2.24zm93.24 0.2637c2.152 0 3.889 0.7017 5.207 2.107 1.362 1.406 2.041 3.251 2.041 5.535 0 2.24-0.6792 4.063-2.041 5.469-1.318 1.362-3.055 2.043-5.207 2.043-2.065 0-3.777-0.6812-5.139-2.043-1.318-1.406-1.977-3.251-1.977-5.535 0-2.284 0.6587-4.107 1.977-5.469 1.362-1.406 3.074-2.107 5.139-2.107zm368.4 0c2.152 0 3.889 0.7017 5.207 2.107 1.362 1.406 2.041 3.251 2.041 5.535 0 2.24-0.6793 4.063-2.041 5.469-1.318 1.362-3.055 2.043-5.207 2.043-2.065 0-3.777-0.6812-5.139-2.043-1.318-1.406-1.977-3.251-1.977-5.535 0-2.284 0.6587-4.107 1.977-5.469 1.362-1.406 3.074-2.107 5.139-2.107zm-194.6 11.07c-1.186 0-2.285 0.3088-3.295 0.9238-1.01 0.5711-1.823 1.361-2.438 2.371s-0.9219 2.131-0.9219 3.361c0 1.186 0.3069 2.285 0.9219 3.295 0.615 1.01 1.427 1.823 2.438 2.438 1.01 0.615 2.109 0.9219 3.295 0.9219 1.274 0 2.415-0.3069 3.426-0.9219 1.01-0.615 1.802-1.427 2.373-2.438 0.615-1.01 0.9219-2.109 0.9219-3.295 0-1.23-0.3069-2.351-0.9219-3.361-0.5711-1.01-1.363-1.8-2.373-2.371-1.01-0.615-2.152-0.9238-3.426-0.9238zm80.83 0c-1.186 0-2.285 0.3088-3.295 0.9238-1.01 0.5711-1.822 1.361-2.437 2.371-0.615 1.01-0.9219 2.131-0.9219 3.361 0 1.186 0.3069 2.285 0.9219 3.295 0.615 1.01 1.427 1.823 2.437 2.438 1.01 0.615 2.109 0.9219 3.295 0.9219 1.274 0 2.415-0.3069 3.426-0.9219 1.01-0.615 1.802-1.427 2.373-2.438 0.615-1.01 0.9219-2.109 0.9219-3.295 0-1.23-0.3069-2.351-0.9219-3.361-0.571-1.01-1.363-1.8-2.373-2.371-1.01-0.615-2.152-0.9238-3.426-0.9238z"/>
  <path fill="#f6ed38" d="m72.74 441.3q-6.573 0-11.57-3.681-4.908-3.681-7.625-10.52-2.629-6.924-2.629-16.56t2.629-16.56q2.717-6.924 7.625-10.69 4.996-3.769 11.57-3.769 6.661 0 11.57 3.769t7.537 10.69q2.717 6.924 2.717 16.56t-2.717 16.56q-2.629 6.836-7.537 10.52-4.908 3.681-11.57 3.681zm0-12.45q3.33 0 5.171-2.454 1.928-2.542 2.805-6.749 0.8764-4.207 0.8764-9.115 0-4.558-0.8764-8.764-0.7888-4.207-2.717-6.924-1.928-2.717-5.259-2.717-3.33 0-5.346 2.717-1.928 2.717-2.717 6.924-0.7888 4.207-0.7888 8.764 0 4.908 0.7888 9.115 0.8764 4.207 2.805 6.749 1.928 2.454 5.259 2.454zm37.6-37.86 4.382 3.506q-0.5259 1.578-2.629 3.155-2.016 1.49-5.259 2.542-3.155 0.9641-7.362 0.9641v-12.09q3.331 0 6.135-1.052 2.892-1.052 4.908-2.98 2.016-1.928 2.805-4.47h9.816v59.69h-12.8zm27.84 58.28-10.69-4.996 33.83-69.33 10.6 4.996zm45.43-58.28 4.382 3.506q-0.5259 1.578-2.629 3.155-2.016 1.49-5.259 2.542-3.155 0.9641-7.362 0.9641v-12.09q3.33 0 6.135-1.052 2.892-1.052 4.908-2.98 2.016-1.928 2.805-4.47h9.816v59.69h-12.8zm65.73 17.7q0 10.52-3.068 17.79-3.068 7.187-8.764 11.04-5.609 3.769-13.32 3.769-5.171 0-9.816-1.841-4.558-1.928-8.239-5.083l7.187-8.94q2.366 1.841 5.083 2.892 2.717 1.052 5.522 1.052 3.593 0 6.398-2.016 2.892-2.103 4.47-6.836 1.665-4.733 1.402-12.8h2.805q-2.279 5.259-6.573 7.976-4.295 2.717-9.991 2.717-5.171 0-9.115-2.366-3.944-2.454-6.135-6.573-2.103-4.207-2.103-9.553 0-5.872 2.454-10.43 2.542-4.645 7.187-7.275 4.733-2.717 11.48-2.717 7.012 0 12.18 3.243 5.259 3.243 8.063 9.729 2.892 6.486 2.892 16.21zm-14.02-9.29q0-3.856-2.542-5.872-2.454-2.103-6.223-2.103-3.944 0-6.398 2.103-2.454 2.104-2.454 5.872 0 3.769 2.454 5.96 2.454 2.103 6.398 2.103 3.769 0 6.223-2.103 2.542-2.191 2.542-5.96zm21.87 49.87-10.69-4.996 33.83-69.33 10.6 4.996zm72.5-52.94q0 3.681-1.052 7.099-0.9641 3.418-3.418 7.012-2.366 3.593-6.573 8.063l-13.85 15.16-1.49-5.785h26.91v12.36h-38.13v-10.69l15.78-16.74q3.681-3.944 5.697-6.486 2.016-2.629 2.717-4.558 0.7888-2.016 0.7888-3.856 0-2.805-1.665-4.382-1.665-1.578-4.119-1.578-2.717 0-5.609 1.841-2.805 1.841-5.96 6.135l-9.115-6.924q2.454-3.944 5.434-6.924 3.068-3.068 6.924-4.82 3.944-1.753 8.677-1.753 5.697 0 9.729 2.279 4.032 2.279 6.135 6.135 2.191 3.769 2.191 8.414zm28.66 44.96q-6.573 0-11.57-3.681-4.908-3.681-7.625-10.52-2.629-6.924-2.629-16.56t2.629-16.56q2.717-6.924 7.625-10.69 4.996-3.769 11.57-3.769 6.661 0 11.57 3.769t7.537 10.69q2.717 6.924 2.717 16.56t-2.717 16.56q-2.629 6.836-7.537 10.52-4.908 3.681-11.57 3.681zm0-12.45q3.33 0 5.171-2.454 1.928-2.542 2.805-6.749 0.8764-4.207 0.8764-9.115 0-4.558-0.8764-8.764-0.7888-4.207-2.717-6.924-1.928-2.717-5.259-2.717-3.33 0-5.346 2.717-1.928 2.717-2.717 6.924-0.7888 4.207-0.7888 8.764 0 4.908 0.7888 9.115 0.8764 4.207 2.805 6.749 1.928 2.454 5.259 2.454zm46.99 12.45q-7.187 0-12.45-2.542-5.171-2.629-9.466-7.8l8.151-7.8q2.717 2.892 5.697 4.295 2.98 1.402 6.661 1.402 4.295 0 6.573-1.928 2.366-1.928 2.366-4.996 0-2.629-1.49-4.207-1.402-1.665-3.944-2.366-2.542-0.7888-5.872-0.7888-1.052 0-2.191 0.0877-1.139 0-2.366 0.1754v-11.13q1.402 0.1754 2.279 0.263 0.8764 0 1.753 0 4.645 0 7.099-1.665 2.454-1.665 2.454-4.733 0-2.629-1.841-4.119-1.753-1.49-4.996-1.49-3.155 0-5.872 1.578-2.717 1.49-5.346 4.558l-8.239-8.239q4.733-5.522 9.553-7.888 4.908-2.454 11.22-2.454 5.697 0 9.816 2.103t6.223 5.697q2.191 3.593 2.191 8.239 0 7.362-5.259 11.83-5.259 4.382-14.72 4.382l0.0877-5.697q6.749 0 11.83 2.016 5.083 1.928 7.8 5.785 2.805 3.856 2.805 9.378 0 4.996-2.454 9.115-2.366 4.032-7.012 6.486-4.558 2.454-11.04 2.454zm47.15 0q-6.836 0-11.57-2.279-4.645-2.279-7.012-6.31-2.366-4.032-2.366-9.115 0-3.856 1.753-7.187 1.841-3.418 5.259-5.872 3.418-2.542 8.239-3.681l-0.0877 5.434q-4.558-1.227-7.625-3.681-3.068-2.542-4.645-5.697-1.578-3.243-1.578-6.573 0-4.645 2.191-8.414 2.279-3.856 6.573-6.135 4.382-2.279 10.87-2.279 6.486 0 10.78 2.279 4.382 2.279 6.573 6.135 2.191 3.769 2.191 8.414 0 3.155-1.402 6.31-1.402 3.068-4.295 5.609-2.892 2.454-7.187 3.769l-0.1754-4.908q4.733 1.139 7.888 3.681 3.243 2.454 4.908 5.785 1.665 3.33 1.665 7.012 0 5.083-2.366 9.115-2.366 4.032-7.099 6.31-4.645 2.279-11.48 2.279zm0-12.01q3.681 0 5.785-1.928 2.191-1.928 2.191-5.171 0-3.331-2.191-5.259-2.103-2.016-5.785-2.016-3.681 0-5.872 2.016-2.103 1.928-2.103 5.259 0 3.243 2.103 5.171 2.191 1.928 5.872 1.928zm0-26.21q3.068 0 4.908-1.665 1.928-1.665 1.928-4.207 0-2.542-1.928-4.119-1.841-1.578-4.908-1.578-3.068 0-4.996 1.578-1.841 1.578-1.841 4.119 0 2.542 1.841 4.207 1.928 1.665 4.996 1.665z"/>
  <path d="m752.2 420.6c-1.105-1.443-1.419-2.648-1.176-4.512 0.3239-2.479 1.745-4.203 4.279-5.188 1.251-0.4862 1.687-0.5239 3.378-0.2922 2.072 0.2854 2.438 0.045 1.02-0.6695-0.4511-0.2275-0.7834-0.5187-0.7386-0.648 0.0435-0.1293 1.411-1.765 3.036-3.635 1.625-1.87 3.254-3.773 3.62-4.228l0.6648-0.8283 5.424 0.5327c2.983 0.2929 5.468 0.5898 5.521 0.6596 0.1066 0.1387-2.9 3.834-7.368 9.055-1.522 1.778-2.007 2.563-1.423 2.301 0.4069-0.1829 1.873 0.7785 2.098 1.376 0.1123 0.2974 0.1017 1.318-0.0264 2.269-0.1939 1.472-0.3496 1.866-1.049 2.655-1.003 1.132-1.919 1.689-3.581 2.181-1.705 0.504-3.125 0.5526-3.953 0.1357-0.8259-0.416-1.09-1.035-0.9373-2.194 0.1474-1.117 8e-3 -1.69-0.4323-1.747-0.2264-0.0302-0.3856 0.2392-0.4562 0.7732-0.2555 1.937-3.314 3.815-5.701 3.5-1.063-0.1402-1.265-0.2774-2.2-1.498zm43.06 6.645c-1.076-0.5048-2.238-1.569-2.341-2.143-0.0612-0.3522 0.1251-0.7658 0.5426-1.199 0.3511-0.3636 0.6351-0.9139 0.631-1.223-8e-3 -0.5015-0.1538-0.4404-1.383 0.5723-1.657 1.366-2.947 1.737-5.493 1.58-1.691-0.1039-2.078-0.2166-3.228-0.9382-1.452-0.9115-2.52-2.542-2.598-3.967-0.0809-1.473 0.9453-3.348 2.584-4.726 0.8062-0.6779 1.407-1.309 1.336-1.402-0.0714-0.0934-0.5106-0.068-0.9758 0.0556-0.7193 0.1924-0.8704 0.1686-1.011-0.1633-0.0911-0.2139-1.105-2.63-2.254-5.369s-2.212-5.248-2.362-5.576c-0.1512-0.3284-0.2158-0.6357-0.1451-0.6832 0.0707-0.0476 2.793 0.192 6.049 0.5323l5.92 0.6189 2.593 5.204c1.426 2.862 2.702 5.252 2.834 5.31 2.765 1.224 4.79 3.39 5.709 6.106 0.5196 1.535 0.5428 1.867 0.2321 3.32-0.4249 1.981-1.376 3.18-3.096 3.906-1.354 0.5708-2.579 0.6338-3.542 0.1822zm-64.67-9.512c-1.729-0.888-2.869-1.931-4.263-3.901-1.411-1.995-1.898-3.204-2.157-5.356-0.3926-3.266 1.417-5.887 5.438-7.875 0.7854-0.3882 1.442-0.8109 1.459-0.9393 0.0658-0.4998-0.712-0.5943-1.601-0.1935l-0.9321 0.4191-0.5263-0.9182c-0.8264-1.442-1.067-2.72-0.8388-4.452 0.4342-3.292 2.902-5.717 6.768-6.65 3.75-0.9055 6.617-0.2294 8.534 2.012 1.717 2.009 2.189 4.64 1.281 7.147l-0.2944 0.813 8.461 0.9276c7.784 0.8532 8.444 0.9587 8.25 1.316-0.116 0.2136-1.337 1.695-2.713 3.292-1.376 1.596-3.313 3.906-4.305 5.132l-1.803 2.229-3.255-0.3857c-1.79-0.2128-4.025-0.5041-4.966-0.652-1.705-0.2649-1.715-0.2706-2.63-1.586-1.191-1.711-1.574-1.226-0.7645 0.9695 0.989 2.683 0.2782 5.148-2.137 7.413-2.094 1.963-4.695 2.423-7.003 1.237zm86.18 8.808c-2.077-0.7553-4.115-2.729-4.727-4.577-0.359-1.086-0.2551-3.379 0.2562-5.427 0.0805-0.3247 0.0265-0.651-0.1187-0.7247-0.2899-0.1459-0.9802 0.8999-1.16 1.757-0.1104 0.5278-0.1875 0.5282-4.021 0.0227l-3.908-0.5155-0.599-1.287c-0.33-0.7078-1.788-3.646-3.242-6.53l-2.643-5.243 3.312 0.4042c1.822 0.2222 4.046 0.4785 4.943 0.5692 0.897 0.0918 3.192 0.3507 5.1 0.5782 3.096 0.3689 3.458 0.367 3.366-0.0151-0.1704-0.7104 0.7858-3.294 1.733-4.682 0.9153-1.342 3.074-3.076 4.443-3.569 3.183-1.147 7.031-0.2234 9.59 2.302 1.305 1.288 2.333 3.854 2.281 5.694-0.0631 2.24-1.483 5.066-3.77 7.504-1.71 1.823-1.796 2.433-0.1909 1.36 0.5565-0.3719 1.145-0.5818 1.339-0.4768 0.5934 0.3224 1.739 3.006 1.857 4.352 0.2657 3.002-1.66 6.278-4.568 7.773-2.437 1.253-6.877 1.603-9.273 0.7336zm-44.2-27.36c-0.6843-0.4233-0.9849-0.4786-1.786-0.3288-1.203 0.2249-4.979-0.6536-6.119-1.423-0.727-0.4908-0.814-0.4975-1.64-0.1262-0.4796 0.2154-1.196 0.3481-1.592 0.2944-0.8657-0.1172-3.102-1.495-3.193-1.967-0.0503-0.2585-0.2166-0.2574-0.7227 8e-3 -0.9012 0.4689-1.614 0.3266-2.954-0.591-2.093-1.432-2.772-2.682-2.758-5.073l8e-3 -1.398-2.206-1.943c-2.375-2.091-4.234-4.071-7.176-7.639-5.97-7.24-9.413-14.71-11.61-25.19-0.7106-3.393-1.427-9.016-1.285-10.09 0.042-0.3196 0.0113-0.9213-0.0658-1.337-0.3058-1.615 0.3613-15.35 0.7605-15.66 0.0654-0.0502 3.171 0.3114 6.902 0.8034l6.783 0.8946-0.4968 1.905c-0.6092 2.335-0.7917 6.685-0.4593 10.94 0.3031 3.84 1.666 11.41 2.069 11.46 0.3046 0.0401 0.6651-0.9772 0.947-2.672 0.0809-0.4788 0.637-2.065 1.238-3.524 4.388-10.64 13.74-17.61 25.39-18.91 3.165-0.3525 9.221 0.2521 12.14 1.212 3.541 1.164 6.084 2.654 9.589 5.617 5.491 4.642 9.293 9.802 11.67 15.83 1.165 2.96 2.23 7.124 2.254 8.813 0.0113 0.6673 0.1039 1.284 0.2105 1.371 0.2415 0.1972 1.209-0.896 1.069-1.208-0.0567-0.1262 0.0575-0.6598 0.2555-1.185 1.706-4.548 2.294-6.9 2.917-11.68 0.4858-3.729 0.595-5.378 0.4619-7.017-0.0956-1.178-0.1315-2.174-0.0797-2.214 0.0518-0.0395 6.094 0.638 13.43 1.506 11.65 1.378 13.33 1.624 13.28 1.945-0.1731 1.312-1.694 8.592-2.134 10.22-1.466 5.407-2.642 8.519-5.123 13.56-5.02 10.21-14.04 21.05-21.92 26.35-4.257 2.863-10.21 5.467-14.97 6.551l-2.282 0.5195-0.4473 1.282c-0.5879 1.684-1.202 2.078-3.134 2.008-1.281-0.0457-1.727-0.1742-2.54-0.7299l-0.986-0.6743-0.7315 0.5604c-0.6625 0.5076-0.9168 0.536-2.698 0.3008-1.558-0.2056-2.06-0.3689-2.414-0.7852-0.4345-0.5119-0.4693-0.5131-1.312-0.0457-0.7458 0.413-1.202 0.4447-3.291 0.226-1.781-0.1871-2.644-0.3897-3.248-0.7634zm5.356-0.8714c0.6193-0.3016 1.337-1.677 1.482-2.839 0.1992-1.6-0.0763-4.089-0.5237-4.737-0.8079-1.17-3.444-1.741-4.539-0.9845-0.4271 0.2948-0.5598 0.8365-0.9976 4.072-0.4891 3.618-0.4899 3.737 0.0151 3.907 0.9196 0.3088 4.252 0.735 4.563 0.584zm-7.057-1.411c0.434-0.4016 1.078-4.17 1.098-6.422 0.0113-1.097-0.0786-1.31-0.6632-1.606-0.5692-0.288-0.9423-0.2438-2.397 0.2827-0.9479 0.3432-1.884 0.8454-2.081 1.117-0.3866 0.5333-1.387 3.486-1.554 4.586-0.1281 0.8348 0.3541 1.21 2.236 1.744 2.24 0.6356 2.932 0.6972 3.362 0.2993zm13.73 1.722c0.4813-0.3693 0.6097-0.7672 0.8603-2.667 0.1625-1.228 0.226-2.522 0.1429-2.874-0.263-1.112-2.849-1.997-3.771-1.29-0.3405 0.2612-0.5166 0.887-0.7532 2.681-0.3492 2.649-0.2234 3.568 0.5489 4.003 0.9651 0.5438 2.364 0.613 2.972 0.147zm-21.33-3.393c0.4409-0.4543 0.7001-1.108 0.9399-2.371 0.2937-1.546 0.2755-1.821-0.1565-2.421-1.014-1.411-3.203-1.838-4.097-0.7993-0.5848 0.6788-1.206 3.468-0.9785 4.394 0.217 0.8833 1.383 1.636 2.701 1.744 0.7484 0.0612 1.126-0.068 1.59-0.5467zm27.36 4.193c0.9403 0.1153 1.706-3.062 1.267-5.258-0.1346-0.672-0.3443-1.235-0.467-1.251-0.7039-0.093-2.663 0.3409-3.316 0.7348-0.7113 0.4283-0.7789 0.5852-1.011 2.348-0.1871 1.417-0.1602 2.005 0.1062 2.353 0.4139 0.5408 1.755 1.11 2.495 1.058 0.2823-0.0189 0.6992-0.0113 0.9266 0.0151zm-33.38-6.186c0.6029-1.486 0.8372-3.258 0.5096-3.856-0.2011-0.3685-0.7152-0.5877-1.993-0.8501-2.019-0.4148-2.5-0.1667-2.662 1.37-0.161 1.529 0.4409 2.895 1.636 3.712 1.487 1.017 1.973 0.9439 2.508-0.3757zm17.31-11.07c0.3129-1.524 0.4148-1.723 0.8552-1.665 0.3481 0.0457 0.4961 0.2593 0.4875 0.7-0.0227 1.111 0.0786 1.79 0.2668 1.811 0.5215 0.0567 0.9711-0.4384 1.262-1.393 0.178-0.5852 0.8512-2.25 1.495-3.7 0.9092-2.047 1.185-2.948 1.235-4.033 0.1081-2.351 0.0378-7.362-0.1489-10.14-0.0937-1.451-0.1353-3.676-0.0873-4.945 0.0835-2.215-0.164-3.063-0.7602-2.606-0.3553 0.2723-1.472 5.829-1.795 8.928-0.2272 2.183-0.3375 2.625-0.642 2.585-0.6601-0.087-0.8423-1.319-0.5567-3.76 0.4088-3.494 0.4633-5.86 0.1383-6.017-0.4252-0.2051-1.031 1.45-1.315 3.595-0.15 1.131-0.7449 3.31-1.474 5.4-2.12 6.075-2.22 9.339-0.4824 15.75 0.5102 1.884 1.068 1.697 1.521-0.5127zm-27.24-3.608c0.0469-0.3534-0.141-1.179-0.4176-1.835-0.2767-0.6558-0.422-1.182-0.3228-1.169 0.0987 0.0113 0.0782-0.1372-0.0416-0.3334-0.4354-0.6921-0.2113-4.83 0.4748-8.764 0.6332-3.63 0.6517-3.973 0.3232-5.933-0.4285-2.556-1.045-4.079-1.686-4.164-0.6323-0.0834-0.6348 0.1064-0.0382 2.889l0.5117 2.386-0.6942 4.867c-0.8973 6.292-0.8101 8.326 0.4817 11.22 0.6782 1.517 1.277 1.873 1.413 0.8406zm54.83 6.662c1.393-1.196 2.998-4.633 3.119-6.681 0.034-0.5346 0.1557-1.091 0.2736-1.237 0.1187-0.1455 0.1175-0.3451-2e-3 -0.4432-0.1206-0.0983-0.2007-0.3742-0.1784-0.6132 0.1156-1.248 0.1935-3.558 0.1425-4.235-0.2302-3.065 0.4404-7.244 1.238-7.719 0.3209-0.1913 0.3803-0.3871 0.389-1.284 4e-3 -0.5119-0.8414-0.4759-1.278 0.0542-1.138 1.381-2.205 6.029-1.975 8.607 0.2022 2.258 0.0378 6.259-0.3288 7.967-0.5816 2.721-1.33 4.128-2.61 4.906-1.302 0.7906-1.47 1.295-0.4757 1.426 0.5054 0.0669 0.9898-0.1474 1.688-0.7471zm-33.35-14.46c0.3776-0.1819 0.8853-0.5617 1.129-0.8442 0.5858-0.6798 1.475-2.943 2.112-5.372 0.2835-1.081 0.8496-3.238 1.258-4.793 0.8704-3.312 0.8469-4.244-0.1735-6.888-1.198-3.105-1.506-3.505-2.832-3.674-1.478-0.1891-5.423 0.15-6.829 0.585-0.5946 0.1841-2.022 0.5244-3.171 0.7565-1.149 0.232-2.948 0.6977-3.997 1.035-1.774 0.5701-1.97 0.7069-2.801 1.954-0.85 1.276-0.9096 1.489-1.236 4.416-0.4198 3.76-0.2615 4.454 1.401 6.154 1.206 1.234 3.191 2.335 5.581 3.097 0.4697 0.1499 1.662 0.8878 2.65 1.64 2.882 2.194 5.087 2.812 6.909 1.934zm20.31 1.318c0.7866-0.1313 1.983-0.5295 2.66-0.8851 1.418-0.7453 3.327-1.445 3.797-1.392 0.7438 0.0832 3.387-0.8079 4.571-1.543 1.52-0.943 2.155-2.158 2.804-5.361 0.4264-2.105 0.4264-2.105-0.3538-4.242-1.413-3.874-3.246-5.621-6.989-6.665-5.102-1.422-8.88-0.6433-11.53 2.375-0.6545 0.7464-1.368 1.784-1.585 2.306-0.5736 1.379-0.5487 3.769 0.0665 6.334 0.294 1.228 0.8044 3.412 1.134 4.854 0.6878 3.013 1.063 4.015 1.59 4.25 0.5607 0.2509 2.226 0.2369 3.832-0.0314z"/>
</svg>
