<svg version="1.1" viewBox="0 0 320 480" xmlns="http://www.w3.org/2000/svg">
    <!--
        Idea & Original Design (c) Unknown Author
        SVG (c) justJanne
    -->
    <defs>
        <linearGradient id="black"><stop stop-color="#000000"/></linearGradient>
        <linearGradient id="white"><stop stop-color="#ffffff"/></linearGradient>
        <linearGradient id="red"><stop stop-color="#e50000"/></linearGradient>
    </defs>
    <path fill="url(#red)"
        d="m32 0c-18.1 0-32 13.9-32 32v416c0 18.1 13.9 32 32 32h256c18.1 0 32-13.9 32-32v-416c0-18.1-13.9-32-32-32z"/>
    <path color="#000000" fill="url(#white)"
        d="m32 10h256c12.9 0 22 9.11 22 22v288h-300l-2e-6 -288c0-12.9 9.11-22 22-22z"/>
    <path fill="url(#black)"
        d="m214 300c-1.9-0.287-3.74-1.4-4.77-2.89-0.962-1.38-19.2-34.8-19.9-36.5-2.93-6.95-3.35-14.8-1.17-22.1 1.22-4.1 2-5.51 8.22-15 2.59-3.96 4.74-7.36 4.77-7.56 0.0342-0.2-0.913-13.2-2.1-28.8-1.19-15.6-2.17-28.5-2.17-28.6 0-0.0567-0.878-0.577-1.95-1.16-4.89-2.64-8.73-5.62-12.7-9.85-7.44-7.92-12.5-18.5-14.2-29.6-0.232-1.56-1.06-8.84-1.06-9.33 0-0.162-0.318-0.231-1.07-0.231-2.43 0-4.23-1.44-5.22-4.2-0.306-0.846-3.74-10.3-7.63-21.1l-7.07-19.6-6e-3 -1.92c-6e-3 -1.82 0.0218-1.98 0.563-3.19 0.347-0.776 0.897-1.62 1.41-2.16 0.604-0.634 6.27-4.45 20-13.5l19.2-12.6 15.7-0.101 3.81 6.11 7.43 2.18c5.92 1.74 7.47 2.26 7.65 2.55 0.284 0.481 9.54 22 9.54 22.1 0 0.0753-1.83 3.23-4.08 7.01-2.24 3.78-4.15 7.04-4.25 7.23-0.148 0.303-0.0591 0.489 0.571 1.2 0.839 0.949 14.7 22.3 15.8 24.4 4.62 8.54 5.89 18.7 3.51 28.1-0.191 0.751-2.69 8.67-5.56 17.6l-5.22 16.2 2.75 42.7 0.0907 17.9c0.103 20.3 0 18.9 1.47 20.6 0.67 0.786 2.66 2.05 15.3 9.72 16.2 9.83 16.1 9.76 17.2 12.2 0.321 0.721 0.65 1.8 0.732 2.4 0.742 5.4-3.54 10.2-8.46 9.39-0.618-0.0962-1.41-0.317-1.76-0.49-0.968-0.482-29.9-18-31.1-18.9-4.21-2.91-7.37-7.38-8.71-12.3-0.805-2.97-0.813-3.1-0.88-15.3l-0.0637-11.6h-3.55l-6.6 12.1c-3.63 6.64-6.75 12.5-6.93 13-0.181 0.522-0.372 1.5-0.425 2.18-0.198 2.54-0.438 2.04 9.95 21 5.19 9.47 9.69 17.6 10 18.1 0.747 1.16 1.24 2.94 1.24 4.49 0 4.81-3.99 8.66-8.3 8.01zm-0.35-157c4.88-0.596 8.9-1.12 8.94-1.16 0.103-0.113 5.62-15.6 6.18-17.3 0.675-2.1 0.905-3.86 0.783-6.01-0.125-2.2-0.54-3.89-1.44-5.83-0.517-1.12-10.3-16.6-10.9-17.3-0.0744-0.0818-1.1 1.49-2.27 3.49l-2.14 3.64-14.6 6.68c-8.04 3.67-14.6 6.69-14.6 6.71-0.0667 0.0652 0.782 3.18 1.2 4.39 1.19 3.48 3.5 7.74 5.61 10.4 1.41 1.75 2.86 3.25 8.56 8.78 4.49 4.36 4.96 4.77 5.41 4.69 0.274-0.0476 4.49-0.574 9.36-1.17zm-7.09-2.21c-2.59-0.473-5.48-2.06-7.52-4.14-2.63-2.68-4-5.27-4.82-9.14-0.282-1.33-0.278-4.87 6e-3 -6.47 1.51-8.45 8.87-14.4 16.6-13.4 6.45 0.844 11.4 5.54 13.2 12.5 0.538 2.1 0.538 6.08 0 8.26-1.58 6.4-6.14 11.1-12 12.3-1.35 0.287-4.04 0.317-5.45 0.0601zm-9.58-34.7c7.4-3.38 13.5-6.24 13.7-6.35 0.113-0.117 1.17-1.85 2.35-3.85l2.15-3.63-0.279-0.521c-0.375-0.7-0.688-0.978-0.831-0.737-0.0616 0.103-1.07 1.79-2.23 3.75l-2.12 3.56-13.6 6.2c-7.46 3.41-13.6 6.28-13.6 6.38-0.0305 0.1 0.026 0.513 0.125 0.918 0.162 0.659 0.219 0.719 0.549 0.58 0.203-0.0855 6.42-2.92 13.8-6.3zm-11.3-2.64c0.0425-0.0756-0.134-1.19-0.393-2.48-0.349-1.74-0.53-2.33-0.702-2.29-0.127 0.0328-1.15 0.542-2.28 1.13-1.68 0.878-2.03 1.13-1.96 1.4 0.11 0.39 1.26 5.86 1.26 5.99 0 0.103 3.95-3.54 4.07-3.75zm12.1-1.63 10.6-4.88-0.0334-0.779c-0.0183-0.429-0.0616-0.81-0.0961-0.848-0.0833-0.0914-20.7 9.32-21.2 9.67-0.903 0.649-1.13 1.74-0.354 1.72 0.208-7e-3 5.16-2.21 11-4.89zm-11.7-7.75c14.2-7.53 20.2-10.8 20.7-11.3 1.49-1.41 1.83-3.6 0.879-5.75-0.28-0.635-4.14-10.4-8.58-21.6s-8.2-20.7-8.35-21c-0.398-0.745-1.03-1.21-1.79-1.32-0.618-0.0857-1.58 0.518-19.4 12.2-10.3 6.78-19 12.5-19.3 12.8-0.287 0.24-0.696 0.827-0.909 1.31-0.81 1.83-1.14 0.735 6.98 23.3 4.04 11.2 7.47 20.6 7.63 20.9 0.301 0.58 1.21 1.19 1.77 1.18 0.183-3e-3 9.34-4.79 20.3-10.6zm-17.7 7.52c-1.56-0.298-2.77-1.28-3.49-2.85-0.174-0.375-2.87-7.77-5.99-16.4-5.91-16.4-6.05-16.9-5.79-18.8 0.166-1.25 0.905-2.8 1.79-3.76 1.1-1.19 30.6-20.6 31.7-20.8 1.56-0.352 3.28 0.35 4.22 1.73 0.329 0.48 6.31 15.1 14.5 35.6 1.07 2.67 0.736 5.13-0.957 6.95-0.591 0.635-3.41 2.19-17.2 9.53-11.2 5.96-16.8 8.81-17.3 8.9-0.435 0.0737-1.12 0.0715-1.52-5e-3zm17.2-11.8c8.86-4.7 16.2-8.65 16.4-8.77 0.491-0.336 0.857-1.14 0.857-1.89 0-0.492-1.92-5.44-7.14-18.4-3.93-9.73-7.26-17.9-7.39-18.1-0.574-0.962-0.412-1.06-16.3 9.43-16.3 10.8-15.7 10.3-15.9 12.1-0.0931 0.863 0.144 1.58 5.17 15.6 2.9 8.06 5.53 15.4 5.86 16.3 0.613 1.68 1.15 2.3 1.99 2.3 0.203 3.5e-4 7.62-3.85 16.5-8.55zm12.9 7.47c5.48-2.62 9.99-4.8 10-4.84 0.0875-0.096-0.336-5.57-0.459-5.93-0.0811-0.237-2.01 0.724-10.4 5.2-5.68 3.02-10.4 5.54-10.4 5.61s0.054 0.881 0.251 1.81c0.593 2.81 0.679 3.1 0.889 3.01 0.109-0.0473 4.68-2.23 10.2-4.86zm13.9-17.7c1.24-2.33 3.91-3.89 6.39-3.75l1.1 0.0632 3.95-6.65c2.17-3.66 3.95-6.7 3.95-6.77 2e-3 -0.0667-1.86-4.45-4.14-9.74l-4.15-9.62-7.39-2.2c-4.07-1.21-7.42-2.23-7.46-2.28-0.0332-0.0423-0.82-1.33-1.75-2.85l-1.69-2.78h-3.73c-2.05 0-3.73 0.0458-3.73 0.102 0 0.154 16.3 41.4 16.7 42.3 0.345 0.753 0.773 2.18 1.24 4.14 0.101 0.426 0.211 0.774 0.245 0.774 0.0334 0 0.248-0.351 0.478-0.78zm-63.9 219c-1.2-0.419-2.19-1.06-3.04-1.96-1.99-2.11-26-29.9-26.4-30.6-1.06-1.67-1.04-1.38-1.04-18.6v-15.6h-4.94l-13.3 10.4c-7.29 5.73-13.4 10.5-13.5 10.7-0.573 0.804-0.521 0.902 8.67 16.5 4.88 8.27 9.1 15.4 9.38 15.8 1.1 1.66 1.61 4.51 1.17 6.56-0.85 4.02-4.02 6.91-7.59 6.92-0.657 2e-3 -1.48-0.0524-1.83-0.119-1.13-0.217-2.95-1.29-3.89-2.31-0.657-0.71-3.74-5.78-11.6-19.1-5.88-9.96-10.9-18.5-11.1-19.1-1.33-3.17-1.12-7.06 0.559-10.4 0.903-1.77 2.23-2.97 15.5-14 7.31-6.09 13.3-11.1 13.3-11.2 0-0.374-4.98-37-5.04-37.1-0.0361-0.0397-6.67-1.13-14.7-2.43s-15.2-2.48-15.8-2.64c-6.18-1.51-11.2-6.71-12.9-13.3-1.31-5.07-0.709-10.3 1.72-14.9 0.424-0.802 3.37-5.92 6.54-11.4 4.21-7.25 6-10.2 6.61-10.8 2.35-2.44 5.81-3.02 8.72-1.46 2.54 1.37 4.37 4.53 4.37 7.56 0 2.35-0.169 2.73-6.42 14.7-3.23 6.2-5.87 11.4-5.87 11.5 0 0.144 0.0648 0.305 0.144 0.359 0.0792 0.0537 5.85 0.754 12.8 1.56 6.98 0.803 13 1.51 13.5 1.57 0.781 0.109 0.796 0.101 1.83-0.968 6.5-6.74 16.2-9.2 24.7-6.27l1.06 0.368 0.784-0.764c2.76-2.69 16.1-16.8 16.1-17.1 0-0.157-3.44-4.25-7.64-9.09-8.15-9.4-8.38-9.71-8.81-12-0.682-3.6 1.05-7.32 4.16-8.95 1.18-0.621 1.33-0.653 2.99-0.653 2.06 0 3 0.31 4.37 1.44 1.16 0.954 18.7 21.2 19.5 22.5 2.42 3.9 2.49 9.25 0.181 13.2-0.775 1.32-1.67 2.3-12.6 13.6-5.94 6.19-11.1 11.6-11.5 12l-0.713 0.764 8.77 45-1.38 18.7c-0.758 10.3-1.38 19.2-1.38 19.8-4.9e-4 0.601 0.0893 1.32 0.199 1.6 0.11 0.278 5.36 6.45 11.7 13.7 6.3 7.27 11.7 13.6 11.9 14 1.27 2.08 1.47 5.35 0.465 7.67-1.57 3.6-5.36 5.49-8.68 4.32zm-49.1-143c-2.33-0.209-5.14-1.26-7.1-2.64-7.63-5.41-9.52-16.7-4.1-24.5 3.29-4.75 8.57-7.33 13.8-6.73 4.87 0.554 8.98 3.27 11.6 7.69 5.05 8.45 2.16 19.9-6.17 24.5-2.32 1.27-5.52 1.96-8.05 1.73z"/>
    <path fill="url(#white)"
        d="m48.9 340c-2.31 0-4.33 0.445-6.07 1.33-1.74 0.889-3.12 2.16-4.15 3.82-1.01 1.66-1.62 3.5-1.82 5.51-0.185 2-0.277 5.4-0.277 10.2v8.21c0 4.94 0.1 8.4 0.303 10.4 0.202 1.98 0.835 3.8 1.9 5.48 1.06 1.68 2.46 2.95 4.2 3.8 1.75 0.83 3.73 1.24 5.92 1.24 2.31 0 4.33-0.445 6.07-1.33 1.74-0.889 3.11-2.16 4.12-3.82 1.03-1.66 1.63-3.49 1.82-5.48 0.202-2.02 0.303-5.43 0.303-10.3v-8.21c0-4.94-0.1-8.4-0.303-10.4-0.202-1.98-0.835-3.8-1.9-5.48-1.06-1.68-2.47-2.93-4.22-3.76-1.74-0.85-3.7-1.28-5.89-1.28zm243 0c-3.17 0-5.76 0.869-7.76 2.61-1.99 1.72-3.19 3.62-3.62 5.69-0.421 2.07-0.633 5.4-0.633 9.99v14.3c0 3.3 0.1 5.78 0.303 7.44 0.202 1.64 0.708 3.21 1.52 4.71 0.809 1.5 1.99 2.77 3.54 3.79 1.57 1.01 3.25 1.51 5.03 1.51 1.5 0 2.8-0.365 3.89-1.1 1.11-0.751 2.03-1.87 2.76-3.35l0.986 3.44h6.7v-25.8h-12.5v7.29h2.15v5.69c0 2.23-0.143 3.73-0.43 4.5-0.27 0.771-0.793 1.16-1.57 1.16-0.708 0-1.18-0.336-1.42-1.01-0.236-0.692-0.354-2.11-0.354-4.27v-23c0-2.45 0.118-3.97 0.354-4.56 0.236-0.593 0.684-0.889 1.34-0.889 0.759 0 1.24 0.346 1.44 1.04 0.202 0.692 0.305 2.41 0.305 5.16v4.36h10.6v-2.07c0-3.93-0.312-6.93-0.936-8.98-0.624-2.07-1.96-3.86-4.02-5.37-2.06-1.5-4.65-2.25-7.76-2.25zm-282 1.01 7.48 30.6v17.4h9.86v-17.4l7.76-30.6h-9.79c-1.38 7.47-2.37 13.8-2.96 18.9-0.185-3.24-1.05-9.53-2.58-18.9h-9.79zm55.1 0v28.4c0 5.41 0.0853 8.97 0.254 10.7 0.169 1.68 0.715 3.28 1.64 4.8 0.927 1.52 2.33 2.76 4.2 3.71 1.87 0.948 4.03 1.42 6.47 1.42 2.21 0 4.12-0.395 5.74-1.19 1.64-0.81 2.95-1.99 3.95-3.53 0.995-1.56 1.59-3.07 1.79-4.54 0.202-1.48 0.303-4.04 0.303-7.68v-32.1h-10.6v35.4c0 2.39-0.1 3.91-0.303 4.56-0.185 0.632-0.617 0.949-1.29 0.949-0.59 0-0.985-0.286-1.19-0.859-0.185-0.593-0.279-1.94-0.279-4.03v-36h-10.6zm40.6 0-5.41 48h11l0.633-8.63h3.82l0.531 8.63h10.9l-6.09-48h-15.4zm23.3 0v48h10.6v-21.6c1.47 0 2.37 0.307 2.71 0.92 0.354 0.613 0.531 2.2 0.531 4.77v15.9h9.89v-12.7c0-3.87-0.0939-6.23-0.279-7.08-0.169-0.869-0.615-1.82-1.34-2.85-0.725-1.03-2.14-1.85-4.25-2.46 2.33-0.257 3.89-1.03 4.68-2.31 0.792-1.28 1.19-3.8 1.19-7.53 0-4.09-0.566-7.06-1.7-8.92-1.11-1.88-2.56-3.04-4.35-3.5-1.77-0.454-5.17-0.682-10.2-0.682h-7.53zm27.9 0v48h18.5v-9.6h-7.81v-10.6h6.65v-9.13h-6.65v-9.1h7.11v-9.6h-17.7zm30.6 0v48h12.3c4.28 0 7.11-0.286 8.5-0.859 1.38-0.573 2.38-1.64 3.01-3.2 0.641-1.56 0.961-3.96 0.961-7.2v-4.45c0-3.12-0.438-5.43-1.31-6.94-0.877-1.52-2.54-2.61-5.01-3.26 2.21-0.593 3.68-1.44 4.42-2.55 0.759-1.11 1.14-3.06 1.14-5.87 0-4.15-0.532-7.15-1.59-9.01-1.06-1.88-2.46-3.12-4.2-3.73-1.72-0.613-4.25-0.918-7.61-0.918h-10.6zm28.6 0v48h18.5v-9.6h-7.81v-10.6h6.65v-9.13h-6.65v-9.1h7.11v-9.6h-17.7zm21.5 0v48h10.6v-48zm14.9 0v48h8.9v-21.8l5.54 21.8h9.33v-48h-8.9v21.6l-5.97-21.6h-8.9zm-204 7.11c0.657 0 1.09 0.317 1.29 0.949 0.219 0.613 0.328 2.03 0.328 4.27v22.1c0 2.83-0.1 4.61-0.303 5.36s-0.666 1.13-1.39 1.13c-0.708 0-1.16-0.326-1.37-0.979-0.185-0.652-0.279-2.37-0.279-5.16v-22.4c0-2.47 0.143-3.95 0.43-4.45 0.303-0.514 0.735-0.77 1.29-0.77zm90.6 1.1c1.23 0 2.07 0.239 2.53 0.713 0.472 0.474 0.709 1.47 0.709 2.99v2.64c0 2.11-0.246 3.37-0.734 3.76-0.472 0.375-1.31 0.563-2.5 0.563v-10.7zm58.5 0c1.1 0.0198 1.83 0.11 2.2 0.268 0.388 0.158 0.7 0.544 0.936 1.16 0.236 0.593 0.354 1.64 0.354 3.14 0 2.85-0.143 4.58-0.43 5.19-0.287 0.593-0.953 0.889-2 0.889-0.253 0-0.605 0.01-1.06 0.0293v-10.7zm-84.4 2.52c0.539 7.98 1.08 14.7 1.62 20.1h-3.64c0.27-4.25 0.945-11 2.02-20.1zm84.4 15.6c1.58 0.0593 2.56 0.308 2.93 0.742 0.371 0.435 0.557 1.68 0.557 3.73v4.47c0 1.94-0.211 3.15-0.633 3.65-0.405 0.494-1.36 0.771-2.86 0.83v-13.4zm-122 32.6c-2.85 0-5.36 0.533-7.5 1.6-2.15 1.07-3.86 2.6-5.13 4.59-1.25 1.99-2 4.2-2.25 6.62-0.229 2.39-0.344 6.48-0.344 12.3v9.85c0 5.93 0.125 10.1 0.375 12.5 0.25 2.37 1.03 4.56 2.34 6.58 1.31 2.02 3.04 3.53 5.19 4.55 2.17 0.996 4.61 1.49 7.31 1.49 2.85 0 5.36-0.533 7.5-1.6 2.15-1.07 3.84-2.6 5.09-4.59 1.27-1.99 2.02-4.18 2.25-6.58 0.25-2.42 0.375-6.52 0.375-12.3v-9.85c0-5.93-0.125-10.1-0.375-12.5-0.25-2.37-1.03-4.56-2.34-6.58s-3.05-3.52-5.22-4.52c-2.15-1.02-4.57-1.53-7.28-1.53zm118 0c-2.85 0-5.36 0.533-7.5 1.6-2.15 1.07-3.86 2.6-5.13 4.59-1.25 1.99-2 4.2-2.25 6.62-0.229 2.39-0.344 6.48-0.344 12.3v9.85c0 5.93 0.125 10.1 0.375 12.5 0.25 2.37 1.03 4.56 2.34 6.58 1.31 2.02 3.04 3.53 5.19 4.55 2.17 0.996 4.61 1.49 7.31 1.49 2.85 0 5.36-0.533 7.5-1.6 2.15-1.07 3.84-2.6 5.09-4.59 1.27-1.99 2.02-4.18 2.25-6.58 0.25-2.42 0.375-6.52 0.375-12.3v-9.85c0-5.93-0.125-10.1-0.375-12.5-0.25-2.37-1.03-4.56-2.34-6.58s-3.05-3.52-5.22-4.52c-2.15-1.02-4.57-1.53-7.28-1.53zm-178 1.21v57.6h11.5v-38l4.85 38h8.16l4.59-38.9v38.9h11.5v-57.6h-17.2l-3 26.9-1.81-14.7c-0.563-4.69-1.09-8.77-1.59-12.2h-17zm80.9 0v57.6h11v-26.2l6.85 26.2h11.5v-57.6h-11v25.9l-7.38-25.9h-11zm34.7 0v57.6h13.2v-57.6zm16.2 0v11.5h7.78v46.1h13.2v-46.1h7.81v-11.5h-28.8zm66.7 0v57.6h13.2v-26c1.81 0 2.93 0.367 3.35 1.1 0.438 0.735 0.656 2.64 0.656 5.73v19.1h12.2v-15.2c0-4.65-0.115-7.48-0.344-8.5-0.208-1.04-0.76-2.18-1.66-3.41-0.896-1.23-2.65-2.22-5.25-2.95 2.88-0.308 4.8-1.23 5.78-2.78 0.979-1.54 1.47-4.55 1.47-9.03 0-4.91-0.698-8.48-2.09-10.7-1.38-2.25-3.17-3.65-5.38-4.2-2.19-0.545-6.39-0.818-12.6-0.818h-9.31zm34.5 0v57.6h22.8v-11.5h-9.66v-12.7h8.22v-11h-8.22v-10.9h8.78v-11.5h-21.9zm26.6 0v57.6h16.6c3.15 0 5.5-0.189 7.06-0.568 1.56-0.403 2.88-1.09 3.94-2.06 1.06-0.996 1.8-2.36 2.22-4.09 0.438-1.75 0.656-5.22 0.656-10.4v-20.2c0-5.45-0.146-9.11-0.438-11-0.292-1.87-1.02-3.57-2.19-5.09-1.17-1.52-2.88-2.61-5.13-3.27-2.23-0.664-6.52-0.996-12.9-0.996h-9.85zm-199 8.54c0.813 0 1.34 0.38 1.59 1.14 0.271 0.735 0.406 2.44 0.406 5.12v26.5c0 3.39-0.125 5.54-0.375 6.44-0.25 0.901-0.823 1.35-1.72 1.35-0.875 0-1.44-0.391-1.69-1.17-0.229-0.782-0.346-2.85-0.346-6.19v-26.9c0-2.96 0.179-4.74 0.533-5.33 0.375-0.616 0.906-0.926 1.59-0.926zm118 0c0.813 0 1.34 0.38 1.59 1.14 0.271 0.735 0.406 2.44 0.406 5.12v26.5c0 3.39-0.125 5.54-0.375 6.44-0.25 0.901-0.823 1.35-1.72 1.35-0.875 0-1.44-0.391-1.69-1.17-0.229-0.782-0.344-2.85-0.344-6.19v-26.9c0-2.96 0.179-4.74 0.533-5.33 0.375-0.616 0.906-0.926 1.59-0.926zm33.2 1.32c1.52 0 2.56 0.284 3.13 0.854 0.583 0.569 0.875 1.77 0.875 3.59v3.17c0 2.54-0.302 4.04-0.906 4.52-0.583 0.451-1.62 0.676-3.1 0.676v-12.8zm61.1 0c1.44 0 2.42 0.178 2.94 0.533 0.521 0.332 0.856 0.867 1 1.6 0.146 0.735 0.219 2.41 0.219 5.01v22.4c0 3.84-0.221 6.2-0.658 7.08-0.438 0.854-1.6 1.28-3.5 1.28v-37.9z"/>
</svg>
